M48
METRIC,LZ,000.000
;FILE_FORMAT=3:3
;TYPE=PLATED
;Layer: PTH_Through_Via
;EasyEDA v6.5.39, 2024-01-09 23:26:39
;412fee2aba674f6794ce960f83f023ec,7c1e8d740ba24e6f83eb2d53d3341807,10
;Gerber Generator version 0.2
;Holesize 1 = 0.310 mm
T01C0.310
%
G05
G90
T01
X013081Y-022603
X000686Y-022941
X-008763Y-022603
X-007112Y-027813
X-010414Y-027813
X-007112Y-024511
X-010414Y-024511
X003810Y-027686
X000508Y-027686
X003810Y-024384
X000508Y-024384
X014732Y-027686
X011430Y-027686
X014732Y-024384
X011430Y-024384
X012065Y014554
X012065Y014097
X040259Y017272
X037211Y008509
X036703Y018288
X037084Y013335
X036957Y016256
X042672Y019558
X023622Y001651
M30
