G04 Layer: TopSilkscreenLayer*
G04 EasyEDA v6.5.39, 2024-01-09 23:26:39*
G04 412fee2aba674f6794ce960f83f023ec,7c1e8d740ba24e6f83eb2d53d3341807,10*
G04 Gerber Generator version 0.2*
G04 Scale: 100 percent, Rotated: No, Reflected: No *
G04 Dimensions in millimeters *
G04 leading zeros omitted , absolute positions ,4 integer and 5 decimal *
%FSLAX45Y45*%
%MOMM*%

%ADD10C,0.2500*%
%ADD11C,0.2032*%
%ADD12C,0.1524*%
%ADD13C,0.2540*%
%ADD14C,0.2030*%
%ADD15C,0.2000*%
%ADD16C,0.0130*%

%LPD*%
D10*
X-1574800Y2805684D02*
G01*
X-1574800Y2662428D01*
X-1574800Y2805684D02*
G01*
X-1527047Y2805684D01*
X-1506728Y2798826D01*
X-1493012Y2785110D01*
X-1486154Y2771647D01*
X-1479295Y2751073D01*
X-1479295Y2717037D01*
X-1486154Y2696463D01*
X-1493012Y2683002D01*
X-1506728Y2669286D01*
X-1527047Y2662428D01*
X-1574800Y2662428D01*
X-1352550Y2757931D02*
G01*
X-1352550Y2662428D01*
X-1352550Y2737357D02*
G01*
X-1366265Y2751073D01*
X-1379728Y2757931D01*
X-1400302Y2757931D01*
X-1414018Y2751073D01*
X-1427479Y2737357D01*
X-1434337Y2717037D01*
X-1434337Y2703321D01*
X-1427479Y2683002D01*
X-1414018Y2669286D01*
X-1400302Y2662428D01*
X-1379728Y2662428D01*
X-1366265Y2669286D01*
X-1352550Y2683002D01*
X-1225804Y2757931D02*
G01*
X-1225804Y2648965D01*
X-1232407Y2628392D01*
X-1239265Y2621534D01*
X-1252981Y2614676D01*
X-1273555Y2614676D01*
X-1287018Y2621534D01*
X-1225804Y2737357D02*
G01*
X-1239265Y2751073D01*
X-1252981Y2757931D01*
X-1273555Y2757931D01*
X-1287018Y2751073D01*
X-1300734Y2737357D01*
X-1307592Y2717037D01*
X-1307592Y2703321D01*
X-1300734Y2683002D01*
X-1287018Y2669286D01*
X-1273555Y2662428D01*
X-1252981Y2662428D01*
X-1239265Y2669286D01*
X-1225804Y2683002D01*
X-1146555Y2757931D02*
G01*
X-1160271Y2751073D01*
X-1173987Y2737357D01*
X-1180592Y2717037D01*
X-1180592Y2703321D01*
X-1173987Y2683002D01*
X-1160271Y2669286D01*
X-1146555Y2662428D01*
X-1126236Y2662428D01*
X-1112520Y2669286D01*
X-1098804Y2683002D01*
X-1092200Y2703321D01*
X-1092200Y2717037D01*
X-1098804Y2737357D01*
X-1112520Y2751073D01*
X-1126236Y2757931D01*
X-1146555Y2757931D01*
X-1046987Y2757931D02*
G01*
X-1046987Y2662428D01*
X-1046987Y2717037D02*
G01*
X-1040129Y2737357D01*
X-1026668Y2751073D01*
X-1012952Y2757931D01*
X-992631Y2757931D01*
X-787907Y2805684D02*
G01*
X-842518Y2662428D01*
X-787907Y2805684D02*
G01*
X-733552Y2662428D01*
X-822197Y2710179D02*
G01*
X-753871Y2710179D01*
X-688339Y2805684D02*
G01*
X-688339Y2662428D01*
X-643381Y2757931D02*
G01*
X-643381Y2614676D01*
X-643381Y2737357D02*
G01*
X-629920Y2751073D01*
X-616204Y2757931D01*
X-595629Y2757931D01*
X-582168Y2751073D01*
X-568452Y2737357D01*
X-561594Y2717037D01*
X-561594Y2703321D01*
X-568452Y2683002D01*
X-582168Y2669286D01*
X-595629Y2662428D01*
X-616204Y2662428D01*
X-629920Y2669286D01*
X-643381Y2683002D01*
X-516636Y2805684D02*
G01*
X-516636Y2662428D01*
X-516636Y2730754D02*
G01*
X-496062Y2751073D01*
X-482600Y2757931D01*
X-462026Y2757931D01*
X-448563Y2751073D01*
X-441705Y2730754D01*
X-441705Y2662428D01*
X-314705Y2757931D02*
G01*
X-314705Y2662428D01*
X-314705Y2737357D02*
G01*
X-328421Y2751073D01*
X-342137Y2757931D01*
X-362457Y2757931D01*
X-376173Y2751073D01*
X-389889Y2737357D01*
X-396494Y2717037D01*
X-396494Y2703321D01*
X-389889Y2683002D01*
X-376173Y2669286D01*
X-362457Y2662428D01*
X-342137Y2662428D01*
X-328421Y2669286D01*
X-314705Y2683002D01*
X-1574800Y2553970D02*
G01*
X-1574800Y2410968D01*
X-1574800Y2553970D02*
G01*
X-1486154Y2553970D01*
X-1574800Y2485897D02*
G01*
X-1520189Y2485897D01*
X-1441195Y2506218D02*
G01*
X-1441195Y2438145D01*
X-1434337Y2417826D01*
X-1420621Y2410968D01*
X-1400302Y2410968D01*
X-1386586Y2417826D01*
X-1366265Y2438145D01*
X-1366265Y2506218D02*
G01*
X-1366265Y2410968D01*
X-1321054Y2506218D02*
G01*
X-1321054Y2410968D01*
X-1321054Y2479039D02*
G01*
X-1300734Y2499613D01*
X-1287018Y2506218D01*
X-1266697Y2506218D01*
X-1252981Y2499613D01*
X-1246123Y2479039D01*
X-1246123Y2410968D01*
X-1119378Y2485897D02*
G01*
X-1133094Y2499613D01*
X-1146555Y2506218D01*
X-1167129Y2506218D01*
X-1180592Y2499613D01*
X-1194307Y2485897D01*
X-1201165Y2465323D01*
X-1201165Y2451862D01*
X-1194307Y2431287D01*
X-1180592Y2417826D01*
X-1167129Y2410968D01*
X-1146555Y2410968D01*
X-1133094Y2417826D01*
X-1119378Y2431287D01*
X-1053845Y2553970D02*
G01*
X-1053845Y2438145D01*
X-1046987Y2417826D01*
X-1033526Y2410968D01*
X-1019810Y2410968D01*
X-1074420Y2506218D02*
G01*
X-1026668Y2506218D01*
X-974852Y2553970D02*
G01*
X-967994Y2547365D01*
X-961136Y2553970D01*
X-967994Y2560828D01*
X-974852Y2553970D01*
X-967994Y2506218D02*
G01*
X-967994Y2410968D01*
X-882142Y2506218D02*
G01*
X-895604Y2499613D01*
X-909320Y2485897D01*
X-916178Y2465323D01*
X-916178Y2451862D01*
X-909320Y2431287D01*
X-895604Y2417826D01*
X-882142Y2410968D01*
X-861568Y2410968D01*
X-848105Y2417826D01*
X-834389Y2431287D01*
X-827531Y2451862D01*
X-827531Y2465323D01*
X-834389Y2485897D01*
X-848105Y2499613D01*
X-861568Y2506218D01*
X-882142Y2506218D01*
X-782573Y2506218D02*
G01*
X-782573Y2410968D01*
X-782573Y2479039D02*
G01*
X-762000Y2499613D01*
X-748537Y2506218D01*
X-727963Y2506218D01*
X-714247Y2499613D01*
X-707644Y2479039D01*
X-707644Y2410968D01*
X-580644Y2506218D02*
G01*
X-580644Y2410968D01*
X-580644Y2485897D02*
G01*
X-594360Y2499613D01*
X-608076Y2506218D01*
X-628395Y2506218D01*
X-642112Y2499613D01*
X-655828Y2485897D01*
X-662431Y2465323D01*
X-662431Y2451862D01*
X-655828Y2431287D01*
X-642112Y2417826D01*
X-628395Y2410968D01*
X-608076Y2410968D01*
X-594360Y2417826D01*
X-580644Y2431287D01*
X-535686Y2553970D02*
G01*
X-535686Y2410968D01*
X-338073Y2553970D02*
G01*
X-338073Y2410968D01*
X-385826Y2553970D02*
G01*
X-290321Y2553970D01*
X-245363Y2465323D02*
G01*
X-163321Y2465323D01*
X-163321Y2479039D01*
X-170179Y2492755D01*
X-177037Y2499613D01*
X-190754Y2506218D01*
X-211073Y2506218D01*
X-224789Y2499613D01*
X-238505Y2485897D01*
X-245363Y2465323D01*
X-245363Y2451862D01*
X-238505Y2431287D01*
X-224789Y2417826D01*
X-211073Y2410968D01*
X-190754Y2410968D01*
X-177037Y2417826D01*
X-163321Y2431287D01*
X-43434Y2485897D02*
G01*
X-50292Y2499613D01*
X-70612Y2506218D01*
X-91186Y2506218D01*
X-111505Y2499613D01*
X-118363Y2485897D01*
X-111505Y2472181D01*
X-98044Y2465323D01*
X-64007Y2458720D01*
X-50292Y2451862D01*
X-43434Y2438145D01*
X-43434Y2431287D01*
X-50292Y2417826D01*
X-70612Y2410968D01*
X-91186Y2410968D01*
X-111505Y2417826D01*
X-118363Y2431287D01*
X22097Y2553970D02*
G01*
X22097Y2438145D01*
X28955Y2417826D01*
X42418Y2410968D01*
X56134Y2410968D01*
X1523Y2506218D02*
G01*
X49276Y2506218D01*
X101092Y2465323D02*
G01*
X182879Y2465323D01*
X182879Y2479039D01*
X176021Y2492755D01*
X169163Y2499613D01*
X155702Y2506218D01*
X135128Y2506218D01*
X121665Y2499613D01*
X107950Y2485897D01*
X101092Y2465323D01*
X101092Y2451862D01*
X107950Y2431287D01*
X121665Y2417826D01*
X135128Y2410968D01*
X155702Y2410968D01*
X169163Y2417826D01*
X182879Y2431287D01*
X227837Y2506218D02*
G01*
X227837Y2410968D01*
X227837Y2465323D02*
G01*
X234695Y2485897D01*
X248412Y2499613D01*
X262128Y2506218D01*
X282447Y2506218D01*
X2676143Y2030933D02*
G01*
X2670302Y2042109D01*
X2658872Y2053539D01*
X2647695Y2059381D01*
X2624836Y2059381D01*
X2613406Y2053539D01*
X2602229Y2042109D01*
X2596388Y2030933D01*
X2590800Y2013915D01*
X2590800Y1985467D01*
X2596388Y1968449D01*
X2602229Y1957019D01*
X2613406Y1945589D01*
X2624836Y1940001D01*
X2647695Y1940001D01*
X2658872Y1945589D01*
X2670302Y1957019D01*
X2676143Y1968449D01*
X2676143Y1985467D01*
X2647695Y1985467D02*
G01*
X2676143Y1985467D01*
X2713481Y2059381D02*
G01*
X2713481Y1940001D01*
X2713481Y2059381D02*
G01*
X2792984Y1940001D01*
X2792984Y2059381D02*
G01*
X2792984Y1940001D01*
X2830575Y2059381D02*
G01*
X2830575Y1940001D01*
X2830575Y2059381D02*
G01*
X2870454Y2059381D01*
X2887472Y2053539D01*
X2898647Y2042109D01*
X2904490Y2030933D01*
X2910077Y2013915D01*
X2910077Y1985467D01*
X2904490Y1968449D01*
X2898647Y1957019D01*
X2887472Y1945589D01*
X2870454Y1940001D01*
X2830575Y1940001D01*
X2679700Y1789937D02*
G01*
X2679700Y1670557D01*
X2679700Y1789937D02*
G01*
X2730754Y1789937D01*
X2747772Y1784095D01*
X2753613Y1778507D01*
X2759202Y1767078D01*
X2759202Y1755647D01*
X2753613Y1744471D01*
X2747772Y1738629D01*
X2730754Y1733042D01*
X2679700Y1733042D01*
X2719577Y1733042D02*
G01*
X2759202Y1670557D01*
X2796793Y1789937D02*
G01*
X2876295Y1670557D01*
X2876295Y1789937D02*
G01*
X2796793Y1670557D01*
X2706877Y1525981D02*
G01*
X2706877Y1406601D01*
X2667000Y1525981D02*
G01*
X2746502Y1525981D01*
X2784093Y1525981D02*
G01*
X2863595Y1406601D01*
X2863595Y1525981D02*
G01*
X2784093Y1406601D01*
X2614929Y1284681D02*
G01*
X2677413Y1284681D01*
X2643377Y1239215D01*
X2660395Y1239215D01*
X2671572Y1233373D01*
X2677413Y1227785D01*
X2683002Y1210767D01*
X2683002Y1199337D01*
X2677413Y1182319D01*
X2665984Y1170889D01*
X2648965Y1165301D01*
X2631947Y1165301D01*
X2614929Y1170889D01*
X2609088Y1176731D01*
X2603500Y1187907D01*
X2720593Y1284681D02*
G01*
X2766059Y1165301D01*
X2811525Y1284681D02*
G01*
X2766059Y1165301D01*
X2860293Y1284681D02*
G01*
X2922777Y1284681D01*
X2888741Y1239215D01*
X2905759Y1239215D01*
X2917190Y1233373D01*
X2922777Y1227785D01*
X2928620Y1210767D01*
X2928620Y1199337D01*
X2922777Y1182319D01*
X2911347Y1170889D01*
X2894329Y1165301D01*
X2877311Y1165301D01*
X2860293Y1170889D01*
X2854706Y1176731D01*
X2848863Y1187907D01*
X2667000Y1030681D02*
G01*
X2667000Y911301D01*
X2738627Y1030681D02*
G01*
X2727197Y1024839D01*
X2715768Y1013409D01*
X2710179Y1002233D01*
X2704591Y985215D01*
X2704591Y956767D01*
X2710179Y939749D01*
X2715768Y928319D01*
X2727197Y916889D01*
X2738627Y911301D01*
X2761234Y911301D01*
X2772663Y916889D01*
X2784093Y928319D01*
X2789681Y939749D01*
X2795524Y956767D01*
X2795524Y985215D01*
X2789681Y1002233D01*
X2784093Y1013409D01*
X2772663Y1024839D01*
X2761234Y1030681D01*
X2738627Y1030681D01*
X2866897Y1030681D02*
G01*
X2849879Y1024839D01*
X2838704Y1007821D01*
X2832861Y979373D01*
X2832861Y962355D01*
X2838704Y933907D01*
X2849879Y916889D01*
X2866897Y911301D01*
X2878327Y911301D01*
X2895345Y916889D01*
X2906775Y933907D01*
X2912363Y962355D01*
X2912363Y979373D01*
X2906775Y1007821D01*
X2895345Y1024839D01*
X2878327Y1030681D01*
X2866897Y1030681D01*
X2692400Y763981D02*
G01*
X2692400Y644601D01*
X2692400Y763981D02*
G01*
X2766313Y763981D01*
X2692400Y707085D02*
G01*
X2737865Y707085D01*
X2692400Y644601D02*
G01*
X2766313Y644601D01*
X2803652Y763981D02*
G01*
X2803652Y644601D01*
X2803652Y763981D02*
G01*
X2883408Y644601D01*
X2883408Y763981D02*
G01*
X2883408Y644601D01*
X-999489Y-1690115D02*
G01*
X-1054100Y-1833371D01*
X-999489Y-1690115D02*
G01*
X-945134Y-1833371D01*
X-1033526Y-1785620D02*
G01*
X-965454Y-1785620D01*
X-266700Y-1690115D02*
G01*
X-266700Y-1833371D01*
X-266700Y-1690115D02*
G01*
X-205231Y-1690115D01*
X-184912Y-1696973D01*
X-178054Y-1703831D01*
X-171195Y-1717294D01*
X-171195Y-1731010D01*
X-178054Y-1744726D01*
X-184912Y-1751584D01*
X-205231Y-1758442D01*
X-266700Y-1758442D02*
G01*
X-205231Y-1758442D01*
X-184912Y-1765045D01*
X-178054Y-1771904D01*
X-171195Y-1785620D01*
X-171195Y-1805939D01*
X-178054Y-1819655D01*
X-184912Y-1826513D01*
X-205231Y-1833371D01*
X-266700Y-1833371D01*
X1296162Y-1736852D02*
G01*
X1289304Y-1723389D01*
X1275587Y-1709673D01*
X1261871Y-1702815D01*
X1234694Y-1702815D01*
X1220978Y-1709673D01*
X1207515Y-1723389D01*
X1200657Y-1736852D01*
X1193800Y-1757426D01*
X1193800Y-1791462D01*
X1200657Y-1812036D01*
X1207515Y-1825497D01*
X1220978Y-1839213D01*
X1234694Y-1846071D01*
X1261871Y-1846071D01*
X1275587Y-1839213D01*
X1289304Y-1825497D01*
X1296162Y-1812036D01*
X1329944Y-359410D02*
G01*
X1324102Y-348234D01*
X1312671Y-336804D01*
X1301495Y-330962D01*
X1278636Y-330962D01*
X1267205Y-336804D01*
X1256029Y-348234D01*
X1250187Y-359410D01*
X1244600Y-376428D01*
X1244600Y-404876D01*
X1250187Y-421894D01*
X1256029Y-433323D01*
X1267205Y-444754D01*
X1278636Y-450342D01*
X1301495Y-450342D01*
X1312671Y-444754D01*
X1324102Y-433323D01*
X1329944Y-421894D01*
X1329944Y-404876D01*
X1301495Y-404876D02*
G01*
X1329944Y-404876D01*
X1367281Y-330962D02*
G01*
X1367281Y-450342D01*
X1367281Y-330962D02*
G01*
X1446784Y-450342D01*
X1446784Y-330962D02*
G01*
X1446784Y-450342D01*
X1484376Y-330962D02*
G01*
X1484376Y-450342D01*
X1484376Y-330962D02*
G01*
X1524254Y-330962D01*
X1541271Y-336804D01*
X1552447Y-348234D01*
X1558289Y-359410D01*
X1563878Y-376428D01*
X1563878Y-404876D01*
X1558289Y-421894D01*
X1552447Y-433323D01*
X1541271Y-444754D01*
X1524254Y-450342D01*
X1484376Y-450342D01*
X1320800Y-915162D02*
G01*
X1366265Y-1034542D01*
X1411731Y-915162D02*
G01*
X1366265Y-1034542D01*
X1500378Y-932434D02*
G01*
X1500378Y-1034542D01*
X1449323Y-983487D02*
G01*
X1551431Y-983487D01*
X2933700Y-864362D02*
G01*
X2933700Y-983742D01*
X2933700Y-864362D02*
G01*
X2984754Y-864362D01*
X3001772Y-870204D01*
X3007613Y-875792D01*
X3013202Y-887221D01*
X3013202Y-898652D01*
X3007613Y-909828D01*
X3001772Y-915670D01*
X2984754Y-921257D01*
X2933700Y-921257D01*
X2973577Y-921257D02*
G01*
X3013202Y-983742D01*
X3050793Y-938276D02*
G01*
X3118865Y-938276D01*
X3118865Y-926845D01*
X3113277Y-915670D01*
X3107690Y-909828D01*
X3096259Y-904239D01*
X3079241Y-904239D01*
X3067811Y-909828D01*
X3056381Y-921257D01*
X3050793Y-938276D01*
X3050793Y-949705D01*
X3056381Y-966723D01*
X3067811Y-978154D01*
X3079241Y-983742D01*
X3096259Y-983742D01*
X3107690Y-978154D01*
X3118865Y-966723D01*
X3218941Y-921257D02*
G01*
X3213354Y-909828D01*
X3196081Y-904239D01*
X3179063Y-904239D01*
X3162045Y-909828D01*
X3156458Y-921257D01*
X3162045Y-932687D01*
X3173475Y-938276D01*
X3201924Y-944118D01*
X3213354Y-949705D01*
X3218941Y-961136D01*
X3218941Y-966723D01*
X3213354Y-978154D01*
X3196081Y-983742D01*
X3179063Y-983742D01*
X3162045Y-978154D01*
X3156458Y-966723D01*
X3256534Y-938276D02*
G01*
X3324606Y-938276D01*
X3324606Y-926845D01*
X3319018Y-915670D01*
X3313175Y-909828D01*
X3302000Y-904239D01*
X3284727Y-904239D01*
X3273552Y-909828D01*
X3262122Y-921257D01*
X3256534Y-938276D01*
X3256534Y-949705D01*
X3262122Y-966723D01*
X3273552Y-978154D01*
X3284727Y-983742D01*
X3302000Y-983742D01*
X3313175Y-978154D01*
X3324606Y-966723D01*
X3379215Y-864362D02*
G01*
X3379215Y-961136D01*
X3384804Y-978154D01*
X3396234Y-983742D01*
X3407663Y-983742D01*
X3362197Y-904239D02*
G01*
X3401822Y-904239D01*
X3822700Y-889762D02*
G01*
X3822700Y-1009142D01*
X3822700Y-889762D02*
G01*
X3873754Y-889762D01*
X3890772Y-895604D01*
X3896613Y-901192D01*
X3902202Y-912621D01*
X3902202Y-924052D01*
X3896613Y-935228D01*
X3890772Y-941070D01*
X3873754Y-946657D01*
X3822700Y-946657D02*
G01*
X3873754Y-946657D01*
X3890772Y-952245D01*
X3896613Y-958087D01*
X3902202Y-969518D01*
X3902202Y-986536D01*
X3896613Y-997712D01*
X3890772Y-1003554D01*
X3873754Y-1009142D01*
X3822700Y-1009142D01*
X3968241Y-929639D02*
G01*
X3956811Y-935228D01*
X3945381Y-946657D01*
X3939793Y-963676D01*
X3939793Y-975105D01*
X3945381Y-992123D01*
X3956811Y-1003554D01*
X3968241Y-1009142D01*
X3985259Y-1009142D01*
X3996690Y-1003554D01*
X4007865Y-992123D01*
X4013708Y-975105D01*
X4013708Y-963676D01*
X4007865Y-946657D01*
X3996690Y-935228D01*
X3985259Y-929639D01*
X3968241Y-929639D01*
X4079493Y-929639D02*
G01*
X4068063Y-935228D01*
X4056888Y-946657D01*
X4051045Y-963676D01*
X4051045Y-975105D01*
X4056888Y-992123D01*
X4068063Y-1003554D01*
X4079493Y-1009142D01*
X4096511Y-1009142D01*
X4107941Y-1003554D01*
X4119372Y-992123D01*
X4124959Y-975105D01*
X4124959Y-963676D01*
X4119372Y-946657D01*
X4107941Y-935228D01*
X4096511Y-929639D01*
X4079493Y-929639D01*
X4179570Y-889762D02*
G01*
X4179570Y-986536D01*
X4185158Y-1003554D01*
X4196588Y-1009142D01*
X4208018Y-1009142D01*
X4162552Y-929639D02*
G01*
X4202175Y-929639D01*
X2692400Y522681D02*
G01*
X2737865Y403301D01*
X2783331Y522681D02*
G01*
X2737865Y403301D01*
X2820924Y522681D02*
G01*
X2820924Y403301D01*
X2820924Y522681D02*
G01*
X2860547Y522681D01*
X2877565Y516839D01*
X2888995Y505409D01*
X2894584Y494233D01*
X2900425Y477215D01*
X2900425Y448767D01*
X2894584Y431749D01*
X2888995Y420319D01*
X2877565Y408889D01*
X2860547Y403301D01*
X2820924Y403301D01*
X3568700Y519937D02*
G01*
X3568700Y400557D01*
X3640327Y519937D02*
G01*
X3628897Y514095D01*
X3617468Y502665D01*
X3611879Y491489D01*
X3606291Y474471D01*
X3606291Y446023D01*
X3611879Y429005D01*
X3617468Y417576D01*
X3628897Y406145D01*
X3640327Y400557D01*
X3662934Y400557D01*
X3674363Y406145D01*
X3685793Y417576D01*
X3691381Y429005D01*
X3697224Y446023D01*
X3697224Y474471D01*
X3691381Y491489D01*
X3685793Y502665D01*
X3674363Y514095D01*
X3662934Y519937D01*
X3640327Y519937D01*
X3734561Y497078D02*
G01*
X3745991Y502665D01*
X3763009Y519937D01*
X3763009Y400557D01*
X3806190Y491489D02*
G01*
X3806190Y497078D01*
X3811777Y508507D01*
X3817620Y514095D01*
X3829050Y519937D01*
X3851656Y519937D01*
X3863086Y514095D01*
X3868674Y508507D01*
X3874261Y497078D01*
X3874261Y485647D01*
X3868674Y474471D01*
X3857243Y457454D01*
X3800602Y400557D01*
X3880104Y400557D01*
X3568700Y773887D02*
G01*
X3568700Y654507D01*
X3640327Y773887D02*
G01*
X3628897Y768045D01*
X3617468Y756869D01*
X3611879Y745439D01*
X3606291Y728421D01*
X3606291Y699973D01*
X3611879Y682955D01*
X3617468Y671525D01*
X3628897Y660095D01*
X3640327Y654507D01*
X3662934Y654507D01*
X3674363Y660095D01*
X3685793Y671525D01*
X3691381Y682955D01*
X3697224Y699973D01*
X3697224Y728421D01*
X3691381Y745439D01*
X3685793Y756869D01*
X3674363Y768045D01*
X3662934Y773887D01*
X3640327Y773887D01*
X3740404Y745439D02*
G01*
X3740404Y751027D01*
X3745991Y762457D01*
X3751579Y768045D01*
X3763009Y773887D01*
X3785870Y773887D01*
X3797045Y768045D01*
X3802888Y762457D01*
X3808475Y751027D01*
X3808475Y739851D01*
X3802888Y728421D01*
X3791458Y711403D01*
X3734561Y654507D01*
X3814063Y654507D01*
X3851656Y751027D02*
G01*
X3863086Y756869D01*
X3880104Y773887D01*
X3880104Y654507D01*
X3568700Y1012444D02*
G01*
X3568700Y893063D01*
X3640327Y1012444D02*
G01*
X3628897Y1006602D01*
X3617468Y995426D01*
X3611879Y983995D01*
X3606291Y966978D01*
X3606291Y938529D01*
X3611879Y921512D01*
X3617468Y910081D01*
X3628897Y898652D01*
X3640327Y893063D01*
X3662934Y893063D01*
X3674363Y898652D01*
X3685793Y910081D01*
X3691381Y921512D01*
X3697224Y938529D01*
X3697224Y966978D01*
X3691381Y983995D01*
X3685793Y995426D01*
X3674363Y1006602D01*
X3662934Y1012444D01*
X3640327Y1012444D01*
X3740404Y983995D02*
G01*
X3740404Y989584D01*
X3745991Y1001013D01*
X3751579Y1006602D01*
X3763009Y1012444D01*
X3785870Y1012444D01*
X3797045Y1006602D01*
X3802888Y1001013D01*
X3808475Y989584D01*
X3808475Y978407D01*
X3802888Y966978D01*
X3791458Y949960D01*
X3734561Y893063D01*
X3814063Y893063D01*
X3857243Y983995D02*
G01*
X3857243Y989584D01*
X3863086Y1001013D01*
X3868674Y1006602D01*
X3880104Y1012444D01*
X3902709Y1012444D01*
X3914140Y1006602D01*
X3919727Y1001013D01*
X3925570Y989584D01*
X3925570Y978407D01*
X3919727Y966978D01*
X3908552Y949960D01*
X3851656Y893063D01*
X3931158Y893063D01*
X2735072Y2310637D02*
G01*
X2678429Y2310637D01*
X2672588Y2259329D01*
X2678429Y2265171D01*
X2695447Y2270760D01*
X2712465Y2270760D01*
X2729484Y2265171D01*
X2740913Y2253742D01*
X2746502Y2236723D01*
X2746502Y2225294D01*
X2740913Y2208276D01*
X2729484Y2196845D01*
X2712465Y2191257D01*
X2695447Y2191257D01*
X2678429Y2196845D01*
X2672588Y2202687D01*
X2667000Y2213863D01*
X2784093Y2310637D02*
G01*
X2829559Y2191257D01*
X2875025Y2310637D02*
G01*
X2829559Y2191257D01*
X-279400Y700278D02*
G01*
X-267970Y705865D01*
X-250952Y723137D01*
X-250952Y603757D01*
X-145287Y705865D02*
G01*
X-150876Y717295D01*
X-168147Y723137D01*
X-179323Y723137D01*
X-196342Y717295D01*
X-207771Y700278D01*
X-213613Y671829D01*
X-213613Y643381D01*
X-207771Y620776D01*
X-196342Y609345D01*
X-179323Y603757D01*
X-173736Y603757D01*
X-156718Y609345D01*
X-145287Y620776D01*
X-139700Y637794D01*
X-139700Y643381D01*
X-145287Y660654D01*
X-156718Y671829D01*
X-173736Y677671D01*
X-179323Y677671D01*
X-196342Y671829D01*
X-207771Y660654D01*
X-213613Y643381D01*
X-596900Y-925321D02*
G01*
X-585470Y-919734D01*
X-568452Y-902462D01*
X-568452Y-1021842D01*
X-457200Y-942339D02*
G01*
X-462787Y-959357D01*
X-474218Y-970787D01*
X-491236Y-976376D01*
X-496823Y-976376D01*
X-513842Y-970787D01*
X-525271Y-959357D01*
X-531113Y-942339D01*
X-531113Y-936752D01*
X-525271Y-919734D01*
X-513842Y-908304D01*
X-496823Y-902462D01*
X-491236Y-902462D01*
X-474218Y-908304D01*
X-462787Y-919734D01*
X-457200Y-942339D01*
X-457200Y-970787D01*
X-462787Y-999236D01*
X-474218Y-1016254D01*
X-491236Y-1021842D01*
X-502665Y-1021842D01*
X-519684Y-1016254D01*
X-525271Y-1004823D01*
X-5537200Y-4557521D02*
G01*
X-5525770Y-4551934D01*
X-5508752Y-4534662D01*
X-5508752Y-4654042D01*
X-5397500Y-4574539D02*
G01*
X-5403087Y-4591557D01*
X-5414518Y-4602987D01*
X-5431536Y-4608576D01*
X-5437123Y-4608576D01*
X-5454142Y-4602987D01*
X-5465571Y-4591557D01*
X-5471413Y-4574539D01*
X-5471413Y-4568952D01*
X-5465571Y-4551934D01*
X-5454142Y-4540504D01*
X-5437123Y-4534662D01*
X-5431536Y-4534662D01*
X-5414518Y-4540504D01*
X-5403087Y-4551934D01*
X-5397500Y-4574539D01*
X-5397500Y-4602987D01*
X-5403087Y-4631436D01*
X-5414518Y-4648454D01*
X-5431536Y-4654042D01*
X-5442965Y-4654042D01*
X-5459984Y-4648454D01*
X-5465571Y-4637023D01*
X-5562600Y-4786121D02*
G01*
X-5551170Y-4780534D01*
X-5534152Y-4763262D01*
X-5534152Y-4882642D01*
X-5422900Y-4803139D02*
G01*
X-5428487Y-4820157D01*
X-5439918Y-4831587D01*
X-5456936Y-4837176D01*
X-5462523Y-4837176D01*
X-5479542Y-4831587D01*
X-5490971Y-4820157D01*
X-5496813Y-4803139D01*
X-5496813Y-4797552D01*
X-5490971Y-4780534D01*
X-5479542Y-4769104D01*
X-5462523Y-4763262D01*
X-5456936Y-4763262D01*
X-5439918Y-4769104D01*
X-5428487Y-4780534D01*
X-5422900Y-4803139D01*
X-5422900Y-4831587D01*
X-5428487Y-4860036D01*
X-5439918Y-4877054D01*
X-5456936Y-4882642D01*
X-5468365Y-4882642D01*
X-5485384Y-4877054D01*
X-5490971Y-4865623D01*
X310387Y1367789D02*
G01*
X310387Y1373378D01*
X316229Y1384807D01*
X321818Y1390395D01*
X333247Y1396237D01*
X355854Y1396237D01*
X367284Y1390395D01*
X372871Y1384807D01*
X378713Y1373378D01*
X378713Y1361947D01*
X372871Y1350771D01*
X361695Y1333754D01*
X304800Y1276857D01*
X384302Y1276857D01*
X489965Y1396237D02*
G01*
X433323Y1396237D01*
X427481Y1344929D01*
X433323Y1350771D01*
X450342Y1356360D01*
X467360Y1356360D01*
X484378Y1350771D01*
X495807Y1339342D01*
X501395Y1322323D01*
X501395Y1310894D01*
X495807Y1293876D01*
X484378Y1282445D01*
X467360Y1276857D01*
X450342Y1276857D01*
X433323Y1282445D01*
X427481Y1288287D01*
X421894Y1299463D01*
D11*
X3810000Y2105073D02*
G01*
X3810000Y2023935D01*
X3810000Y2105073D02*
G01*
X3844772Y2105073D01*
X3856362Y2101209D01*
X3860225Y2097344D01*
X3864091Y2089617D01*
X3864091Y2078027D01*
X3860225Y2070300D01*
X3856362Y2066437D01*
X3844772Y2062571D01*
X3810000Y2062571D01*
X3908910Y2078027D02*
G01*
X3901180Y2074163D01*
X3893454Y2066437D01*
X3889590Y2054844D01*
X3889590Y2047118D01*
X3893454Y2035528D01*
X3901180Y2027798D01*
X3908910Y2023935D01*
X3920500Y2023935D01*
X3928226Y2027798D01*
X3935953Y2035528D01*
X3939816Y2047118D01*
X3939816Y2054844D01*
X3935953Y2066437D01*
X3928226Y2074163D01*
X3920500Y2078027D01*
X3908910Y2078027D01*
X3965318Y2078027D02*
G01*
X3965318Y2023935D01*
X3965318Y2054844D02*
G01*
X3969181Y2066437D01*
X3976908Y2074163D01*
X3984635Y2078027D01*
X3996227Y2078027D01*
X4033316Y2105073D02*
G01*
X4033316Y2039391D01*
X4037180Y2027798D01*
X4044909Y2023935D01*
X4052636Y2023935D01*
X4021726Y2078027D02*
G01*
X4048772Y2078027D01*
X3733800Y2219373D02*
G01*
X3733800Y2138235D01*
X3733800Y2219373D02*
G01*
X3768572Y2219373D01*
X3780162Y2215509D01*
X3784025Y2211644D01*
X3787891Y2203917D01*
X3787891Y2192327D01*
X3784025Y2184600D01*
X3780162Y2180737D01*
X3768572Y2176871D01*
X3733800Y2176871D01*
X3813390Y2192327D02*
G01*
X3813390Y2138235D01*
X3813390Y2169144D02*
G01*
X3817254Y2180737D01*
X3824980Y2188463D01*
X3832710Y2192327D01*
X3844300Y2192327D01*
X3889118Y2192327D02*
G01*
X3881391Y2188463D01*
X3873662Y2180737D01*
X3869799Y2169144D01*
X3869799Y2161418D01*
X3873662Y2149828D01*
X3881391Y2142098D01*
X3889118Y2138235D01*
X3900708Y2138235D01*
X3908435Y2142098D01*
X3916164Y2149828D01*
X3920027Y2161418D01*
X3920027Y2169144D01*
X3916164Y2180737D01*
X3908435Y2188463D01*
X3900708Y2192327D01*
X3889118Y2192327D01*
X3991889Y2192327D02*
G01*
X3991889Y2130508D01*
X3988026Y2118918D01*
X3984162Y2115055D01*
X3976436Y2111192D01*
X3964846Y2111192D01*
X3957116Y2115055D01*
X3991889Y2180737D02*
G01*
X3984162Y2188463D01*
X3976436Y2192327D01*
X3964846Y2192327D01*
X3957116Y2188463D01*
X3949390Y2180737D01*
X3945526Y2169144D01*
X3945526Y2161418D01*
X3949390Y2149828D01*
X3957116Y2142098D01*
X3964846Y2138235D01*
X3976436Y2138235D01*
X3984162Y2142098D01*
X3991889Y2149828D01*
D12*
X3986784Y1485900D02*
G01*
X4064761Y1485900D01*
X4080256Y1490979D01*
X4090670Y1501394D01*
X4095750Y1517142D01*
X4095750Y1527555D01*
X4090670Y1543050D01*
X4080256Y1553463D01*
X4064761Y1558544D01*
X3986784Y1558544D01*
X4002277Y1655318D02*
G01*
X3991863Y1649984D01*
X3986784Y1634489D01*
X3986784Y1624076D01*
X3991863Y1608581D01*
X4007611Y1598168D01*
X4033520Y1592834D01*
X4059427Y1592834D01*
X4080256Y1598168D01*
X4090670Y1608581D01*
X4095750Y1624076D01*
X4095750Y1629410D01*
X4090670Y1644904D01*
X4080256Y1655318D01*
X4064761Y1660397D01*
X4059427Y1660397D01*
X4043934Y1655318D01*
X4033520Y1644904D01*
X4028440Y1629410D01*
X4028440Y1624076D01*
X4033520Y1608581D01*
X4043934Y1598168D01*
X4059427Y1592834D01*
D13*
X-1587500Y2870200D02*
G01*
X596900Y2870200D01*
X660400Y2806700D01*
X660400Y2425700D01*
X584200Y2349500D01*
X-1587500Y2349500D01*
X-1651000Y2413000D01*
X-1651000Y2806700D01*
X-1587500Y2870200D01*
X546100Y1384300D02*
G01*
X558800Y1371600D01*
X647700Y1282700D01*
X-393700Y-914400D02*
G01*
X-381000Y-927100D01*
X-292100Y-1016000D01*
X-88900Y711200D02*
G01*
X-76200Y698500D01*
X12700Y609600D01*
X2198192Y1697093D02*
G01*
X2198192Y-1702904D01*
X-1701800Y2197100D02*
G01*
X1698198Y2197100D01*
X1698246Y-2202942D02*
G01*
X307850Y-2202942D01*
X-1701800Y-2202942D01*
X-2201806Y-1702904D02*
G01*
X-2201806Y1697093D01*
D11*
X3200400Y533400D02*
G01*
X3200400Y342900D01*
X3454400Y342900D01*
X3454400Y1104900D01*
X3200400Y1104900D01*
D14*
X3200400Y1104900D02*
G01*
X3200400Y533400D01*
D11*
X2146300Y419100D02*
G01*
X1892300Y419100D01*
X1892300Y673100D01*
X2146300Y673100D01*
X2146300Y482600D01*
D14*
X2146300Y419100D02*
G01*
X2146300Y482600D01*
D11*
X2146300Y165100D02*
G01*
X1892300Y165100D01*
X1892300Y419100D01*
X2146300Y419100D01*
X2146300Y228600D01*
D14*
X2146300Y165100D02*
G01*
X2146300Y228600D01*
D11*
X1892300Y165100D02*
G01*
X1638300Y165100D01*
X1638300Y419100D01*
X1892300Y419100D01*
X1892300Y228600D01*
D14*
X1892300Y165100D02*
G01*
X1892300Y228600D01*
D11*
X2146300Y673100D02*
G01*
X1892300Y673100D01*
X1892300Y927100D01*
X2146300Y927100D01*
X2146300Y736600D01*
D14*
X2146300Y673100D02*
G01*
X2146300Y736600D01*
D11*
X1930397Y-685800D02*
G01*
X1676397Y-685800D01*
X1676397Y-431800D01*
X1930397Y-431800D01*
X1930397Y-622300D01*
D14*
X1930397Y-685800D02*
G01*
X1930397Y-622300D01*
D11*
X1930400Y-1193800D02*
G01*
X1676400Y-1193800D01*
X1676400Y-939800D01*
X1930400Y-939800D01*
X1930400Y-1130300D01*
D14*
X1930400Y-1193800D02*
G01*
X1930400Y-1130300D01*
D13*
X3902748Y1174803D02*
G01*
X3902748Y1271691D01*
X3902748Y1877918D02*
G01*
X3902748Y1974799D01*
X3902748Y1974799D02*
G01*
X4134634Y1974799D01*
X3902748Y1174803D02*
G01*
X4134634Y1174803D01*
X4327745Y1292920D02*
G01*
X4327745Y1856681D01*
D11*
X1257297Y-2209495D02*
G01*
X1003297Y-2209495D01*
X1003297Y-1955495D01*
X1257297Y-1955495D01*
X1257297Y-2145995D01*
D14*
X1257297Y-2209495D02*
G01*
X1257297Y-2145995D01*
D11*
X-15999Y-2209495D02*
G01*
X-269999Y-2209495D01*
X-269999Y-1955495D01*
X-15999Y-1955495D01*
X-15999Y-2145995D01*
D14*
X-15999Y-2209495D02*
G01*
X-15999Y-2145995D01*
D11*
X-927097Y-2209495D02*
G01*
X-1181097Y-2209495D01*
X-1181097Y-1955495D01*
X-927097Y-1955495D01*
X-927097Y-2145995D01*
D14*
X-927097Y-2209495D02*
G01*
X-927097Y-2145995D01*
D11*
X2184400Y-1193800D02*
G01*
X1930400Y-1193800D01*
X1930400Y-939800D01*
X2184400Y-939800D01*
X2184400Y-1130300D01*
D14*
X2184400Y-1193800D02*
G01*
X2184400Y-1130300D01*
D11*
X2184394Y-431800D02*
G01*
X1930394Y-431800D01*
X1930394Y-177800D01*
X2184394Y-177800D01*
X2184394Y-368300D01*
D14*
X2184394Y-431800D02*
G01*
X2184394Y-368300D01*
D11*
X1930400Y-939800D02*
G01*
X1676400Y-939800D01*
X1676400Y-685800D01*
X1930400Y-685800D01*
X1930400Y-876300D01*
D14*
X1930400Y-939800D02*
G01*
X1930400Y-876300D01*
D11*
X1930397Y-431800D02*
G01*
X1676397Y-431800D01*
X1676397Y-177800D01*
X1930397Y-177800D01*
X1930397Y-368300D01*
D14*
X1930397Y-431800D02*
G01*
X1930397Y-368300D01*
D13*
X4083405Y2399893D02*
G01*
X4083405Y317880D01*
X3233394Y317880D01*
X3233394Y2399893D01*
X4083405Y2399893D01*
X2862300Y-634111D02*
G01*
X2862300Y-153288D01*
X3047608Y-93700D02*
G01*
X3276991Y-93700D01*
X3462299Y-153288D02*
G01*
X3462299Y-634111D01*
X3276991Y-693699D02*
G01*
X3047608Y-693699D01*
X3700500Y-646811D02*
G01*
X3700500Y-165988D01*
X3885808Y-106400D02*
G01*
X4115191Y-106400D01*
X4300499Y-165988D02*
G01*
X4300499Y-646811D01*
X4115191Y-706399D02*
G01*
X3885808Y-706399D01*
X4191381Y-2336812D02*
G01*
X4358259Y-2333764D01*
X4352416Y-1320812D01*
X4198238Y-1320812D01*
X3162300Y-1981200D02*
G01*
X3238500Y-1981200D01*
X3238500Y-1943100D01*
X3441700Y-1943100D01*
X3441700Y-1701800D01*
X3238500Y-1701800D01*
X3238500Y-1676400D01*
X3162300Y-1676400D01*
X3175000Y-1485900D02*
G01*
X3238500Y-1485900D01*
X3238500Y-1447800D01*
X3441700Y-1447800D01*
X3441700Y-1320800D01*
X3538600Y-1320812D01*
X3175000Y-2171700D02*
G01*
X3238500Y-2171700D01*
X3238500Y-2209800D01*
X3429000Y-2209800D01*
X3429000Y-2336800D01*
X3538600Y-2336812D01*
X3938292Y-1320812D02*
G01*
X3538600Y-1320812D01*
X3938292Y-2336812D02*
G01*
X3538600Y-2336812D01*
X3899232Y-1163812D02*
G01*
X4198310Y-1163812D01*
X3901772Y-2493812D02*
G01*
X4191332Y-2493812D01*
X4198310Y-1320812D02*
G01*
X4198310Y-1163812D01*
X4191332Y-2493812D02*
G01*
X4191332Y-2336812D01*
X3899232Y-1320812D02*
G01*
X3899232Y-1163812D01*
X3901772Y-2493812D02*
G01*
X3901772Y-2336812D01*
D11*
X2184394Y-685802D02*
G01*
X1930394Y-685802D01*
X1930394Y-431802D01*
X2184394Y-431802D01*
X2184394Y-622302D01*
D14*
X2184394Y-685802D02*
G01*
X2184394Y-622302D01*
D11*
X2184394Y-939797D02*
G01*
X1930394Y-939797D01*
X1930394Y-685797D01*
X2184394Y-685797D01*
X2184394Y-876297D01*
D14*
X2184394Y-939797D02*
G01*
X2184394Y-876297D01*
D11*
X1892300Y419100D02*
G01*
X1638300Y419100D01*
X1638300Y673100D01*
X1892300Y673100D01*
X1892300Y482600D01*
D14*
X1892300Y419100D02*
G01*
X1892300Y482600D01*
D11*
X1892300Y673100D02*
G01*
X1638300Y673100D01*
X1638300Y927100D01*
X1892300Y927100D01*
X1892300Y736600D01*
D14*
X1892300Y673100D02*
G01*
X1892300Y736600D01*
D11*
X-749297Y-2743200D02*
G01*
X-1003297Y-2743200D01*
X-1003297Y-2489200D01*
X-749297Y-2489200D01*
X-749297Y-2679700D01*
D14*
X-749297Y-2743200D02*
G01*
X-749297Y-2679700D01*
D11*
X342900Y-2730500D02*
G01*
X88900Y-2730500D01*
X88900Y-2476500D01*
X342900Y-2476500D01*
X342900Y-2667000D01*
D14*
X342900Y-2730500D02*
G01*
X342900Y-2667000D01*
D11*
X1435097Y-2730500D02*
G01*
X1181097Y-2730500D01*
X1181097Y-2476500D01*
X1435097Y-2476500D01*
X1435097Y-2667000D01*
D14*
X1435097Y-2730500D02*
G01*
X1435097Y-2667000D01*
D11*
X-749297Y-2158994D02*
G01*
X-1003297Y-2158994D01*
X-1003297Y-1904994D01*
X-749297Y-1904994D01*
X-749297Y-2095494D01*
D14*
X-749297Y-2158994D02*
G01*
X-749297Y-2095494D01*
D11*
X-190500Y-2158994D02*
G01*
X-444500Y-2158994D01*
X-444500Y-1904994D01*
X-190500Y-1904994D01*
X-190500Y-2095494D01*
D14*
X-190500Y-2158994D02*
G01*
X-190500Y-2095494D01*
D11*
X1435097Y-2158994D02*
G01*
X1181097Y-2158994D01*
X1181097Y-1904994D01*
X1435097Y-1904994D01*
X1435097Y-2095494D01*
D14*
X1435097Y-2158994D02*
G01*
X1435097Y-2095494D01*
D11*
X1892300Y927100D02*
G01*
X1638300Y927100D01*
X1638300Y1181100D01*
X1892300Y1181100D01*
X1892300Y990600D01*
D14*
X1892300Y927100D02*
G01*
X1892300Y990600D01*
D11*
X1892300Y1181100D02*
G01*
X1638300Y1181100D01*
X1638300Y1435100D01*
X1892300Y1435100D01*
X1892300Y1244600D01*
D14*
X1892300Y1181100D02*
G01*
X1892300Y1244600D01*
D11*
X2146294Y1180998D02*
G01*
X1892294Y1180998D01*
X1892294Y1434998D01*
X2146294Y1434998D01*
X2146294Y1244498D01*
D14*
X2146294Y1180998D02*
G01*
X2146294Y1244498D01*
D11*
X2146300Y927100D02*
G01*
X1892300Y927100D01*
X1892300Y1181100D01*
X2146300Y1181100D01*
X2146300Y990600D01*
D14*
X2146300Y927100D02*
G01*
X2146300Y990600D01*
D13*
G75*
G01*
X-1686771Y-2208573D02*
G02*
X-2213839Y-1673606I434967J955670D01*
G75*
G01*
X2205406Y-1684467D02*
G02*
X1668440Y-2215137I-957211J431565D01*
G75*
G01*
X1679758Y2204309D02*
G02*
X2209635Y1669161I-431560J-957213D01*
G75*
G01*
X-2209013Y1678661D02*
G02*
X-1667772Y2211187I957212J-431564D01*
G75*
G01
X800001Y-3D02*
G03X800001Y-3I-799998J0D01*
D15*
G75*
G01
X7696Y660400D02*
G03X7696Y660400I-45796J0D01*
G75*
G01
X-297104Y-965200D02*
G03X-297104Y-965200I-45796J0D01*
D13*
G75*
G01
X950001Y-3D02*
G03X950001Y-3I-949998J0D01*
G75*
G01
X949998Y0D02*
G03X949998Y0I-949998J0D01*
G75*
G01
X1249998Y0D02*
G03X1249998Y0I-1249998J0D01*
D15*
G75*
G01
X642696Y1333500D02*
G03X642696Y1333500I-45796J0D01*
D13*
G75*
G01
X3342310Y-393700D02*
G03X3342310Y-393700I-180010J0D01*
G75*
G01
X3027045Y-213690D02*
G03X3027045Y-213690I-44729J0D01*
G75*
G01
X3027020Y-573710D02*
G03X3027020Y-573710I-44729J0D01*
G75*
G01
X3387039Y-573710D02*
G03X3387039Y-573710I-44729J0D01*
G75*
G01
X3387039Y-213690D02*
G03X3387039Y-213690I-44729J0D01*
G75*
G01
X4180510Y-406400D02*
G03X4180510Y-406400I-180010J0D01*
G75*
G01
X3865245Y-226390D02*
G03X3865245Y-226390I-44729J0D01*
G75*
G01
X3865220Y-586410D02*
G03X3865220Y-586410I-44729J0D01*
G75*
G01
X4225239Y-586410D02*
G03X4225239Y-586410I-44729J0D01*
G75*
G01
X4225239Y-226390D02*
G03X4225239Y-226390I-44729J0D01*
M02*
