G04 Layer: BottomSolderMaskLayer*
G04 EasyEDA v6.5.39, 2024-01-09 23:26:39*
G04 412fee2aba674f6794ce960f83f023ec,7c1e8d740ba24e6f83eb2d53d3341807,10*
G04 Gerber Generator version 0.2*
G04 Scale: 100 percent, Rotated: No, Reflected: No *
G04 Dimensions in millimeters *
G04 leading zeros omitted , absolute positions ,4 integer and 5 decimal *
%FSLAX45Y45*%
%MOMM*%

%AMMACRO1*1,1,$1,$2,$3*1,1,$1,$4,$5*1,1,$1,0-$2,0-$3*1,1,$1,0-$4,0-$5*20,1,$1,$2,$3,$4,$5,0*20,1,$1,$4,$5,0-$2,0-$3,0*20,1,$1,0-$2,0-$3,0-$4,0-$5,0*20,1,$1,0-$4,0-$5,$2,$3,0*4,1,4,$2,$3,$4,$5,0-$2,0-$3,0-$4,0-$5,$2,$3,0*%
%ADD10MACRO1,0.1016X0.3175X0.635X-0.3175X0.635*%
%ADD11MACRO1,0.1016X-0.3175X-0.635X0.3175X-0.635*%
%ADD12C,1.6764*%
%ADD13R,1.6764X1.6764*%
%ADD14MACRO1,0.1016X0.7874X0.7874X0.7874X-0.7874*%
%ADD15R,1.6256X1.6256*%
%ADD16C,1.6256*%
%ADD17C,1.9016*%
%ADD18C,2.6016*%
%ADD19MACRO1,0.1016X2X2X2X-2*%
%ADD20MACRO1,0.1016X0.7875X0.7875X0.7875X-0.7875*%
%ADD21C,4.2016*%

%LPD*%
D10*
G01*
X1404620Y1308100D03*
G01*
X1313179Y1308100D03*
G01*
X1404620Y1562100D03*
G01*
X1313179Y1562100D03*
G01*
X1404620Y1054100D03*
G01*
X1313179Y1054100D03*
G01*
X1404620Y1803400D03*
G01*
X1313179Y1803400D03*
D11*
G01*
X2570479Y1231900D03*
G01*
X2661920Y1231900D03*
D12*
G01*
X3327400Y977900D03*
G01*
X3327400Y723900D03*
D13*
G01*
X3327400Y469900D03*
D14*
G01*
X2019300Y546100D03*
G01*
X2019300Y292100D03*
G01*
X1765300Y292100D03*
G01*
X2019300Y800100D03*
G01*
X1803397Y-558800D03*
G01*
X1803400Y-1066800D03*
G01*
X1130297Y-2082495D03*
G01*
X-142999Y-2082495D03*
G01*
X-1054097Y-2082495D03*
G01*
X2057400Y-1066800D03*
G01*
X2057394Y-304800D03*
G01*
X1803400Y-812800D03*
G01*
X1803397Y-304800D03*
D15*
G01*
X3073400Y2247900D03*
D16*
G01*
X3073400Y1993900D03*
G01*
X3073400Y1739900D03*
G01*
X3073400Y1485900D03*
G01*
X3073400Y1231900D03*
G01*
X3073400Y977900D03*
G01*
X3073400Y723900D03*
G01*
X3073400Y469900D03*
D17*
G01*
X2937306Y-718693D03*
G01*
X2937306Y-68706D03*
G01*
X3387293Y-718693D03*
G01*
X3387293Y-68706D03*
G01*
X3775506Y-731393D03*
G01*
X3775506Y-81406D03*
G01*
X4225493Y-731393D03*
G01*
X4225493Y-81406D03*
D18*
G01*
X3043300Y-2078812D03*
G01*
X3043300Y-1578813D03*
D17*
G01*
X4043299Y-1278813D03*
G01*
X4043299Y-2378811D03*
D14*
G01*
X2057394Y-558802D03*
G01*
X2057394Y-812797D03*
G01*
X1765300Y546100D03*
G01*
X1765300Y800100D03*
D19*
G01*
X-876297Y-2616200D03*
G01*
X215900Y-2603500D03*
G01*
X1308097Y-2603500D03*
D14*
G01*
X-876297Y-2031994D03*
G01*
X-317500Y-2031994D03*
G01*
X1308097Y-2031994D03*
G01*
X1765300Y1054100D03*
G01*
X1765300Y1308100D03*
G01*
X2019294Y1307998D03*
D20*
G01*
X2019300Y1054100D03*
D21*
G01*
X4178300Y-2743200D03*
G01*
X4178300Y2794000D03*
G01*
X-2146300Y2781300D03*
G01*
X-2159000Y-2743200D03*
M02*
