G04 Layer: TopLayer*
G04 EasyEDA v6.5.39, 2024-01-09 23:26:39*
G04 412fee2aba674f6794ce960f83f023ec,7c1e8d740ba24e6f83eb2d53d3341807,10*
G04 Gerber Generator version 0.2*
G04 Scale: 100 percent, Rotated: No, Reflected: No *
G04 Dimensions in millimeters *
G04 leading zeros omitted , absolute positions ,4 integer and 5 decimal *
%FSLAX45Y45*%
%MOMM*%

%ADD10C,0.2500*%
%ADD11C,0.3500*%
%ADD12C,4.5000*%
%ADD13C,0.5000*%
%ADD14C,0.6000*%
%ADD15C,1.0000*%
%ADD16C,2.0000*%
%ADD17C,3.0000*%
%ADD18R,1.5500X0.6000*%
%ADD19R,2.0000X1.5000*%
%ADD20C,0.7500*%
%ADD21C,1.5748*%
%ADD22R,1.5748X1.5748*%
%ADD23R,1.5240X1.5240*%
%ADD24C,1.5240*%
%ADD25C,1.8000*%
%ADD26C,2.5000*%
%ADD27R,4.0000X4.0000*%
%ADD28R,1.5750X1.5750*%
%ADD29C,4.1000*%
%ADD30C,0.6200*%

%LPD*%
D10*
X393700Y2503678D02*
G01*
X405129Y2509265D01*
X422147Y2526537D01*
X422147Y2407157D01*
X465328Y2435605D02*
G01*
X459486Y2429763D01*
X465328Y2424176D01*
X470915Y2429763D01*
X465328Y2435605D01*
X542544Y2526537D02*
G01*
X525526Y2520695D01*
X514095Y2503678D01*
X508507Y2475229D01*
X508507Y2458212D01*
X514095Y2429763D01*
X525526Y2412745D01*
X542544Y2407157D01*
X553973Y2407157D01*
X570992Y2412745D01*
X582421Y2429763D01*
X588010Y2458212D01*
X588010Y2475229D01*
X582421Y2503678D01*
X570992Y2520695D01*
X553973Y2526537D01*
X542544Y2526537D01*
D11*
X1346281Y2730494D02*
G01*
X1552023Y2730494D01*
X1264996Y2443472D01*
X1181168Y2730494D02*
G01*
X965268Y2730494D01*
X1133673Y2562095D01*
X1265095Y2443472D01*
D12*
X1930400Y-431800D02*
G01*
X2273300Y-431800D01*
X2514600Y-673100D01*
X2514600Y-1727200D01*
X2866136Y-2078736D01*
X3043174Y-2078736D01*
D13*
X3073400Y977900D02*
G01*
X3200400Y1104900D01*
X3441700Y1104900D01*
X3568700Y977900D01*
X3759200Y977900D01*
X4225543Y511555D01*
X4225543Y-81534D01*
D14*
X3073400Y723900D02*
G01*
X3124200Y723900D01*
X3251200Y850900D01*
X3721100Y850900D01*
D13*
X1765300Y292100D02*
G01*
X1892300Y419100D01*
X2527300Y419100D01*
X2959100Y850900D01*
X3124200Y850900D01*
X3251200Y977900D01*
X3327400Y977900D01*
D14*
X4257802Y1194815D02*
G01*
X4113784Y1194815D01*
X3983736Y1324863D01*
X3870197Y1324863D01*
D15*
X3073400Y1993900D02*
G01*
X2895600Y1993900D01*
X2209800Y1308100D01*
X2019300Y1308100D01*
D13*
X3073400Y977900D02*
G01*
X2895600Y977900D01*
X2844800Y927100D01*
X1917700Y927100D01*
X1892300Y901700D01*
X1892300Y673100D01*
X1765300Y546100D01*
X3327400Y469900D02*
G01*
X3187700Y330200D01*
X2743200Y330200D01*
X2578100Y165100D01*
X2362200Y165100D01*
X2019300Y292100D02*
G01*
X2540000Y292100D01*
X2844800Y596900D01*
X3200400Y596900D01*
X3327400Y723900D01*
D14*
X3073400Y1231900D02*
G01*
X3454400Y1231900D01*
X3556000Y1333500D01*
X3708400Y1333500D01*
X3073400Y1485900D02*
G01*
X3340100Y1485900D01*
X3401186Y1424812D01*
X3870248Y1424812D01*
X3073400Y1739900D02*
G01*
X3251200Y1739900D01*
X3466287Y1524812D01*
X3870248Y1524812D01*
D16*
X1803397Y-558800D02*
G01*
X1803397Y-304800D01*
X2057394Y-558815D02*
G01*
X1803397Y-558800D01*
X2057394Y-304800D02*
G01*
X2057394Y-558815D01*
X1803397Y-304800D02*
G01*
X2057394Y-304800D01*
X2057400Y-812810D02*
G01*
X2057400Y-1066800D01*
X1803412Y-812800D02*
G01*
X2057400Y-812810D01*
X1803400Y-1066800D02*
G01*
X2057400Y-1066800D01*
X1803412Y-812800D02*
G01*
X1803400Y-1066800D01*
X1803425Y-812800D02*
G01*
X1803425Y-812825D01*
X2057400Y-1066800D01*
X1803412Y-812800D02*
G01*
X2057400Y-1066787D01*
D15*
X4267200Y1955800D02*
G01*
X4267200Y1204241D01*
X4257748Y1194793D01*
D14*
X3695700Y1625600D02*
G01*
X3869463Y1625600D01*
X3870251Y1624812D01*
X3670300Y1828800D02*
G01*
X3674287Y1824812D01*
X3870251Y1824812D01*
X3870251Y1724812D02*
G01*
X4023512Y1724812D01*
X4025900Y1727200D01*
D17*
X-876297Y-2031994D02*
G01*
X-876297Y-2616200D01*
X1308097Y-2031994D02*
G01*
X1308097Y-2603500D01*
X-317500Y-2031994D02*
G01*
X215900Y-2565394D01*
X215900Y-2603500D01*
D15*
X4225493Y-81406D02*
G01*
X4225493Y-702106D01*
X4191000Y-736600D01*
X3775506Y-81406D02*
G01*
X3775506Y-694893D01*
X3733800Y-736600D01*
X3775506Y-731393D02*
G01*
X3775506Y-783793D01*
X3670300Y-889000D01*
X3107618Y-889000D01*
X2937309Y-718690D01*
X2937306Y-68706D02*
G01*
X2937306Y-667887D01*
X2988109Y-718690D01*
D17*
X-1054097Y-2082495D02*
G01*
X-876297Y-2260295D01*
X-876297Y-2616200D01*
X-142999Y-2082495D02*
G01*
X215900Y-2441394D01*
X215900Y-2603500D01*
X1130297Y-2082495D02*
G01*
X1308097Y-2260295D01*
X1308097Y-2603500D01*
D14*
X1206500Y1409700D02*
G01*
X1206500Y1455420D01*
X1206500Y1455420D02*
G01*
X1206500Y1676400D01*
X2019300Y2489200D01*
X3187700Y2489200D01*
X3352800Y2324100D01*
X3352800Y1879600D01*
X3213100Y1739900D01*
X3073400Y1739900D01*
D18*
G01*
X3870248Y1324792D03*
G01*
X3870248Y1424818D03*
G01*
X3870248Y1524817D03*
G01*
X3870248Y1624817D03*
G01*
X3870248Y1724817D03*
G01*
X3870248Y1824817D03*
D19*
G01*
X4257751Y1954789D03*
G01*
X4257751Y1194795D03*
D20*
G75*
G01
X1193800Y2730500D02*
G03X1193800Y2730500I-12700J0D01*
G75*
G01
X1358900Y2730500D02*
G03X1358900Y2730500I-12700J0D01*
D21*
G01*
X3327400Y977900D03*
G01*
X3327400Y723900D03*
D22*
G01*
X3327400Y469900D03*
G01*
X2019300Y546100D03*
G01*
X2019300Y292100D03*
G01*
X1765300Y292100D03*
G01*
X2019300Y800100D03*
G01*
X1803397Y-558800D03*
G01*
X1803400Y-1066800D03*
G01*
X1130300Y-2082495D03*
G01*
X-143002Y-2082495D03*
G01*
X-1054100Y-2082495D03*
G01*
X2057400Y-1066800D03*
G01*
X2057394Y-304800D03*
G01*
X1803412Y-812800D03*
G01*
X1803397Y-304800D03*
D23*
G01*
X3073400Y2247900D03*
D24*
G01*
X3073400Y1993900D03*
G01*
X3073400Y1739900D03*
G01*
X3073400Y1485900D03*
G01*
X3073400Y1231900D03*
G01*
X3073400Y977900D03*
G01*
X3073400Y723900D03*
G01*
X3073400Y469900D03*
D25*
G01*
X2937306Y-718693D03*
G01*
X2937306Y-68706D03*
G01*
X3387293Y-718693D03*
G01*
X3387293Y-68706D03*
G01*
X3775506Y-731393D03*
G01*
X3775506Y-81406D03*
G01*
X4225493Y-731393D03*
G01*
X4225493Y-81406D03*
D26*
G01*
X3043300Y-2078812D03*
G01*
X3043300Y-1578813D03*
D25*
G01*
X4043299Y-1278813D03*
G01*
X4043299Y-2378811D03*
D22*
G01*
X2057394Y-558815D03*
G01*
X2057400Y-812810D03*
G01*
X1765300Y546100D03*
G01*
X1765300Y800100D03*
D27*
G01*
X-876300Y-2616200D03*
G01*
X215900Y-2603500D03*
G01*
X1308100Y-2603500D03*
D22*
G01*
X-876300Y-2032000D03*
G01*
X-317500Y-2032000D03*
G01*
X1308100Y-2032000D03*
G01*
X1765300Y1054100D03*
G01*
X1765300Y1308100D03*
G01*
X2019300Y1307998D03*
D28*
G01*
X2019300Y1054100D03*
D29*
G01*
X4178300Y-2743200D03*
G01*
X4178300Y2794000D03*
G01*
X-2146300Y2781300D03*
G01*
X-2159000Y-2743200D03*
D30*
G01*
X1308100Y-2260295D03*
G01*
X68554Y-2294051D03*
G01*
X-876300Y-2260295D03*
G01*
X-711200Y-2781300D03*
G01*
X-1041400Y-2781300D03*
G01*
X-711200Y-2451100D03*
G01*
X-1041400Y-2451100D03*
G01*
X381000Y-2768600D03*
G01*
X50800Y-2768600D03*
G01*
X381000Y-2438400D03*
G01*
X50800Y-2438400D03*
G01*
X1473200Y-2768600D03*
G01*
X1143000Y-2768600D03*
G01*
X1473200Y-2438400D03*
G01*
X1143000Y-2438400D03*
G01*
X1206500Y1455420D03*
G01*
X1206500Y1409700D03*
G01*
X4025900Y1727200D03*
G01*
X3721100Y850900D03*
G01*
X3670300Y1828800D03*
G01*
X3708400Y1333500D03*
G01*
X3695700Y1625600D03*
G01*
X4267200Y1955800D03*
G01*
X2362200Y165100D03*
M02*
