G04 Layer: InnerLayer2*
G04 EasyEDA v6.5.39, 2024-01-10 12:04:11*
G04 8066753d26f04e3aa7ec2003dc8d02ef,7c1e8d740ba24e6f83eb2d53d3341807,10*
G04 Gerber Generator version 0.2*
G04 Scale: 100 percent, Rotated: No, Reflected: No *
G04 Dimensions in millimeters *
G04 leading zeros omitted , absolute positions ,4 integer and 5 decimal *
%FSLAX45Y45*%
%MOMM*%

%ADD10C,1.5000*%
%ADD11C,1.5748*%
%ADD12O,1.5748X1.5748*%
%ADD13R,1.5748X1.5748*%
%ADD14R,4.0000X4.0000*%
%ADD15C,2.7000*%
%ADD16C,1.7000*%
%ADD17C,4.1000*%
%ADD18C,0.6096*%
%ADD19C,0.6100*%
%ADD20C,0.6200*%
%ADD21C,1.5700*%
%ADD22C,0.0180*%

%LPD*%
G36*
X-2162962Y-839317D02*
G01*
X-2167128Y-838860D01*
X-2170785Y-836726D01*
X-2173224Y-833323D01*
X-2174087Y-829208D01*
X-2174087Y-558698D01*
X-2173122Y-554431D01*
X-2170430Y-550926D01*
X-2166518Y-548894D01*
X-2162149Y-548741D01*
X-2158085Y-550418D01*
X-2149043Y-556818D01*
X-2142998Y-559612D01*
X-2140153Y-561644D01*
X-2138121Y-564540D01*
X-2137206Y-567944D01*
X-2137511Y-571449D01*
X-2138273Y-574395D01*
X-2139137Y-584200D01*
X-2138273Y-594004D01*
X-2135733Y-603453D01*
X-2131618Y-612394D01*
X-2125980Y-620420D01*
X-2119020Y-627380D01*
X-2110994Y-633018D01*
X-2102053Y-637133D01*
X-2092604Y-639673D01*
X-2082800Y-640537D01*
X-2072995Y-639673D01*
X-2063546Y-637133D01*
X-2054606Y-633018D01*
X-2046579Y-627380D01*
X-2039620Y-620420D01*
X-2033981Y-612394D01*
X-2029866Y-603453D01*
X-2027326Y-594004D01*
X-2026462Y-584200D01*
X-2027326Y-574395D01*
X-2029866Y-564946D01*
X-2033981Y-556006D01*
X-2039620Y-547979D01*
X-2046579Y-541020D01*
X-2054606Y-535381D01*
X-2060702Y-532587D01*
X-2063546Y-530555D01*
X-2065578Y-527659D01*
X-2066493Y-524256D01*
X-2066188Y-520750D01*
X-2065426Y-517804D01*
X-2064562Y-508050D01*
X-2063394Y-504139D01*
X-2060752Y-500989D01*
X-2057044Y-499109D01*
X-2050846Y-497433D01*
X-2041906Y-493318D01*
X-2033879Y-487680D01*
X-2026920Y-480720D01*
X-2021281Y-472693D01*
X-2017166Y-463753D01*
X-2014626Y-454304D01*
X-2013762Y-444500D01*
X-2014626Y-434695D01*
X-2017166Y-425246D01*
X-2021281Y-416306D01*
X-2026920Y-408279D01*
X-2033879Y-401320D01*
X-2041906Y-395681D01*
X-2050846Y-391566D01*
X-2060295Y-389026D01*
X-2070100Y-388162D01*
X-2079904Y-389026D01*
X-2089353Y-391566D01*
X-2098294Y-395681D01*
X-2106320Y-401320D01*
X-2113280Y-408279D01*
X-2118918Y-416306D01*
X-2123033Y-425246D01*
X-2125573Y-434695D01*
X-2126437Y-444449D01*
X-2127605Y-448411D01*
X-2130247Y-451510D01*
X-2133955Y-453390D01*
X-2140153Y-455066D01*
X-2149043Y-459181D01*
X-2158085Y-465582D01*
X-2162149Y-467258D01*
X-2166518Y-467106D01*
X-2170430Y-465074D01*
X-2173122Y-461568D01*
X-2174087Y-457301D01*
X-2174087Y1688490D01*
X-2173122Y1692859D01*
X-2164283Y1711350D01*
X-2149398Y1739341D01*
X-2146604Y1742643D01*
X-2142693Y1744472D01*
X-2138426Y1744522D01*
X-2134463Y1742795D01*
X-2131568Y1739595D01*
X-2130298Y1735480D01*
X-2128723Y1718564D01*
X-2124913Y1697888D01*
X-2119274Y1677670D01*
X-2111756Y1658010D01*
X-2102510Y1639112D01*
X-2091639Y1621180D01*
X-2079091Y1604264D01*
X-2065121Y1588617D01*
X-2049729Y1574241D01*
X-2033168Y1561338D01*
X-2015439Y1550009D01*
X-1996795Y1540357D01*
X-1977339Y1532432D01*
X-1957222Y1526286D01*
X-1936648Y1522018D01*
X-1915769Y1519631D01*
X-1894738Y1519174D01*
X-1873757Y1520596D01*
X-1853031Y1523949D01*
X-1832660Y1529130D01*
X-1812848Y1536192D01*
X-1793748Y1544980D01*
X-1775561Y1555496D01*
X-1758391Y1567637D01*
X-1742389Y1581251D01*
X-1727707Y1596288D01*
X-1714449Y1612595D01*
X-1702714Y1630019D01*
X-1692605Y1648460D01*
X-1684223Y1667764D01*
X-1677670Y1687677D01*
X-1672894Y1708200D01*
X-1670050Y1728978D01*
X-1669084Y1750009D01*
X-1670050Y1770989D01*
X-1672894Y1791817D01*
X-1677670Y1812289D01*
X-1684223Y1832254D01*
X-1692605Y1851507D01*
X-1702714Y1869948D01*
X-1714449Y1887423D01*
X-1727707Y1903730D01*
X-1742389Y1918766D01*
X-1758391Y1932381D01*
X-1775561Y1944522D01*
X-1793748Y1954987D01*
X-1812848Y1963826D01*
X-1832660Y1970836D01*
X-1853031Y1976069D01*
X-1873757Y1979422D01*
X-1894738Y1980844D01*
X-1915769Y1980336D01*
X-1936648Y1977948D01*
X-1945081Y1976221D01*
X-1949399Y1976272D01*
X-1953310Y1978101D01*
X-1956104Y1981352D01*
X-1957273Y1985518D01*
X-1956612Y1989785D01*
X-1954275Y1993392D01*
X-1918919Y2025446D01*
X-1884527Y2053793D01*
X-1848967Y2080666D01*
X-1812239Y2105914D01*
X-1774494Y2129586D01*
X-1735734Y2151583D01*
X-1696008Y2171852D01*
X-1693113Y2173173D01*
X-1688896Y2174087D01*
X1688490Y2174087D01*
X1692859Y2173122D01*
X1710994Y2164435D01*
X1750009Y2143709D01*
X1788109Y2121306D01*
X1825193Y2097278D01*
X1861210Y2071674D01*
X1896059Y2044547D01*
X1929739Y2015947D01*
X1953615Y1993849D01*
X1956054Y1990343D01*
X1956866Y1986127D01*
X1955850Y1981962D01*
X1953209Y1978558D01*
X1949399Y1976577D01*
X1945081Y1976374D01*
X1926234Y1979422D01*
X1905254Y1980844D01*
X1884222Y1980336D01*
X1863343Y1977948D01*
X1842770Y1973681D01*
X1822653Y1967585D01*
X1803196Y1959610D01*
X1784553Y1949957D01*
X1766824Y1938629D01*
X1750263Y1925726D01*
X1734870Y1911400D01*
X1720900Y1895703D01*
X1708353Y1878838D01*
X1697482Y1860854D01*
X1688236Y1842007D01*
X1680718Y1822348D01*
X1675079Y1802130D01*
X1671269Y1781454D01*
X1669338Y1760524D01*
X1669338Y1739493D01*
X1671269Y1718564D01*
X1675079Y1697888D01*
X1680718Y1677670D01*
X1688236Y1658010D01*
X1697482Y1639112D01*
X1708353Y1621180D01*
X1720900Y1604264D01*
X1734870Y1588617D01*
X1750263Y1574241D01*
X1766824Y1561338D01*
X1784553Y1550009D01*
X1803196Y1540357D01*
X1822653Y1532432D01*
X1842770Y1526286D01*
X1863343Y1522018D01*
X1884222Y1519631D01*
X1905254Y1519174D01*
X1926234Y1520596D01*
X1946960Y1523949D01*
X1967331Y1529130D01*
X1987143Y1536192D01*
X2006244Y1544980D01*
X2024430Y1555496D01*
X2041601Y1567637D01*
X2057603Y1581251D01*
X2072284Y1596288D01*
X2085543Y1612595D01*
X2097278Y1630019D01*
X2107387Y1648460D01*
X2115769Y1667764D01*
X2122322Y1687677D01*
X2127097Y1708200D01*
X2129942Y1728978D01*
X2130247Y1735429D01*
X2131364Y1739696D01*
X2134209Y1743049D01*
X2138222Y1744929D01*
X2142591Y1744929D01*
X2146554Y1743049D01*
X2149398Y1739646D01*
X2169160Y1701495D01*
X2173122Y1692960D01*
X2174087Y1688693D01*
X2174087Y-165100D01*
X2173325Y-168960D01*
X2171192Y-172212D01*
X2167940Y-174447D01*
X2164080Y-175260D01*
X2067407Y-176580D01*
X2063394Y-175818D01*
X2060041Y-173583D01*
X2057806Y-170129D01*
X2057146Y-166116D01*
X2058060Y-162153D01*
X2059533Y-158953D01*
X2062073Y-149504D01*
X2062937Y-139700D01*
X2062073Y-129895D01*
X2059533Y-120446D01*
X2055418Y-111506D01*
X2049780Y-103479D01*
X2042820Y-96520D01*
X2034793Y-90881D01*
X2025853Y-86766D01*
X2016404Y-84226D01*
X2006600Y-83362D01*
X1996795Y-84226D01*
X1987346Y-86766D01*
X1978406Y-90881D01*
X1970379Y-96520D01*
X1963420Y-103479D01*
X1957781Y-111506D01*
X1953666Y-120446D01*
X1951126Y-129895D01*
X1950262Y-139700D01*
X1951126Y-149504D01*
X1953666Y-158953D01*
X1955901Y-163830D01*
X1956866Y-167741D01*
X1956206Y-171704D01*
X1954072Y-175107D01*
X1950770Y-177444D01*
X1946859Y-178257D01*
X1926793Y-178562D01*
X1922780Y-177800D01*
X1919427Y-175514D01*
X1917192Y-172110D01*
X1916531Y-168046D01*
X1917446Y-164084D01*
X1919833Y-158953D01*
X1922373Y-149504D01*
X1923237Y-139700D01*
X1922373Y-129895D01*
X1919833Y-120446D01*
X1915718Y-111506D01*
X1910080Y-103479D01*
X1903120Y-96520D01*
X1895093Y-90881D01*
X1886153Y-86766D01*
X1876704Y-84226D01*
X1866900Y-83362D01*
X1857095Y-84226D01*
X1847646Y-86766D01*
X1838706Y-90881D01*
X1830679Y-96520D01*
X1823720Y-103479D01*
X1818081Y-111506D01*
X1813966Y-120446D01*
X1811426Y-129895D01*
X1810562Y-139700D01*
X1811426Y-149504D01*
X1813966Y-158953D01*
X1817116Y-165760D01*
X1818030Y-169672D01*
X1817420Y-173634D01*
X1815287Y-177038D01*
X1811985Y-179374D01*
X1808022Y-180187D01*
X1526794Y-184099D01*
X1524101Y-183794D01*
X1521561Y-182727D01*
X1131468Y43789D01*
X1128979Y44450D01*
X369316Y44450D01*
X367690Y43942D01*
X157073Y-132689D01*
X153619Y-134569D01*
X149707Y-135026D01*
X139700Y-134162D01*
X129895Y-135026D01*
X120446Y-137566D01*
X111506Y-141681D01*
X103479Y-147320D01*
X96520Y-154279D01*
X90881Y-162306D01*
X86766Y-171246D01*
X84226Y-180695D01*
X83312Y-190652D01*
X82245Y-194462D01*
X79756Y-197561D01*
X-22555Y-283362D01*
X-25603Y-285140D01*
X-29108Y-285750D01*
X-383032Y-285750D01*
X-386943Y-284988D01*
X-390194Y-282752D01*
X-392430Y-279501D01*
X-393192Y-275590D01*
X-393192Y-14935D01*
X-392480Y-11226D01*
X-390448Y-7975D01*
X-386080Y-3352D01*
X-383082Y1473D01*
X-381152Y6959D01*
X-380492Y13004D01*
X-380492Y52933D01*
X-379425Y57404D01*
X-376682Y62991D01*
X-372465Y75488D01*
X-369874Y88442D01*
X-369011Y101600D01*
X-369874Y114757D01*
X-372465Y127711D01*
X-376682Y140208D01*
X-382524Y152044D01*
X-389839Y163017D01*
X-398576Y172923D01*
X-408482Y181660D01*
X-417322Y187553D01*
X-418896Y188823D01*
X-428294Y198272D01*
X-430530Y201574D01*
X-431292Y205435D01*
X-431292Y609295D01*
X-431952Y615340D01*
X-433882Y620826D01*
X-436981Y625754D01*
X-439064Y628142D01*
X-451358Y640435D01*
X-615645Y817321D01*
X-620268Y821334D01*
X-625906Y824382D01*
X-729691Y865886D01*
X-733044Y868070D01*
X-735279Y871372D01*
X-736092Y875334D01*
X-736092Y909726D01*
X-735736Y912418D01*
X-732739Y923290D01*
X-731875Y932992D01*
X-732739Y942746D01*
X-735736Y953617D01*
X-736092Y956310D01*
X-736092Y1231595D01*
X-736752Y1237640D01*
X-738682Y1243126D01*
X-741781Y1248054D01*
X-743864Y1250442D01*
X-768858Y1275435D01*
X-773633Y1279245D01*
X-778865Y1281734D01*
X-784504Y1283004D01*
X-787704Y1283208D01*
X-952195Y1283208D01*
X-958240Y1282547D01*
X-963726Y1280617D01*
X-968654Y1277518D01*
X-971042Y1275435D01*
X-996035Y1250442D01*
X-999845Y1245666D01*
X-1002334Y1240434D01*
X-1003604Y1234795D01*
X-1003808Y1231595D01*
X-1003808Y962710D01*
X-1004620Y958697D01*
X-1007008Y955294D01*
X-1010513Y953160D01*
X-1014577Y952550D01*
X-1018540Y953617D01*
X-1020216Y954481D01*
X-1029411Y957275D01*
X-1038961Y958545D01*
X-1048613Y958087D01*
X-1058062Y956056D01*
X-1067003Y952500D01*
X-1074775Y947724D01*
X-1078433Y946353D01*
X-1082344Y946454D01*
X-1085900Y948029D01*
X-1089406Y950518D01*
X-1098346Y954633D01*
X-1107795Y957173D01*
X-1117600Y958037D01*
X-1127404Y957173D01*
X-1136853Y954633D01*
X-1145794Y950518D01*
X-1153820Y944880D01*
X-1160780Y937920D01*
X-1166418Y929894D01*
X-1170533Y920953D01*
X-1173073Y911504D01*
X-1173937Y901700D01*
X-1173073Y891895D01*
X-1170533Y882446D01*
X-1166418Y873506D01*
X-1160780Y865479D01*
X-1153820Y858519D01*
X-1145794Y852881D01*
X-1136853Y848766D01*
X-1127404Y846226D01*
X-1117600Y845362D01*
X-1107795Y846226D01*
X-1098346Y848766D01*
X-1089406Y852881D01*
X-1085900Y855370D01*
X-1082344Y856945D01*
X-1078433Y857046D01*
X-1074775Y855675D01*
X-1067003Y850900D01*
X-1058062Y847344D01*
X-1048613Y845312D01*
X-1038961Y844854D01*
X-1029411Y846124D01*
X-1020216Y848918D01*
X-1018540Y849782D01*
X-1014577Y850849D01*
X-1010513Y850239D01*
X-1007008Y848106D01*
X-1004620Y844702D01*
X-1003808Y840689D01*
X-1003808Y635304D01*
X-1003147Y629259D01*
X-1001217Y623773D01*
X-998118Y618845D01*
X-996035Y616458D01*
X-981405Y601827D01*
X-979169Y598525D01*
X-978408Y594664D01*
X-978408Y-275590D01*
X-979169Y-279501D01*
X-981405Y-282752D01*
X-984656Y-284988D01*
X-988568Y-285750D01*
X-1116431Y-285750D01*
X-1118666Y-286258D01*
X-1128014Y-290982D01*
X-1131925Y-291998D01*
X-1135888Y-291490D01*
X-1139342Y-289458D01*
X-1141730Y-286207D01*
X-1142695Y-282295D01*
X-1142085Y-278333D01*
X-1139952Y-274929D01*
X-1135380Y-270052D01*
X-1132382Y-265226D01*
X-1130452Y-259740D01*
X-1129792Y-253695D01*
X-1129893Y90881D01*
X-1131112Y96875D01*
X-1133500Y102158D01*
X-1137361Y107238D01*
X-1415999Y398475D01*
X-1420876Y402590D01*
X-1426006Y405180D01*
X-1431848Y406654D01*
X-1435455Y406908D01*
X-1460246Y406908D01*
X-1466342Y406247D01*
X-1471777Y404317D01*
X-1476705Y401218D01*
X-1922830Y-32004D01*
X-1926691Y-36626D01*
X-1929282Y-41808D01*
X-1930654Y-47447D01*
X-1930907Y-51104D01*
X-1930907Y-101295D01*
X-1930247Y-107340D01*
X-1928317Y-112826D01*
X-1925218Y-117754D01*
X-1923135Y-120142D01*
X-1555445Y-487832D01*
X-1552295Y-491337D01*
X-1551076Y-495249D01*
X-1551533Y-499262D01*
X-1553464Y-502767D01*
X-1556664Y-505307D01*
X-1625803Y-539851D01*
X-2012391Y-756107D01*
X-2015947Y-757275D01*
X-2019706Y-757072D01*
X-2023160Y-755548D01*
X-2029206Y-751281D01*
X-2038146Y-747166D01*
X-2047595Y-744626D01*
X-2057400Y-743762D01*
X-2067204Y-744626D01*
X-2076653Y-747166D01*
X-2085593Y-751281D01*
X-2093620Y-756920D01*
X-2100580Y-763879D01*
X-2106218Y-771906D01*
X-2110333Y-780846D01*
X-2112873Y-790295D01*
X-2113737Y-800100D01*
X-2113280Y-805637D01*
X-2113686Y-809498D01*
X-2115464Y-812901D01*
X-2118410Y-815390D01*
X-2158949Y-838098D01*
G37*

%LPC*%
G36*
X-2057400Y-5537D02*
G01*
X-2047595Y-4673D01*
X-2038146Y-2133D01*
X-2029206Y1981D01*
X-2021179Y7620D01*
X-2014220Y14579D01*
X-2008581Y22606D01*
X-2004466Y31546D01*
X-2001926Y40995D01*
X-2001062Y50800D01*
X-2001926Y60604D01*
X-2004466Y70053D01*
X-2008581Y78994D01*
X-2014220Y87020D01*
X-2021636Y94437D01*
X-2023821Y97688D01*
X-2024583Y101600D01*
X-2023821Y105511D01*
X-2021636Y108762D01*
X-2014220Y116179D01*
X-2008581Y124206D01*
X-2004466Y133146D01*
X-2001926Y142595D01*
X-2001062Y152400D01*
X-2001926Y162204D01*
X-2004466Y171653D01*
X-2008581Y180594D01*
X-2011476Y184658D01*
X-2013102Y188468D01*
X-2013102Y192532D01*
X-2011476Y196342D01*
X-2008581Y200406D01*
X-2004466Y209346D01*
X-2001926Y218795D01*
X-2001062Y228600D01*
X-2001926Y238404D01*
X-2004466Y247853D01*
X-2008581Y256794D01*
X-2014220Y264820D01*
X-2023922Y274624D01*
X-2025345Y278333D01*
X-2025294Y282295D01*
X-2023668Y285902D01*
X-2021281Y289306D01*
X-2017166Y298246D01*
X-2014626Y307695D01*
X-2013762Y317500D01*
X-2014626Y327304D01*
X-2017166Y336753D01*
X-2021281Y345694D01*
X-2026920Y353720D01*
X-2033879Y360680D01*
X-2041906Y366318D01*
X-2050846Y370433D01*
X-2060295Y372973D01*
X-2070100Y373837D01*
X-2079904Y372973D01*
X-2089353Y370433D01*
X-2098294Y366318D01*
X-2106320Y360680D01*
X-2113280Y353720D01*
X-2118918Y345694D01*
X-2123033Y336753D01*
X-2125573Y327304D01*
X-2126437Y317500D01*
X-2125573Y307695D01*
X-2123033Y298246D01*
X-2118918Y289306D01*
X-2113280Y281279D01*
X-2103577Y271475D01*
X-2102154Y267766D01*
X-2102205Y263804D01*
X-2103831Y260197D01*
X-2106218Y256794D01*
X-2110333Y247853D01*
X-2112873Y238404D01*
X-2113737Y228600D01*
X-2112873Y218795D01*
X-2110333Y209346D01*
X-2106218Y200406D01*
X-2103323Y196342D01*
X-2101697Y192532D01*
X-2101697Y188468D01*
X-2103323Y184658D01*
X-2106218Y180594D01*
X-2110333Y171653D01*
X-2112873Y162204D01*
X-2113737Y152400D01*
X-2112873Y142595D01*
X-2110333Y133146D01*
X-2106218Y124206D01*
X-2100580Y116179D01*
X-2093163Y108762D01*
X-2090978Y105511D01*
X-2090216Y101600D01*
X-2090978Y97688D01*
X-2093163Y94437D01*
X-2100580Y87020D01*
X-2106218Y78994D01*
X-2110333Y70053D01*
X-2112873Y60604D01*
X-2113737Y50800D01*
X-2112873Y40995D01*
X-2110333Y31546D01*
X-2106218Y22606D01*
X-2100580Y14579D01*
X-2093620Y7620D01*
X-2085593Y1981D01*
X-2076653Y-2133D01*
X-2067204Y-4673D01*
G37*
G36*
X1727200Y19862D02*
G01*
X1737004Y20726D01*
X1746453Y23266D01*
X1755393Y27381D01*
X1763420Y33020D01*
X1770380Y39979D01*
X1776018Y48006D01*
X1780133Y56946D01*
X1782673Y66395D01*
X1783537Y76200D01*
X1782673Y86004D01*
X1780133Y95453D01*
X1776018Y104394D01*
X1770380Y112420D01*
X1763420Y119380D01*
X1755393Y125018D01*
X1746453Y129133D01*
X1737004Y131673D01*
X1727200Y132537D01*
X1717395Y131673D01*
X1707946Y129133D01*
X1699006Y125018D01*
X1690979Y119380D01*
X1684020Y112420D01*
X1678381Y104394D01*
X1674266Y95453D01*
X1671726Y86004D01*
X1670862Y76200D01*
X1671726Y66395D01*
X1674266Y56946D01*
X1678381Y48006D01*
X1684020Y39979D01*
X1690979Y33020D01*
X1699006Y27381D01*
X1707946Y23266D01*
X1717395Y20726D01*
G37*
G36*
X-114300Y57962D02*
G01*
X-104495Y58826D01*
X-95046Y61366D01*
X-86106Y65481D01*
X-78079Y71120D01*
X-71120Y78079D01*
X-65481Y86106D01*
X-61366Y95046D01*
X-58826Y104495D01*
X-57962Y114300D01*
X-58826Y124104D01*
X-61366Y133553D01*
X-65481Y142494D01*
X-71120Y150520D01*
X-78079Y157480D01*
X-86106Y163118D01*
X-95046Y167233D01*
X-104495Y169773D01*
X-114300Y170637D01*
X-124104Y169773D01*
X-133553Y167233D01*
X-142494Y163118D01*
X-150520Y157480D01*
X-157480Y150520D01*
X-163118Y142494D01*
X-167233Y133553D01*
X-169773Y124104D01*
X-170637Y114300D01*
X-169773Y104495D01*
X-167233Y95046D01*
X-163118Y86106D01*
X-157480Y78079D01*
X-150520Y71120D01*
X-142494Y65481D01*
X-133553Y61366D01*
X-124104Y58826D01*
G37*
G36*
X1587500Y146862D02*
G01*
X1597304Y147726D01*
X1606753Y150266D01*
X1615694Y154381D01*
X1623720Y160020D01*
X1630680Y166979D01*
X1636318Y175006D01*
X1640433Y183946D01*
X1642973Y193395D01*
X1643837Y203200D01*
X1642973Y213004D01*
X1640433Y222453D01*
X1636318Y231394D01*
X1630680Y239420D01*
X1623720Y246379D01*
X1615694Y252018D01*
X1606753Y256133D01*
X1597304Y258673D01*
X1587500Y259537D01*
X1577695Y258673D01*
X1568246Y256133D01*
X1559306Y252018D01*
X1551279Y246379D01*
X1544320Y239420D01*
X1538681Y231394D01*
X1534566Y222453D01*
X1532026Y213004D01*
X1531162Y203200D01*
X1532026Y193395D01*
X1534566Y183946D01*
X1538681Y175006D01*
X1544320Y166979D01*
X1551279Y160020D01*
X1559306Y154381D01*
X1568246Y150266D01*
X1577695Y147726D01*
G37*
G36*
X-241300Y184962D02*
G01*
X-231495Y185826D01*
X-222046Y188366D01*
X-213106Y192481D01*
X-205079Y198120D01*
X-198120Y205079D01*
X-192481Y213106D01*
X-188366Y222046D01*
X-185826Y231495D01*
X-184962Y241300D01*
X-185826Y251104D01*
X-188366Y260553D01*
X-192481Y269494D01*
X-198120Y277520D01*
X-205079Y284480D01*
X-213106Y290118D01*
X-222046Y294233D01*
X-231495Y296773D01*
X-241300Y297637D01*
X-251104Y296773D01*
X-260553Y294233D01*
X-269494Y290118D01*
X-277520Y284480D01*
X-284480Y277520D01*
X-290118Y269494D01*
X-294233Y260553D01*
X-296773Y251104D01*
X-297637Y241300D01*
X-296773Y231495D01*
X-294233Y222046D01*
X-290118Y213106D01*
X-284480Y205079D01*
X-277520Y198120D01*
X-269494Y192481D01*
X-260553Y188366D01*
X-251104Y185826D01*
G37*
G36*
X1765300Y187452D02*
G01*
X1778965Y188366D01*
X1792376Y191058D01*
X1805330Y195427D01*
X1817624Y201472D01*
X1829003Y209092D01*
X1839264Y218135D01*
X1848307Y228396D01*
X1855927Y239775D01*
X1861972Y252069D01*
X1866341Y265023D01*
X1869033Y278434D01*
X1869948Y292100D01*
X1869033Y305765D01*
X1866341Y319176D01*
X1861972Y332130D01*
X1855927Y344424D01*
X1848307Y355803D01*
X1839264Y366064D01*
X1829003Y375107D01*
X1817624Y382727D01*
X1805330Y388772D01*
X1792376Y393141D01*
X1778965Y395833D01*
X1765300Y396748D01*
X1751634Y395833D01*
X1738223Y393141D01*
X1725269Y388772D01*
X1712975Y382727D01*
X1701596Y375107D01*
X1691335Y366064D01*
X1682292Y355803D01*
X1674672Y344424D01*
X1668627Y332130D01*
X1664258Y319176D01*
X1661566Y305765D01*
X1660652Y292100D01*
X1661566Y278434D01*
X1664258Y265023D01*
X1668627Y252069D01*
X1674672Y239775D01*
X1682292Y228396D01*
X1691335Y218135D01*
X1701596Y209092D01*
X1712975Y201472D01*
X1725269Y195427D01*
X1738223Y191058D01*
X1751634Y188366D01*
G37*
G36*
X2019300Y187452D02*
G01*
X2032965Y188366D01*
X2046376Y191058D01*
X2059330Y195427D01*
X2071624Y201472D01*
X2083003Y209092D01*
X2093264Y218135D01*
X2102307Y228396D01*
X2109927Y239775D01*
X2115972Y252069D01*
X2120341Y265023D01*
X2123033Y278434D01*
X2123948Y292100D01*
X2123033Y305765D01*
X2120341Y319176D01*
X2115972Y332130D01*
X2109927Y344424D01*
X2102307Y355803D01*
X2093264Y366064D01*
X2083003Y375107D01*
X2071624Y382727D01*
X2059330Y388772D01*
X2046376Y393141D01*
X2032965Y395833D01*
X2019300Y396748D01*
X2005634Y395833D01*
X1992223Y393141D01*
X1979269Y388772D01*
X1966975Y382727D01*
X1955596Y375107D01*
X1945335Y366064D01*
X1936292Y355803D01*
X1928672Y344424D01*
X1922627Y332130D01*
X1918258Y319176D01*
X1915566Y305765D01*
X1914652Y292100D01*
X1915566Y278434D01*
X1918258Y265023D01*
X1922627Y252069D01*
X1928672Y239775D01*
X1936292Y228396D01*
X1945335Y218135D01*
X1955596Y209092D01*
X1966975Y201472D01*
X1979269Y195427D01*
X1992223Y191058D01*
X2005634Y188366D01*
G37*
G36*
X688238Y362254D02*
G01*
X697788Y363524D01*
X706983Y366318D01*
X715619Y370687D01*
X723392Y376428D01*
X730046Y383387D01*
X735431Y391363D01*
X739444Y400151D01*
X741832Y409498D01*
X742696Y419100D01*
X741832Y428701D01*
X739444Y438048D01*
X735431Y446836D01*
X730046Y454812D01*
X723392Y461772D01*
X715619Y467512D01*
X706983Y471881D01*
X697788Y474675D01*
X688238Y475945D01*
X678586Y475488D01*
X669137Y473456D01*
X660196Y469900D01*
X651967Y464820D01*
X644753Y458470D01*
X642670Y455879D01*
X639419Y453237D01*
X635304Y452120D01*
X631139Y452780D01*
X627583Y455117D01*
X620420Y462280D01*
X612394Y467918D01*
X603453Y472033D01*
X594004Y474573D01*
X584200Y475437D01*
X574395Y474573D01*
X564946Y472033D01*
X556006Y467918D01*
X547979Y462280D01*
X540562Y454863D01*
X537311Y452678D01*
X533400Y451916D01*
X529488Y452678D01*
X526237Y454863D01*
X518820Y462280D01*
X510793Y467918D01*
X501853Y472033D01*
X492404Y474573D01*
X482600Y475437D01*
X472795Y474573D01*
X463346Y472033D01*
X454406Y467918D01*
X446379Y462280D01*
X439420Y455320D01*
X433781Y447293D01*
X429666Y438353D01*
X427126Y428904D01*
X426262Y419100D01*
X427126Y409295D01*
X429666Y399846D01*
X433781Y390906D01*
X439420Y382879D01*
X446379Y375920D01*
X454406Y370281D01*
X463346Y366166D01*
X472795Y363626D01*
X482600Y362762D01*
X492404Y363626D01*
X501853Y366166D01*
X510793Y370281D01*
X518820Y375920D01*
X526237Y383336D01*
X529488Y385521D01*
X533400Y386283D01*
X537311Y385521D01*
X540562Y383336D01*
X547979Y375920D01*
X556006Y370281D01*
X564946Y366166D01*
X574395Y363626D01*
X584200Y362762D01*
X594004Y363626D01*
X603453Y366166D01*
X612394Y370281D01*
X620420Y375920D01*
X627583Y383082D01*
X631139Y385419D01*
X635304Y386080D01*
X639419Y384962D01*
X642670Y382320D01*
X644753Y379730D01*
X651967Y373380D01*
X660196Y368300D01*
X669137Y364744D01*
X678586Y362712D01*
G37*
G36*
X901700Y362762D02*
G01*
X911504Y363626D01*
X920953Y366166D01*
X929894Y370281D01*
X937920Y375920D01*
X944880Y382879D01*
X950518Y390906D01*
X954633Y399846D01*
X957173Y409295D01*
X958037Y419100D01*
X957173Y428904D01*
X954633Y438353D01*
X950518Y447293D01*
X944880Y455320D01*
X937920Y462280D01*
X929894Y467918D01*
X920953Y472033D01*
X911504Y474573D01*
X901700Y475437D01*
X891895Y474573D01*
X882446Y472033D01*
X873506Y467918D01*
X865479Y462280D01*
X858519Y455320D01*
X852881Y447293D01*
X848766Y438353D01*
X846226Y428904D01*
X845362Y419100D01*
X846226Y409295D01*
X848766Y399846D01*
X852881Y390906D01*
X858519Y382879D01*
X865479Y375920D01*
X873506Y370281D01*
X882446Y366166D01*
X891895Y363626D01*
G37*
G36*
X1384300Y375462D02*
G01*
X1394104Y376326D01*
X1403553Y378866D01*
X1412494Y382981D01*
X1420520Y388620D01*
X1427480Y395579D01*
X1433118Y403606D01*
X1437233Y412546D01*
X1439773Y421995D01*
X1440637Y431800D01*
X1439773Y441604D01*
X1437233Y451053D01*
X1433118Y459993D01*
X1427480Y468020D01*
X1420520Y474980D01*
X1412494Y480618D01*
X1403553Y484733D01*
X1394104Y487273D01*
X1384300Y488137D01*
X1374495Y487273D01*
X1365046Y484733D01*
X1356106Y480618D01*
X1348079Y474980D01*
X1341120Y468020D01*
X1335481Y459993D01*
X1331366Y451053D01*
X1328826Y441604D01*
X1327962Y431800D01*
X1328826Y421995D01*
X1331366Y412546D01*
X1335481Y403606D01*
X1341120Y395579D01*
X1348079Y388620D01*
X1356106Y382981D01*
X1365046Y378866D01*
X1374495Y376326D01*
G37*
G36*
X-266700Y375462D02*
G01*
X-256895Y376326D01*
X-247446Y378866D01*
X-238506Y382981D01*
X-230479Y388620D01*
X-223520Y395579D01*
X-217881Y403606D01*
X-213766Y412546D01*
X-211226Y421995D01*
X-210362Y431800D01*
X-211226Y441604D01*
X-213766Y451053D01*
X-217881Y459993D01*
X-223520Y468020D01*
X-230479Y474980D01*
X-238506Y480618D01*
X-246227Y484174D01*
X-249529Y486664D01*
X-251561Y490220D01*
X-252069Y494284D01*
X-250901Y498246D01*
X-248259Y501345D01*
X-244551Y503224D01*
X-234746Y505866D01*
X-225806Y509981D01*
X-217779Y515620D01*
X-210820Y522579D01*
X-205181Y530606D01*
X-201066Y539546D01*
X-198526Y548995D01*
X-197662Y558800D01*
X-198526Y568604D01*
X-201066Y578053D01*
X-205181Y586994D01*
X-210820Y595020D01*
X-217779Y601980D01*
X-225806Y607618D01*
X-235254Y611987D01*
X-237337Y613359D01*
X-241604Y613562D01*
X-244195Y614273D01*
X-254000Y615137D01*
X-263804Y614273D01*
X-273253Y611733D01*
X-282194Y607618D01*
X-290220Y601980D01*
X-297180Y595020D01*
X-302818Y586994D01*
X-306933Y578053D01*
X-309473Y568604D01*
X-310337Y558800D01*
X-309473Y548995D01*
X-306933Y539546D01*
X-302818Y530606D01*
X-297180Y522579D01*
X-290220Y515620D01*
X-282194Y509981D01*
X-274472Y506425D01*
X-271170Y503935D01*
X-269138Y500380D01*
X-268630Y496316D01*
X-269798Y492353D01*
X-272440Y489254D01*
X-276148Y487375D01*
X-285953Y484733D01*
X-294894Y480618D01*
X-302920Y474980D01*
X-309880Y468020D01*
X-315518Y459993D01*
X-319633Y451053D01*
X-322173Y441604D01*
X-323037Y431800D01*
X-322173Y421995D01*
X-319633Y412546D01*
X-315518Y403606D01*
X-309880Y395579D01*
X-302920Y388620D01*
X-294894Y382981D01*
X-285953Y378866D01*
X-276504Y376326D01*
G37*
G36*
X-2070100Y413562D02*
G01*
X-2060295Y414426D01*
X-2050846Y416966D01*
X-2041906Y421081D01*
X-2033879Y426720D01*
X-2026920Y433679D01*
X-2021281Y441706D01*
X-2017166Y450646D01*
X-2014626Y460095D01*
X-2013762Y469900D01*
X-2014626Y479704D01*
X-2017166Y489204D01*
X-2018436Y491998D01*
X-2019401Y495858D01*
X-2018792Y499770D01*
X-2016709Y503123D01*
X-2013508Y505459D01*
X-2003806Y509981D01*
X-1991461Y518871D01*
X-1987550Y519633D01*
X-1983638Y518871D01*
X-1971293Y509981D01*
X-1962353Y505866D01*
X-1952904Y503326D01*
X-1943100Y502462D01*
X-1932482Y503377D01*
X-1928977Y503072D01*
X-1925777Y501599D01*
X-1923237Y499109D01*
X-1921764Y495909D01*
X-1919833Y488746D01*
X-1915718Y479806D01*
X-1910080Y471779D01*
X-1903120Y464820D01*
X-1895093Y459181D01*
X-1886153Y455066D01*
X-1876704Y452526D01*
X-1866900Y451662D01*
X-1857095Y452526D01*
X-1847646Y455066D01*
X-1838706Y459181D01*
X-1830679Y464820D01*
X-1823720Y471779D01*
X-1818081Y479806D01*
X-1813966Y488746D01*
X-1812036Y495909D01*
X-1810562Y499109D01*
X-1808022Y501599D01*
X-1804822Y503072D01*
X-1801317Y503377D01*
X-1790750Y502462D01*
X-1786788Y501294D01*
X-1783689Y498652D01*
X-1781810Y494944D01*
X-1780133Y488746D01*
X-1776018Y479806D01*
X-1770380Y471779D01*
X-1763420Y464820D01*
X-1755393Y459181D01*
X-1746453Y455066D01*
X-1737004Y452526D01*
X-1727200Y451662D01*
X-1717395Y452526D01*
X-1707946Y455066D01*
X-1699006Y459181D01*
X-1690979Y464820D01*
X-1684020Y471779D01*
X-1678381Y479806D01*
X-1674266Y488746D01*
X-1672589Y494944D01*
X-1670710Y498652D01*
X-1667560Y501294D01*
X-1663649Y502462D01*
X-1653895Y503326D01*
X-1644446Y505866D01*
X-1635506Y509981D01*
X-1631442Y512876D01*
X-1627632Y514502D01*
X-1623568Y514502D01*
X-1619758Y512876D01*
X-1615694Y509981D01*
X-1606753Y505866D01*
X-1597304Y503326D01*
X-1587500Y502462D01*
X-1577695Y503326D01*
X-1568246Y505866D01*
X-1559306Y509981D01*
X-1551279Y515620D01*
X-1544320Y522579D01*
X-1538681Y530606D01*
X-1534566Y539546D01*
X-1532026Y548995D01*
X-1531162Y558800D01*
X-1532026Y568604D01*
X-1534566Y578053D01*
X-1538681Y586994D01*
X-1544320Y595020D01*
X-1551279Y601980D01*
X-1559306Y607618D01*
X-1568246Y611733D01*
X-1577695Y614273D01*
X-1587500Y615137D01*
X-1597304Y614273D01*
X-1606753Y611733D01*
X-1615694Y607618D01*
X-1619758Y604723D01*
X-1623568Y603097D01*
X-1627632Y603097D01*
X-1631442Y604723D01*
X-1635506Y607618D01*
X-1644446Y611733D01*
X-1653895Y614273D01*
X-1663700Y615137D01*
X-1673504Y614273D01*
X-1682953Y611733D01*
X-1691893Y607618D01*
X-1699920Y601980D01*
X-1706880Y595020D01*
X-1712518Y586994D01*
X-1716633Y578053D01*
X-1717395Y575310D01*
X-1719427Y571449D01*
X-1722882Y568756D01*
X-1727200Y567791D01*
X-1731518Y568756D01*
X-1734972Y571449D01*
X-1737004Y575310D01*
X-1737766Y578053D01*
X-1741881Y586994D01*
X-1747520Y595020D01*
X-1754479Y601980D01*
X-1762506Y607618D01*
X-1771446Y611733D01*
X-1780895Y614273D01*
X-1790700Y615137D01*
X-1800504Y614273D01*
X-1809953Y611733D01*
X-1818893Y607618D01*
X-1826920Y601980D01*
X-1833880Y595020D01*
X-1839518Y586994D01*
X-1843633Y578053D01*
X-1845564Y570890D01*
X-1847037Y567690D01*
X-1849577Y565200D01*
X-1852777Y563727D01*
X-1856282Y563422D01*
X-1866900Y564337D01*
X-1877517Y563422D01*
X-1881022Y563727D01*
X-1884222Y565200D01*
X-1886762Y567690D01*
X-1888236Y570890D01*
X-1890166Y578053D01*
X-1894281Y586994D01*
X-1899920Y595020D01*
X-1906879Y601980D01*
X-1914906Y607618D01*
X-1923846Y611733D01*
X-1933295Y614273D01*
X-1943100Y615137D01*
X-1952904Y614273D01*
X-1962353Y611733D01*
X-1971293Y607618D01*
X-1983638Y598728D01*
X-1987550Y597966D01*
X-1991461Y598728D01*
X-2003806Y607618D01*
X-2012746Y611733D01*
X-2022195Y614273D01*
X-2032000Y615137D01*
X-2041804Y614273D01*
X-2051253Y611733D01*
X-2060193Y607618D01*
X-2068220Y601980D01*
X-2075180Y595020D01*
X-2080818Y586994D01*
X-2084933Y578053D01*
X-2087473Y568604D01*
X-2088337Y558800D01*
X-2087473Y548995D01*
X-2084933Y539496D01*
X-2083663Y536702D01*
X-2082698Y532841D01*
X-2083307Y528929D01*
X-2085390Y525576D01*
X-2088591Y523240D01*
X-2098294Y518718D01*
X-2106320Y513080D01*
X-2113280Y506120D01*
X-2118918Y498093D01*
X-2123033Y489153D01*
X-2125573Y479704D01*
X-2126437Y469900D01*
X-2125573Y460095D01*
X-2123033Y450646D01*
X-2118918Y441706D01*
X-2113280Y433679D01*
X-2106320Y426720D01*
X-2098294Y421081D01*
X-2089353Y416966D01*
X-2079904Y414426D01*
G37*
G36*
X1054100Y438962D02*
G01*
X1063904Y439826D01*
X1073353Y442366D01*
X1082294Y446481D01*
X1090320Y452120D01*
X1097280Y459079D01*
X1102918Y467106D01*
X1107033Y476046D01*
X1109573Y485495D01*
X1110437Y495300D01*
X1109573Y505104D01*
X1107033Y514553D01*
X1102918Y523493D01*
X1097280Y531520D01*
X1090320Y538480D01*
X1082294Y544118D01*
X1073353Y548233D01*
X1063904Y550773D01*
X1054100Y551637D01*
X1044295Y550773D01*
X1034846Y548233D01*
X1025906Y544118D01*
X1017879Y538480D01*
X1010919Y531520D01*
X1005281Y523493D01*
X1001166Y514553D01*
X998626Y505104D01*
X997762Y495300D01*
X998626Y485495D01*
X1001166Y476046D01*
X1005281Y467106D01*
X1010919Y459079D01*
X1017879Y452120D01*
X1025906Y446481D01*
X1034846Y442366D01*
X1044295Y439826D01*
G37*
G36*
X1765300Y441451D02*
G01*
X1778965Y442366D01*
X1792376Y445058D01*
X1805330Y449427D01*
X1817624Y455472D01*
X1829003Y463092D01*
X1839264Y472135D01*
X1848307Y482396D01*
X1855927Y493776D01*
X1861972Y506069D01*
X1866341Y519023D01*
X1869033Y532434D01*
X1869948Y546100D01*
X1869033Y559765D01*
X1866341Y573176D01*
X1861972Y586130D01*
X1855927Y598424D01*
X1848307Y609803D01*
X1839264Y620064D01*
X1829003Y629107D01*
X1817624Y636727D01*
X1805330Y642772D01*
X1792376Y647141D01*
X1778965Y649833D01*
X1765300Y650748D01*
X1751634Y649833D01*
X1738223Y647141D01*
X1725269Y642772D01*
X1712975Y636727D01*
X1701596Y629107D01*
X1691335Y620064D01*
X1682292Y609803D01*
X1674672Y598424D01*
X1668627Y586130D01*
X1664258Y573176D01*
X1661566Y559765D01*
X1660652Y546100D01*
X1661566Y532434D01*
X1664258Y519023D01*
X1668627Y506069D01*
X1674672Y493776D01*
X1682292Y482396D01*
X1691335Y472135D01*
X1701596Y463092D01*
X1712975Y455472D01*
X1725269Y449427D01*
X1738223Y445058D01*
X1751634Y442366D01*
G37*
G36*
X2019300Y441451D02*
G01*
X2032965Y442366D01*
X2046376Y445058D01*
X2059330Y449427D01*
X2071624Y455472D01*
X2083003Y463092D01*
X2093264Y472135D01*
X2102307Y482396D01*
X2109927Y493776D01*
X2115972Y506069D01*
X2120341Y519023D01*
X2123033Y532434D01*
X2123948Y546100D01*
X2123033Y559765D01*
X2120341Y573176D01*
X2115972Y586130D01*
X2109927Y598424D01*
X2102307Y609803D01*
X2093264Y620064D01*
X2083003Y629107D01*
X2071624Y636727D01*
X2059330Y642772D01*
X2046376Y647141D01*
X2032965Y649833D01*
X2019300Y650748D01*
X2005634Y649833D01*
X1992223Y647141D01*
X1979269Y642772D01*
X1966975Y636727D01*
X1955596Y629107D01*
X1945335Y620064D01*
X1936292Y609803D01*
X1928672Y598424D01*
X1922627Y586130D01*
X1918258Y573176D01*
X1915566Y559765D01*
X1914652Y546100D01*
X1915566Y532434D01*
X1918258Y519023D01*
X1922627Y506069D01*
X1928672Y493776D01*
X1936292Y482396D01*
X1945335Y472135D01*
X1955596Y463092D01*
X1966975Y455472D01*
X1979269Y449427D01*
X1992223Y445058D01*
X2005634Y442366D01*
G37*
G36*
X-50800Y464362D02*
G01*
X-40995Y465226D01*
X-31546Y467766D01*
X-22606Y471881D01*
X-14579Y477520D01*
X-7620Y484479D01*
X-1981Y492506D01*
X2133Y501446D01*
X4673Y510895D01*
X5537Y520700D01*
X4673Y530504D01*
X2133Y539953D01*
X-1981Y548894D01*
X-7620Y556920D01*
X-14579Y563880D01*
X-22606Y569518D01*
X-31546Y573633D01*
X-40995Y576173D01*
X-50800Y577037D01*
X-60604Y576173D01*
X-70053Y573633D01*
X-78994Y569518D01*
X-87020Y563880D01*
X-93980Y556920D01*
X-99618Y548894D01*
X-103733Y539953D01*
X-106273Y530504D01*
X-107137Y520700D01*
X-106273Y510895D01*
X-103733Y501446D01*
X-99618Y492506D01*
X-93980Y484479D01*
X-87020Y477520D01*
X-78994Y471881D01*
X-70053Y467766D01*
X-60604Y465226D01*
G37*
G36*
X1308100Y502462D02*
G01*
X1317904Y503326D01*
X1327353Y505866D01*
X1336294Y509981D01*
X1344320Y515620D01*
X1351280Y522579D01*
X1356918Y530606D01*
X1361033Y539546D01*
X1363573Y548995D01*
X1364437Y558800D01*
X1363573Y568604D01*
X1361033Y578053D01*
X1356918Y586994D01*
X1351280Y595020D01*
X1344320Y601980D01*
X1336294Y607618D01*
X1328572Y611174D01*
X1325270Y613664D01*
X1323238Y617220D01*
X1322730Y621284D01*
X1323898Y625246D01*
X1326540Y628345D01*
X1330248Y630224D01*
X1340053Y632866D01*
X1348994Y636981D01*
X1357020Y642620D01*
X1363980Y649579D01*
X1369618Y657606D01*
X1373733Y666546D01*
X1376273Y675995D01*
X1377137Y685800D01*
X1376273Y695604D01*
X1373733Y705053D01*
X1369618Y713994D01*
X1363980Y722020D01*
X1356563Y729437D01*
X1354378Y732688D01*
X1353616Y736600D01*
X1354378Y740511D01*
X1356563Y743762D01*
X1363980Y751179D01*
X1369618Y759206D01*
X1373733Y768146D01*
X1376273Y777595D01*
X1377137Y787400D01*
X1376273Y797204D01*
X1373733Y806653D01*
X1369618Y815594D01*
X1363980Y823620D01*
X1357020Y830580D01*
X1348994Y836218D01*
X1340053Y840333D01*
X1330604Y842873D01*
X1320800Y843737D01*
X1310995Y842873D01*
X1301546Y840333D01*
X1292606Y836218D01*
X1284579Y830580D01*
X1277620Y823620D01*
X1271981Y815594D01*
X1267866Y806653D01*
X1265326Y797204D01*
X1264462Y787400D01*
X1265326Y777595D01*
X1267866Y768146D01*
X1271981Y759206D01*
X1277620Y751179D01*
X1285036Y743762D01*
X1287221Y740511D01*
X1287983Y736600D01*
X1287221Y732688D01*
X1285036Y729437D01*
X1277620Y722020D01*
X1271981Y713994D01*
X1267866Y705053D01*
X1265326Y695604D01*
X1264462Y685800D01*
X1265326Y675995D01*
X1267866Y666546D01*
X1271981Y657606D01*
X1277620Y649579D01*
X1284579Y642620D01*
X1292606Y636981D01*
X1300327Y633425D01*
X1303629Y630936D01*
X1305661Y627380D01*
X1306169Y623316D01*
X1305001Y619353D01*
X1302359Y616254D01*
X1298651Y614375D01*
X1288846Y611733D01*
X1279906Y607618D01*
X1271879Y601980D01*
X1264920Y595020D01*
X1259281Y586994D01*
X1255166Y578053D01*
X1252626Y568604D01*
X1251762Y558800D01*
X1252626Y548995D01*
X1255166Y539546D01*
X1259281Y530606D01*
X1264920Y522579D01*
X1271879Y515620D01*
X1279906Y509981D01*
X1288846Y505866D01*
X1298295Y503326D01*
G37*
G36*
X876300Y591362D02*
G01*
X886104Y592226D01*
X895553Y594766D01*
X904494Y598881D01*
X912520Y604520D01*
X919480Y611479D01*
X925118Y619506D01*
X929233Y628446D01*
X931773Y637895D01*
X932637Y647700D01*
X931773Y657504D01*
X929233Y666953D01*
X925118Y675894D01*
X919480Y683920D01*
X912520Y690880D01*
X904494Y696518D01*
X895553Y700633D01*
X886104Y703173D01*
X876300Y704037D01*
X866495Y703173D01*
X857046Y700633D01*
X848106Y696518D01*
X840079Y690880D01*
X833119Y683920D01*
X827481Y675894D01*
X823366Y666953D01*
X820826Y657504D01*
X819962Y647700D01*
X820826Y637895D01*
X823366Y628446D01*
X827481Y619506D01*
X833119Y611479D01*
X840079Y604520D01*
X848106Y598881D01*
X857046Y594766D01*
X866495Y592226D01*
G37*
G36*
X-215900Y629462D02*
G01*
X-206095Y630326D01*
X-196646Y632866D01*
X-187706Y636981D01*
X-179679Y642620D01*
X-172720Y649579D01*
X-167081Y657606D01*
X-162966Y666546D01*
X-160426Y675995D01*
X-159562Y685800D01*
X-160426Y695604D01*
X-162966Y705053D01*
X-167081Y713994D01*
X-172720Y722020D01*
X-179679Y728980D01*
X-187706Y734618D01*
X-196646Y738733D01*
X-199390Y739495D01*
X-203250Y741527D01*
X-205943Y744982D01*
X-206908Y749300D01*
X-205943Y753618D01*
X-203250Y757072D01*
X-199390Y759104D01*
X-196646Y759866D01*
X-187706Y763981D01*
X-179679Y769620D01*
X-172720Y776579D01*
X-167081Y784606D01*
X-162966Y793546D01*
X-160426Y802995D01*
X-159562Y812800D01*
X-160426Y822604D01*
X-162966Y832053D01*
X-167081Y840994D01*
X-172720Y849020D01*
X-179679Y855980D01*
X-187706Y861618D01*
X-196646Y865733D01*
X-199390Y866495D01*
X-203250Y868527D01*
X-205943Y871982D01*
X-206908Y876300D01*
X-205943Y880618D01*
X-203250Y884072D01*
X-199390Y886104D01*
X-196646Y886866D01*
X-187706Y890981D01*
X-179679Y896619D01*
X-172720Y903579D01*
X-167081Y911606D01*
X-162966Y920546D01*
X-160426Y929995D01*
X-159562Y939800D01*
X-160426Y949604D01*
X-162966Y959053D01*
X-167081Y967994D01*
X-172720Y976020D01*
X-179679Y982980D01*
X-187706Y988618D01*
X-192125Y990650D01*
X-195376Y993038D01*
X-197408Y996492D01*
X-197866Y999591D01*
X-199237Y997762D01*
X-202742Y995781D01*
X-206756Y995324D01*
X-215900Y996137D01*
X-225704Y995273D01*
X-235153Y992733D01*
X-244094Y988618D01*
X-252120Y982980D01*
X-259079Y976020D01*
X-264718Y967994D01*
X-268833Y959053D01*
X-271373Y949604D01*
X-272237Y939800D01*
X-271373Y929995D01*
X-268833Y920546D01*
X-264718Y911606D01*
X-259079Y903579D01*
X-252120Y896619D01*
X-244094Y890981D01*
X-235153Y886866D01*
X-232410Y886104D01*
X-228549Y884072D01*
X-225856Y880618D01*
X-224891Y876300D01*
X-225856Y871982D01*
X-228549Y868527D01*
X-232410Y866495D01*
X-235153Y865733D01*
X-244094Y861618D01*
X-252120Y855980D01*
X-259079Y849020D01*
X-264718Y840994D01*
X-268833Y832053D01*
X-271373Y822604D01*
X-272237Y812800D01*
X-271373Y802995D01*
X-268833Y793546D01*
X-264718Y784606D01*
X-259079Y776579D01*
X-252120Y769620D01*
X-244094Y763981D01*
X-235153Y759866D01*
X-232410Y759104D01*
X-228549Y757072D01*
X-225856Y753618D01*
X-224891Y749300D01*
X-225856Y744982D01*
X-228549Y741527D01*
X-232410Y739495D01*
X-235153Y738733D01*
X-244094Y734618D01*
X-252120Y728980D01*
X-259079Y722020D01*
X-264718Y713994D01*
X-268833Y705053D01*
X-271373Y695604D01*
X-272237Y685800D01*
X-271373Y675995D01*
X-268833Y666546D01*
X-264718Y657606D01*
X-259079Y649579D01*
X-252120Y642620D01*
X-244094Y636981D01*
X-234645Y632612D01*
X-232562Y631240D01*
X-228295Y630986D01*
X-225704Y630326D01*
G37*
G36*
X1765300Y695452D02*
G01*
X1778965Y696366D01*
X1792376Y699058D01*
X1805330Y703427D01*
X1817624Y709472D01*
X1829003Y717092D01*
X1839264Y726135D01*
X1848307Y736396D01*
X1855927Y747776D01*
X1861972Y760069D01*
X1866341Y773023D01*
X1869033Y786434D01*
X1869948Y800100D01*
X1869033Y813765D01*
X1866341Y827176D01*
X1861972Y840130D01*
X1855927Y852424D01*
X1848307Y863803D01*
X1839264Y874064D01*
X1829003Y883107D01*
X1817624Y890727D01*
X1805330Y896772D01*
X1792376Y901141D01*
X1778965Y903833D01*
X1765300Y904748D01*
X1751634Y903833D01*
X1738223Y901141D01*
X1725269Y896772D01*
X1712975Y890727D01*
X1701596Y883107D01*
X1691335Y874064D01*
X1682292Y863803D01*
X1674672Y852424D01*
X1668627Y840130D01*
X1664258Y827176D01*
X1661566Y813765D01*
X1660652Y800100D01*
X1661566Y786434D01*
X1664258Y773023D01*
X1668627Y760069D01*
X1674672Y747776D01*
X1682292Y736396D01*
X1691335Y726135D01*
X1701596Y717092D01*
X1712975Y709472D01*
X1725269Y703427D01*
X1738223Y699058D01*
X1751634Y696366D01*
G37*
G36*
X2019300Y695452D02*
G01*
X2032965Y696366D01*
X2046376Y699058D01*
X2059330Y703427D01*
X2071624Y709472D01*
X2083003Y717092D01*
X2093264Y726135D01*
X2102307Y736396D01*
X2109927Y747776D01*
X2115972Y760069D01*
X2120341Y773023D01*
X2123033Y786434D01*
X2123948Y800100D01*
X2123033Y813765D01*
X2120341Y827176D01*
X2115972Y840130D01*
X2109927Y852424D01*
X2102307Y863803D01*
X2093264Y874064D01*
X2083003Y883107D01*
X2071624Y890727D01*
X2059330Y896772D01*
X2046376Y901141D01*
X2032965Y903833D01*
X2019300Y904748D01*
X2005634Y903833D01*
X1992223Y901141D01*
X1979269Y896772D01*
X1966975Y890727D01*
X1955596Y883107D01*
X1945335Y874064D01*
X1936292Y863803D01*
X1928672Y852424D01*
X1922627Y840130D01*
X1918258Y827176D01*
X1915566Y813765D01*
X1914652Y800100D01*
X1915566Y786434D01*
X1918258Y773023D01*
X1922627Y760069D01*
X1928672Y747776D01*
X1936292Y736396D01*
X1945335Y726135D01*
X1955596Y717092D01*
X1966975Y709472D01*
X1979269Y703427D01*
X1992223Y699058D01*
X2005634Y696366D01*
G37*
G36*
X1041400Y731062D02*
G01*
X1051204Y731926D01*
X1060653Y734466D01*
X1069594Y738581D01*
X1077620Y744220D01*
X1084580Y751179D01*
X1090218Y759206D01*
X1094333Y768146D01*
X1096873Y777595D01*
X1097737Y787400D01*
X1096873Y797204D01*
X1094333Y806653D01*
X1090218Y815594D01*
X1084580Y823620D01*
X1077620Y830580D01*
X1069594Y836218D01*
X1060653Y840333D01*
X1051204Y842873D01*
X1041400Y843737D01*
X1031595Y842873D01*
X1022146Y840333D01*
X1013206Y836218D01*
X1005179Y830580D01*
X998219Y823620D01*
X992581Y815594D01*
X988466Y806653D01*
X985926Y797204D01*
X985062Y787400D01*
X985926Y777595D01*
X988466Y768146D01*
X992581Y759206D01*
X998219Y751179D01*
X1005179Y744220D01*
X1013206Y738581D01*
X1022146Y734466D01*
X1031595Y731926D01*
G37*
G36*
X38100Y731062D02*
G01*
X47904Y731926D01*
X57353Y734466D01*
X66294Y738581D01*
X74320Y744220D01*
X81280Y751179D01*
X86918Y759206D01*
X91033Y768146D01*
X93573Y777595D01*
X94437Y787400D01*
X93573Y797204D01*
X91033Y806653D01*
X86918Y815594D01*
X81280Y823620D01*
X76301Y828598D01*
X74117Y831748D01*
X73304Y835507D01*
X73914Y839266D01*
X75895Y842518D01*
X78892Y844854D01*
X82600Y845921D01*
X86004Y846226D01*
X95453Y848766D01*
X104394Y852881D01*
X112420Y858519D01*
X119380Y865479D01*
X125018Y873506D01*
X129133Y882446D01*
X131673Y891895D01*
X132537Y901700D01*
X131673Y911504D01*
X129133Y920953D01*
X125018Y929894D01*
X119380Y937920D01*
X112420Y944880D01*
X104394Y950518D01*
X95453Y954633D01*
X86004Y957173D01*
X76200Y958037D01*
X66395Y957173D01*
X56946Y954633D01*
X48006Y950518D01*
X39979Y944880D01*
X33020Y937920D01*
X27381Y929894D01*
X23266Y920953D01*
X20726Y911504D01*
X19862Y901700D01*
X20726Y891895D01*
X23266Y882446D01*
X27381Y873506D01*
X33020Y865479D01*
X37998Y860501D01*
X40182Y857351D01*
X40995Y853592D01*
X40386Y849833D01*
X38404Y846582D01*
X35407Y844245D01*
X31699Y843178D01*
X28295Y842873D01*
X18846Y840333D01*
X9906Y836218D01*
X1879Y830580D01*
X-5080Y823620D01*
X-10718Y815594D01*
X-14833Y806653D01*
X-17373Y797204D01*
X-18237Y787400D01*
X-17373Y777595D01*
X-14833Y768146D01*
X-10718Y759206D01*
X-5080Y751179D01*
X1879Y744220D01*
X9906Y738581D01*
X18846Y734466D01*
X28295Y731926D01*
G37*
G36*
X203200Y743762D02*
G01*
X213004Y744626D01*
X222453Y747166D01*
X231394Y751281D01*
X239420Y756920D01*
X246379Y763879D01*
X252018Y771906D01*
X256133Y780846D01*
X258673Y790295D01*
X259537Y800100D01*
X258673Y809904D01*
X256133Y819353D01*
X252018Y828294D01*
X246379Y836320D01*
X239420Y843280D01*
X231394Y848918D01*
X222453Y853033D01*
X213004Y855573D01*
X203200Y856437D01*
X193395Y855573D01*
X183946Y853033D01*
X175006Y848918D01*
X166979Y843280D01*
X160020Y836320D01*
X154381Y828294D01*
X150266Y819353D01*
X147726Y809904D01*
X146862Y800100D01*
X147726Y790295D01*
X150266Y780846D01*
X154381Y771906D01*
X160020Y763879D01*
X166979Y756920D01*
X175006Y751281D01*
X183946Y747166D01*
X193395Y744626D01*
G37*
G36*
X-1536700Y819962D02*
G01*
X-1526895Y820826D01*
X-1517446Y823366D01*
X-1508506Y827481D01*
X-1500479Y833119D01*
X-1493520Y840079D01*
X-1487881Y848106D01*
X-1483766Y857046D01*
X-1481226Y866495D01*
X-1480362Y876300D01*
X-1481226Y886104D01*
X-1483766Y895553D01*
X-1487881Y904494D01*
X-1493520Y912520D01*
X-1500479Y919480D01*
X-1508506Y925118D01*
X-1517446Y929233D01*
X-1526895Y931773D01*
X-1532331Y932281D01*
X-1536344Y933500D01*
X-1539544Y936294D01*
X-1541322Y940104D01*
X-1541424Y944321D01*
X-1539748Y948232D01*
X-1538681Y949706D01*
X-1534566Y958646D01*
X-1532026Y968095D01*
X-1531162Y977900D01*
X-1532026Y987704D01*
X-1534566Y997153D01*
X-1538681Y1006094D01*
X-1544320Y1014120D01*
X-1551279Y1021080D01*
X-1559306Y1026718D01*
X-1568246Y1030833D01*
X-1577695Y1033373D01*
X-1587500Y1034237D01*
X-1597304Y1033373D01*
X-1606753Y1030833D01*
X-1615694Y1026718D01*
X-1623720Y1021080D01*
X-1630680Y1014120D01*
X-1636318Y1006094D01*
X-1640433Y997153D01*
X-1642973Y987704D01*
X-1643837Y977900D01*
X-1642973Y968095D01*
X-1640433Y958646D01*
X-1636318Y949706D01*
X-1630680Y941679D01*
X-1623720Y934719D01*
X-1615694Y929081D01*
X-1606753Y924966D01*
X-1597304Y922426D01*
X-1591868Y921918D01*
X-1587855Y920699D01*
X-1584655Y917905D01*
X-1582877Y914095D01*
X-1582775Y909878D01*
X-1584452Y905967D01*
X-1585518Y904494D01*
X-1589633Y895553D01*
X-1592173Y886104D01*
X-1593037Y876300D01*
X-1592173Y866495D01*
X-1589633Y857046D01*
X-1585518Y848106D01*
X-1579880Y840079D01*
X-1572920Y833119D01*
X-1564894Y827481D01*
X-1555953Y823366D01*
X-1546504Y820826D01*
G37*
G36*
X546100Y819962D02*
G01*
X555904Y820826D01*
X565353Y823366D01*
X574294Y827481D01*
X582320Y833119D01*
X589280Y840079D01*
X594918Y848106D01*
X599033Y857046D01*
X601573Y866495D01*
X601878Y869899D01*
X602945Y873607D01*
X605282Y876604D01*
X608533Y878586D01*
X612292Y879195D01*
X616051Y878382D01*
X619201Y876198D01*
X624179Y871219D01*
X632206Y865581D01*
X641146Y861466D01*
X650595Y858926D01*
X660400Y858062D01*
X670204Y858926D01*
X679653Y861466D01*
X688594Y865581D01*
X696620Y871219D01*
X703580Y878179D01*
X709218Y886206D01*
X713333Y895146D01*
X714095Y897890D01*
X716127Y901750D01*
X719582Y904443D01*
X723900Y905408D01*
X728218Y904443D01*
X731672Y901750D01*
X733704Y897890D01*
X734466Y895146D01*
X738581Y886206D01*
X744220Y878179D01*
X751179Y871219D01*
X759206Y865581D01*
X768146Y861466D01*
X777595Y858926D01*
X787400Y858062D01*
X797204Y858926D01*
X806653Y861466D01*
X815594Y865581D01*
X823620Y871219D01*
X830580Y878179D01*
X836218Y886206D01*
X840333Y895146D01*
X842873Y904595D01*
X843737Y914400D01*
X842873Y924204D01*
X840333Y933653D01*
X836218Y942594D01*
X830580Y950620D01*
X823620Y957580D01*
X815594Y963218D01*
X806653Y967333D01*
X797204Y969873D01*
X787400Y970737D01*
X777595Y969873D01*
X768146Y967333D01*
X759206Y963218D01*
X751179Y957580D01*
X744220Y950620D01*
X738581Y942594D01*
X734466Y933653D01*
X733704Y930910D01*
X731672Y927049D01*
X728218Y924356D01*
X723900Y923391D01*
X719582Y924356D01*
X716127Y927049D01*
X714095Y930910D01*
X713333Y933653D01*
X709218Y942594D01*
X703580Y950620D01*
X696620Y957580D01*
X688594Y963218D01*
X679653Y967333D01*
X670204Y969873D01*
X660400Y970737D01*
X650595Y969873D01*
X641146Y967333D01*
X632206Y963218D01*
X624179Y957580D01*
X617220Y950620D01*
X611581Y942594D01*
X607466Y933653D01*
X604926Y924204D01*
X604621Y920800D01*
X603554Y917092D01*
X601218Y914095D01*
X597966Y912114D01*
X594207Y911504D01*
X590448Y912317D01*
X587298Y914501D01*
X582320Y919480D01*
X574294Y925118D01*
X565353Y929233D01*
X555904Y931773D01*
X546100Y932637D01*
X536295Y931773D01*
X526846Y929233D01*
X517906Y925118D01*
X509879Y919480D01*
X502920Y912520D01*
X497281Y904494D01*
X493166Y895553D01*
X490626Y886104D01*
X489762Y876300D01*
X490626Y866495D01*
X493166Y857046D01*
X497281Y848106D01*
X502920Y840079D01*
X509879Y833119D01*
X517906Y827481D01*
X526846Y823366D01*
X536295Y820826D01*
G37*
G36*
X-1905000Y858062D02*
G01*
X-1895195Y858926D01*
X-1885746Y861466D01*
X-1876806Y865581D01*
X-1868779Y871219D01*
X-1861820Y878179D01*
X-1856181Y886206D01*
X-1852066Y895146D01*
X-1849526Y904595D01*
X-1848662Y914400D01*
X-1849526Y924204D01*
X-1852066Y933653D01*
X-1856181Y942594D01*
X-1861820Y950620D01*
X-1868779Y957580D01*
X-1876806Y963218D01*
X-1885746Y967333D01*
X-1895195Y969873D01*
X-1905000Y970737D01*
X-1914804Y969873D01*
X-1924253Y967333D01*
X-1933193Y963218D01*
X-1941220Y957580D01*
X-1948180Y950620D01*
X-1953818Y942594D01*
X-1957933Y933653D01*
X-1960473Y924204D01*
X-1961337Y914400D01*
X-1960473Y904595D01*
X-1957933Y895146D01*
X-1953818Y886206D01*
X-1948180Y878179D01*
X-1941220Y871219D01*
X-1933193Y865581D01*
X-1924253Y861466D01*
X-1914804Y858926D01*
G37*
G36*
X1320800Y883462D02*
G01*
X1330604Y884326D01*
X1340053Y886866D01*
X1348994Y890981D01*
X1357020Y896619D01*
X1363980Y903579D01*
X1369618Y911606D01*
X1373733Y920546D01*
X1376273Y929995D01*
X1377137Y939800D01*
X1376273Y949604D01*
X1373733Y959053D01*
X1369618Y967994D01*
X1363980Y976020D01*
X1357020Y982980D01*
X1348994Y988618D01*
X1340053Y992733D01*
X1337310Y993495D01*
X1333449Y995527D01*
X1330756Y998982D01*
X1329791Y1003300D01*
X1330756Y1007618D01*
X1333449Y1011072D01*
X1337310Y1013104D01*
X1340053Y1013866D01*
X1348994Y1017981D01*
X1357020Y1023619D01*
X1363980Y1030579D01*
X1369618Y1038606D01*
X1373733Y1047546D01*
X1376273Y1056995D01*
X1377137Y1066800D01*
X1376273Y1076604D01*
X1373733Y1086053D01*
X1369618Y1094994D01*
X1363980Y1103020D01*
X1357020Y1109980D01*
X1348994Y1115618D01*
X1340053Y1119733D01*
X1337310Y1120495D01*
X1333449Y1122527D01*
X1330756Y1125982D01*
X1329791Y1130300D01*
X1330756Y1134618D01*
X1333449Y1138072D01*
X1337310Y1140104D01*
X1340053Y1140866D01*
X1348994Y1144981D01*
X1357020Y1150620D01*
X1363980Y1157579D01*
X1369618Y1165606D01*
X1373733Y1174546D01*
X1376273Y1183995D01*
X1377137Y1193800D01*
X1376273Y1203604D01*
X1373733Y1213053D01*
X1369618Y1221994D01*
X1363980Y1230020D01*
X1357020Y1236980D01*
X1348994Y1242618D01*
X1340053Y1246733D01*
X1330604Y1249273D01*
X1320800Y1250137D01*
X1310995Y1249273D01*
X1301546Y1246733D01*
X1292606Y1242618D01*
X1284579Y1236980D01*
X1277620Y1230020D01*
X1271981Y1221994D01*
X1267866Y1213053D01*
X1265326Y1203604D01*
X1264462Y1193800D01*
X1265326Y1183995D01*
X1267866Y1174546D01*
X1271981Y1165606D01*
X1277620Y1157579D01*
X1284579Y1150620D01*
X1292606Y1144981D01*
X1301546Y1140866D01*
X1304290Y1140104D01*
X1308150Y1138072D01*
X1310843Y1134618D01*
X1311808Y1130300D01*
X1310843Y1125982D01*
X1308150Y1122527D01*
X1304290Y1120495D01*
X1301546Y1119733D01*
X1292606Y1115618D01*
X1284579Y1109980D01*
X1277620Y1103020D01*
X1271981Y1094994D01*
X1267866Y1086053D01*
X1265326Y1076604D01*
X1264462Y1066800D01*
X1265326Y1056995D01*
X1267866Y1047546D01*
X1271981Y1038606D01*
X1277620Y1030579D01*
X1284579Y1023619D01*
X1292606Y1017981D01*
X1301546Y1013866D01*
X1304290Y1013104D01*
X1308150Y1011072D01*
X1310843Y1007618D01*
X1311808Y1003300D01*
X1310843Y998982D01*
X1308150Y995527D01*
X1304290Y993495D01*
X1301546Y992733D01*
X1292606Y988618D01*
X1284579Y982980D01*
X1277620Y976020D01*
X1271981Y967994D01*
X1267866Y959053D01*
X1265326Y949604D01*
X1264462Y939800D01*
X1265326Y929995D01*
X1267866Y920546D01*
X1271981Y911606D01*
X1277620Y903579D01*
X1284579Y896619D01*
X1292606Y890981D01*
X1301546Y886866D01*
X1310995Y884326D01*
G37*
G36*
X1687118Y949452D02*
G01*
X1843481Y949452D01*
X1849780Y950163D01*
X1855266Y952093D01*
X1860143Y955141D01*
X1864258Y959256D01*
X1867306Y964133D01*
X1869236Y969619D01*
X1869948Y975918D01*
X1869948Y1132281D01*
X1869236Y1138580D01*
X1867306Y1144066D01*
X1864258Y1148943D01*
X1860143Y1153058D01*
X1855266Y1156106D01*
X1849780Y1158036D01*
X1843481Y1158748D01*
X1687118Y1158748D01*
X1680819Y1158036D01*
X1675333Y1156106D01*
X1670456Y1153058D01*
X1666341Y1148943D01*
X1663293Y1144066D01*
X1661363Y1138580D01*
X1660652Y1132281D01*
X1660652Y975918D01*
X1661363Y969619D01*
X1663293Y964133D01*
X1666341Y959256D01*
X1670456Y955141D01*
X1675333Y952093D01*
X1680819Y950163D01*
G37*
G36*
X2065020Y960221D02*
G01*
X2071624Y963472D01*
X2083003Y971092D01*
X2093264Y980135D01*
X2102307Y990396D01*
X2109927Y1001776D01*
X2113178Y1008380D01*
X2065020Y1008380D01*
G37*
G36*
X1973580Y960221D02*
G01*
X1973580Y1008380D01*
X1925421Y1008380D01*
X1928672Y1001776D01*
X1936292Y990396D01*
X1945335Y980135D01*
X1955596Y971092D01*
X1966975Y963472D01*
G37*
G36*
X-647700Y985062D02*
G01*
X-637895Y985926D01*
X-628446Y988466D01*
X-619506Y992581D01*
X-611479Y998219D01*
X-604520Y1005179D01*
X-598881Y1013206D01*
X-594766Y1022146D01*
X-592226Y1031595D01*
X-591362Y1041400D01*
X-592226Y1051204D01*
X-594766Y1060653D01*
X-598881Y1069594D01*
X-604520Y1077620D01*
X-611479Y1084580D01*
X-619506Y1090218D01*
X-628446Y1094333D01*
X-637895Y1096873D01*
X-647700Y1097737D01*
X-657504Y1096873D01*
X-666953Y1094333D01*
X-675894Y1090218D01*
X-683920Y1084580D01*
X-690880Y1077620D01*
X-696518Y1069594D01*
X-700633Y1060653D01*
X-703173Y1051204D01*
X-704037Y1041400D01*
X-703173Y1031595D01*
X-700633Y1022146D01*
X-696518Y1013206D01*
X-690880Y1005179D01*
X-683920Y998219D01*
X-675894Y992581D01*
X-666953Y988466D01*
X-657504Y985926D01*
G37*
G36*
X-195834Y1005738D02*
G01*
X-194462Y1007567D01*
X-190957Y1009548D01*
X-186944Y1010005D01*
X-177800Y1009192D01*
X-167995Y1010056D01*
X-158546Y1012596D01*
X-149606Y1016711D01*
X-141579Y1022350D01*
X-134620Y1029309D01*
X-128981Y1037336D01*
X-124866Y1046276D01*
X-122326Y1055725D01*
X-121462Y1065530D01*
X-122326Y1075334D01*
X-124866Y1084783D01*
X-128981Y1093724D01*
X-134620Y1101750D01*
X-141579Y1108710D01*
X-149606Y1114348D01*
X-158546Y1118463D01*
X-167995Y1121003D01*
X-177800Y1121867D01*
X-187604Y1121003D01*
X-197053Y1118463D01*
X-205994Y1114348D01*
X-214020Y1108710D01*
X-220979Y1101750D01*
X-226618Y1093724D01*
X-230733Y1084783D01*
X-233273Y1075334D01*
X-234137Y1065530D01*
X-233273Y1055725D01*
X-230733Y1046276D01*
X-226618Y1037336D01*
X-220979Y1029309D01*
X-214020Y1022350D01*
X-205994Y1016711D01*
X-201574Y1014679D01*
X-198323Y1012291D01*
X-196291Y1008837D01*
G37*
G36*
X-1562100Y1099362D02*
G01*
X-1552295Y1100226D01*
X-1542846Y1102766D01*
X-1533906Y1106881D01*
X-1525879Y1112520D01*
X-1518920Y1119479D01*
X-1513281Y1127506D01*
X-1509166Y1136446D01*
X-1506626Y1145895D01*
X-1505762Y1155700D01*
X-1506626Y1165504D01*
X-1509166Y1174953D01*
X-1513281Y1183894D01*
X-1518920Y1191920D01*
X-1525879Y1198880D01*
X-1533906Y1204518D01*
X-1542846Y1208633D01*
X-1552295Y1211173D01*
X-1562100Y1212037D01*
X-1571904Y1211173D01*
X-1581353Y1208633D01*
X-1590294Y1204518D01*
X-1598320Y1198880D01*
X-1605280Y1191920D01*
X-1610918Y1183894D01*
X-1615033Y1174953D01*
X-1617573Y1165504D01*
X-1618437Y1155700D01*
X-1617573Y1145895D01*
X-1615033Y1136446D01*
X-1610918Y1127506D01*
X-1605280Y1119479D01*
X-1598320Y1112520D01*
X-1590294Y1106881D01*
X-1581353Y1102766D01*
X-1571904Y1100226D01*
G37*
G36*
X1925421Y1099820D02*
G01*
X1973580Y1099820D01*
X1973580Y1147978D01*
X1966975Y1144727D01*
X1955596Y1137107D01*
X1945335Y1128064D01*
X1936292Y1117803D01*
X1928672Y1106424D01*
G37*
G36*
X2065020Y1099820D02*
G01*
X2113178Y1099820D01*
X2109927Y1106424D01*
X2102307Y1117803D01*
X2093264Y1128064D01*
X2083003Y1137107D01*
X2071624Y1144727D01*
X2065020Y1147978D01*
G37*
G36*
X1066800Y1137462D02*
G01*
X1076604Y1138326D01*
X1086053Y1140866D01*
X1094994Y1144981D01*
X1103020Y1150620D01*
X1109980Y1157579D01*
X1115618Y1165606D01*
X1119733Y1174546D01*
X1122273Y1183995D01*
X1123137Y1193800D01*
X1122273Y1203604D01*
X1119733Y1213053D01*
X1115618Y1221994D01*
X1109980Y1230020D01*
X1103020Y1236980D01*
X1094994Y1242618D01*
X1086053Y1246733D01*
X1076604Y1249273D01*
X1066800Y1250137D01*
X1056995Y1249273D01*
X1047546Y1246733D01*
X1038606Y1242618D01*
X1030579Y1236980D01*
X1023619Y1230020D01*
X1017981Y1221994D01*
X1013866Y1213053D01*
X1011326Y1203604D01*
X1010462Y1193800D01*
X1011326Y1183995D01*
X1013866Y1174546D01*
X1017981Y1165606D01*
X1023619Y1157579D01*
X1030579Y1150620D01*
X1038606Y1144981D01*
X1047546Y1140866D01*
X1056995Y1138326D01*
G37*
G36*
X-1905000Y1175562D02*
G01*
X-1895195Y1176426D01*
X-1885746Y1178966D01*
X-1876806Y1183081D01*
X-1868779Y1188720D01*
X-1861820Y1195679D01*
X-1856181Y1203706D01*
X-1852066Y1212646D01*
X-1849526Y1222095D01*
X-1848662Y1231900D01*
X-1849526Y1241704D01*
X-1852066Y1251153D01*
X-1856181Y1260094D01*
X-1861820Y1268120D01*
X-1868779Y1275080D01*
X-1876806Y1280718D01*
X-1885746Y1284833D01*
X-1895195Y1287373D01*
X-1905000Y1288237D01*
X-1914804Y1287373D01*
X-1924253Y1284833D01*
X-1933193Y1280718D01*
X-1941220Y1275080D01*
X-1948180Y1268120D01*
X-1953818Y1260094D01*
X-1957933Y1251153D01*
X-1960473Y1241704D01*
X-1961337Y1231900D01*
X-1960473Y1222095D01*
X-1957933Y1212646D01*
X-1953818Y1203706D01*
X-1948180Y1195679D01*
X-1941220Y1188720D01*
X-1933193Y1183081D01*
X-1924253Y1178966D01*
X-1914804Y1176426D01*
G37*
G36*
X-2095500Y1175562D02*
G01*
X-2085695Y1176426D01*
X-2076246Y1178966D01*
X-2067306Y1183081D01*
X-2059279Y1188720D01*
X-2052320Y1195679D01*
X-2046681Y1203706D01*
X-2042566Y1212646D01*
X-2040026Y1222095D01*
X-2039162Y1231900D01*
X-2040026Y1241704D01*
X-2042566Y1251153D01*
X-2046681Y1260094D01*
X-2052320Y1268120D01*
X-2059279Y1275080D01*
X-2067306Y1280718D01*
X-2076246Y1284833D01*
X-2085695Y1287373D01*
X-2095500Y1288237D01*
X-2105304Y1287373D01*
X-2114753Y1284833D01*
X-2123694Y1280718D01*
X-2131720Y1275080D01*
X-2138680Y1268120D01*
X-2144318Y1260094D01*
X-2148433Y1251153D01*
X-2150973Y1241704D01*
X-2151837Y1231900D01*
X-2150973Y1222095D01*
X-2148433Y1212646D01*
X-2144318Y1203706D01*
X-2138680Y1195679D01*
X-2131720Y1188720D01*
X-2123694Y1183081D01*
X-2114753Y1178966D01*
X-2105304Y1176426D01*
G37*
G36*
X1941118Y1203452D02*
G01*
X2097481Y1203452D01*
X2103780Y1204163D01*
X2109266Y1206093D01*
X2114143Y1209141D01*
X2118258Y1213256D01*
X2121306Y1218133D01*
X2123236Y1223619D01*
X2123948Y1229918D01*
X2123948Y1386281D01*
X2123236Y1392580D01*
X2121306Y1398066D01*
X2118258Y1402943D01*
X2114143Y1407058D01*
X2109266Y1410106D01*
X2103780Y1412036D01*
X2097481Y1412748D01*
X1941118Y1412748D01*
X1934819Y1412036D01*
X1929333Y1410106D01*
X1924456Y1407058D01*
X1920341Y1402943D01*
X1917293Y1398066D01*
X1915363Y1392580D01*
X1914652Y1386281D01*
X1914652Y1229918D01*
X1915363Y1223619D01*
X1917293Y1218133D01*
X1920341Y1213256D01*
X1924456Y1209141D01*
X1929333Y1206093D01*
X1934819Y1204163D01*
G37*
G36*
X1687118Y1203452D02*
G01*
X1843481Y1203452D01*
X1849780Y1204163D01*
X1855266Y1206093D01*
X1860143Y1209141D01*
X1864258Y1213256D01*
X1867306Y1218133D01*
X1869236Y1223619D01*
X1869948Y1229918D01*
X1869948Y1386281D01*
X1869236Y1392580D01*
X1867306Y1398066D01*
X1864258Y1402943D01*
X1860143Y1407058D01*
X1855266Y1410106D01*
X1849780Y1412036D01*
X1843481Y1412748D01*
X1687118Y1412748D01*
X1682292Y1412189D01*
X1678178Y1412595D01*
X1674520Y1414576D01*
X1671980Y1417878D01*
X1671015Y1421942D01*
X1671675Y1426006D01*
X1673961Y1429461D01*
X1681480Y1436979D01*
X1687118Y1445006D01*
X1691233Y1453946D01*
X1693773Y1463395D01*
X1694637Y1473200D01*
X1693773Y1483004D01*
X1691233Y1492453D01*
X1687118Y1501394D01*
X1681480Y1509420D01*
X1674520Y1516380D01*
X1666493Y1522018D01*
X1657553Y1526133D01*
X1648104Y1528673D01*
X1638300Y1529537D01*
X1628495Y1528673D01*
X1619046Y1526133D01*
X1610106Y1522018D01*
X1602079Y1516380D01*
X1595120Y1509420D01*
X1589481Y1501394D01*
X1585366Y1492453D01*
X1582826Y1483004D01*
X1581962Y1473200D01*
X1582826Y1463395D01*
X1585366Y1453946D01*
X1589481Y1445006D01*
X1595120Y1436979D01*
X1602079Y1430020D01*
X1610106Y1424381D01*
X1619046Y1420266D01*
X1628495Y1417726D01*
X1638300Y1416862D01*
X1648104Y1417726D01*
X1656588Y1419961D01*
X1660956Y1420164D01*
X1665020Y1418488D01*
X1668018Y1415237D01*
X1669338Y1411071D01*
X1668729Y1406702D01*
X1663293Y1398066D01*
X1661363Y1392580D01*
X1660652Y1386281D01*
X1660652Y1229918D01*
X1661363Y1223619D01*
X1663293Y1218133D01*
X1666341Y1213256D01*
X1670456Y1209141D01*
X1675333Y1206093D01*
X1680819Y1204163D01*
G37*
G36*
X296418Y1226362D02*
G01*
X306171Y1227226D01*
X315671Y1229766D01*
X324561Y1233881D01*
X330911Y1238351D01*
X334670Y1239977D01*
X338785Y1239977D01*
X342544Y1238351D01*
X348894Y1233881D01*
X357835Y1229766D01*
X367284Y1227226D01*
X377088Y1226362D01*
X386892Y1227226D01*
X396341Y1229766D01*
X405282Y1233881D01*
X411226Y1238046D01*
X414985Y1239672D01*
X419100Y1239672D01*
X422859Y1238046D01*
X428802Y1233881D01*
X437743Y1229766D01*
X447192Y1227226D01*
X456996Y1226362D01*
X466801Y1227226D01*
X476250Y1229766D01*
X485190Y1233881D01*
X491540Y1238351D01*
X495300Y1239977D01*
X499414Y1239977D01*
X503174Y1238351D01*
X509524Y1233881D01*
X518414Y1229766D01*
X527913Y1227226D01*
X537718Y1226362D01*
X547471Y1227226D01*
X556971Y1229766D01*
X565861Y1233881D01*
X573938Y1239520D01*
X580847Y1246479D01*
X586486Y1254506D01*
X590651Y1263446D01*
X593191Y1272895D01*
X594055Y1282700D01*
X593191Y1292504D01*
X590651Y1301953D01*
X586486Y1310894D01*
X582117Y1317142D01*
X580491Y1320901D01*
X580491Y1325016D01*
X582117Y1328775D01*
X586486Y1335024D01*
X590651Y1343914D01*
X593191Y1353413D01*
X594055Y1363167D01*
X593191Y1372971D01*
X590651Y1382471D01*
X586486Y1391361D01*
X582168Y1397508D01*
X580542Y1401318D01*
X580542Y1405382D01*
X582168Y1409192D01*
X586486Y1415338D01*
X590651Y1424228D01*
X593191Y1433728D01*
X594055Y1443482D01*
X593191Y1453286D01*
X590651Y1462786D01*
X586486Y1471676D01*
X582117Y1477924D01*
X580491Y1481683D01*
X580491Y1485798D01*
X582117Y1489557D01*
X586486Y1495806D01*
X590651Y1504746D01*
X593191Y1514195D01*
X594055Y1524000D01*
X593191Y1533804D01*
X590651Y1543253D01*
X586486Y1552194D01*
X580847Y1560220D01*
X573938Y1567180D01*
X565861Y1572818D01*
X556971Y1576933D01*
X547471Y1579473D01*
X537718Y1580337D01*
X527913Y1579473D01*
X518414Y1576933D01*
X509524Y1572818D01*
X503174Y1568348D01*
X499414Y1566722D01*
X495300Y1566722D01*
X491540Y1568348D01*
X485190Y1572818D01*
X476250Y1576933D01*
X466801Y1579473D01*
X456996Y1580337D01*
X447192Y1579473D01*
X437743Y1576933D01*
X428802Y1572818D01*
X422859Y1568653D01*
X419100Y1567027D01*
X414985Y1567027D01*
X411226Y1568653D01*
X405282Y1572818D01*
X396341Y1576933D01*
X386892Y1579473D01*
X377088Y1580337D01*
X367284Y1579473D01*
X357835Y1576933D01*
X348894Y1572818D01*
X342544Y1568348D01*
X338785Y1566722D01*
X334670Y1566722D01*
X330911Y1568348D01*
X324561Y1572818D01*
X315671Y1576933D01*
X306171Y1579473D01*
X296418Y1580337D01*
X286613Y1579473D01*
X277114Y1576933D01*
X268224Y1572818D01*
X260146Y1567180D01*
X253238Y1560220D01*
X247599Y1552194D01*
X243433Y1543253D01*
X240893Y1533804D01*
X240029Y1524000D01*
X240893Y1514195D01*
X243433Y1504746D01*
X247599Y1495806D01*
X251967Y1489557D01*
X253593Y1485798D01*
X253593Y1481683D01*
X251967Y1477924D01*
X247599Y1471676D01*
X243433Y1462786D01*
X240893Y1453286D01*
X240029Y1443482D01*
X240893Y1433728D01*
X243433Y1424228D01*
X247599Y1415338D01*
X251917Y1409192D01*
X253542Y1405382D01*
X253542Y1401318D01*
X251917Y1397508D01*
X247599Y1391361D01*
X243433Y1382471D01*
X240893Y1372971D01*
X240029Y1363167D01*
X240893Y1353413D01*
X243433Y1343914D01*
X247599Y1335024D01*
X251967Y1328775D01*
X253593Y1325016D01*
X253593Y1320901D01*
X251967Y1317142D01*
X247599Y1310894D01*
X243433Y1301953D01*
X240893Y1292504D01*
X240029Y1282700D01*
X240893Y1272895D01*
X243433Y1263446D01*
X247599Y1254506D01*
X253238Y1246479D01*
X260146Y1239520D01*
X268224Y1233881D01*
X277114Y1229766D01*
X286613Y1227226D01*
G37*
G36*
X63500Y1264462D02*
G01*
X73304Y1265326D01*
X82753Y1267866D01*
X91694Y1271981D01*
X99720Y1277620D01*
X106680Y1284579D01*
X112318Y1292606D01*
X116433Y1301546D01*
X118973Y1310995D01*
X119837Y1320800D01*
X118973Y1330604D01*
X116433Y1340053D01*
X112318Y1348994D01*
X106680Y1357020D01*
X99720Y1363980D01*
X91694Y1369618D01*
X82753Y1373733D01*
X73304Y1376273D01*
X63500Y1377137D01*
X53695Y1376273D01*
X44246Y1373733D01*
X35306Y1369618D01*
X27279Y1363980D01*
X20320Y1357020D01*
X14681Y1348994D01*
X10566Y1340053D01*
X8026Y1330604D01*
X7162Y1320800D01*
X8026Y1310995D01*
X10566Y1301546D01*
X14681Y1292606D01*
X20320Y1284579D01*
X27279Y1277620D01*
X35306Y1271981D01*
X44246Y1267866D01*
X53695Y1265326D01*
G37*
G36*
X-127000Y1264462D02*
G01*
X-117195Y1265326D01*
X-107746Y1267866D01*
X-98806Y1271981D01*
X-90779Y1277620D01*
X-83820Y1284579D01*
X-78181Y1292606D01*
X-74066Y1301546D01*
X-71526Y1310995D01*
X-70662Y1320800D01*
X-71526Y1330604D01*
X-74066Y1340053D01*
X-78181Y1348994D01*
X-83820Y1357020D01*
X-90779Y1363980D01*
X-98806Y1369618D01*
X-107746Y1373733D01*
X-110489Y1374495D01*
X-114350Y1376527D01*
X-117043Y1379982D01*
X-118008Y1384300D01*
X-117043Y1388618D01*
X-114350Y1392072D01*
X-110489Y1394104D01*
X-107746Y1394866D01*
X-98806Y1398981D01*
X-90779Y1404620D01*
X-83820Y1411579D01*
X-78181Y1419606D01*
X-74066Y1428546D01*
X-71526Y1437995D01*
X-70662Y1447800D01*
X-71526Y1457604D01*
X-74066Y1467053D01*
X-78181Y1475994D01*
X-83820Y1484020D01*
X-90779Y1490980D01*
X-98806Y1496618D01*
X-107746Y1500733D01*
X-117195Y1503273D01*
X-127000Y1504137D01*
X-136804Y1503273D01*
X-146253Y1500733D01*
X-155194Y1496618D01*
X-163220Y1490980D01*
X-170180Y1484020D01*
X-175818Y1475994D01*
X-179933Y1467053D01*
X-182473Y1457604D01*
X-183337Y1447800D01*
X-182473Y1437995D01*
X-179933Y1428546D01*
X-175818Y1419606D01*
X-170180Y1411579D01*
X-163220Y1404620D01*
X-155194Y1398981D01*
X-146253Y1394866D01*
X-143510Y1394104D01*
X-139649Y1392072D01*
X-136956Y1388618D01*
X-135991Y1384300D01*
X-136956Y1379982D01*
X-139649Y1376527D01*
X-143510Y1374495D01*
X-146253Y1373733D01*
X-155194Y1369618D01*
X-163220Y1363980D01*
X-170180Y1357020D01*
X-175818Y1348994D01*
X-179933Y1340053D01*
X-182473Y1330604D01*
X-183337Y1320800D01*
X-182473Y1310995D01*
X-179933Y1301546D01*
X-175818Y1292606D01*
X-170180Y1284579D01*
X-163220Y1277620D01*
X-155194Y1271981D01*
X-146253Y1267866D01*
X-136804Y1265326D01*
G37*
G36*
X-596900Y1315262D02*
G01*
X-587095Y1316126D01*
X-577646Y1318666D01*
X-568706Y1322781D01*
X-560679Y1328420D01*
X-553720Y1335379D01*
X-548081Y1343406D01*
X-543966Y1352346D01*
X-541426Y1361795D01*
X-540562Y1371600D01*
X-541426Y1381404D01*
X-543966Y1390853D01*
X-548081Y1399794D01*
X-553720Y1407820D01*
X-560679Y1414780D01*
X-568706Y1420418D01*
X-577646Y1424533D01*
X-587095Y1427073D01*
X-596900Y1427937D01*
X-606704Y1427073D01*
X-616153Y1424533D01*
X-625094Y1420418D01*
X-633120Y1414780D01*
X-640080Y1407820D01*
X-645718Y1399794D01*
X-649833Y1390853D01*
X-652373Y1381404D01*
X-653237Y1371600D01*
X-652373Y1361795D01*
X-649833Y1352346D01*
X-645718Y1343406D01*
X-640080Y1335379D01*
X-633120Y1328420D01*
X-625094Y1322781D01*
X-616153Y1318666D01*
X-606704Y1316126D01*
G37*
G36*
X1270000Y1391462D02*
G01*
X1279804Y1392326D01*
X1289253Y1394866D01*
X1298194Y1398981D01*
X1306220Y1404620D01*
X1313180Y1411579D01*
X1318818Y1419606D01*
X1322933Y1428546D01*
X1325473Y1437995D01*
X1326337Y1447800D01*
X1325473Y1457604D01*
X1322933Y1467053D01*
X1318818Y1475994D01*
X1313180Y1484020D01*
X1306220Y1490980D01*
X1298194Y1496618D01*
X1289253Y1500733D01*
X1279804Y1503273D01*
X1270000Y1504137D01*
X1260195Y1503273D01*
X1250746Y1500733D01*
X1241806Y1496618D01*
X1233779Y1490980D01*
X1226820Y1484020D01*
X1221181Y1475994D01*
X1217066Y1467053D01*
X1214526Y1457604D01*
X1213662Y1447800D01*
X1214526Y1437995D01*
X1217066Y1428546D01*
X1221181Y1419606D01*
X1226820Y1411579D01*
X1233779Y1404620D01*
X1241806Y1398981D01*
X1250746Y1394866D01*
X1260195Y1392326D01*
G37*
G36*
X127000Y1442262D02*
G01*
X136804Y1443126D01*
X146253Y1445666D01*
X155194Y1449781D01*
X163220Y1455420D01*
X170180Y1462379D01*
X175818Y1470406D01*
X179933Y1479346D01*
X182473Y1488795D01*
X183337Y1498600D01*
X182473Y1508404D01*
X179933Y1517853D01*
X175818Y1526794D01*
X170180Y1534820D01*
X163220Y1541780D01*
X155194Y1547418D01*
X146253Y1551533D01*
X136804Y1554073D01*
X127000Y1554937D01*
X117195Y1554073D01*
X107746Y1551533D01*
X98806Y1547418D01*
X90779Y1541780D01*
X83820Y1534820D01*
X78181Y1526794D01*
X74066Y1517853D01*
X71526Y1508404D01*
X70662Y1498600D01*
X71526Y1488795D01*
X74066Y1479346D01*
X78181Y1470406D01*
X83820Y1462379D01*
X90779Y1455420D01*
X98806Y1449781D01*
X107746Y1445666D01*
X117195Y1443126D01*
G37*
G36*
X1155700Y1505762D02*
G01*
X1165504Y1506626D01*
X1174953Y1509166D01*
X1183894Y1513281D01*
X1191920Y1518920D01*
X1198880Y1525879D01*
X1204518Y1533906D01*
X1208633Y1542846D01*
X1211173Y1552295D01*
X1212037Y1562100D01*
X1211173Y1571904D01*
X1208633Y1581353D01*
X1204518Y1590294D01*
X1198880Y1598320D01*
X1191920Y1605280D01*
X1183894Y1610918D01*
X1174953Y1615033D01*
X1165504Y1617573D01*
X1155700Y1618437D01*
X1145895Y1617573D01*
X1136446Y1615033D01*
X1127506Y1610918D01*
X1119479Y1605280D01*
X1112520Y1598320D01*
X1106881Y1590294D01*
X1102766Y1581353D01*
X1100226Y1571904D01*
X1099362Y1562100D01*
X1100226Y1552295D01*
X1102766Y1542846D01*
X1106881Y1533906D01*
X1112520Y1525879D01*
X1119479Y1518920D01*
X1127506Y1513281D01*
X1136446Y1509166D01*
X1145895Y1506626D01*
G37*
G36*
X751992Y1615643D02*
G01*
X761796Y1616506D01*
X771245Y1619046D01*
X780186Y1623212D01*
X788212Y1628851D01*
X795172Y1635760D01*
X800811Y1643837D01*
X804926Y1652727D01*
X807466Y1662226D01*
X808329Y1671980D01*
X807466Y1681784D01*
X804926Y1691284D01*
X800811Y1700174D01*
X795172Y1708251D01*
X788212Y1715160D01*
X780186Y1720799D01*
X771245Y1724964D01*
X761796Y1727504D01*
X751992Y1728368D01*
X742188Y1727504D01*
X732739Y1724964D01*
X723798Y1720799D01*
X715772Y1715160D01*
X708812Y1708251D01*
X703173Y1700174D01*
X699058Y1691284D01*
X696518Y1681784D01*
X695655Y1671980D01*
X696518Y1662226D01*
X699058Y1652727D01*
X703173Y1643837D01*
X708812Y1635760D01*
X715772Y1628851D01*
X723798Y1623212D01*
X732739Y1619046D01*
X742188Y1616506D01*
G37*
G36*
X1587500Y1645462D02*
G01*
X1597304Y1646326D01*
X1606753Y1648866D01*
X1615694Y1652981D01*
X1623720Y1658620D01*
X1630680Y1665579D01*
X1636318Y1673606D01*
X1640433Y1682546D01*
X1642973Y1691995D01*
X1643837Y1701800D01*
X1642973Y1711604D01*
X1640433Y1721053D01*
X1636318Y1729993D01*
X1630680Y1738020D01*
X1623720Y1744980D01*
X1615694Y1750618D01*
X1606753Y1754733D01*
X1597304Y1757273D01*
X1587500Y1758137D01*
X1577695Y1757273D01*
X1568246Y1754733D01*
X1559306Y1750618D01*
X1551279Y1744980D01*
X1544320Y1738020D01*
X1538681Y1729993D01*
X1534566Y1721053D01*
X1532026Y1711604D01*
X1531162Y1701800D01*
X1532026Y1691995D01*
X1534566Y1682546D01*
X1538681Y1673606D01*
X1544320Y1665579D01*
X1551279Y1658620D01*
X1559306Y1652981D01*
X1568246Y1648866D01*
X1577695Y1646326D01*
G37*
G36*
X-139700Y1772462D02*
G01*
X-129895Y1773326D01*
X-120446Y1775866D01*
X-111506Y1779981D01*
X-103479Y1785620D01*
X-96520Y1792579D01*
X-90881Y1800606D01*
X-86766Y1809546D01*
X-84226Y1818995D01*
X-83362Y1828800D01*
X-84226Y1838604D01*
X-86766Y1848053D01*
X-90881Y1856993D01*
X-96520Y1865020D01*
X-103479Y1871980D01*
X-111506Y1877618D01*
X-120446Y1881733D01*
X-129895Y1884273D01*
X-139700Y1885137D01*
X-149504Y1884273D01*
X-158953Y1881733D01*
X-167894Y1877618D01*
X-175920Y1871980D01*
X-182880Y1865020D01*
X-188518Y1856993D01*
X-192633Y1848053D01*
X-195173Y1838604D01*
X-196037Y1828800D01*
X-195173Y1818995D01*
X-192633Y1809546D01*
X-188518Y1800606D01*
X-182880Y1792579D01*
X-175920Y1785620D01*
X-167894Y1779981D01*
X-158953Y1775866D01*
X-149504Y1773326D01*
G37*
G36*
X-1016000Y1937562D02*
G01*
X-1006195Y1938426D01*
X-996746Y1940966D01*
X-987806Y1945081D01*
X-979779Y1950720D01*
X-972819Y1957679D01*
X-967181Y1965706D01*
X-963066Y1974646D01*
X-960526Y1984095D01*
X-959662Y1993900D01*
X-960526Y2003704D01*
X-963066Y2013153D01*
X-967181Y2022093D01*
X-976071Y2034438D01*
X-976833Y2038350D01*
X-976071Y2042261D01*
X-967181Y2054606D01*
X-963066Y2063546D01*
X-960526Y2072995D01*
X-959662Y2082800D01*
X-960526Y2092604D01*
X-963066Y2102053D01*
X-967181Y2110994D01*
X-972819Y2119020D01*
X-979779Y2125980D01*
X-987806Y2131618D01*
X-996746Y2135733D01*
X-1006195Y2138273D01*
X-1016000Y2139137D01*
X-1025804Y2138273D01*
X-1035253Y2135733D01*
X-1044194Y2131618D01*
X-1052220Y2125980D01*
X-1059180Y2119020D01*
X-1064818Y2110994D01*
X-1068933Y2102053D01*
X-1071473Y2092604D01*
X-1072337Y2082800D01*
X-1071473Y2072995D01*
X-1068933Y2063546D01*
X-1064818Y2054606D01*
X-1055928Y2042261D01*
X-1055166Y2038350D01*
X-1055928Y2034438D01*
X-1064818Y2022093D01*
X-1068933Y2013153D01*
X-1071473Y2003704D01*
X-1072337Y1993900D01*
X-1071473Y1984095D01*
X-1068933Y1974646D01*
X-1064818Y1965706D01*
X-1059180Y1957679D01*
X-1052220Y1950720D01*
X-1044194Y1945081D01*
X-1035253Y1940966D01*
X-1025804Y1938426D01*
G37*
G36*
X-1345184Y2017014D02*
G01*
X-1335379Y2017877D01*
X-1325930Y2020417D01*
X-1316990Y2024532D01*
X-1308963Y2030171D01*
X-1302004Y2037130D01*
X-1296365Y2045157D01*
X-1292250Y2054098D01*
X-1289710Y2063546D01*
X-1288846Y2073351D01*
X-1289710Y2083155D01*
X-1292250Y2092604D01*
X-1296365Y2101545D01*
X-1302004Y2109571D01*
X-1308963Y2116531D01*
X-1316990Y2122170D01*
X-1325930Y2126284D01*
X-1335379Y2128824D01*
X-1345184Y2129688D01*
X-1354988Y2128824D01*
X-1364437Y2126284D01*
X-1373378Y2122170D01*
X-1379118Y2118106D01*
X-1382318Y2116632D01*
X-1385874Y2116328D01*
X-1389278Y2117191D01*
X-1392174Y2119223D01*
X-1398879Y2125980D01*
X-1406906Y2131618D01*
X-1415846Y2135733D01*
X-1425295Y2138273D01*
X-1435100Y2139137D01*
X-1444904Y2138273D01*
X-1454353Y2135733D01*
X-1463294Y2131618D01*
X-1467358Y2128723D01*
X-1471168Y2127097D01*
X-1475232Y2127097D01*
X-1479042Y2128723D01*
X-1483106Y2131618D01*
X-1492046Y2135733D01*
X-1501495Y2138273D01*
X-1511300Y2139137D01*
X-1521104Y2138273D01*
X-1530553Y2135733D01*
X-1539494Y2131618D01*
X-1547520Y2125980D01*
X-1554480Y2119020D01*
X-1560118Y2110994D01*
X-1564233Y2102053D01*
X-1566773Y2092604D01*
X-1567637Y2082800D01*
X-1566773Y2072995D01*
X-1564233Y2063546D01*
X-1560118Y2054606D01*
X-1554480Y2046579D01*
X-1547520Y2039620D01*
X-1539494Y2033981D01*
X-1530553Y2029866D01*
X-1521104Y2027326D01*
X-1511300Y2026462D01*
X-1501495Y2027326D01*
X-1492046Y2029866D01*
X-1483106Y2033981D01*
X-1479042Y2036876D01*
X-1475232Y2038502D01*
X-1471168Y2038502D01*
X-1467358Y2036876D01*
X-1463294Y2033981D01*
X-1454353Y2029866D01*
X-1444904Y2027326D01*
X-1435100Y2026462D01*
X-1425295Y2027326D01*
X-1415846Y2029866D01*
X-1406906Y2033981D01*
X-1401165Y2038045D01*
X-1397965Y2039518D01*
X-1394409Y2039823D01*
X-1391005Y2038959D01*
X-1388110Y2036927D01*
X-1381404Y2030171D01*
X-1373378Y2024532D01*
X-1364437Y2020417D01*
X-1354988Y2017877D01*
G37*
G36*
X-325983Y2024684D02*
G01*
X-316433Y2025954D01*
X-307238Y2028748D01*
X-298602Y2033117D01*
X-290830Y2038857D01*
X-284175Y2045817D01*
X-278790Y2053793D01*
X-274777Y2062581D01*
X-272389Y2071928D01*
X-271526Y2081530D01*
X-272389Y2091131D01*
X-274777Y2100478D01*
X-278790Y2109266D01*
X-284175Y2117242D01*
X-290830Y2124202D01*
X-298602Y2129942D01*
X-307238Y2134311D01*
X-316433Y2137105D01*
X-325983Y2138375D01*
X-335635Y2137918D01*
X-345084Y2135886D01*
X-354025Y2132330D01*
X-362254Y2127250D01*
X-369468Y2120900D01*
X-375564Y2113381D01*
X-380238Y2104948D01*
X-383438Y2095855D01*
X-385064Y2086356D01*
X-385064Y2076704D01*
X-383438Y2067204D01*
X-380238Y2058111D01*
X-375564Y2049678D01*
X-369468Y2042160D01*
X-362254Y2035810D01*
X-354025Y2030730D01*
X-345084Y2027174D01*
X-335635Y2025142D01*
G37*

%LPD*%
G36*
X-1688541Y-2174087D02*
G01*
X-1692910Y-2173071D01*
X-1714144Y-2162860D01*
X-1752955Y-2142083D01*
X-1790852Y-2119630D01*
X-1827784Y-2095550D01*
X-1863598Y-2069896D01*
X-1898294Y-2042769D01*
X-1931771Y-2014118D01*
X-1953768Y-1993646D01*
X-1956257Y-1990089D01*
X-1957019Y-1985772D01*
X-1955901Y-1981555D01*
X-1953107Y-1978202D01*
X-1949145Y-1976323D01*
X-1944776Y-1976272D01*
X-1936648Y-1977948D01*
X-1915769Y-1980336D01*
X-1894738Y-1980844D01*
X-1873757Y-1979422D01*
X-1853031Y-1976069D01*
X-1832660Y-1970836D01*
X-1812848Y-1963826D01*
X-1793748Y-1954987D01*
X-1775561Y-1944522D01*
X-1758391Y-1932381D01*
X-1742389Y-1918766D01*
X-1727707Y-1903730D01*
X-1714449Y-1887423D01*
X-1702714Y-1869948D01*
X-1692605Y-1851507D01*
X-1684223Y-1832254D01*
X-1677670Y-1812289D01*
X-1672894Y-1791817D01*
X-1670050Y-1770989D01*
X-1669084Y-1750009D01*
X-1670050Y-1728978D01*
X-1672894Y-1708200D01*
X-1677670Y-1687677D01*
X-1684223Y-1667764D01*
X-1692605Y-1648460D01*
X-1702714Y-1630019D01*
X-1714449Y-1612595D01*
X-1727707Y-1596288D01*
X-1742389Y-1581251D01*
X-1758391Y-1567637D01*
X-1775561Y-1555496D01*
X-1793748Y-1544980D01*
X-1812848Y-1536192D01*
X-1832660Y-1529130D01*
X-1853031Y-1523949D01*
X-1873757Y-1520596D01*
X-1891182Y-1519428D01*
X-1895398Y-1518158D01*
X-1898599Y-1515465D01*
X-1902053Y-1518310D01*
X-1906422Y-1519428D01*
X-1915769Y-1519631D01*
X-1936648Y-1522018D01*
X-1957222Y-1526286D01*
X-1968195Y-1529638D01*
X-1972411Y-1529994D01*
X-1976374Y-1528622D01*
X-1979472Y-1525778D01*
X-1981149Y-1521866D01*
X-1981047Y-1517650D01*
X-1979269Y-1513840D01*
X-1971293Y-1503172D01*
X-1969058Y-1500987D01*
X-1966264Y-1499565D01*
X-1963166Y-1499108D01*
X-1906676Y-1499108D01*
X-1902256Y-1500124D01*
X-1898548Y-1503324D01*
X-1894789Y-1500073D01*
X-1890471Y-1499108D01*
X-1854504Y-1499108D01*
X-1848459Y-1498447D01*
X-1842973Y-1496517D01*
X-1838045Y-1493418D01*
X-1835657Y-1491335D01*
X-1785264Y-1440942D01*
X-1781454Y-1436166D01*
X-1778965Y-1430934D01*
X-1777695Y-1425295D01*
X-1777492Y-1422095D01*
X-1777492Y-1119632D01*
X-1776526Y-1115314D01*
X-1773885Y-1111859D01*
X-1769973Y-1109827D01*
X-1765554Y-1109624D01*
X-1761489Y-1111300D01*
X-1755393Y-1115618D01*
X-1746453Y-1119733D01*
X-1737004Y-1122273D01*
X-1727200Y-1123137D01*
X-1717395Y-1122273D01*
X-1707946Y-1119733D01*
X-1699006Y-1115618D01*
X-1690979Y-1109980D01*
X-1684020Y-1103020D01*
X-1678381Y-1094994D01*
X-1674266Y-1086053D01*
X-1671726Y-1076604D01*
X-1670862Y-1066800D01*
X-1671726Y-1056995D01*
X-1674266Y-1047546D01*
X-1678381Y-1038606D01*
X-1684020Y-1030579D01*
X-1690979Y-1023619D01*
X-1699006Y-1017981D01*
X-1707946Y-1013866D01*
X-1717395Y-1011326D01*
X-1727200Y-1010462D01*
X-1737004Y-1011326D01*
X-1746453Y-1013866D01*
X-1755393Y-1017981D01*
X-1761489Y-1022299D01*
X-1765554Y-1023975D01*
X-1769973Y-1023772D01*
X-1773885Y-1021740D01*
X-1776526Y-1018286D01*
X-1777492Y-1013968D01*
X-1777492Y-927404D01*
X-1778152Y-921359D01*
X-1780082Y-915873D01*
X-1783181Y-910945D01*
X-1785264Y-908558D01*
X-1817319Y-876503D01*
X-1819706Y-872794D01*
X-1820265Y-868426D01*
X-1818944Y-864260D01*
X-1815998Y-861009D01*
X-1808784Y-855980D01*
X-1802180Y-849376D01*
X-1798878Y-847191D01*
X-1795018Y-846378D01*
X-1791106Y-847191D01*
X-1787804Y-849376D01*
X-1781251Y-855980D01*
X-1773174Y-861618D01*
X-1764284Y-865733D01*
X-1754784Y-868273D01*
X-1744980Y-869137D01*
X-1735226Y-868273D01*
X-1725726Y-865733D01*
X-1716836Y-861618D01*
X-1708759Y-855980D01*
X-1701850Y-849020D01*
X-1699971Y-846378D01*
X-1697177Y-843686D01*
X-1693570Y-842213D01*
X-1689709Y-842213D01*
X-1686102Y-843686D01*
X-1683308Y-846378D01*
X-1681480Y-849020D01*
X-1674520Y-855980D01*
X-1666493Y-861618D01*
X-1657553Y-865733D01*
X-1648104Y-868273D01*
X-1638300Y-869137D01*
X-1628495Y-868273D01*
X-1619046Y-865733D01*
X-1610106Y-861618D01*
X-1602079Y-855980D01*
X-1594662Y-848563D01*
X-1591411Y-846378D01*
X-1587500Y-845616D01*
X-1583588Y-846378D01*
X-1580337Y-848563D01*
X-1572920Y-855980D01*
X-1564894Y-861618D01*
X-1555953Y-865733D01*
X-1546504Y-868273D01*
X-1536700Y-869137D01*
X-1526895Y-868273D01*
X-1517446Y-865733D01*
X-1508506Y-861618D01*
X-1500479Y-855980D01*
X-1493520Y-849020D01*
X-1487881Y-840994D01*
X-1483766Y-832053D01*
X-1481226Y-822604D01*
X-1480362Y-812800D01*
X-1481226Y-802995D01*
X-1483766Y-793546D01*
X-1487881Y-784606D01*
X-1493520Y-776579D01*
X-1500479Y-769620D01*
X-1508506Y-763981D01*
X-1517446Y-759866D01*
X-1526895Y-757326D01*
X-1536700Y-756462D01*
X-1546504Y-757326D01*
X-1555953Y-759866D01*
X-1564894Y-763981D01*
X-1572920Y-769620D01*
X-1580337Y-777036D01*
X-1583588Y-779221D01*
X-1587500Y-779983D01*
X-1591411Y-779221D01*
X-1594662Y-777036D01*
X-1602079Y-769620D01*
X-1610106Y-763981D01*
X-1619046Y-759866D01*
X-1628495Y-757326D01*
X-1638300Y-756462D01*
X-1648104Y-757326D01*
X-1657553Y-759866D01*
X-1666493Y-763981D01*
X-1674520Y-769620D01*
X-1681480Y-776579D01*
X-1683308Y-779221D01*
X-1686102Y-781913D01*
X-1689709Y-783386D01*
X-1693570Y-783386D01*
X-1697177Y-781913D01*
X-1699971Y-779221D01*
X-1701850Y-776579D01*
X-1708759Y-769620D01*
X-1716836Y-763981D01*
X-1725015Y-760171D01*
X-1728520Y-757478D01*
X-1730552Y-753516D01*
X-1730705Y-749096D01*
X-1728978Y-745032D01*
X-1725675Y-742086D01*
X-1043686Y-363220D01*
X-1041298Y-362254D01*
X-1038758Y-361950D01*
X62484Y-361950D01*
X64160Y-361391D01*
X135077Y-298043D01*
X138887Y-295910D01*
X143256Y-295554D01*
X147370Y-297129D01*
X150469Y-300228D01*
X151942Y-304393D01*
X152806Y-311708D01*
X164287Y-357581D01*
X164592Y-360019D01*
X164592Y-520395D01*
X165252Y-526440D01*
X167182Y-531926D01*
X170281Y-536854D01*
X172364Y-539242D01*
X222758Y-589635D01*
X227533Y-593445D01*
X232765Y-595934D01*
X238404Y-597204D01*
X241604Y-597408D01*
X358749Y-597408D01*
X362712Y-598220D01*
X366064Y-600506D01*
X368249Y-603910D01*
X368909Y-607923D01*
X367944Y-611886D01*
X366166Y-615746D01*
X363626Y-625195D01*
X362762Y-635000D01*
X363626Y-644804D01*
X366166Y-654253D01*
X370281Y-663194D01*
X375920Y-671220D01*
X382879Y-678180D01*
X390906Y-683818D01*
X399846Y-687933D01*
X409295Y-690473D01*
X419100Y-691337D01*
X428904Y-690473D01*
X438353Y-687933D01*
X447293Y-683818D01*
X455320Y-678180D01*
X462280Y-671220D01*
X467918Y-663194D01*
X472033Y-654253D01*
X474573Y-644804D01*
X475437Y-635000D01*
X474573Y-625195D01*
X472033Y-615746D01*
X470255Y-611886D01*
X469290Y-607923D01*
X469950Y-603910D01*
X472135Y-600506D01*
X475488Y-598220D01*
X479450Y-597408D01*
X785368Y-597408D01*
X789533Y-598322D01*
X792937Y-600811D01*
X795070Y-604520D01*
X795477Y-608736D01*
X794105Y-612800D01*
X791210Y-615899D01*
X789279Y-617220D01*
X782320Y-624179D01*
X776681Y-632206D01*
X772566Y-641146D01*
X770026Y-650595D01*
X769162Y-660400D01*
X770026Y-670204D01*
X772566Y-679653D01*
X776681Y-688594D01*
X782320Y-696620D01*
X789279Y-703580D01*
X797306Y-709218D01*
X806246Y-713333D01*
X815695Y-715873D01*
X825500Y-716737D01*
X835304Y-715873D01*
X844753Y-713333D01*
X853694Y-709218D01*
X861720Y-703580D01*
X868680Y-696620D01*
X874318Y-688594D01*
X878433Y-679653D01*
X880973Y-670204D01*
X881837Y-660400D01*
X880973Y-650595D01*
X878433Y-641146D01*
X874318Y-632206D01*
X868680Y-624179D01*
X861720Y-617220D01*
X859790Y-615899D01*
X856894Y-612800D01*
X855522Y-608736D01*
X855929Y-604520D01*
X858062Y-600811D01*
X861466Y-598322D01*
X865632Y-597408D01*
X1066292Y-597408D01*
X1072134Y-596798D01*
X1077671Y-594969D01*
X1082598Y-591921D01*
X1086764Y-587908D01*
X1090218Y-582574D01*
X1102410Y-558190D01*
X1104595Y-552246D01*
X1105408Y-545490D01*
X1105408Y-305104D01*
X1104747Y-299059D01*
X1102817Y-293573D01*
X1099718Y-288645D01*
X1097635Y-286258D01*
X1057605Y-246227D01*
X1055370Y-242925D01*
X1054608Y-239064D01*
X1054608Y-76758D01*
X1053896Y-70459D01*
X1051966Y-64871D01*
X1048918Y-59791D01*
X1047546Y-55778D01*
X1047953Y-51562D01*
X1050086Y-47853D01*
X1053490Y-45364D01*
X1057656Y-44450D01*
X1089304Y-44450D01*
X1092098Y-44856D01*
X1094638Y-45974D01*
X1421180Y-246888D01*
X1423822Y-247650D01*
X1694332Y-247650D01*
X1698243Y-248412D01*
X1701495Y-250647D01*
X1703730Y-253898D01*
X1704492Y-257810D01*
X1704492Y-270459D01*
X1703933Y-273710D01*
X1702562Y-277774D01*
X1699920Y-291185D01*
X1699006Y-304800D01*
X1699920Y-318414D01*
X1702562Y-331825D01*
X1703933Y-335889D01*
X1704492Y-339140D01*
X1704492Y-524459D01*
X1703933Y-527710D01*
X1702562Y-531774D01*
X1699920Y-545185D01*
X1699006Y-558800D01*
X1699920Y-572414D01*
X1702562Y-585825D01*
X1703933Y-589889D01*
X1704492Y-593140D01*
X1704492Y-631240D01*
X1705203Y-637540D01*
X1707134Y-643026D01*
X1710182Y-647903D01*
X1714296Y-652018D01*
X1719173Y-655066D01*
X1724660Y-656996D01*
X1730959Y-657707D01*
X1769059Y-657707D01*
X1772310Y-658266D01*
X1776374Y-659638D01*
X1789785Y-662279D01*
X1803400Y-663194D01*
X1817014Y-662279D01*
X1830425Y-659638D01*
X1834489Y-658266D01*
X1837740Y-657707D01*
X2023059Y-657707D01*
X2026310Y-658266D01*
X2030374Y-659638D01*
X2043785Y-662279D01*
X2057400Y-663194D01*
X2071014Y-662279D01*
X2084425Y-659638D01*
X2088489Y-658266D01*
X2091740Y-657707D01*
X2129840Y-657707D01*
X2136140Y-656996D01*
X2141626Y-655066D01*
X2146503Y-652018D01*
X2150618Y-647903D01*
X2153666Y-643026D01*
X2154326Y-641146D01*
X2156409Y-637641D01*
X2159660Y-635254D01*
X2163622Y-634339D01*
X2167585Y-635000D01*
X2170988Y-637184D01*
X2173274Y-640537D01*
X2174087Y-644499D01*
X2174087Y-727100D01*
X2173274Y-731062D01*
X2170988Y-734415D01*
X2167585Y-736600D01*
X2163622Y-737260D01*
X2159660Y-736346D01*
X2156409Y-733958D01*
X2154326Y-730453D01*
X2153666Y-728573D01*
X2150618Y-723696D01*
X2146503Y-719582D01*
X2141626Y-716534D01*
X2136140Y-714603D01*
X2129840Y-713892D01*
X2036775Y-713892D01*
X2036775Y-833475D01*
X2163927Y-833475D01*
X2167839Y-834237D01*
X2171141Y-836421D01*
X2173325Y-839724D01*
X2174087Y-843635D01*
X2174087Y-1036015D01*
X2173325Y-1039876D01*
X2171141Y-1043178D01*
X2167839Y-1045362D01*
X2163927Y-1046175D01*
X2036775Y-1046175D01*
X2036775Y-1165707D01*
X2129840Y-1165707D01*
X2136140Y-1164996D01*
X2141626Y-1163066D01*
X2146503Y-1160018D01*
X2150618Y-1155903D01*
X2153666Y-1151026D01*
X2154326Y-1149146D01*
X2156409Y-1145641D01*
X2159660Y-1143254D01*
X2163622Y-1142339D01*
X2167585Y-1143000D01*
X2170988Y-1145184D01*
X2173274Y-1148537D01*
X2174087Y-1152499D01*
X2174087Y-1688490D01*
X2173122Y-1692859D01*
X2164384Y-1711096D01*
X2149348Y-1739442D01*
X2146503Y-1742795D01*
X2142490Y-1744624D01*
X2138121Y-1744573D01*
X2134158Y-1742744D01*
X2131364Y-1739392D01*
X2130196Y-1735124D01*
X2129942Y-1728978D01*
X2127097Y-1708200D01*
X2122322Y-1687677D01*
X2115769Y-1667764D01*
X2107387Y-1648460D01*
X2097278Y-1630019D01*
X2085543Y-1612595D01*
X2072284Y-1596288D01*
X2057603Y-1581251D01*
X2041601Y-1567637D01*
X2024430Y-1555496D01*
X2006244Y-1544980D01*
X1987143Y-1536192D01*
X1967331Y-1529130D01*
X1946960Y-1523949D01*
X1926234Y-1520596D01*
X1905254Y-1519174D01*
X1884222Y-1519631D01*
X1863343Y-1522018D01*
X1842770Y-1526286D01*
X1822653Y-1532432D01*
X1803196Y-1540357D01*
X1784553Y-1550009D01*
X1766824Y-1561338D01*
X1750263Y-1574241D01*
X1734870Y-1588617D01*
X1720900Y-1604264D01*
X1708353Y-1621180D01*
X1697482Y-1639112D01*
X1688236Y-1658010D01*
X1680718Y-1677670D01*
X1675079Y-1697888D01*
X1671269Y-1718564D01*
X1669338Y-1739493D01*
X1669338Y-1760524D01*
X1671269Y-1781454D01*
X1675079Y-1802130D01*
X1680718Y-1822348D01*
X1688236Y-1842007D01*
X1697482Y-1860854D01*
X1708353Y-1878838D01*
X1720900Y-1895703D01*
X1734870Y-1911400D01*
X1750263Y-1925726D01*
X1766824Y-1938629D01*
X1784553Y-1949957D01*
X1803196Y-1959610D01*
X1822653Y-1967585D01*
X1842770Y-1973681D01*
X1863343Y-1977948D01*
X1884222Y-1980336D01*
X1905254Y-1980844D01*
X1926234Y-1979422D01*
X1945335Y-1976374D01*
X1949653Y-1976628D01*
X1953463Y-1978609D01*
X1956104Y-1982012D01*
X1957120Y-1986229D01*
X1956257Y-1990445D01*
X1953768Y-1993950D01*
X1920951Y-2023668D01*
X1886864Y-2051964D01*
X1851558Y-2078786D01*
X1815134Y-2104034D01*
X1777695Y-2127656D01*
X1739239Y-2149652D01*
X1699869Y-2169972D01*
X1693011Y-2173173D01*
X1688744Y-2174087D01*
X1460449Y-2174087D01*
X1456131Y-2173122D01*
X1452676Y-2170430D01*
X1450644Y-2166518D01*
X1450441Y-2162149D01*
X1452168Y-2158085D01*
X1458518Y-2149043D01*
X1462684Y-2140204D01*
X1465224Y-2130704D01*
X1466088Y-2120900D01*
X1465224Y-2111095D01*
X1462684Y-2101596D01*
X1461363Y-2098802D01*
X1460398Y-2094992D01*
X1461008Y-2091029D01*
X1463090Y-2087676D01*
X1466291Y-2085339D01*
X1475994Y-2080818D01*
X1484020Y-2075180D01*
X1490980Y-2068220D01*
X1496618Y-2060193D01*
X1500733Y-2051253D01*
X1503273Y-2041804D01*
X1504137Y-2032000D01*
X1503273Y-2022195D01*
X1500733Y-2012746D01*
X1496618Y-2003806D01*
X1490980Y-1995779D01*
X1484020Y-1988820D01*
X1475994Y-1983181D01*
X1466291Y-1978660D01*
X1463090Y-1976323D01*
X1461008Y-1972970D01*
X1460398Y-1969007D01*
X1461363Y-1965198D01*
X1462684Y-1962404D01*
X1465224Y-1952904D01*
X1466088Y-1943100D01*
X1465224Y-1933295D01*
X1462684Y-1923796D01*
X1458518Y-1914906D01*
X1452880Y-1906879D01*
X1445920Y-1899920D01*
X1437894Y-1894281D01*
X1429004Y-1890115D01*
X1419504Y-1887575D01*
X1409700Y-1886712D01*
X1399895Y-1887575D01*
X1389989Y-1890268D01*
X1386484Y-1890572D01*
X1383080Y-1889658D01*
X1367637Y-1882546D01*
X1351178Y-1876958D01*
X1334160Y-1873199D01*
X1316837Y-1871319D01*
X1299413Y-1871319D01*
X1282090Y-1873199D01*
X1265072Y-1876958D01*
X1248562Y-1882546D01*
X1233119Y-1889658D01*
X1229766Y-1890572D01*
X1226261Y-1890268D01*
X1216304Y-1887575D01*
X1206500Y-1886712D01*
X1196695Y-1887575D01*
X1187196Y-1890115D01*
X1178306Y-1894281D01*
X1170279Y-1899920D01*
X1163320Y-1906879D01*
X1157681Y-1914906D01*
X1153515Y-1923796D01*
X1150975Y-1933295D01*
X1150112Y-1943100D01*
X1150975Y-1952904D01*
X1152906Y-1960016D01*
X1153160Y-1963928D01*
X1151940Y-1967636D01*
X1149451Y-1970582D01*
X1145997Y-1972411D01*
X1142085Y-1972767D01*
X1133856Y-1971954D01*
X1119632Y-1972411D01*
X1105611Y-1974697D01*
X1091996Y-1978761D01*
X1078992Y-1984502D01*
X1066850Y-1991868D01*
X1055725Y-2000707D01*
X1045870Y-2010918D01*
X1037386Y-2022297D01*
X1030376Y-2034692D01*
X1025042Y-2047849D01*
X1021435Y-2061616D01*
X1019657Y-2075688D01*
X1019657Y-2089912D01*
X1021435Y-2103983D01*
X1025042Y-2117750D01*
X1030376Y-2130907D01*
X1037386Y-2143302D01*
X1045870Y-2154682D01*
X1048003Y-2156866D01*
X1050137Y-2160168D01*
X1050848Y-2164029D01*
X1050036Y-2167890D01*
X1047800Y-2171141D01*
X1044549Y-2173325D01*
X1040688Y-2174087D01*
X827532Y-2174087D01*
X823569Y-2173274D01*
X820216Y-2170988D01*
X818032Y-2167585D01*
X817372Y-2163572D01*
X818337Y-2159660D01*
X819810Y-2156510D01*
X822350Y-2147011D01*
X823214Y-2137206D01*
X822350Y-2127402D01*
X819810Y-2117902D01*
X815644Y-2109012D01*
X810006Y-2100986D01*
X803046Y-2094026D01*
X795020Y-2088388D01*
X786130Y-2084222D01*
X776630Y-2081682D01*
X766826Y-2080818D01*
X757021Y-2081682D01*
X747522Y-2084222D01*
X738632Y-2088388D01*
X730605Y-2094026D01*
X728929Y-2095652D01*
X725678Y-2097887D01*
X721766Y-2098649D01*
X717854Y-2097887D01*
X714603Y-2095652D01*
X709320Y-2090420D01*
X701294Y-2084781D01*
X692404Y-2080615D01*
X682904Y-2078075D01*
X673100Y-2077212D01*
X663295Y-2078075D01*
X653796Y-2080615D01*
X644906Y-2084781D01*
X636879Y-2090420D01*
X629920Y-2097379D01*
X624281Y-2105406D01*
X620115Y-2114296D01*
X617575Y-2123795D01*
X616712Y-2133600D01*
X617575Y-2143404D01*
X620115Y-2152904D01*
X623265Y-2159660D01*
X624230Y-2163572D01*
X623570Y-2167585D01*
X621385Y-2170988D01*
X618032Y-2173274D01*
X614070Y-2174087D01*
X370281Y-2174087D01*
X366318Y-2173274D01*
X362966Y-2170988D01*
X360781Y-2167585D01*
X360121Y-2163572D01*
X361086Y-2159660D01*
X363423Y-2154580D01*
X365963Y-2145080D01*
X366826Y-2135327D01*
X365963Y-2125522D01*
X363423Y-2116023D01*
X359257Y-2107133D01*
X353669Y-2099056D01*
X346710Y-2092096D01*
X338632Y-2086508D01*
X329742Y-2082342D01*
X320243Y-2079802D01*
X310489Y-2078939D01*
X300685Y-2079802D01*
X291185Y-2082342D01*
X282295Y-2086508D01*
X274218Y-2092096D01*
X266852Y-2099513D01*
X263550Y-2101697D01*
X259689Y-2102459D01*
X255778Y-2101697D01*
X252475Y-2099513D01*
X245110Y-2092096D01*
X237032Y-2086508D01*
X228142Y-2082342D01*
X218643Y-2079802D01*
X208889Y-2078939D01*
X199085Y-2079802D01*
X189585Y-2082342D01*
X180695Y-2086508D01*
X172618Y-2092096D01*
X165658Y-2099056D01*
X160070Y-2107133D01*
X155905Y-2116023D01*
X153365Y-2125522D01*
X152501Y-2135327D01*
X153365Y-2145080D01*
X155905Y-2154580D01*
X158242Y-2159660D01*
X159207Y-2163572D01*
X158546Y-2167585D01*
X156362Y-2170988D01*
X153009Y-2173274D01*
X149047Y-2174087D01*
X-53644Y-2174087D01*
X-57404Y-2173376D01*
X-60655Y-2171293D01*
X-62890Y-2168194D01*
X-63804Y-2164486D01*
X-63296Y-2160676D01*
X-61417Y-2157323D01*
X-54152Y-2148840D01*
X-46431Y-2136952D01*
X-40233Y-2124151D01*
X-35763Y-2110638D01*
X-33070Y-2096719D01*
X-32156Y-2082546D01*
X-33070Y-2068322D01*
X-35763Y-2054402D01*
X-40233Y-2040889D01*
X-46431Y-2028088D01*
X-54152Y-2016201D01*
X-63347Y-2005380D01*
X-73914Y-1995830D01*
X-85547Y-1987702D01*
X-98145Y-1981149D01*
X-111455Y-1976221D01*
X-125323Y-1973072D01*
X-139496Y-1971700D01*
X-151942Y-1972106D01*
X-155702Y-1971497D01*
X-158953Y-1969617D01*
X-161290Y-1966671D01*
X-162407Y-1963064D01*
X-162102Y-1959305D01*
X-160375Y-1952904D01*
X-159512Y-1943100D01*
X-160375Y-1933295D01*
X-162915Y-1923796D01*
X-167081Y-1914906D01*
X-172720Y-1906879D01*
X-179679Y-1899920D01*
X-187706Y-1894281D01*
X-196596Y-1890115D01*
X-206095Y-1887575D01*
X-215900Y-1886712D01*
X-225704Y-1887575D01*
X-235610Y-1890268D01*
X-239115Y-1890572D01*
X-242519Y-1889658D01*
X-257962Y-1882546D01*
X-274421Y-1876958D01*
X-291439Y-1873199D01*
X-308762Y-1871319D01*
X-326186Y-1871319D01*
X-343509Y-1873199D01*
X-360527Y-1876958D01*
X-377037Y-1882546D01*
X-392480Y-1889658D01*
X-395833Y-1890572D01*
X-399338Y-1890268D01*
X-409295Y-1887575D01*
X-419100Y-1886712D01*
X-428904Y-1887575D01*
X-438404Y-1890115D01*
X-447293Y-1894281D01*
X-455320Y-1899920D01*
X-462280Y-1906879D01*
X-467918Y-1914906D01*
X-472084Y-1923796D01*
X-474624Y-1933295D01*
X-475488Y-1943100D01*
X-474624Y-1952904D01*
X-472084Y-1962404D01*
X-470763Y-1965198D01*
X-469798Y-1969007D01*
X-470408Y-1972970D01*
X-472490Y-1976323D01*
X-475691Y-1978660D01*
X-485393Y-1983181D01*
X-493420Y-1988820D01*
X-500380Y-1995779D01*
X-506018Y-2003806D01*
X-510133Y-2012746D01*
X-512673Y-2022195D01*
X-513537Y-2032000D01*
X-512673Y-2041804D01*
X-510133Y-2051253D01*
X-506018Y-2060193D01*
X-500380Y-2068220D01*
X-493420Y-2075180D01*
X-485393Y-2080818D01*
X-475691Y-2085339D01*
X-472490Y-2087676D01*
X-470408Y-2091029D01*
X-469798Y-2094992D01*
X-470763Y-2098802D01*
X-472084Y-2101596D01*
X-474624Y-2111095D01*
X-475488Y-2120900D01*
X-474624Y-2130704D01*
X-472084Y-2140204D01*
X-467918Y-2149043D01*
X-461568Y-2158085D01*
X-459841Y-2162149D01*
X-460044Y-2166518D01*
X-462076Y-2170430D01*
X-465531Y-2173122D01*
X-469849Y-2174087D01*
X-723950Y-2174087D01*
X-728268Y-2173122D01*
X-731723Y-2170430D01*
X-733755Y-2166518D01*
X-733958Y-2162149D01*
X-732231Y-2158085D01*
X-725881Y-2149043D01*
X-721715Y-2140204D01*
X-719175Y-2130704D01*
X-718312Y-2120900D01*
X-719175Y-2111095D01*
X-721715Y-2101596D01*
X-723036Y-2098802D01*
X-724001Y-2094992D01*
X-723392Y-2091029D01*
X-721309Y-2087676D01*
X-718108Y-2085339D01*
X-708406Y-2080818D01*
X-700379Y-2075180D01*
X-693420Y-2068220D01*
X-687781Y-2060193D01*
X-683666Y-2051253D01*
X-681126Y-2041804D01*
X-680262Y-2032000D01*
X-681126Y-2022195D01*
X-683666Y-2012746D01*
X-687781Y-2003806D01*
X-693420Y-1995779D01*
X-700379Y-1988820D01*
X-708406Y-1983181D01*
X-718108Y-1978660D01*
X-721309Y-1976323D01*
X-723392Y-1972970D01*
X-724001Y-1969007D01*
X-723036Y-1965198D01*
X-721715Y-1962404D01*
X-719175Y-1952904D01*
X-718312Y-1943100D01*
X-719175Y-1933295D01*
X-721715Y-1923796D01*
X-725881Y-1914906D01*
X-731520Y-1906879D01*
X-738479Y-1899920D01*
X-746506Y-1894281D01*
X-755396Y-1890115D01*
X-764895Y-1887575D01*
X-774700Y-1886712D01*
X-784504Y-1887575D01*
X-794410Y-1890268D01*
X-797915Y-1890572D01*
X-801319Y-1889658D01*
X-816762Y-1882546D01*
X-833272Y-1876958D01*
X-850290Y-1873199D01*
X-867613Y-1871319D01*
X-884986Y-1871319D01*
X-902309Y-1873199D01*
X-919327Y-1876958D01*
X-935837Y-1882546D01*
X-951280Y-1889658D01*
X-954684Y-1890572D01*
X-958189Y-1890268D01*
X-968095Y-1887575D01*
X-977900Y-1886712D01*
X-987704Y-1887575D01*
X-997203Y-1890115D01*
X-1006094Y-1894281D01*
X-1014120Y-1899920D01*
X-1021080Y-1906879D01*
X-1026718Y-1914906D01*
X-1030884Y-1923796D01*
X-1033424Y-1933295D01*
X-1034287Y-1943100D01*
X-1033424Y-1952904D01*
X-1031595Y-1959711D01*
X-1031290Y-1963623D01*
X-1032510Y-1967280D01*
X-1035050Y-1970278D01*
X-1038504Y-1972056D01*
X-1042365Y-1972462D01*
X-1050544Y-1971649D01*
X-1064768Y-1972106D01*
X-1078788Y-1974392D01*
X-1092403Y-1978456D01*
X-1105408Y-1984197D01*
X-1117549Y-1991563D01*
X-1128674Y-2000402D01*
X-1138529Y-2010613D01*
X-1147013Y-2021992D01*
X-1154023Y-2034387D01*
X-1159357Y-2047544D01*
X-1162964Y-2061311D01*
X-1164742Y-2075383D01*
X-1164742Y-2089607D01*
X-1162964Y-2103678D01*
X-1159357Y-2117445D01*
X-1154023Y-2130602D01*
X-1147013Y-2142998D01*
X-1138529Y-2154377D01*
X-1136142Y-2156866D01*
X-1134008Y-2160168D01*
X-1133246Y-2164029D01*
X-1134059Y-2167890D01*
X-1136294Y-2171141D01*
X-1139545Y-2173325D01*
X-1143406Y-2174087D01*
X-1365504Y-2174087D01*
X-1369822Y-2173122D01*
X-1373276Y-2170480D01*
X-1375308Y-2166569D01*
X-1375511Y-2162149D01*
X-1373835Y-2158085D01*
X-1369060Y-2151227D01*
X-1364894Y-2142337D01*
X-1362354Y-2132838D01*
X-1361490Y-2123084D01*
X-1362354Y-2113280D01*
X-1364894Y-2103780D01*
X-1369060Y-2094890D01*
X-1374648Y-2086813D01*
X-1381607Y-2079853D01*
X-1389684Y-2074265D01*
X-1398574Y-2070100D01*
X-1408074Y-2067560D01*
X-1417828Y-2066696D01*
X-1427632Y-2067560D01*
X-1437132Y-2070100D01*
X-1446022Y-2074265D01*
X-1454099Y-2079853D01*
X-1458925Y-2084730D01*
X-1462227Y-2086914D01*
X-1466088Y-2087676D01*
X-1469999Y-2086914D01*
X-1473301Y-2084730D01*
X-1480667Y-2077313D01*
X-1488744Y-2071725D01*
X-1497634Y-2067560D01*
X-1507134Y-2065020D01*
X-1516888Y-2064156D01*
X-1526692Y-2065020D01*
X-1536192Y-2067560D01*
X-1545082Y-2071725D01*
X-1553159Y-2077313D01*
X-1560118Y-2084273D01*
X-1565706Y-2092350D01*
X-1569872Y-2101240D01*
X-1572412Y-2110740D01*
X-1573276Y-2120544D01*
X-1572412Y-2130298D01*
X-1569872Y-2139797D01*
X-1565706Y-2148687D01*
X-1557883Y-2160066D01*
X-1557121Y-2163927D01*
X-1557883Y-2167839D01*
X-1560118Y-2171141D01*
X-1563420Y-2173325D01*
X-1567281Y-2174087D01*
G37*

%LPC*%
G36*
X675843Y-1905965D02*
G01*
X685596Y-1905101D01*
X695096Y-1902561D01*
X703986Y-1898396D01*
X711758Y-1892960D01*
X715518Y-1891334D01*
X719632Y-1891334D01*
X723392Y-1892960D01*
X731113Y-1898396D01*
X740054Y-1902561D01*
X749503Y-1905101D01*
X759307Y-1905965D01*
X769112Y-1905101D01*
X778560Y-1902561D01*
X787501Y-1898396D01*
X794308Y-1893620D01*
X798068Y-1891995D01*
X802182Y-1891995D01*
X805942Y-1893620D01*
X812749Y-1898396D01*
X821639Y-1902561D01*
X831138Y-1905101D01*
X840943Y-1905965D01*
X850696Y-1905101D01*
X860196Y-1902561D01*
X869086Y-1898396D01*
X876046Y-1893519D01*
X879805Y-1891893D01*
X883919Y-1891893D01*
X887679Y-1893519D01*
X894638Y-1898396D01*
X903528Y-1902561D01*
X913028Y-1905101D01*
X922832Y-1905965D01*
X932586Y-1905101D01*
X942086Y-1902561D01*
X950976Y-1898396D01*
X957224Y-1894027D01*
X960983Y-1892401D01*
X965098Y-1892401D01*
X968857Y-1894027D01*
X975106Y-1898396D01*
X984046Y-1902561D01*
X993495Y-1905101D01*
X1003300Y-1905965D01*
X1013104Y-1905101D01*
X1022553Y-1902561D01*
X1031494Y-1898396D01*
X1039520Y-1892757D01*
X1046480Y-1885848D01*
X1052118Y-1877771D01*
X1056233Y-1868881D01*
X1058773Y-1859381D01*
X1059637Y-1849628D01*
X1058773Y-1839823D01*
X1056233Y-1830324D01*
X1052118Y-1821434D01*
X1046480Y-1813356D01*
X1039520Y-1806448D01*
X1031494Y-1800809D01*
X1027531Y-1798980D01*
X1024229Y-1796491D01*
X1022197Y-1792935D01*
X1021689Y-1788871D01*
X1021943Y-1786128D01*
X1021130Y-1776374D01*
X1021587Y-1772310D01*
X1023619Y-1768754D01*
X1026921Y-1766316D01*
X1031494Y-1764182D01*
X1039520Y-1758543D01*
X1046480Y-1751634D01*
X1052118Y-1743557D01*
X1056233Y-1734667D01*
X1058773Y-1725168D01*
X1059637Y-1715414D01*
X1058773Y-1705610D01*
X1056233Y-1696110D01*
X1052118Y-1687220D01*
X1046480Y-1679143D01*
X1039520Y-1672234D01*
X1031494Y-1666595D01*
X1027074Y-1664563D01*
X1023772Y-1662074D01*
X1021740Y-1658518D01*
X1021232Y-1654454D01*
X1021943Y-1646428D01*
X1021029Y-1635861D01*
X1021486Y-1631746D01*
X1023569Y-1628190D01*
X1026871Y-1625752D01*
X1031494Y-1623618D01*
X1039520Y-1617980D01*
X1046480Y-1611020D01*
X1052118Y-1602994D01*
X1056233Y-1594053D01*
X1058773Y-1584604D01*
X1059637Y-1574800D01*
X1058773Y-1564995D01*
X1056233Y-1555546D01*
X1052118Y-1546606D01*
X1046480Y-1538579D01*
X1039520Y-1531620D01*
X1031494Y-1525981D01*
X1022553Y-1521866D01*
X1013104Y-1519326D01*
X1003300Y-1518462D01*
X993495Y-1519326D01*
X984046Y-1521866D01*
X975106Y-1525981D01*
X968857Y-1530350D01*
X965098Y-1531975D01*
X960983Y-1531975D01*
X957224Y-1530350D01*
X950976Y-1525981D01*
X942086Y-1521866D01*
X932586Y-1519326D01*
X922832Y-1518462D01*
X913028Y-1519326D01*
X903528Y-1521866D01*
X894638Y-1525981D01*
X887679Y-1530858D01*
X883919Y-1532483D01*
X879805Y-1532483D01*
X876046Y-1530858D01*
X869086Y-1525981D01*
X860196Y-1521866D01*
X850696Y-1519326D01*
X840943Y-1518462D01*
X831138Y-1519326D01*
X821639Y-1521866D01*
X812749Y-1525981D01*
X805942Y-1530756D01*
X802182Y-1532382D01*
X798068Y-1532382D01*
X794308Y-1530756D01*
X787501Y-1525981D01*
X778560Y-1521866D01*
X769112Y-1519326D01*
X759307Y-1518462D01*
X749503Y-1519326D01*
X740054Y-1521866D01*
X731113Y-1525981D01*
X723392Y-1531416D01*
X719632Y-1533042D01*
X715518Y-1533042D01*
X711758Y-1531416D01*
X703986Y-1525981D01*
X695096Y-1521866D01*
X685596Y-1519326D01*
X675843Y-1518462D01*
X666038Y-1519326D01*
X656539Y-1521866D01*
X647649Y-1525981D01*
X639572Y-1531620D01*
X632663Y-1538579D01*
X627024Y-1546606D01*
X622858Y-1555546D01*
X620318Y-1564995D01*
X619455Y-1574800D01*
X620369Y-1584909D01*
X619861Y-1588973D01*
X617829Y-1592529D01*
X614527Y-1595018D01*
X608939Y-1597609D01*
X600862Y-1603248D01*
X593953Y-1610156D01*
X588314Y-1618234D01*
X584149Y-1627124D01*
X581609Y-1636623D01*
X580745Y-1646428D01*
X581609Y-1656181D01*
X584149Y-1665681D01*
X588314Y-1674571D01*
X593953Y-1682648D01*
X600862Y-1689557D01*
X608939Y-1695196D01*
X614324Y-1697685D01*
X617626Y-1700174D01*
X619658Y-1703730D01*
X620115Y-1707794D01*
X619455Y-1715414D01*
X620268Y-1724660D01*
X619810Y-1728724D01*
X617728Y-1732280D01*
X614426Y-1734718D01*
X608939Y-1737309D01*
X600862Y-1742948D01*
X593953Y-1749856D01*
X588314Y-1757934D01*
X584149Y-1766824D01*
X581609Y-1776323D01*
X580745Y-1786128D01*
X581609Y-1795881D01*
X584149Y-1805381D01*
X588314Y-1814271D01*
X593953Y-1822348D01*
X600862Y-1829257D01*
X608939Y-1834896D01*
X613867Y-1837182D01*
X617118Y-1839671D01*
X619201Y-1843227D01*
X619658Y-1847291D01*
X619455Y-1849628D01*
X620318Y-1859381D01*
X622858Y-1868881D01*
X627024Y-1877771D01*
X632663Y-1885848D01*
X639572Y-1892757D01*
X647649Y-1898396D01*
X656539Y-1902561D01*
X666038Y-1905101D01*
G37*
G36*
X129743Y-1905965D02*
G01*
X139496Y-1905101D01*
X148996Y-1902561D01*
X157886Y-1898396D01*
X165658Y-1892960D01*
X169418Y-1891334D01*
X173532Y-1891334D01*
X177292Y-1892960D01*
X185013Y-1898396D01*
X193954Y-1902561D01*
X203403Y-1905101D01*
X213207Y-1905965D01*
X223012Y-1905101D01*
X232460Y-1902561D01*
X241401Y-1898396D01*
X248208Y-1893620D01*
X251967Y-1891995D01*
X256082Y-1891995D01*
X259842Y-1893620D01*
X266649Y-1898396D01*
X275539Y-1902561D01*
X285038Y-1905101D01*
X294843Y-1905965D01*
X304596Y-1905101D01*
X314096Y-1902561D01*
X322986Y-1898396D01*
X329946Y-1893519D01*
X333705Y-1891893D01*
X337820Y-1891893D01*
X341579Y-1893519D01*
X348538Y-1898396D01*
X357428Y-1902561D01*
X366928Y-1905101D01*
X376732Y-1905965D01*
X386486Y-1905101D01*
X395986Y-1902561D01*
X404876Y-1898396D01*
X411124Y-1894027D01*
X414883Y-1892401D01*
X418998Y-1892401D01*
X422757Y-1894027D01*
X429006Y-1898396D01*
X437946Y-1902561D01*
X447395Y-1905101D01*
X457200Y-1905965D01*
X467004Y-1905101D01*
X476453Y-1902561D01*
X485393Y-1898396D01*
X493420Y-1892757D01*
X500380Y-1885848D01*
X506018Y-1877771D01*
X510133Y-1868881D01*
X512673Y-1859381D01*
X513537Y-1849628D01*
X512673Y-1839823D01*
X510133Y-1830324D01*
X506018Y-1821434D01*
X500380Y-1813356D01*
X493420Y-1806448D01*
X485393Y-1800809D01*
X481431Y-1798980D01*
X478129Y-1796491D01*
X476097Y-1792935D01*
X475589Y-1788871D01*
X475843Y-1786128D01*
X475030Y-1776374D01*
X475488Y-1772310D01*
X477520Y-1768754D01*
X480822Y-1766316D01*
X485393Y-1764182D01*
X493420Y-1758543D01*
X500380Y-1751634D01*
X506018Y-1743557D01*
X510133Y-1734667D01*
X512673Y-1725168D01*
X513537Y-1715414D01*
X512673Y-1705610D01*
X510133Y-1696110D01*
X506018Y-1687220D01*
X500380Y-1679143D01*
X493420Y-1672234D01*
X485393Y-1666595D01*
X480974Y-1664563D01*
X477672Y-1662074D01*
X475640Y-1658518D01*
X475132Y-1654454D01*
X475843Y-1646428D01*
X474929Y-1635861D01*
X475386Y-1631746D01*
X477469Y-1628190D01*
X480771Y-1625752D01*
X485393Y-1623618D01*
X493420Y-1617980D01*
X500380Y-1611020D01*
X506018Y-1602994D01*
X510133Y-1594053D01*
X512673Y-1584604D01*
X513537Y-1574800D01*
X512673Y-1564995D01*
X510133Y-1555546D01*
X506018Y-1546606D01*
X500380Y-1538579D01*
X493420Y-1531620D01*
X485393Y-1525981D01*
X476453Y-1521866D01*
X467004Y-1519326D01*
X457200Y-1518462D01*
X447395Y-1519326D01*
X437946Y-1521866D01*
X429006Y-1525981D01*
X422757Y-1530350D01*
X418998Y-1531975D01*
X414883Y-1531975D01*
X411124Y-1530350D01*
X404876Y-1525981D01*
X395986Y-1521866D01*
X386486Y-1519326D01*
X376732Y-1518462D01*
X366928Y-1519326D01*
X357428Y-1521866D01*
X348538Y-1525981D01*
X341579Y-1530858D01*
X337820Y-1532483D01*
X333705Y-1532483D01*
X329946Y-1530858D01*
X322986Y-1525981D01*
X314096Y-1521866D01*
X304596Y-1519326D01*
X294843Y-1518462D01*
X285038Y-1519326D01*
X275539Y-1521866D01*
X266649Y-1525981D01*
X259842Y-1530756D01*
X256082Y-1532382D01*
X251967Y-1532382D01*
X248208Y-1530756D01*
X241401Y-1525981D01*
X232460Y-1521866D01*
X223012Y-1519326D01*
X213207Y-1518462D01*
X203403Y-1519326D01*
X193954Y-1521866D01*
X185013Y-1525981D01*
X177292Y-1531416D01*
X173532Y-1533042D01*
X169418Y-1533042D01*
X165658Y-1531416D01*
X157886Y-1525981D01*
X148996Y-1521866D01*
X139496Y-1519326D01*
X129743Y-1518462D01*
X119938Y-1519326D01*
X110439Y-1521866D01*
X101549Y-1525981D01*
X93472Y-1531620D01*
X86563Y-1538579D01*
X80924Y-1546606D01*
X76758Y-1555546D01*
X74218Y-1564995D01*
X73355Y-1574800D01*
X74269Y-1584909D01*
X73761Y-1588973D01*
X71729Y-1592529D01*
X68427Y-1595018D01*
X62839Y-1597609D01*
X54762Y-1603248D01*
X47853Y-1610156D01*
X42214Y-1618234D01*
X38049Y-1627124D01*
X35509Y-1636623D01*
X34645Y-1646428D01*
X35509Y-1656181D01*
X38049Y-1665681D01*
X42214Y-1674571D01*
X47853Y-1682648D01*
X54762Y-1689557D01*
X62839Y-1695196D01*
X68224Y-1697685D01*
X71526Y-1700174D01*
X73558Y-1703730D01*
X74015Y-1707794D01*
X73355Y-1715414D01*
X74168Y-1724660D01*
X73710Y-1728724D01*
X71628Y-1732280D01*
X68326Y-1734718D01*
X62839Y-1737309D01*
X54762Y-1742948D01*
X47853Y-1749856D01*
X42214Y-1757934D01*
X38049Y-1766824D01*
X35509Y-1776323D01*
X34645Y-1786128D01*
X35509Y-1795881D01*
X38049Y-1805381D01*
X42214Y-1814271D01*
X47853Y-1822348D01*
X54762Y-1829257D01*
X62839Y-1834896D01*
X67767Y-1837182D01*
X71018Y-1839671D01*
X73101Y-1843227D01*
X73558Y-1847291D01*
X73355Y-1849628D01*
X74218Y-1859381D01*
X76758Y-1868881D01*
X80924Y-1877771D01*
X86563Y-1885848D01*
X93472Y-1892757D01*
X101549Y-1898396D01*
X110439Y-1902561D01*
X119938Y-1905101D01*
G37*
G36*
X-1508556Y-1905965D02*
G01*
X-1498803Y-1905101D01*
X-1489303Y-1902561D01*
X-1480413Y-1898396D01*
X-1472641Y-1892960D01*
X-1468882Y-1891334D01*
X-1464767Y-1891334D01*
X-1461008Y-1892960D01*
X-1453286Y-1898396D01*
X-1444345Y-1902561D01*
X-1434896Y-1905101D01*
X-1425092Y-1905965D01*
X-1415288Y-1905101D01*
X-1405839Y-1902561D01*
X-1396898Y-1898396D01*
X-1390091Y-1893620D01*
X-1386332Y-1891995D01*
X-1382217Y-1891995D01*
X-1378458Y-1893620D01*
X-1371650Y-1898396D01*
X-1362760Y-1902561D01*
X-1353261Y-1905101D01*
X-1343456Y-1905965D01*
X-1333703Y-1905101D01*
X-1324203Y-1902561D01*
X-1315313Y-1898396D01*
X-1308354Y-1893519D01*
X-1304594Y-1891893D01*
X-1300480Y-1891893D01*
X-1296720Y-1893519D01*
X-1289761Y-1898396D01*
X-1280871Y-1902561D01*
X-1271371Y-1905101D01*
X-1261567Y-1905965D01*
X-1251813Y-1905101D01*
X-1242314Y-1902561D01*
X-1233424Y-1898396D01*
X-1227175Y-1894027D01*
X-1223416Y-1892401D01*
X-1219301Y-1892401D01*
X-1215542Y-1894027D01*
X-1209294Y-1898396D01*
X-1200353Y-1902561D01*
X-1190904Y-1905101D01*
X-1181100Y-1905965D01*
X-1171295Y-1905101D01*
X-1161846Y-1902561D01*
X-1152906Y-1898396D01*
X-1144879Y-1892757D01*
X-1137920Y-1885848D01*
X-1132281Y-1877771D01*
X-1128166Y-1868881D01*
X-1125626Y-1859381D01*
X-1124762Y-1849628D01*
X-1125626Y-1839823D01*
X-1128166Y-1830324D01*
X-1132281Y-1821434D01*
X-1137920Y-1813356D01*
X-1144879Y-1806448D01*
X-1152906Y-1800809D01*
X-1156868Y-1798980D01*
X-1160170Y-1796491D01*
X-1162202Y-1792935D01*
X-1162710Y-1788871D01*
X-1162456Y-1786128D01*
X-1163269Y-1776374D01*
X-1162812Y-1772310D01*
X-1160780Y-1768754D01*
X-1157478Y-1766316D01*
X-1152906Y-1764182D01*
X-1144879Y-1758543D01*
X-1137920Y-1751634D01*
X-1132281Y-1743557D01*
X-1128166Y-1734667D01*
X-1125626Y-1725168D01*
X-1124762Y-1715414D01*
X-1125626Y-1705610D01*
X-1128166Y-1696110D01*
X-1132281Y-1687220D01*
X-1137920Y-1679143D01*
X-1144879Y-1672234D01*
X-1152906Y-1666595D01*
X-1157325Y-1664563D01*
X-1160627Y-1662074D01*
X-1162659Y-1658518D01*
X-1163167Y-1654454D01*
X-1162456Y-1646428D01*
X-1163370Y-1635861D01*
X-1162913Y-1631746D01*
X-1160830Y-1628190D01*
X-1157528Y-1625752D01*
X-1152906Y-1623618D01*
X-1144879Y-1617980D01*
X-1137920Y-1611020D01*
X-1132281Y-1602994D01*
X-1128166Y-1594053D01*
X-1125626Y-1584604D01*
X-1124762Y-1574800D01*
X-1125626Y-1564995D01*
X-1128166Y-1555546D01*
X-1132281Y-1546606D01*
X-1137920Y-1538579D01*
X-1144879Y-1531620D01*
X-1152906Y-1525981D01*
X-1161846Y-1521866D01*
X-1171295Y-1519326D01*
X-1181100Y-1518462D01*
X-1190904Y-1519326D01*
X-1200353Y-1521866D01*
X-1209294Y-1525981D01*
X-1215542Y-1530350D01*
X-1219301Y-1531975D01*
X-1223416Y-1531975D01*
X-1227175Y-1530350D01*
X-1233424Y-1525981D01*
X-1242314Y-1521866D01*
X-1251813Y-1519326D01*
X-1261567Y-1518462D01*
X-1271371Y-1519326D01*
X-1280871Y-1521866D01*
X-1289761Y-1525981D01*
X-1296720Y-1530858D01*
X-1300480Y-1532483D01*
X-1304594Y-1532483D01*
X-1308354Y-1530858D01*
X-1315313Y-1525981D01*
X-1324203Y-1521866D01*
X-1333703Y-1519326D01*
X-1343456Y-1518462D01*
X-1353261Y-1519326D01*
X-1362760Y-1521866D01*
X-1371650Y-1525981D01*
X-1378458Y-1530756D01*
X-1382217Y-1532382D01*
X-1386332Y-1532382D01*
X-1390091Y-1530756D01*
X-1396898Y-1525981D01*
X-1405839Y-1521866D01*
X-1415288Y-1519326D01*
X-1425092Y-1518462D01*
X-1434896Y-1519326D01*
X-1444345Y-1521866D01*
X-1453286Y-1525981D01*
X-1461008Y-1531416D01*
X-1464767Y-1533042D01*
X-1468882Y-1533042D01*
X-1472641Y-1531416D01*
X-1480413Y-1525981D01*
X-1489303Y-1521866D01*
X-1498803Y-1519326D01*
X-1508556Y-1518462D01*
X-1518361Y-1519326D01*
X-1527860Y-1521866D01*
X-1536750Y-1525981D01*
X-1544828Y-1531620D01*
X-1551736Y-1538579D01*
X-1557375Y-1546606D01*
X-1561541Y-1555546D01*
X-1564081Y-1564995D01*
X-1564944Y-1574800D01*
X-1564030Y-1584909D01*
X-1564538Y-1588973D01*
X-1566570Y-1592529D01*
X-1569872Y-1595018D01*
X-1575460Y-1597609D01*
X-1583537Y-1603248D01*
X-1590446Y-1610156D01*
X-1596085Y-1618234D01*
X-1600250Y-1627124D01*
X-1602790Y-1636623D01*
X-1603654Y-1646428D01*
X-1602790Y-1656181D01*
X-1600250Y-1665681D01*
X-1596085Y-1674571D01*
X-1590446Y-1682648D01*
X-1583537Y-1689557D01*
X-1575460Y-1695196D01*
X-1570075Y-1697685D01*
X-1566773Y-1700174D01*
X-1564741Y-1703730D01*
X-1564284Y-1707794D01*
X-1564944Y-1715414D01*
X-1564132Y-1724660D01*
X-1564589Y-1728724D01*
X-1566672Y-1732280D01*
X-1569974Y-1734718D01*
X-1575460Y-1737309D01*
X-1583537Y-1742948D01*
X-1590446Y-1749856D01*
X-1596085Y-1757934D01*
X-1600250Y-1766824D01*
X-1602790Y-1776323D01*
X-1603654Y-1786128D01*
X-1602790Y-1795881D01*
X-1600250Y-1805381D01*
X-1596085Y-1814271D01*
X-1590446Y-1822348D01*
X-1583537Y-1829257D01*
X-1575460Y-1834896D01*
X-1570532Y-1837182D01*
X-1567281Y-1839671D01*
X-1565198Y-1843227D01*
X-1564741Y-1847291D01*
X-1564944Y-1849628D01*
X-1564081Y-1859381D01*
X-1561541Y-1868881D01*
X-1557375Y-1877771D01*
X-1551736Y-1885848D01*
X-1544828Y-1892757D01*
X-1536750Y-1898396D01*
X-1527860Y-1902561D01*
X-1518361Y-1905101D01*
G37*
G36*
X1866900Y-1491437D02*
G01*
X1876704Y-1490573D01*
X1886153Y-1488033D01*
X1895093Y-1483918D01*
X1903120Y-1478280D01*
X1910080Y-1471320D01*
X1915718Y-1463294D01*
X1919833Y-1454353D01*
X1922373Y-1444904D01*
X1923237Y-1435100D01*
X1922373Y-1425295D01*
X1919833Y-1415846D01*
X1915718Y-1406906D01*
X1910080Y-1398879D01*
X1903120Y-1391920D01*
X1895093Y-1386281D01*
X1886153Y-1382166D01*
X1876704Y-1379626D01*
X1866900Y-1378762D01*
X1857095Y-1379626D01*
X1847646Y-1382166D01*
X1838706Y-1386281D01*
X1830679Y-1391920D01*
X1823720Y-1398879D01*
X1818081Y-1406906D01*
X1813966Y-1415846D01*
X1811426Y-1425295D01*
X1810562Y-1435100D01*
X1811426Y-1444904D01*
X1813966Y-1454353D01*
X1818081Y-1463294D01*
X1823720Y-1471320D01*
X1830679Y-1478280D01*
X1838706Y-1483918D01*
X1847646Y-1488033D01*
X1857095Y-1490573D01*
G37*
G36*
X1993900Y-1427937D02*
G01*
X2003704Y-1427073D01*
X2013153Y-1424533D01*
X2022093Y-1420418D01*
X2030120Y-1414780D01*
X2037080Y-1407820D01*
X2042718Y-1399794D01*
X2046833Y-1390853D01*
X2049373Y-1381404D01*
X2050237Y-1371600D01*
X2049373Y-1361795D01*
X2046833Y-1352346D01*
X2042718Y-1343406D01*
X2037080Y-1335379D01*
X2029663Y-1327962D01*
X2027478Y-1324711D01*
X2026716Y-1320800D01*
X2027478Y-1316888D01*
X2029663Y-1313637D01*
X2037080Y-1306220D01*
X2042718Y-1298194D01*
X2046833Y-1289253D01*
X2049373Y-1279804D01*
X2050237Y-1270000D01*
X2049373Y-1260195D01*
X2046833Y-1250746D01*
X2042718Y-1241806D01*
X2037080Y-1233779D01*
X2030120Y-1226820D01*
X2022093Y-1221181D01*
X2013153Y-1217066D01*
X2003704Y-1214526D01*
X1993900Y-1213662D01*
X1984095Y-1214526D01*
X1974646Y-1217066D01*
X1965706Y-1221181D01*
X1957679Y-1226820D01*
X1950720Y-1233779D01*
X1945081Y-1241806D01*
X1940966Y-1250746D01*
X1938426Y-1260195D01*
X1937562Y-1270000D01*
X1938426Y-1279804D01*
X1940966Y-1289253D01*
X1945081Y-1298194D01*
X1950720Y-1306220D01*
X1958136Y-1313637D01*
X1960321Y-1316888D01*
X1961083Y-1320800D01*
X1960321Y-1324711D01*
X1958136Y-1327962D01*
X1950720Y-1335379D01*
X1945081Y-1343406D01*
X1940966Y-1352346D01*
X1938426Y-1361795D01*
X1937562Y-1371600D01*
X1938426Y-1381404D01*
X1940966Y-1390853D01*
X1945081Y-1399794D01*
X1950720Y-1407820D01*
X1957679Y-1414780D01*
X1965706Y-1420418D01*
X1974646Y-1424533D01*
X1984095Y-1427073D01*
G37*
G36*
X1739900Y-1326337D02*
G01*
X1749704Y-1325473D01*
X1759153Y-1322933D01*
X1768093Y-1318818D01*
X1776120Y-1313180D01*
X1783080Y-1306220D01*
X1788718Y-1298194D01*
X1792833Y-1289253D01*
X1795373Y-1279804D01*
X1796237Y-1270000D01*
X1795373Y-1260195D01*
X1792833Y-1250746D01*
X1788718Y-1241806D01*
X1783080Y-1233779D01*
X1776120Y-1226820D01*
X1768093Y-1221181D01*
X1759153Y-1217066D01*
X1749704Y-1214526D01*
X1739900Y-1213662D01*
X1730095Y-1214526D01*
X1720646Y-1217066D01*
X1711706Y-1221181D01*
X1703679Y-1226820D01*
X1696720Y-1233779D01*
X1691081Y-1241806D01*
X1686966Y-1250746D01*
X1684426Y-1260195D01*
X1683562Y-1270000D01*
X1684426Y-1279804D01*
X1686966Y-1289253D01*
X1691081Y-1298194D01*
X1696720Y-1306220D01*
X1703679Y-1313180D01*
X1711706Y-1318818D01*
X1720646Y-1322933D01*
X1730095Y-1325473D01*
G37*
G36*
X835101Y-1317802D02*
G01*
X844854Y-1316939D01*
X854354Y-1314399D01*
X863244Y-1310284D01*
X870203Y-1305407D01*
X873963Y-1303782D01*
X878078Y-1303782D01*
X881837Y-1305407D01*
X888796Y-1310284D01*
X897686Y-1314399D01*
X907186Y-1316939D01*
X916990Y-1317802D01*
X926744Y-1316939D01*
X936244Y-1314399D01*
X945134Y-1310284D01*
X951382Y-1305915D01*
X955141Y-1304290D01*
X959256Y-1304290D01*
X963015Y-1305915D01*
X969264Y-1310284D01*
X978204Y-1314399D01*
X987653Y-1316939D01*
X997458Y-1317802D01*
X1007262Y-1316939D01*
X1016711Y-1314399D01*
X1025652Y-1310284D01*
X1033678Y-1304645D01*
X1040637Y-1297686D01*
X1046276Y-1289659D01*
X1050391Y-1280718D01*
X1052931Y-1271270D01*
X1053795Y-1261465D01*
X1052931Y-1251661D01*
X1050391Y-1242212D01*
X1046276Y-1233271D01*
X1040637Y-1225245D01*
X1033678Y-1218285D01*
X1025652Y-1212646D01*
X1021283Y-1210665D01*
X1018032Y-1208176D01*
X1015949Y-1204620D01*
X1015492Y-1200556D01*
X1015695Y-1197965D01*
X1014831Y-1188161D01*
X1012291Y-1178712D01*
X1008176Y-1169771D01*
X1002537Y-1161745D01*
X995578Y-1154785D01*
X987552Y-1149146D01*
X978611Y-1145032D01*
X969162Y-1142492D01*
X959358Y-1141628D01*
X949553Y-1142492D01*
X940104Y-1145032D01*
X931164Y-1149146D01*
X924915Y-1153515D01*
X921156Y-1155141D01*
X917041Y-1155141D01*
X913282Y-1153515D01*
X907034Y-1149146D01*
X898144Y-1145032D01*
X888644Y-1142492D01*
X878890Y-1141628D01*
X869086Y-1142492D01*
X859586Y-1145032D01*
X850696Y-1149146D01*
X843737Y-1154023D01*
X839978Y-1155649D01*
X835863Y-1155649D01*
X832103Y-1154023D01*
X825144Y-1149146D01*
X816254Y-1145032D01*
X806754Y-1142492D01*
X797001Y-1141628D01*
X787196Y-1142492D01*
X777697Y-1145032D01*
X768807Y-1149146D01*
X762355Y-1153668D01*
X759155Y-1155192D01*
X755650Y-1155496D01*
X752246Y-1154582D01*
X749350Y-1152550D01*
X747420Y-1150620D01*
X739394Y-1144981D01*
X730453Y-1140866D01*
X721004Y-1138326D01*
X711200Y-1137462D01*
X701395Y-1138326D01*
X691946Y-1140866D01*
X683006Y-1144981D01*
X674979Y-1150620D01*
X668020Y-1157579D01*
X662381Y-1165606D01*
X658266Y-1174546D01*
X655726Y-1183995D01*
X654862Y-1193800D01*
X655726Y-1203604D01*
X658266Y-1213053D01*
X662381Y-1221994D01*
X668020Y-1230020D01*
X674979Y-1236980D01*
X683006Y-1242618D01*
X687374Y-1244600D01*
X690626Y-1247089D01*
X692708Y-1250645D01*
X693166Y-1254709D01*
X692962Y-1257300D01*
X693826Y-1267104D01*
X696366Y-1276553D01*
X700481Y-1285494D01*
X706120Y-1293520D01*
X713079Y-1300480D01*
X721106Y-1306118D01*
X730046Y-1310233D01*
X739495Y-1312773D01*
X749300Y-1313637D01*
X759104Y-1312773D01*
X768553Y-1310233D01*
X777494Y-1306118D01*
X783945Y-1301597D01*
X787146Y-1300073D01*
X790651Y-1299768D01*
X794054Y-1300683D01*
X796950Y-1302715D01*
X798830Y-1304645D01*
X806907Y-1310284D01*
X815797Y-1314399D01*
X825296Y-1316939D01*
G37*
G36*
X236931Y-1317294D02*
G01*
X246735Y-1316431D01*
X256184Y-1313891D01*
X265125Y-1309776D01*
X271932Y-1305001D01*
X275691Y-1303375D01*
X279806Y-1303375D01*
X283565Y-1305001D01*
X290372Y-1309776D01*
X299262Y-1313891D01*
X308762Y-1316431D01*
X318566Y-1317294D01*
X328320Y-1316431D01*
X337820Y-1313891D01*
X346710Y-1309776D01*
X353669Y-1304899D01*
X357428Y-1303274D01*
X361543Y-1303274D01*
X365302Y-1304899D01*
X372262Y-1309776D01*
X381152Y-1313891D01*
X390652Y-1316431D01*
X400456Y-1317294D01*
X410209Y-1316431D01*
X419709Y-1313891D01*
X428599Y-1309776D01*
X434848Y-1305407D01*
X438607Y-1303782D01*
X442722Y-1303782D01*
X446481Y-1305407D01*
X452729Y-1309776D01*
X461670Y-1313891D01*
X471119Y-1316431D01*
X480923Y-1317294D01*
X490728Y-1316431D01*
X500176Y-1313891D01*
X509117Y-1309776D01*
X517143Y-1304137D01*
X524103Y-1297178D01*
X529742Y-1289151D01*
X533857Y-1280210D01*
X536397Y-1270762D01*
X537260Y-1260957D01*
X536803Y-1255623D01*
X537260Y-1251508D01*
X539343Y-1247952D01*
X542645Y-1245514D01*
X548894Y-1242618D01*
X556920Y-1236980D01*
X563880Y-1230020D01*
X569518Y-1221994D01*
X573633Y-1213053D01*
X576173Y-1203604D01*
X577037Y-1193800D01*
X576173Y-1183995D01*
X573633Y-1174546D01*
X569518Y-1165606D01*
X563880Y-1157579D01*
X556920Y-1150620D01*
X548894Y-1144981D01*
X539953Y-1140866D01*
X530504Y-1138326D01*
X520700Y-1137462D01*
X510895Y-1138326D01*
X501446Y-1140866D01*
X492506Y-1144981D01*
X486257Y-1149350D01*
X482498Y-1150975D01*
X478383Y-1150975D01*
X474624Y-1149350D01*
X468376Y-1144981D01*
X459485Y-1140866D01*
X449986Y-1138326D01*
X440232Y-1137462D01*
X430428Y-1138326D01*
X420928Y-1140866D01*
X412038Y-1144981D01*
X405079Y-1149858D01*
X401320Y-1151483D01*
X397205Y-1151483D01*
X393446Y-1149858D01*
X386486Y-1144981D01*
X377596Y-1140866D01*
X368096Y-1138326D01*
X358343Y-1137462D01*
X348538Y-1138326D01*
X339039Y-1140866D01*
X330149Y-1144981D01*
X323342Y-1149756D01*
X319582Y-1151382D01*
X315468Y-1151382D01*
X311708Y-1149756D01*
X304901Y-1144981D01*
X295960Y-1140866D01*
X286512Y-1138326D01*
X276707Y-1137462D01*
X266903Y-1138326D01*
X257454Y-1140866D01*
X248513Y-1144981D01*
X240487Y-1150620D01*
X233527Y-1157579D01*
X227888Y-1165606D01*
X223774Y-1174546D01*
X221234Y-1183995D01*
X220370Y-1193800D01*
X220827Y-1199134D01*
X220370Y-1203248D01*
X218287Y-1206804D01*
X214985Y-1209243D01*
X208737Y-1212138D01*
X200710Y-1217777D01*
X193751Y-1224737D01*
X188112Y-1232763D01*
X183997Y-1241704D01*
X181457Y-1251153D01*
X180594Y-1260957D01*
X181457Y-1270762D01*
X183997Y-1280210D01*
X188112Y-1289151D01*
X193751Y-1297178D01*
X200710Y-1304137D01*
X208737Y-1309776D01*
X217678Y-1313891D01*
X227126Y-1316431D01*
G37*
G36*
X-1422400Y-1312265D02*
G01*
X-1412595Y-1311402D01*
X-1403146Y-1308862D01*
X-1394206Y-1304747D01*
X-1387398Y-1299972D01*
X-1383639Y-1298346D01*
X-1379524Y-1298346D01*
X-1375765Y-1299972D01*
X-1368958Y-1304747D01*
X-1360068Y-1308862D01*
X-1350568Y-1311402D01*
X-1340764Y-1312265D01*
X-1331010Y-1311402D01*
X-1321511Y-1308862D01*
X-1312621Y-1304747D01*
X-1305661Y-1299870D01*
X-1301902Y-1298244D01*
X-1297787Y-1298244D01*
X-1294028Y-1299870D01*
X-1287068Y-1304747D01*
X-1278178Y-1308862D01*
X-1268679Y-1311402D01*
X-1258874Y-1312265D01*
X-1249121Y-1311402D01*
X-1239621Y-1308862D01*
X-1230731Y-1304747D01*
X-1224483Y-1300378D01*
X-1220724Y-1298752D01*
X-1216609Y-1298752D01*
X-1212850Y-1300378D01*
X-1206601Y-1304747D01*
X-1197660Y-1308862D01*
X-1188212Y-1311402D01*
X-1178407Y-1312265D01*
X-1168603Y-1311402D01*
X-1159154Y-1308862D01*
X-1150213Y-1304747D01*
X-1142187Y-1299108D01*
X-1135227Y-1292148D01*
X-1129588Y-1284122D01*
X-1125474Y-1275181D01*
X-1122934Y-1265732D01*
X-1122070Y-1255928D01*
X-1122934Y-1246124D01*
X-1125474Y-1236675D01*
X-1129588Y-1227734D01*
X-1131417Y-1225143D01*
X-1133043Y-1221384D01*
X-1133043Y-1217269D01*
X-1131417Y-1213510D01*
X-1129588Y-1210919D01*
X-1125474Y-1202029D01*
X-1122934Y-1192530D01*
X-1122070Y-1182776D01*
X-1122934Y-1172972D01*
X-1125474Y-1163472D01*
X-1129588Y-1154582D01*
X-1133043Y-1149654D01*
X-1134668Y-1145895D01*
X-1134668Y-1141780D01*
X-1133043Y-1138021D01*
X-1129588Y-1133094D01*
X-1125474Y-1124153D01*
X-1122934Y-1114704D01*
X-1122070Y-1104900D01*
X-1122934Y-1095095D01*
X-1125474Y-1085646D01*
X-1129588Y-1076706D01*
X-1132484Y-1072642D01*
X-1134110Y-1068832D01*
X-1134110Y-1064768D01*
X-1132484Y-1060958D01*
X-1129588Y-1056894D01*
X-1125474Y-1047953D01*
X-1122934Y-1038504D01*
X-1122070Y-1028700D01*
X-1122934Y-1018895D01*
X-1125474Y-1009446D01*
X-1129588Y-1000506D01*
X-1135227Y-992479D01*
X-1142187Y-985519D01*
X-1150213Y-979881D01*
X-1159154Y-975766D01*
X-1168603Y-973226D01*
X-1178407Y-972362D01*
X-1188212Y-973226D01*
X-1197660Y-975766D01*
X-1206601Y-979881D01*
X-1214628Y-985519D01*
X-1221587Y-992479D01*
X-1227226Y-1000506D01*
X-1231341Y-1009446D01*
X-1233881Y-1018895D01*
X-1234744Y-1028700D01*
X-1233830Y-1039368D01*
X-1234236Y-1043228D01*
X-1236065Y-1046683D01*
X-1239012Y-1049172D01*
X-1242720Y-1050340D01*
X-1246581Y-1050086D01*
X-1249121Y-1049426D01*
X-1258874Y-1048562D01*
X-1268679Y-1049426D01*
X-1278178Y-1051966D01*
X-1287068Y-1056081D01*
X-1295146Y-1061720D01*
X-1302054Y-1068679D01*
X-1307693Y-1076706D01*
X-1311859Y-1085646D01*
X-1314399Y-1095095D01*
X-1315262Y-1104900D01*
X-1313789Y-1120241D01*
X-1315313Y-1124204D01*
X-1318310Y-1127201D01*
X-1322273Y-1128674D01*
X-1326489Y-1128471D01*
X-1331010Y-1127252D01*
X-1340764Y-1126388D01*
X-1355902Y-1127709D01*
X-1359966Y-1126032D01*
X-1362913Y-1122781D01*
X-1364284Y-1118565D01*
X-1363675Y-1114196D01*
X-1361338Y-1110488D01*
X-1353820Y-1103020D01*
X-1348181Y-1094994D01*
X-1344066Y-1086053D01*
X-1341526Y-1076604D01*
X-1340662Y-1066800D01*
X-1341526Y-1056995D01*
X-1344066Y-1047546D01*
X-1348181Y-1038606D01*
X-1353820Y-1030579D01*
X-1360779Y-1023619D01*
X-1368806Y-1017981D01*
X-1377746Y-1013866D01*
X-1387195Y-1011326D01*
X-1397000Y-1010462D01*
X-1406804Y-1011326D01*
X-1416253Y-1013866D01*
X-1425194Y-1017981D01*
X-1433220Y-1023619D01*
X-1440180Y-1030579D01*
X-1445818Y-1038606D01*
X-1449933Y-1047546D01*
X-1452473Y-1056995D01*
X-1453337Y-1066800D01*
X-1452473Y-1076604D01*
X-1449933Y-1086053D01*
X-1445818Y-1094994D01*
X-1440180Y-1103020D01*
X-1433220Y-1109980D01*
X-1425194Y-1115618D01*
X-1416253Y-1119733D01*
X-1406804Y-1122273D01*
X-1397000Y-1123137D01*
X-1381861Y-1121867D01*
X-1377797Y-1123543D01*
X-1374851Y-1126794D01*
X-1373530Y-1130960D01*
X-1374089Y-1135329D01*
X-1376476Y-1139037D01*
X-1383944Y-1146505D01*
X-1389583Y-1154582D01*
X-1393748Y-1163472D01*
X-1396288Y-1172972D01*
X-1397152Y-1182776D01*
X-1396441Y-1190650D01*
X-1396847Y-1194511D01*
X-1398676Y-1197914D01*
X-1401622Y-1200404D01*
X-1405331Y-1201623D01*
X-1409192Y-1201369D01*
X-1412595Y-1200454D01*
X-1422400Y-1199591D01*
X-1432204Y-1200454D01*
X-1441653Y-1202994D01*
X-1450594Y-1207109D01*
X-1458620Y-1212748D01*
X-1465580Y-1219708D01*
X-1471218Y-1227734D01*
X-1475333Y-1236675D01*
X-1477873Y-1246124D01*
X-1478737Y-1255928D01*
X-1477873Y-1265732D01*
X-1475333Y-1275181D01*
X-1471218Y-1284122D01*
X-1465580Y-1292148D01*
X-1458620Y-1299108D01*
X-1450594Y-1304747D01*
X-1441653Y-1308862D01*
X-1432204Y-1311402D01*
G37*
G36*
X1730959Y-1165707D02*
G01*
X1824075Y-1165707D01*
X1824075Y-1046175D01*
X1704492Y-1046175D01*
X1704492Y-1139240D01*
X1705203Y-1145540D01*
X1707134Y-1151026D01*
X1710182Y-1155903D01*
X1714296Y-1160018D01*
X1719173Y-1163066D01*
X1724660Y-1164996D01*
G37*
G36*
X76200Y-1046937D02*
G01*
X86004Y-1046073D01*
X95453Y-1043533D01*
X104394Y-1039418D01*
X112420Y-1033780D01*
X119380Y-1026820D01*
X125018Y-1018794D01*
X129133Y-1009853D01*
X131673Y-1000404D01*
X132537Y-990600D01*
X131673Y-980795D01*
X129133Y-971346D01*
X125018Y-962406D01*
X119380Y-954379D01*
X112420Y-947419D01*
X104394Y-941781D01*
X95453Y-937666D01*
X86004Y-935126D01*
X76200Y-934262D01*
X66395Y-935126D01*
X56946Y-937666D01*
X48006Y-941781D01*
X39979Y-947419D01*
X33020Y-954379D01*
X27381Y-962406D01*
X23266Y-971346D01*
X20726Y-980795D01*
X19862Y-990600D01*
X20726Y-1000404D01*
X23266Y-1009853D01*
X27381Y-1018794D01*
X33020Y-1026820D01*
X39979Y-1033780D01*
X48006Y-1039418D01*
X56946Y-1043533D01*
X66395Y-1046073D01*
G37*
G36*
X419100Y-1008837D02*
G01*
X428904Y-1007973D01*
X438353Y-1005433D01*
X447293Y-1001318D01*
X455320Y-995680D01*
X462280Y-988720D01*
X467918Y-980694D01*
X472033Y-971753D01*
X474573Y-962304D01*
X475437Y-952500D01*
X474573Y-942695D01*
X472033Y-933246D01*
X467918Y-924306D01*
X462280Y-916279D01*
X455320Y-909319D01*
X447293Y-903681D01*
X438353Y-899566D01*
X428904Y-897026D01*
X419100Y-896162D01*
X409295Y-897026D01*
X399846Y-899566D01*
X390906Y-903681D01*
X382879Y-909319D01*
X375920Y-916279D01*
X370281Y-924306D01*
X366166Y-933246D01*
X363626Y-942695D01*
X362762Y-952500D01*
X363626Y-962304D01*
X366166Y-971753D01*
X370281Y-980694D01*
X375920Y-988720D01*
X382879Y-995680D01*
X390906Y-1001318D01*
X399846Y-1005433D01*
X409295Y-1007973D01*
G37*
G36*
X825500Y-996137D02*
G01*
X835304Y-995273D01*
X844753Y-992733D01*
X853694Y-988618D01*
X861720Y-982980D01*
X868680Y-976020D01*
X874318Y-967994D01*
X878433Y-959103D01*
X881227Y-948639D01*
X883208Y-944778D01*
X886612Y-942086D01*
X890828Y-941120D01*
X895096Y-941933D01*
X904595Y-944473D01*
X914400Y-945337D01*
X924204Y-944473D01*
X933653Y-941933D01*
X942594Y-937818D01*
X954938Y-928928D01*
X958850Y-928166D01*
X962761Y-928928D01*
X975106Y-937818D01*
X984046Y-941933D01*
X993495Y-944473D01*
X1003300Y-945337D01*
X1013104Y-944473D01*
X1022553Y-941933D01*
X1031494Y-937818D01*
X1039520Y-932180D01*
X1046480Y-925220D01*
X1052118Y-917194D01*
X1056233Y-908253D01*
X1058773Y-898804D01*
X1059637Y-889000D01*
X1058773Y-879195D01*
X1056233Y-869746D01*
X1052118Y-860806D01*
X1046480Y-852779D01*
X1039520Y-845819D01*
X1031494Y-840181D01*
X1022553Y-836066D01*
X1013104Y-833526D01*
X1003300Y-832662D01*
X993495Y-833526D01*
X984046Y-836066D01*
X975106Y-840181D01*
X962761Y-849071D01*
X958850Y-849833D01*
X954938Y-849071D01*
X942594Y-840181D01*
X933653Y-836066D01*
X924204Y-833526D01*
X914400Y-832662D01*
X904595Y-833526D01*
X895146Y-836066D01*
X886206Y-840181D01*
X878179Y-845819D01*
X871219Y-852779D01*
X865581Y-860806D01*
X861466Y-869696D01*
X858672Y-880160D01*
X856691Y-884021D01*
X853287Y-886714D01*
X849071Y-887679D01*
X844803Y-886866D01*
X835304Y-884326D01*
X825500Y-883462D01*
X815695Y-884326D01*
X806246Y-886866D01*
X797306Y-890981D01*
X789279Y-896619D01*
X782320Y-903579D01*
X776681Y-911606D01*
X772566Y-920546D01*
X770026Y-929995D01*
X769162Y-939800D01*
X770026Y-949604D01*
X772566Y-959053D01*
X776681Y-967994D01*
X782320Y-976020D01*
X789279Y-982980D01*
X797306Y-988618D01*
X806246Y-992733D01*
X815695Y-995273D01*
G37*
G36*
X203200Y-919937D02*
G01*
X213004Y-919073D01*
X222453Y-916533D01*
X231394Y-912418D01*
X239420Y-906780D01*
X246379Y-899820D01*
X252018Y-891794D01*
X256133Y-882853D01*
X258673Y-873404D01*
X259537Y-863600D01*
X258673Y-853795D01*
X256133Y-844346D01*
X252018Y-835406D01*
X246379Y-827379D01*
X239420Y-820419D01*
X231394Y-814781D01*
X222453Y-810666D01*
X213004Y-808126D01*
X203200Y-807262D01*
X193395Y-808126D01*
X183946Y-810666D01*
X175006Y-814781D01*
X166979Y-820419D01*
X160020Y-827379D01*
X154381Y-835406D01*
X150266Y-844346D01*
X147726Y-853795D01*
X146862Y-863600D01*
X147726Y-873404D01*
X150266Y-882853D01*
X154381Y-891794D01*
X160020Y-899820D01*
X166979Y-906780D01*
X175006Y-912418D01*
X183946Y-916533D01*
X193395Y-919073D01*
G37*
G36*
X1193800Y-856437D02*
G01*
X1203604Y-855573D01*
X1213053Y-853033D01*
X1221994Y-848918D01*
X1229715Y-843483D01*
X1233474Y-841857D01*
X1237589Y-841857D01*
X1241348Y-843483D01*
X1249121Y-848918D01*
X1258011Y-853033D01*
X1267510Y-855573D01*
X1277315Y-856437D01*
X1287068Y-855573D01*
X1296568Y-853033D01*
X1305458Y-848918D01*
X1312265Y-844143D01*
X1316024Y-842518D01*
X1320139Y-842518D01*
X1323898Y-844143D01*
X1330706Y-848918D01*
X1339646Y-853033D01*
X1349095Y-855573D01*
X1358900Y-856437D01*
X1368704Y-855573D01*
X1378153Y-853033D01*
X1387094Y-848918D01*
X1394002Y-844042D01*
X1397812Y-842416D01*
X1401876Y-842416D01*
X1405686Y-844042D01*
X1412595Y-848918D01*
X1421536Y-853033D01*
X1430985Y-855573D01*
X1440789Y-856437D01*
X1450594Y-855573D01*
X1460042Y-853033D01*
X1468983Y-848918D01*
X1475232Y-844550D01*
X1478991Y-842924D01*
X1483106Y-842924D01*
X1486865Y-844550D01*
X1493113Y-848918D01*
X1502003Y-853033D01*
X1511503Y-855573D01*
X1521307Y-856437D01*
X1531061Y-855573D01*
X1540560Y-853033D01*
X1549450Y-848918D01*
X1557528Y-843280D01*
X1564436Y-836320D01*
X1570075Y-828294D01*
X1574241Y-819353D01*
X1576781Y-809904D01*
X1577644Y-800100D01*
X1576781Y-790295D01*
X1574241Y-780846D01*
X1570075Y-771906D01*
X1564436Y-763879D01*
X1557528Y-756920D01*
X1549450Y-751281D01*
X1540560Y-747166D01*
X1531061Y-744626D01*
X1521307Y-743762D01*
X1511503Y-744626D01*
X1502003Y-747166D01*
X1493113Y-751281D01*
X1486865Y-755650D01*
X1483106Y-757275D01*
X1478991Y-757275D01*
X1475232Y-755650D01*
X1468983Y-751281D01*
X1460042Y-747166D01*
X1450594Y-744626D01*
X1440789Y-743762D01*
X1430985Y-744626D01*
X1421536Y-747166D01*
X1412595Y-751281D01*
X1405686Y-756158D01*
X1401876Y-757783D01*
X1397812Y-757783D01*
X1394002Y-756158D01*
X1387094Y-751281D01*
X1378153Y-747166D01*
X1368704Y-744626D01*
X1358900Y-743762D01*
X1349095Y-744626D01*
X1339646Y-747166D01*
X1330706Y-751281D01*
X1323898Y-756056D01*
X1320139Y-757682D01*
X1316024Y-757682D01*
X1312265Y-756056D01*
X1305458Y-751281D01*
X1296568Y-747166D01*
X1287068Y-744626D01*
X1277315Y-743762D01*
X1267510Y-744626D01*
X1258011Y-747166D01*
X1249121Y-751281D01*
X1241348Y-756716D01*
X1237589Y-758342D01*
X1233474Y-758342D01*
X1229715Y-756716D01*
X1221994Y-751281D01*
X1213053Y-747166D01*
X1203604Y-744626D01*
X1193800Y-743762D01*
X1183995Y-744626D01*
X1174546Y-747166D01*
X1165606Y-751281D01*
X1157579Y-756920D01*
X1150620Y-763879D01*
X1144981Y-771906D01*
X1140866Y-780846D01*
X1138326Y-790295D01*
X1137462Y-800100D01*
X1138326Y-809904D01*
X1140866Y-819353D01*
X1144981Y-828294D01*
X1150620Y-836320D01*
X1157579Y-843280D01*
X1165606Y-848918D01*
X1174546Y-853033D01*
X1183995Y-855573D01*
G37*
G36*
X1704492Y-833475D02*
G01*
X1824075Y-833475D01*
X1824075Y-713892D01*
X1730959Y-713892D01*
X1724660Y-714603D01*
X1719173Y-716534D01*
X1714296Y-719582D01*
X1710182Y-723696D01*
X1707134Y-728573D01*
X1705203Y-734060D01*
X1704492Y-740359D01*
G37*
G36*
X-985977Y-818591D02*
G01*
X-976172Y-817727D01*
X-966724Y-815187D01*
X-957783Y-811022D01*
X-950061Y-805586D01*
X-946302Y-803960D01*
X-942187Y-803960D01*
X-938428Y-805586D01*
X-930656Y-811022D01*
X-921766Y-815187D01*
X-912266Y-817727D01*
X-902462Y-818591D01*
X-892708Y-817727D01*
X-883208Y-815187D01*
X-874318Y-811022D01*
X-867511Y-806246D01*
X-863752Y-804621D01*
X-859637Y-804621D01*
X-855878Y-806246D01*
X-849071Y-811022D01*
X-840130Y-815187D01*
X-830681Y-817727D01*
X-820877Y-818591D01*
X-811072Y-817727D01*
X-801624Y-815187D01*
X-792683Y-811022D01*
X-785774Y-806145D01*
X-781964Y-804519D01*
X-777900Y-804519D01*
X-774090Y-806145D01*
X-767181Y-811022D01*
X-758240Y-815187D01*
X-748792Y-817727D01*
X-738987Y-818591D01*
X-729183Y-817727D01*
X-719734Y-815187D01*
X-710793Y-811022D01*
X-704545Y-806653D01*
X-700786Y-805027D01*
X-696671Y-805027D01*
X-692912Y-806653D01*
X-686663Y-811022D01*
X-677773Y-815187D01*
X-668274Y-817727D01*
X-658469Y-818591D01*
X-648716Y-817727D01*
X-639216Y-815187D01*
X-630326Y-811022D01*
X-622249Y-805383D01*
X-615340Y-798474D01*
X-609701Y-790397D01*
X-605536Y-781507D01*
X-602996Y-772007D01*
X-602132Y-762254D01*
X-602996Y-752449D01*
X-605536Y-742950D01*
X-609701Y-734060D01*
X-615340Y-725982D01*
X-622249Y-719074D01*
X-630326Y-713435D01*
X-639216Y-709269D01*
X-648716Y-706729D01*
X-658469Y-705866D01*
X-668274Y-706729D01*
X-677773Y-709269D01*
X-686663Y-713435D01*
X-692912Y-717804D01*
X-696671Y-719429D01*
X-700786Y-719429D01*
X-704545Y-717804D01*
X-710793Y-713435D01*
X-719734Y-709269D01*
X-729183Y-706729D01*
X-738987Y-705866D01*
X-748792Y-706729D01*
X-758240Y-709269D01*
X-767181Y-713435D01*
X-774090Y-718312D01*
X-777900Y-719937D01*
X-781964Y-719937D01*
X-785774Y-718312D01*
X-792683Y-713435D01*
X-801624Y-709269D01*
X-811072Y-706729D01*
X-820877Y-705866D01*
X-830681Y-706729D01*
X-840130Y-709269D01*
X-849071Y-713435D01*
X-855878Y-718210D01*
X-859637Y-719836D01*
X-863752Y-719836D01*
X-867511Y-718210D01*
X-874318Y-713435D01*
X-883208Y-709269D01*
X-892708Y-706729D01*
X-902462Y-705866D01*
X-912266Y-706729D01*
X-921766Y-709269D01*
X-930656Y-713435D01*
X-938428Y-718870D01*
X-942187Y-720496D01*
X-946302Y-720496D01*
X-950061Y-718870D01*
X-957783Y-713435D01*
X-966724Y-709269D01*
X-976172Y-706729D01*
X-985977Y-705866D01*
X-995781Y-706729D01*
X-1005230Y-709269D01*
X-1014171Y-713435D01*
X-1022197Y-719074D01*
X-1029157Y-725982D01*
X-1034796Y-734060D01*
X-1038910Y-742950D01*
X-1041450Y-752449D01*
X-1042314Y-762254D01*
X-1041450Y-772007D01*
X-1038910Y-781507D01*
X-1034796Y-790397D01*
X-1029157Y-798474D01*
X-1022197Y-805383D01*
X-1014171Y-811022D01*
X-1005230Y-815187D01*
X-995781Y-817727D01*
G37*
G36*
X-455117Y-813511D02*
G01*
X-445312Y-812647D01*
X-435864Y-810107D01*
X-426923Y-805942D01*
X-419201Y-800506D01*
X-415442Y-798880D01*
X-411327Y-798880D01*
X-407568Y-800506D01*
X-399796Y-805942D01*
X-390906Y-810107D01*
X-381406Y-812647D01*
X-371602Y-813511D01*
X-361848Y-812647D01*
X-352348Y-810107D01*
X-343458Y-805942D01*
X-336651Y-801166D01*
X-332892Y-799541D01*
X-328777Y-799541D01*
X-325018Y-801166D01*
X-318211Y-805942D01*
X-309270Y-810107D01*
X-299821Y-812647D01*
X-290017Y-813511D01*
X-280212Y-812647D01*
X-270764Y-810107D01*
X-261823Y-805942D01*
X-254914Y-801065D01*
X-251104Y-799439D01*
X-247040Y-799439D01*
X-243230Y-801065D01*
X-236321Y-805942D01*
X-227380Y-810107D01*
X-217932Y-812647D01*
X-208127Y-813511D01*
X-198323Y-812647D01*
X-188874Y-810107D01*
X-179933Y-805942D01*
X-171907Y-800303D01*
X-164947Y-793394D01*
X-159308Y-785317D01*
X-155194Y-776427D01*
X-152654Y-766927D01*
X-151790Y-757174D01*
X-152654Y-747369D01*
X-155194Y-737870D01*
X-159308Y-728980D01*
X-164947Y-720902D01*
X-171907Y-713994D01*
X-179933Y-708355D01*
X-188874Y-704189D01*
X-198323Y-701649D01*
X-208127Y-700786D01*
X-217932Y-701649D01*
X-227380Y-704189D01*
X-236321Y-708355D01*
X-243230Y-713232D01*
X-247040Y-714857D01*
X-251104Y-714857D01*
X-254914Y-713232D01*
X-261823Y-708355D01*
X-270764Y-704189D01*
X-280212Y-701649D01*
X-290017Y-700786D01*
X-299821Y-701649D01*
X-309270Y-704189D01*
X-318211Y-708355D01*
X-325018Y-713130D01*
X-328777Y-714756D01*
X-332892Y-714756D01*
X-336651Y-713130D01*
X-343458Y-708355D01*
X-352348Y-704189D01*
X-361848Y-701649D01*
X-371602Y-700786D01*
X-381406Y-701649D01*
X-390906Y-704189D01*
X-399796Y-708355D01*
X-407568Y-713790D01*
X-411327Y-715416D01*
X-415442Y-715416D01*
X-419201Y-713790D01*
X-426923Y-708355D01*
X-435864Y-704189D01*
X-445312Y-701649D01*
X-455117Y-700786D01*
X-464921Y-701649D01*
X-474370Y-704189D01*
X-483311Y-708355D01*
X-491337Y-713994D01*
X-498297Y-720902D01*
X-503935Y-728980D01*
X-508050Y-737870D01*
X-510590Y-747369D01*
X-511454Y-757174D01*
X-510590Y-766927D01*
X-508050Y-776427D01*
X-503935Y-785317D01*
X-498297Y-793394D01*
X-491337Y-800303D01*
X-483311Y-805942D01*
X-474370Y-810107D01*
X-464921Y-812647D01*
G37*
G36*
X1206500Y-411937D02*
G01*
X1216304Y-411073D01*
X1225753Y-408533D01*
X1234694Y-404418D01*
X1242415Y-398983D01*
X1246174Y-397357D01*
X1250289Y-397357D01*
X1254048Y-398983D01*
X1261821Y-404418D01*
X1270711Y-408533D01*
X1280210Y-411073D01*
X1290015Y-411937D01*
X1299768Y-411073D01*
X1309268Y-408533D01*
X1318158Y-404418D01*
X1324965Y-399643D01*
X1328724Y-398018D01*
X1332839Y-398018D01*
X1336598Y-399643D01*
X1343406Y-404418D01*
X1352346Y-408533D01*
X1361795Y-411073D01*
X1371600Y-411937D01*
X1381404Y-411073D01*
X1390853Y-408533D01*
X1399794Y-404418D01*
X1406702Y-399542D01*
X1410512Y-397916D01*
X1414576Y-397916D01*
X1418386Y-399542D01*
X1425295Y-404418D01*
X1434236Y-408533D01*
X1443685Y-411073D01*
X1453489Y-411937D01*
X1463294Y-411073D01*
X1472742Y-408533D01*
X1481683Y-404418D01*
X1487932Y-400050D01*
X1491691Y-398424D01*
X1495806Y-398424D01*
X1499565Y-400050D01*
X1505813Y-404418D01*
X1514703Y-408533D01*
X1524203Y-411073D01*
X1534007Y-411937D01*
X1543761Y-411073D01*
X1553260Y-408533D01*
X1562150Y-404418D01*
X1570228Y-398780D01*
X1577136Y-391820D01*
X1582775Y-383794D01*
X1586941Y-374853D01*
X1589481Y-365404D01*
X1590344Y-355600D01*
X1589481Y-345795D01*
X1586941Y-336346D01*
X1582775Y-327406D01*
X1577136Y-319379D01*
X1570228Y-312420D01*
X1562150Y-306781D01*
X1553260Y-302666D01*
X1543761Y-300126D01*
X1534007Y-299262D01*
X1524203Y-300126D01*
X1514703Y-302666D01*
X1505813Y-306781D01*
X1499565Y-311150D01*
X1495806Y-312775D01*
X1491691Y-312775D01*
X1487932Y-311150D01*
X1481683Y-306781D01*
X1472742Y-302666D01*
X1463294Y-300126D01*
X1453489Y-299262D01*
X1443685Y-300126D01*
X1434236Y-302666D01*
X1425295Y-306781D01*
X1418386Y-311658D01*
X1414576Y-313283D01*
X1410512Y-313283D01*
X1406702Y-311658D01*
X1399794Y-306781D01*
X1390853Y-302666D01*
X1381404Y-300126D01*
X1371600Y-299262D01*
X1361795Y-300126D01*
X1352346Y-302666D01*
X1343406Y-306781D01*
X1336598Y-311556D01*
X1332839Y-313182D01*
X1328724Y-313182D01*
X1324965Y-311556D01*
X1318158Y-306781D01*
X1309268Y-302666D01*
X1299768Y-300126D01*
X1290015Y-299262D01*
X1280210Y-300126D01*
X1270711Y-302666D01*
X1261821Y-306781D01*
X1254048Y-312216D01*
X1250289Y-313842D01*
X1246174Y-313842D01*
X1242415Y-312216D01*
X1234694Y-306781D01*
X1225753Y-302666D01*
X1216304Y-300126D01*
X1206500Y-299262D01*
X1196695Y-300126D01*
X1187246Y-302666D01*
X1178306Y-306781D01*
X1170279Y-312420D01*
X1163320Y-319379D01*
X1157681Y-327406D01*
X1153566Y-336346D01*
X1151026Y-345795D01*
X1150162Y-355600D01*
X1151026Y-365404D01*
X1153566Y-374853D01*
X1157681Y-383794D01*
X1163320Y-391820D01*
X1170279Y-398780D01*
X1178306Y-404418D01*
X1187246Y-408533D01*
X1196695Y-411073D01*
G37*

%LPD*%
G36*
X-952500Y1257300D02*
G01*
X-977900Y1231900D01*
X-977900Y635000D01*
X-952500Y609600D01*
X-952500Y-317500D01*
X-1041400Y-444500D01*
X-330200Y-469900D01*
X-419100Y-304800D01*
X-419100Y0D01*
X-406400Y12700D01*
X-406400Y139700D01*
X-457200Y190500D01*
X-457200Y609600D01*
X-469900Y622300D01*
X-635000Y800100D01*
X-762000Y850900D01*
X-762000Y1231900D01*
X-787400Y1257300D01*
G37*
G36*
X-1460500Y381000D02*
G01*
X-1905000Y-50800D01*
X-1905000Y-101600D01*
X-1536700Y-469900D01*
X-1206500Y-304800D01*
X-1155700Y-254000D01*
X-1155700Y88900D01*
X-1435100Y381000D01*
G37*
G36*
X-2006600Y-889000D02*
G01*
X-2184400Y-990600D01*
X-2184400Y-1498600D01*
X-2159000Y-1524000D01*
X-2019300Y-1524000D01*
X-1981200Y-1473200D01*
X-1854200Y-1473200D01*
X-1803400Y-1422400D01*
X-1803400Y-927100D01*
X-1841500Y-889000D01*
G37*
G36*
X419100Y-38100D02*
G01*
X177800Y-279400D01*
X177800Y-304800D01*
X190500Y-355600D01*
X190500Y-520700D01*
X241300Y-571500D01*
X1066800Y-571500D01*
X1079500Y-546100D01*
X1079500Y-304800D01*
X1028700Y-254000D01*
X1028700Y-76200D01*
X1003300Y-38100D01*
G37*
G36*
X1676400Y-698500D02*
G01*
X1689100Y-1181100D01*
X2171700Y-1181100D01*
X2171700Y-698500D01*
G37*
D10*
X-678942Y709421D02*
G01*
X-546100Y576579D01*
X-546100Y101600D01*
X-469900Y101600D01*
D11*
G01*
X1765300Y292100D03*
G01*
X2019300Y292100D03*
D12*
G01*
X1765300Y546100D03*
D11*
G01*
X1765300Y800100D03*
D13*
G01*
X1765300Y1054100D03*
G01*
X1765300Y1308100D03*
G01*
X2019300Y1308100D03*
D11*
G01*
X2019300Y1054100D03*
G01*
X2019300Y800100D03*
G01*
X2019300Y546100D03*
D14*
G01*
X1930400Y-939800D03*
G01*
X1930400Y-431800D03*
D15*
G01*
X-876300Y-2032000D03*
G01*
X-317500Y-2032000D03*
G01*
X1308100Y-2032000D03*
D16*
G01*
X-1054100Y-2082495D03*
G01*
X1130300Y-2082800D03*
G01*
X-143027Y-2082520D03*
D17*
G01*
X1899996Y1749983D03*
G01*
X-1899996Y1749983D03*
G01*
X-1899996Y-1750009D03*
G01*
X1899996Y-1750009D03*
D18*
G01*
X-788212Y933018D03*
G01*
X-1536700Y876300D03*
G01*
X-821994Y1037894D03*
G01*
X-1562100Y-76200D03*
G01*
X-1333500Y-76200D03*
G01*
X-1447800Y-177800D03*
G01*
X-1447800Y38100D03*
G01*
X0Y1955800D03*
G01*
X-63500Y1955800D03*
G01*
X-1016000Y2082800D03*
G01*
X-1178407Y-1028700D03*
G01*
X-1178407Y-1104900D03*
G01*
X-1258900Y-1104900D03*
G01*
X-1178407Y-1182751D03*
G01*
X-1258900Y-1182751D03*
G01*
X-1340789Y-1182751D03*
G01*
X959357Y-1197965D03*
G01*
X878865Y-1197965D03*
G01*
X796975Y-1197965D03*
G01*
X711200Y-1193800D03*
G01*
X276707Y-1193800D03*
G01*
X358317Y-1193800D03*
G01*
X440207Y-1193800D03*
G01*
X520700Y-1193800D03*
G01*
X990600Y-444500D03*
G01*
X706501Y-508000D03*
G01*
X953490Y-508000D03*
G01*
X914400Y-444500D03*
G01*
X832789Y-444500D03*
G01*
X789990Y-508000D03*
G01*
X749300Y-444500D03*
G01*
X1054100Y495300D03*
G01*
X76200Y901700D03*
G01*
X-177800Y1065529D03*
G01*
X1727200Y76200D03*
G01*
X1320800Y787400D03*
G01*
X1041400Y787400D03*
G01*
X546100Y876300D03*
G01*
X-596900Y1371600D03*
G01*
X-1435100Y2082800D03*
G01*
X647700Y-431800D03*
G01*
X584200Y419100D03*
G01*
X876300Y647700D03*
G01*
X203200Y800100D03*
G01*
X-114300Y114300D03*
D19*
G01*
X-977900Y-1943100D03*
G01*
X-774700Y-1943100D03*
D18*
G01*
X-736600Y-2032000D03*
D19*
G01*
X-774700Y-2120900D03*
G01*
X-977900Y-2120900D03*
G01*
X-215900Y-2120900D03*
G01*
X-419100Y-2120900D03*
D18*
G01*
X-457200Y-2032000D03*
D19*
G01*
X-419100Y-1943100D03*
G01*
X-215900Y-1943100D03*
D18*
G01*
X-825500Y1168400D03*
G01*
X-1016000Y1993900D03*
G01*
X-1587500Y977900D03*
G01*
X-1345184Y2073351D03*
G01*
X-1117600Y901700D03*
G01*
X-1562100Y1155700D03*
G01*
X-1701800Y-1460500D03*
G01*
X1739900Y-1270000D03*
G01*
X914400Y-889000D03*
G01*
X787400Y419100D03*
G01*
X-1384300Y558800D03*
G01*
X-1422400Y-1255928D03*
G01*
X-1340789Y-1255928D03*
G01*
X-1258900Y-1255928D03*
G01*
X-1178407Y-1255928D03*
G01*
X749300Y-1257300D03*
G01*
X835075Y-1261465D03*
G01*
X916965Y-1261465D03*
G01*
X997457Y-1261465D03*
G01*
X236931Y-1260957D03*
G01*
X318541Y-1260957D03*
G01*
X400430Y-1260957D03*
G01*
X480923Y-1260957D03*
G01*
X-1511300Y2082800D03*
G01*
X1866900Y-1435100D03*
G01*
X1993900Y-1371600D03*
G01*
X1993900Y-1270000D03*
G01*
X1003300Y-889000D03*
G01*
X901700Y419100D03*
G01*
X-469900Y101600D03*
G01*
X-546100Y101600D03*
G01*
X-2095500Y1231900D03*
G01*
X-647700Y1041400D03*
G01*
X751992Y1672005D03*
G01*
X952500Y1485900D03*
G01*
X-139700Y1955800D03*
G01*
X-1333500Y-177800D03*
G01*
X-1562100Y-177800D03*
G01*
X-1333500Y38100D03*
G01*
X-1562100Y38100D03*
G01*
X-1447800Y-292100D03*
G01*
X-1663700Y-76200D03*
G01*
X-1227328Y-76200D03*
G01*
X-1447774Y-76200D03*
G01*
X-1447545Y141630D03*
G01*
X456996Y1363192D03*
G01*
X456996Y1443507D03*
G01*
X377088Y1443507D03*
G01*
X377088Y1363192D03*
G01*
X377088Y1282700D03*
G01*
X456996Y1282700D03*
G01*
X537692Y1282700D03*
G01*
X537692Y1363192D03*
G01*
X537692Y1443507D03*
G01*
X537692Y1524000D03*
G01*
X456996Y1524000D03*
G01*
X377088Y1524000D03*
G01*
X296392Y1524000D03*
G01*
X296392Y1443507D03*
G01*
X296392Y1363192D03*
G01*
X296392Y1282700D03*
G01*
X2006600Y-139700D03*
G01*
X1866900Y-139700D03*
G01*
X1270000Y1447800D03*
G01*
X1155700Y1562100D03*
G01*
X482600Y419100D03*
G01*
X1308100Y558800D03*
G01*
X1587500Y203200D03*
G01*
X1384300Y431800D03*
G01*
X1533982Y-355600D03*
G01*
X1453489Y-355600D03*
G01*
X1289989Y-355600D03*
G01*
X1371600Y-355600D03*
G01*
X1206500Y-355600D03*
G01*
X1521282Y-800100D03*
G01*
X1440789Y-800100D03*
G01*
X1277289Y-800100D03*
G01*
X1358900Y-800100D03*
G01*
X1193800Y-800100D03*
G01*
X-215900Y685800D03*
G01*
X-215900Y812800D03*
G01*
X-215900Y939800D03*
G01*
X-1905000Y914400D03*
G01*
X-455117Y-757148D03*
G01*
X-371627Y-757148D03*
G01*
X-290017Y-757148D03*
G01*
X-208127Y-757148D03*
G01*
X-985977Y-762228D03*
G01*
X-902487Y-762228D03*
G01*
X-820877Y-762228D03*
G01*
X-738987Y-762228D03*
G01*
X-658495Y-762228D03*
G01*
X225907Y-299669D03*
G01*
X266700Y-364439D03*
G01*
X314807Y-299669D03*
G01*
X355600Y-364439D03*
G01*
X403707Y-299669D03*
G01*
X444500Y-364439D03*
G01*
X444500Y-229488D03*
G01*
X492607Y-299669D03*
G01*
X492607Y-160502D03*
G01*
X533400Y-364439D03*
G01*
X533400Y-229488D03*
G01*
X533400Y-88900D03*
G01*
X38100Y-190500D03*
G01*
X-2140813Y-1104290D03*
G01*
X-2140280Y-1020698D03*
G01*
X-2070100Y-977900D03*
G01*
X-2070100Y-1061491D03*
G01*
X-2070100Y-1143000D03*
G01*
X-2140813Y-1185798D03*
G01*
X-2140813Y-1269288D03*
G01*
X-2140813Y-1350898D03*
G01*
X-2070100Y-1308100D03*
G01*
X-2070100Y-1226489D03*
G01*
X-2001113Y-1185748D03*
G01*
X-2001113Y-1350898D03*
G01*
X-2070100Y-1389989D03*
G01*
X-2140813Y-1432788D03*
G01*
X-2070100Y-1470482D03*
G01*
X-2001113Y-1432788D03*
G01*
X-2001113Y-1269263D03*
G01*
X-2001113Y-1104290D03*
G01*
X-2001113Y-1020698D03*
G01*
X-1929511Y-1061491D03*
G01*
X-1929511Y-1143000D03*
G01*
X-1929511Y-1226489D03*
G01*
X-1929511Y-1308100D03*
G01*
X-1929511Y-1389989D03*
G01*
X619709Y-364439D03*
G01*
X701217Y-363702D03*
G01*
X662508Y-300202D03*
G01*
X578916Y-299669D03*
G01*
X619709Y-229488D03*
G01*
X701217Y-229488D03*
G01*
X744016Y-300202D03*
G01*
X784707Y-363702D03*
G01*
X827506Y-300202D03*
G01*
X866317Y-363702D03*
G01*
X948207Y-363702D03*
G01*
X909116Y-300202D03*
G01*
X866317Y-229488D03*
G01*
X784707Y-229488D03*
G01*
X743965Y-160502D03*
G01*
X909116Y-160502D03*
G01*
X948207Y-229488D03*
G01*
X991006Y-300202D03*
G01*
X991006Y-160502D03*
G01*
X827481Y-160502D03*
G01*
X662508Y-160502D03*
G01*
X578916Y-160502D03*
G01*
X619709Y-88900D03*
G01*
X701217Y-88900D03*
G01*
X784707Y-88900D03*
G01*
X866317Y-88900D03*
G01*
X948207Y-88900D03*
G01*
X-266700Y431800D03*
G01*
X1320800Y1193800D03*
G01*
X1066800Y1193800D03*
G01*
X787400Y914400D03*
G01*
X1320800Y685800D03*
G01*
X139700Y-190500D03*
G01*
X-241300Y241300D03*
G01*
X660400Y914400D03*
G01*
X-1905000Y1231900D03*
G01*
X1320800Y939800D03*
G01*
X-50800Y520700D03*
G01*
X1221917Y-1574800D03*
G01*
X1183208Y-1511300D03*
G01*
X1221917Y-1440586D03*
G01*
X1264716Y-1511300D03*
G01*
X1305407Y-1574800D03*
G01*
X1348206Y-1511300D03*
G01*
X1387017Y-1574800D03*
G01*
X1468907Y-1574800D03*
G01*
X1429816Y-1511300D03*
G01*
X1387017Y-1440586D03*
G01*
X1305407Y-1440586D03*
G01*
X1264665Y-1371600D03*
G01*
X1429816Y-1371600D03*
G01*
X1468907Y-1440586D03*
G01*
X1511706Y-1511300D03*
G01*
X1549400Y-1574800D03*
G01*
X1549400Y-1440586D03*
G01*
X1511706Y-1371600D03*
G01*
X1348181Y-1371600D03*
G01*
X1183208Y-1371600D03*
G01*
X1221917Y-1299997D03*
G01*
X1305407Y-1299997D03*
G01*
X1387017Y-1299997D03*
G01*
X1468907Y-1299997D03*
G01*
X1549400Y-1299997D03*
G01*
X-416382Y-1570202D03*
G01*
X-455091Y-1506702D03*
G01*
X-416382Y-1435988D03*
G01*
X-373583Y-1506702D03*
G01*
X-332892Y-1570202D03*
G01*
X-290093Y-1506702D03*
G01*
X-251282Y-1570202D03*
G01*
X-169392Y-1570202D03*
G01*
X-208483Y-1506702D03*
G01*
X-251282Y-1435988D03*
G01*
X-332892Y-1435988D03*
G01*
X-373634Y-1367002D03*
G01*
X-208483Y-1367002D03*
G01*
X-169392Y-1435988D03*
G01*
X-126593Y-1506702D03*
G01*
X-88900Y-1570202D03*
G01*
X-88900Y-1435988D03*
G01*
X-126593Y-1367002D03*
G01*
X-290118Y-1367002D03*
G01*
X-455091Y-1367002D03*
G01*
X-416382Y-1295400D03*
G01*
X-332892Y-1295400D03*
G01*
X-251282Y-1295400D03*
G01*
X-169392Y-1295400D03*
G01*
X-88900Y-1295400D03*
G01*
X-962482Y-1570202D03*
G01*
X-1001191Y-1506702D03*
G01*
X-962482Y-1435988D03*
G01*
X-919683Y-1506702D03*
G01*
X-878992Y-1570202D03*
G01*
X-836193Y-1506702D03*
G01*
X-797382Y-1570202D03*
G01*
X-715492Y-1570202D03*
G01*
X-754583Y-1506702D03*
G01*
X-797382Y-1435988D03*
G01*
X-878992Y-1435988D03*
G01*
X-919734Y-1367002D03*
G01*
X-754583Y-1367002D03*
G01*
X-715492Y-1435988D03*
G01*
X-672693Y-1506702D03*
G01*
X-635000Y-1570202D03*
G01*
X-635000Y-1435988D03*
G01*
X-672693Y-1367002D03*
G01*
X-836218Y-1367002D03*
G01*
X-1001191Y-1367002D03*
G01*
X-962482Y-1295400D03*
G01*
X-878992Y-1295400D03*
G01*
X-797382Y-1295400D03*
G01*
X-715492Y-1295400D03*
G01*
X-635000Y-1295400D03*
G01*
X-1508582Y-1849602D03*
G01*
X-1547291Y-1786102D03*
G01*
X-1508582Y-1715388D03*
G01*
X-1465783Y-1786102D03*
G01*
X-1425092Y-1849602D03*
G01*
X-1382293Y-1786102D03*
G01*
X-1343482Y-1849602D03*
G01*
X-1261592Y-1849602D03*
G01*
X-1300683Y-1786102D03*
G01*
X-1343482Y-1715388D03*
G01*
X-1425092Y-1715388D03*
G01*
X-1465834Y-1646402D03*
G01*
X-1300683Y-1646402D03*
G01*
X-1261592Y-1715388D03*
G01*
X-1218793Y-1786102D03*
G01*
X-1181100Y-1849602D03*
G01*
X-1181100Y-1715388D03*
G01*
X-1218793Y-1646402D03*
G01*
X-1382318Y-1646402D03*
G01*
X-1547291Y-1646402D03*
G01*
X-1508582Y-1574800D03*
G01*
X-1425092Y-1574800D03*
G01*
X-1343482Y-1574800D03*
G01*
X-1261592Y-1574800D03*
G01*
X-1181100Y-1574800D03*
G01*
X129717Y-1849602D03*
G01*
X91008Y-1786102D03*
G01*
X129717Y-1715388D03*
G01*
X172516Y-1786102D03*
G01*
X213207Y-1849602D03*
G01*
X256006Y-1786102D03*
G01*
X294817Y-1849602D03*
G01*
X376707Y-1849602D03*
G01*
X337616Y-1786102D03*
G01*
X294817Y-1715388D03*
G01*
X213207Y-1715388D03*
G01*
X172465Y-1646402D03*
G01*
X337616Y-1646402D03*
G01*
X376707Y-1715388D03*
G01*
X419506Y-1786102D03*
G01*
X457200Y-1849602D03*
G01*
X457200Y-1715388D03*
G01*
X419506Y-1646402D03*
G01*
X255981Y-1646402D03*
G01*
X91008Y-1646402D03*
G01*
X129717Y-1574800D03*
G01*
X213207Y-1574800D03*
G01*
X294817Y-1574800D03*
G01*
X376707Y-1574800D03*
G01*
X457200Y-1574800D03*
G01*
X675817Y-1849602D03*
G01*
X637108Y-1786102D03*
G01*
X675817Y-1715388D03*
G01*
X718616Y-1786102D03*
G01*
X759307Y-1849602D03*
G01*
X802106Y-1786102D03*
G01*
X840917Y-1849602D03*
G01*
X922807Y-1849602D03*
G01*
X883716Y-1786102D03*
G01*
X840917Y-1715388D03*
G01*
X759307Y-1715388D03*
G01*
X718565Y-1646402D03*
G01*
X883716Y-1646402D03*
G01*
X922807Y-1715388D03*
G01*
X965606Y-1786102D03*
G01*
X1003300Y-1849602D03*
G01*
X1003300Y-1715388D03*
G01*
X965606Y-1646402D03*
G01*
X802081Y-1646402D03*
G01*
X637108Y-1646402D03*
G01*
X675817Y-1574800D03*
G01*
X759307Y-1574800D03*
G01*
X840917Y-1574800D03*
G01*
X922807Y-1574800D03*
G01*
X1003300Y-1574800D03*
G01*
X419100Y-952500D03*
G01*
X419100Y-635000D03*
G01*
X-1745005Y-812800D03*
G01*
X-1845005Y-812800D03*
G01*
X-2082800Y-584200D03*
G01*
X-1397000Y-1066800D03*
G01*
X-2057400Y-800100D03*
G01*
X-1727200Y-1066800D03*
G01*
X-1955800Y-800100D03*
G01*
X-2120900Y-508000D03*
G01*
X-2070100Y-444500D03*
G01*
X203200Y-863600D03*
G01*
X76200Y-990600D03*
G01*
X-2057400Y50800D03*
G01*
X-2057400Y152400D03*
G01*
X-2057400Y228600D03*
G01*
X-2070100Y317500D03*
G01*
X-2070100Y469900D03*
G01*
X-2032000Y558800D03*
G01*
X-1943100Y558800D03*
G01*
X-1587500Y558800D03*
G01*
X-1663700Y558800D03*
G01*
X-1727200Y508000D03*
G01*
X-1790700Y558800D03*
G01*
X-1866900Y508000D03*
G01*
X-127000Y1447800D03*
G01*
X-127000Y1320800D03*
G01*
X63500Y1320800D03*
G01*
X38100Y787400D03*
G01*
X-254000Y558800D03*
G01*
X-1536700Y-812800D03*
G01*
X-1638300Y-812800D03*
G01*
X825500Y-660400D03*
G01*
X825500Y-939800D03*
G01*
X1587500Y1701800D03*
G01*
X1638300Y1473200D03*
G01*
X-139700Y1828800D03*
G01*
X1320800Y1066800D03*
G01*
X127000Y1498600D03*
G01*
X-2082800Y711200D03*
D19*
G01*
X2057400Y-939800D03*
G01*
X1930400Y-1066800D03*
G01*
X1803400Y-939800D03*
G01*
X1930400Y-812800D03*
G01*
X2057400Y-431800D03*
G01*
X1930400Y-558800D03*
G01*
X1803400Y-431800D03*
G01*
X1930400Y-304800D03*
G01*
X1409700Y-1943100D03*
D18*
G01*
X1447800Y-2032000D03*
D19*
G01*
X1409700Y-2120900D03*
G01*
X1206500Y-2120900D03*
G01*
X1206500Y-1943100D03*
D18*
G01*
X1524000Y-25400D03*
D20*
G01*
X-328421Y2081529D03*
G01*
X685800Y419100D03*
G01*
X-774700Y2057400D03*
G01*
X-1041400Y901700D03*
D19*
G01*
X-1516913Y-2120519D03*
G01*
X-1417853Y-2123059D03*
G01*
X310464Y-2135301D03*
G01*
X208864Y-2135301D03*
G01*
X673100Y-2133600D03*
G01*
X766826Y-2137206D03*
D21*
G01*
X1803400Y-304800D03*
G01*
X1803400Y-558800D03*
G01*
X2057400Y-304800D03*
G01*
X2057400Y-558800D03*
G01*
X2057400Y-1066800D03*
G01*
X2057400Y-812800D03*
G01*
X1803400Y-812800D03*
G01*
X1803400Y-1066800D03*
D19*
G01*
X1765300Y-482600D03*
G01*
X1879600Y-266700D03*
G01*
X1765300Y-381000D03*
G01*
X1981200Y-266700D03*
G01*
X2095500Y-381000D03*
G01*
X2095500Y-482600D03*
G01*
X1981200Y-596900D03*
G01*
X1879600Y-596900D03*
G01*
X1981200Y-774700D03*
G01*
X1879600Y-774700D03*
G01*
X2095500Y-990600D03*
G01*
X2095500Y-889000D03*
G01*
X1981200Y-1104900D03*
G01*
X1879600Y-1104900D03*
G01*
X1765300Y-990600D03*
G01*
X1765300Y-889000D03*
D20*
G01*
X-774700Y1955800D03*
M02*
