G04 Layer: BottomPasteMaskLayer*
G04 EasyEDA v6.5.39, 2024-01-09 17:58:11*
G04 1731ee7187ce4ff3998c1f3127dcefb7,7c1e8d740ba24e6f83eb2d53d3341807,10*
G04 Gerber Generator version 0.2*
G04 Scale: 100 percent, Rotated: No, Reflected: No *
G04 Dimensions in millimeters *
G04 leading zeros omitted , absolute positions ,4 integer and 5 decimal *
%FSLAX45Y45*%
%MOMM*%

%AMMACRO1*21,1,$1,$2,0,0,$3*%
%ADD10MACRO1,0.4999X0.7998X90.0000*%
%ADD11MACRO1,0.5999X1.5499X-90.0000*%
%ADD12MACRO1,1.4999X2X-90.0000*%
%ADD13MACRO1,0.635X1.27X-90.0000*%
%ADD14O,0.5684012X1.950212*%

%LPD*%
G36*
X3116580Y327710D02*
G01*
X3106623Y317703D01*
X3106623Y164896D01*
X3116580Y154889D01*
X3245104Y154889D01*
X3255111Y164896D01*
X3255111Y201930D01*
X3245104Y211937D01*
X3214624Y211937D01*
X3204616Y221945D01*
X3204616Y260654D01*
X3214624Y270662D01*
X3245104Y270662D01*
X3255111Y280670D01*
X3255111Y317703D01*
X3245104Y327710D01*
G37*
G36*
X3435096Y327710D02*
G01*
X3425088Y317703D01*
X3425088Y280670D01*
X3435096Y270662D01*
X3465576Y270662D01*
X3475583Y260654D01*
X3475583Y221945D01*
X3465576Y211937D01*
X3435096Y211937D01*
X3425088Y201930D01*
X3425088Y164896D01*
X3435096Y154889D01*
X3563620Y154889D01*
X3573576Y164896D01*
X3573576Y317703D01*
X3563620Y327710D01*
G37*
G36*
X3116580Y111810D02*
G01*
X3106623Y101803D01*
X3106623Y-51003D01*
X3116580Y-61010D01*
X3245104Y-61010D01*
X3255111Y-51003D01*
X3255111Y-13970D01*
X3245104Y-3962D01*
X3214624Y-3962D01*
X3204616Y6045D01*
X3204616Y44754D01*
X3214624Y54762D01*
X3245104Y54762D01*
X3255111Y64769D01*
X3255111Y101803D01*
X3245104Y111810D01*
G37*
G36*
X3435096Y111810D02*
G01*
X3425088Y101803D01*
X3425088Y64769D01*
X3435096Y54762D01*
X3465576Y54762D01*
X3475583Y44754D01*
X3475583Y6045D01*
X3465576Y-3962D01*
X3435096Y-3962D01*
X3425088Y-13970D01*
X3425088Y-51003D01*
X3435096Y-61010D01*
X3563620Y-61010D01*
X3573576Y-51003D01*
X3573576Y101803D01*
X3563620Y111810D01*
G37*
G36*
X3116580Y-104089D02*
G01*
X3106623Y-114096D01*
X3106623Y-266903D01*
X3116580Y-276910D01*
X3245104Y-276910D01*
X3255111Y-266903D01*
X3255111Y-229870D01*
X3245104Y-219862D01*
X3214624Y-219862D01*
X3204616Y-209854D01*
X3204616Y-171145D01*
X3214624Y-161137D01*
X3245104Y-161137D01*
X3255111Y-151130D01*
X3255111Y-114096D01*
X3245104Y-104089D01*
G37*
G36*
X3435096Y-104089D02*
G01*
X3425088Y-114096D01*
X3425088Y-151130D01*
X3435096Y-161137D01*
X3465576Y-161137D01*
X3475583Y-171145D01*
X3475583Y-209854D01*
X3465576Y-219862D01*
X3435096Y-219862D01*
X3425088Y-229870D01*
X3425088Y-266903D01*
X3435096Y-276910D01*
X3563620Y-276910D01*
X3573576Y-266903D01*
X3573576Y-114096D01*
X3563620Y-104089D01*
G37*
G36*
X3116580Y543610D02*
G01*
X3106623Y533603D01*
X3106623Y380796D01*
X3116580Y370789D01*
X3245104Y370789D01*
X3255111Y380796D01*
X3255111Y417830D01*
X3245104Y427837D01*
X3214624Y427837D01*
X3204616Y437845D01*
X3204616Y476554D01*
X3214624Y486562D01*
X3245104Y486562D01*
X3255111Y496570D01*
X3255111Y533603D01*
X3245104Y543610D01*
G37*
G36*
X3435096Y543610D02*
G01*
X3425088Y533603D01*
X3425088Y496570D01*
X3435096Y486562D01*
X3465576Y486562D01*
X3475583Y476554D01*
X3475583Y437845D01*
X3465576Y427837D01*
X3435096Y427837D01*
X3425088Y417830D01*
X3425088Y380796D01*
X3435096Y370789D01*
X3563620Y370789D01*
X3573576Y380796D01*
X3573576Y533603D01*
X3563620Y543610D01*
G37*
G36*
X2880512Y-1454200D02*
G01*
X2880512Y-1499209D01*
X2835503Y-1499209D01*
X2835503Y-1455216D01*
X2793492Y-1454708D01*
X2788513Y-1459687D01*
X2788513Y-1574698D01*
X2793492Y-1579727D01*
X2921508Y-1579727D01*
X2926486Y-1574698D01*
X2926486Y-1459687D01*
X2921508Y-1454708D01*
G37*
G36*
X2793492Y-1239723D02*
G01*
X2788513Y-1244701D01*
X2788513Y-1359712D01*
X2793492Y-1364691D01*
X2835503Y-1364691D01*
X2835503Y-1320190D01*
X2880512Y-1320190D01*
X2880512Y-1364183D01*
X2921508Y-1364691D01*
X2926486Y-1359712D01*
X2926486Y-1244701D01*
X2921508Y-1239723D01*
G37*
D10*
G01*
X3365487Y-1523187D03*
G01*
X3365487Y-1423187D03*
D11*
G01*
X3184448Y1405686D03*
G01*
X3184448Y1305686D03*
G01*
X3184448Y1205687D03*
G01*
X3184448Y1105687D03*
G01*
X3184448Y1005687D03*
G01*
X3184448Y905687D03*
D12*
G01*
X3571951Y775703D03*
G01*
X3571951Y1535696D03*
D10*
G01*
X3225787Y-1523187D03*
G01*
X3225787Y-1423187D03*
D13*
G01*
X2857500Y-1033779D03*
G01*
X2857500Y-1125220D03*
D14*
G01*
X3098800Y-593089D03*
G01*
X3225800Y-593089D03*
G01*
X3352800Y-593089D03*
G01*
X3479800Y-593089D03*
G01*
X3098800Y-1134110D03*
G01*
X3225800Y-1134110D03*
G01*
X3352800Y-1134110D03*
G01*
X3479800Y-1134110D03*
M02*
