G04 Layer: InnerLayer2*
G04 EasyEDA v6.5.39, 2024-01-09 17:58:11*
G04 1731ee7187ce4ff3998c1f3127dcefb7,7c1e8d740ba24e6f83eb2d53d3341807,10*
G04 Gerber Generator version 0.2*
G04 Scale: 100 percent, Rotated: No, Reflected: No *
G04 Dimensions in millimeters *
G04 leading zeros omitted , absolute positions ,4 integer and 5 decimal *
%FSLAX45Y45*%
%MOMM*%

%ADD10C,3.2500*%
%ADD11C,1.5748*%
%ADD12R,1.5748X1.5748*%
%ADD13R,4.0000X4.0000*%
%ADD14C,2.8000*%
%ADD15C,1.5240*%
%ADD16C,1.5700*%
%ADD17C,0.6200*%
%ADD18C,0.0124*%

%LPD*%
G36*
X2513279Y-1663192D02*
G01*
X2509469Y-1662430D01*
X2504694Y-1660499D01*
X2498902Y-1659585D01*
X2479446Y-1658670D01*
X2461260Y-1656080D01*
X2443378Y-1651812D01*
X2425954Y-1645920D01*
X2409139Y-1638452D01*
X2393137Y-1629460D01*
X2377998Y-1619046D01*
X2363876Y-1607261D01*
X2350871Y-1594256D01*
X2339187Y-1580083D01*
X2328824Y-1564894D01*
X2319934Y-1548790D01*
X2312517Y-1531975D01*
X2306726Y-1514500D01*
X2302560Y-1496618D01*
X2300071Y-1478381D01*
X2299208Y-1459687D01*
X2299208Y-1409903D01*
X2298242Y-1388059D01*
X2297328Y-1380388D01*
X2297684Y-1376222D01*
X2299665Y-1372565D01*
X2302967Y-1370025D01*
X2306980Y-1369009D01*
X2311095Y-1369720D01*
X2314600Y-1372006D01*
X2372055Y-1429461D01*
X2385923Y-1442059D01*
X2400808Y-1453083D01*
X2416657Y-1462582D01*
X2433370Y-1470456D01*
X2450744Y-1476705D01*
X2468676Y-1481175D01*
X2486964Y-1483918D01*
X2505456Y-1484833D01*
X2523947Y-1483918D01*
X2542235Y-1481175D01*
X2560167Y-1476705D01*
X2577541Y-1470456D01*
X2594254Y-1462582D01*
X2610104Y-1453083D01*
X2624988Y-1442059D01*
X2638653Y-1429613D01*
X2651099Y-1415948D01*
X2662123Y-1401064D01*
X2671622Y-1385214D01*
X2679496Y-1368501D01*
X2685745Y-1351127D01*
X2690215Y-1333195D01*
X2692958Y-1314907D01*
X2693873Y-1296416D01*
X2692958Y-1277924D01*
X2690215Y-1259636D01*
X2685745Y-1241704D01*
X2679496Y-1224330D01*
X2671622Y-1207617D01*
X2662123Y-1191768D01*
X2651099Y-1176883D01*
X2638501Y-1163015D01*
X2432100Y-956614D01*
X2429916Y-953312D01*
X2429154Y-949452D01*
X2429154Y-864819D01*
X2344521Y-864819D01*
X2340660Y-864057D01*
X2337358Y-861872D01*
X2282240Y-806754D01*
X2268372Y-794156D01*
X2253488Y-783132D01*
X2237638Y-773633D01*
X2220925Y-765759D01*
X2203551Y-759510D01*
X2185619Y-755040D01*
X2167331Y-752297D01*
X2162251Y-751332D01*
X2159101Y-749096D01*
X2157018Y-745845D01*
X2155596Y-734060D01*
X2153666Y-728573D01*
X2150618Y-723696D01*
X2146503Y-719582D01*
X2141626Y-716534D01*
X2136140Y-714603D01*
X2129840Y-713892D01*
X2091740Y-713892D01*
X2088489Y-713333D01*
X2084425Y-711962D01*
X2071014Y-709320D01*
X2057400Y-708406D01*
X2043785Y-709320D01*
X2030374Y-711962D01*
X2026310Y-713333D01*
X2023059Y-713892D01*
X1837740Y-713892D01*
X1834489Y-713333D01*
X1830425Y-711962D01*
X1817014Y-709320D01*
X1803400Y-708406D01*
X1789785Y-709320D01*
X1776374Y-711962D01*
X1772310Y-713333D01*
X1769059Y-713892D01*
X1730959Y-713892D01*
X1724660Y-714603D01*
X1719173Y-716534D01*
X1714296Y-719582D01*
X1710182Y-723696D01*
X1707134Y-728573D01*
X1705203Y-734060D01*
X1704492Y-740359D01*
X1704492Y-778459D01*
X1703933Y-781710D01*
X1702562Y-785774D01*
X1699920Y-799185D01*
X1699006Y-812800D01*
X1699920Y-826414D01*
X1702562Y-839825D01*
X1703933Y-843889D01*
X1704492Y-847140D01*
X1704492Y-1032459D01*
X1703933Y-1035710D01*
X1702562Y-1039774D01*
X1699920Y-1053185D01*
X1699006Y-1066800D01*
X1699920Y-1080414D01*
X1702562Y-1093825D01*
X1703933Y-1097889D01*
X1704492Y-1101140D01*
X1704492Y-1139240D01*
X1705000Y-1143914D01*
X1704593Y-1148130D01*
X1702511Y-1151788D01*
X1699056Y-1154328D01*
X1694942Y-1155192D01*
X1661668Y-1155192D01*
X1657756Y-1154430D01*
X1654505Y-1152194D01*
X1652270Y-1148943D01*
X1651507Y-1145032D01*
X1651507Y243230D01*
X1652524Y247599D01*
X1655318Y251155D01*
X1659382Y253136D01*
X1663852Y253136D01*
X1667916Y251206D01*
X1670761Y247700D01*
X1674672Y239775D01*
X1682292Y228396D01*
X1691335Y218135D01*
X1701596Y209092D01*
X1712975Y201472D01*
X1725269Y195427D01*
X1738223Y191058D01*
X1751634Y188366D01*
X1765300Y187452D01*
X1778965Y188366D01*
X1792376Y191058D01*
X1805330Y195427D01*
X1817624Y201472D01*
X1829003Y209092D01*
X1839264Y218135D01*
X1848307Y228396D01*
X1855927Y239775D01*
X1861972Y252069D01*
X1866341Y265023D01*
X1869033Y278434D01*
X1869948Y292100D01*
X1869033Y305765D01*
X1866341Y319176D01*
X1861972Y332130D01*
X1855927Y344424D01*
X1848307Y355803D01*
X1839264Y366064D01*
X1829003Y375107D01*
X1817624Y382727D01*
X1805330Y388772D01*
X1792376Y393141D01*
X1778965Y395833D01*
X1765300Y396748D01*
X1751634Y395833D01*
X1738223Y393141D01*
X1725269Y388772D01*
X1712975Y382727D01*
X1701596Y375107D01*
X1691335Y366064D01*
X1682292Y355803D01*
X1674672Y344424D01*
X1670761Y336499D01*
X1667916Y332994D01*
X1663852Y331063D01*
X1659382Y331063D01*
X1655318Y333044D01*
X1652524Y336600D01*
X1651507Y340969D01*
X1651507Y497230D01*
X1652524Y501599D01*
X1655318Y505155D01*
X1659382Y507085D01*
X1663852Y507136D01*
X1667916Y505206D01*
X1670761Y501700D01*
X1674672Y493776D01*
X1682292Y482396D01*
X1691335Y472135D01*
X1701596Y463092D01*
X1712975Y455472D01*
X1725269Y449427D01*
X1738223Y445058D01*
X1751634Y442366D01*
X1765300Y441451D01*
X1778965Y442366D01*
X1792376Y445058D01*
X1805330Y449427D01*
X1817624Y455472D01*
X1829003Y463092D01*
X1839264Y472135D01*
X1848307Y482396D01*
X1855927Y493776D01*
X1861972Y506069D01*
X1866341Y519023D01*
X1869033Y532434D01*
X1869948Y546100D01*
X1869033Y559765D01*
X1866341Y573176D01*
X1861972Y586130D01*
X1855927Y598424D01*
X1848307Y609803D01*
X1839264Y620064D01*
X1829003Y629107D01*
X1817624Y636727D01*
X1805330Y642772D01*
X1792376Y647141D01*
X1778965Y649833D01*
X1765300Y650748D01*
X1751634Y649833D01*
X1738223Y647141D01*
X1725269Y642772D01*
X1712975Y636727D01*
X1701596Y629107D01*
X1691335Y620064D01*
X1682292Y609803D01*
X1674672Y598424D01*
X1670761Y590499D01*
X1667916Y586994D01*
X1663852Y585063D01*
X1659382Y585063D01*
X1655318Y587044D01*
X1652524Y590600D01*
X1651507Y594969D01*
X1651507Y751230D01*
X1652524Y755599D01*
X1655318Y759155D01*
X1659382Y761085D01*
X1663852Y761136D01*
X1667916Y759206D01*
X1670761Y755700D01*
X1674672Y747776D01*
X1682292Y736396D01*
X1691335Y726135D01*
X1701596Y717092D01*
X1712975Y709472D01*
X1725269Y703427D01*
X1738223Y699058D01*
X1751634Y696366D01*
X1765300Y695452D01*
X1778965Y696366D01*
X1792376Y699058D01*
X1805330Y703427D01*
X1817624Y709472D01*
X1829003Y717092D01*
X1839264Y726135D01*
X1848307Y736396D01*
X1855927Y747776D01*
X1861972Y760069D01*
X1866341Y773023D01*
X1869033Y786434D01*
X1869948Y800100D01*
X1869033Y813765D01*
X1866341Y827176D01*
X1861972Y840130D01*
X1855927Y852424D01*
X1848307Y863803D01*
X1839264Y874064D01*
X1829003Y883107D01*
X1817624Y890727D01*
X1805330Y896772D01*
X1792376Y901141D01*
X1778965Y903833D01*
X1765300Y904748D01*
X1751634Y903833D01*
X1738223Y901141D01*
X1725269Y896772D01*
X1712975Y890727D01*
X1701596Y883107D01*
X1691335Y874064D01*
X1682292Y863803D01*
X1674672Y852424D01*
X1670761Y844499D01*
X1667916Y840994D01*
X1663852Y839063D01*
X1659382Y839063D01*
X1655318Y841044D01*
X1652524Y844600D01*
X1651507Y848969D01*
X1651507Y949553D01*
X1652270Y953465D01*
X1654505Y956767D01*
X1657756Y958951D01*
X1661668Y959713D01*
X1665579Y958951D01*
X1668830Y956767D01*
X1670456Y955141D01*
X1675333Y952093D01*
X1680819Y950163D01*
X1687118Y949452D01*
X1843481Y949452D01*
X1849780Y950163D01*
X1855266Y952093D01*
X1860143Y955141D01*
X1864258Y959256D01*
X1867306Y964133D01*
X1869236Y969619D01*
X1869948Y975918D01*
X1869948Y1132281D01*
X1869236Y1138580D01*
X1867306Y1144066D01*
X1864258Y1148943D01*
X1860143Y1153058D01*
X1855266Y1156106D01*
X1849780Y1158036D01*
X1843481Y1158748D01*
X1687118Y1158748D01*
X1680819Y1158036D01*
X1675333Y1156106D01*
X1670456Y1153058D01*
X1668830Y1151432D01*
X1665579Y1149248D01*
X1661668Y1148486D01*
X1657756Y1149248D01*
X1654505Y1151432D01*
X1652270Y1154734D01*
X1651507Y1158646D01*
X1651507Y1203553D01*
X1652270Y1207465D01*
X1654505Y1210767D01*
X1657756Y1212951D01*
X1661668Y1213713D01*
X1665579Y1212951D01*
X1668830Y1210767D01*
X1670456Y1209141D01*
X1675333Y1206093D01*
X1680819Y1204163D01*
X1687118Y1203452D01*
X1843481Y1203452D01*
X1849780Y1204163D01*
X1855266Y1206093D01*
X1860143Y1209141D01*
X1864258Y1213256D01*
X1867306Y1218133D01*
X1869236Y1223619D01*
X1869948Y1229918D01*
X1869948Y1386281D01*
X1869236Y1392580D01*
X1867306Y1398066D01*
X1864258Y1402943D01*
X1862632Y1404569D01*
X1860448Y1407820D01*
X1859686Y1411732D01*
X1860448Y1415643D01*
X1862632Y1418894D01*
X1865934Y1421130D01*
X1869846Y1421892D01*
X1914753Y1421892D01*
X1918665Y1421130D01*
X1921967Y1418894D01*
X1924151Y1415643D01*
X1924913Y1411732D01*
X1924151Y1407820D01*
X1921967Y1404569D01*
X1920341Y1402943D01*
X1917293Y1398066D01*
X1915363Y1392580D01*
X1914652Y1386281D01*
X1914652Y1353820D01*
X1973580Y1353820D01*
X1973580Y1411732D01*
X1974342Y1415643D01*
X1976577Y1418894D01*
X1979828Y1421130D01*
X1983739Y1421892D01*
X2054860Y1421892D01*
X2058771Y1421130D01*
X2062022Y1418894D01*
X2064257Y1415643D01*
X2065020Y1411732D01*
X2065020Y1353820D01*
X2123948Y1353820D01*
X2123948Y1386281D01*
X2123236Y1392580D01*
X2121306Y1398066D01*
X2118258Y1402943D01*
X2116632Y1404569D01*
X2114448Y1407820D01*
X2113686Y1411732D01*
X2114448Y1415643D01*
X2116632Y1418894D01*
X2119934Y1421130D01*
X2123846Y1421892D01*
X2209444Y1421892D01*
X2213457Y1422146D01*
X2226716Y1423974D01*
X2230780Y1424787D01*
X2243582Y1428394D01*
X2247442Y1429766D01*
X2259685Y1435100D01*
X2263292Y1437030D01*
X2274671Y1443990D01*
X2277973Y1446377D01*
X2288286Y1454861D01*
X2291232Y1457706D01*
X2300274Y1467510D01*
X2302814Y1470710D01*
X2310384Y1481632D01*
X2312466Y1485188D01*
X2318461Y1497076D01*
X2320036Y1500886D01*
X2324354Y1513484D01*
X2325370Y1517446D01*
X2327859Y1530553D01*
X2328367Y1534617D01*
X2329027Y1547672D01*
X2328824Y1551178D01*
X2329434Y1560779D01*
X2331466Y1570837D01*
X2334818Y1580489D01*
X2339492Y1589582D01*
X2345436Y1597964D01*
X2352395Y1605432D01*
X2360371Y1611884D01*
X2369159Y1617167D01*
X2378557Y1621180D01*
X2388463Y1623822D01*
X2398522Y1625092D01*
X3659632Y1625092D01*
X3663543Y1624330D01*
X3666794Y1622094D01*
X3669029Y1618843D01*
X3669792Y1614932D01*
X3669792Y-1653032D01*
X3669029Y-1656943D01*
X3666794Y-1660194D01*
X3663543Y-1662430D01*
X3659632Y-1663192D01*
G37*

%LPC*%
G36*
X3025038Y-1517345D02*
G01*
X3034588Y-1516075D01*
X3043783Y-1513281D01*
X3052419Y-1508912D01*
X3060192Y-1503172D01*
X3066846Y-1496212D01*
X3072231Y-1488236D01*
X3076244Y-1479448D01*
X3078632Y-1470101D01*
X3079496Y-1460500D01*
X3078632Y-1450898D01*
X3076244Y-1441551D01*
X3072231Y-1432763D01*
X3066846Y-1424787D01*
X3060192Y-1417828D01*
X3052419Y-1412087D01*
X3043783Y-1407718D01*
X3034588Y-1404924D01*
X3025038Y-1403654D01*
X3015386Y-1404112D01*
X3005937Y-1406144D01*
X2996996Y-1409700D01*
X2988767Y-1414780D01*
X2981553Y-1421130D01*
X2975457Y-1428648D01*
X2970784Y-1437081D01*
X2967583Y-1446174D01*
X2965958Y-1455674D01*
X2965958Y-1465326D01*
X2967583Y-1474825D01*
X2970784Y-1483918D01*
X2975457Y-1492351D01*
X2981553Y-1499870D01*
X2988767Y-1506220D01*
X2996996Y-1511300D01*
X3005937Y-1514856D01*
X3015386Y-1516888D01*
G37*
G36*
X3228238Y-1352245D02*
G01*
X3237788Y-1350975D01*
X3246983Y-1348181D01*
X3255619Y-1343812D01*
X3263392Y-1338072D01*
X3270046Y-1331112D01*
X3275431Y-1323136D01*
X3279546Y-1313891D01*
X3281476Y-1310081D01*
X3284778Y-1307388D01*
X3288944Y-1306322D01*
X3293160Y-1307033D01*
X3296716Y-1309420D01*
X3298951Y-1313078D01*
X3300984Y-1318818D01*
X3305657Y-1327251D01*
X3311753Y-1334770D01*
X3318967Y-1341120D01*
X3327196Y-1346200D01*
X3336137Y-1349756D01*
X3345586Y-1351788D01*
X3355238Y-1352245D01*
X3364788Y-1350975D01*
X3373983Y-1348181D01*
X3382619Y-1343812D01*
X3390392Y-1338072D01*
X3397046Y-1331112D01*
X3402431Y-1323136D01*
X3406444Y-1314348D01*
X3408832Y-1305001D01*
X3409696Y-1295400D01*
X3408832Y-1285798D01*
X3406444Y-1276451D01*
X3402431Y-1267663D01*
X3397046Y-1259687D01*
X3390392Y-1252728D01*
X3382619Y-1246987D01*
X3373983Y-1242618D01*
X3364788Y-1239824D01*
X3355238Y-1238554D01*
X3345586Y-1239012D01*
X3336137Y-1241044D01*
X3327196Y-1244600D01*
X3318967Y-1249680D01*
X3311753Y-1256030D01*
X3305657Y-1263548D01*
X3300984Y-1271981D01*
X3298951Y-1277721D01*
X3296716Y-1281379D01*
X3293160Y-1283766D01*
X3288944Y-1284478D01*
X3284778Y-1283411D01*
X3281476Y-1280718D01*
X3275431Y-1267663D01*
X3270046Y-1259687D01*
X3263392Y-1252728D01*
X3255619Y-1246987D01*
X3246983Y-1242618D01*
X3237788Y-1239824D01*
X3228238Y-1238554D01*
X3218586Y-1239012D01*
X3209137Y-1241044D01*
X3200196Y-1244600D01*
X3191967Y-1249680D01*
X3184753Y-1256030D01*
X3178657Y-1263548D01*
X3173984Y-1271981D01*
X3170783Y-1281074D01*
X3169158Y-1290574D01*
X3169158Y-1300226D01*
X3170783Y-1309725D01*
X3173984Y-1318818D01*
X3178657Y-1327251D01*
X3184753Y-1334770D01*
X3191967Y-1341120D01*
X3200196Y-1346200D01*
X3209137Y-1349756D01*
X3218586Y-1351788D01*
G37*
G36*
X3012338Y-1276045D02*
G01*
X3021888Y-1274775D01*
X3031083Y-1271981D01*
X3039719Y-1267612D01*
X3047492Y-1261872D01*
X3054146Y-1254912D01*
X3059531Y-1246936D01*
X3063544Y-1238148D01*
X3065932Y-1228801D01*
X3066796Y-1219200D01*
X3065932Y-1209598D01*
X3063544Y-1200251D01*
X3059531Y-1191463D01*
X3054146Y-1183487D01*
X3047492Y-1176528D01*
X3039719Y-1170787D01*
X3031083Y-1166418D01*
X3021888Y-1163624D01*
X3012338Y-1162354D01*
X3002686Y-1162812D01*
X2993237Y-1164844D01*
X2984296Y-1168400D01*
X2976067Y-1173480D01*
X2968853Y-1179830D01*
X2962757Y-1187348D01*
X2958084Y-1195781D01*
X2954883Y-1204874D01*
X2953258Y-1214374D01*
X2953258Y-1224026D01*
X2954883Y-1233525D01*
X2958084Y-1242618D01*
X2962757Y-1251051D01*
X2968853Y-1258570D01*
X2976067Y-1264920D01*
X2984296Y-1270000D01*
X2993237Y-1273556D01*
X3002686Y-1275588D01*
G37*
G36*
X2581859Y-935786D02*
G01*
X2597200Y-926744D01*
X2611374Y-916178D01*
X2624328Y-904240D01*
X2635961Y-890930D01*
X2646121Y-876503D01*
X2652572Y-864819D01*
X2581859Y-864819D01*
G37*
G36*
X2796438Y-806145D02*
G01*
X2805988Y-804875D01*
X2815183Y-802081D01*
X2823819Y-797712D01*
X2831592Y-791972D01*
X2838246Y-785012D01*
X2843631Y-777036D01*
X2847644Y-768248D01*
X2850032Y-758901D01*
X2850896Y-749300D01*
X2850032Y-739698D01*
X2847644Y-730351D01*
X2843631Y-721563D01*
X2838246Y-713587D01*
X2831592Y-706628D01*
X2823819Y-700887D01*
X2815183Y-696518D01*
X2805988Y-693724D01*
X2795981Y-692404D01*
X2792679Y-691438D01*
X2789936Y-689356D01*
X2788005Y-686511D01*
X2787142Y-683209D01*
X2786532Y-676198D01*
X2784144Y-666851D01*
X2780131Y-658063D01*
X2774746Y-650087D01*
X2768092Y-643128D01*
X2760319Y-637387D01*
X2751683Y-633018D01*
X2742488Y-630224D01*
X2732938Y-628954D01*
X2723286Y-629412D01*
X2713837Y-631444D01*
X2704896Y-635000D01*
X2696667Y-640080D01*
X2689453Y-646430D01*
X2683357Y-653948D01*
X2678684Y-662381D01*
X2675483Y-671474D01*
X2673858Y-680974D01*
X2673858Y-690626D01*
X2675483Y-700125D01*
X2678684Y-709218D01*
X2683357Y-717651D01*
X2689453Y-725170D01*
X2696667Y-731520D01*
X2704896Y-736600D01*
X2713837Y-740156D01*
X2723286Y-742188D01*
X2727604Y-742391D01*
X2731363Y-743305D01*
X2734513Y-745540D01*
X2736596Y-748741D01*
X2738983Y-763625D01*
X2742184Y-772718D01*
X2746857Y-781151D01*
X2752953Y-788670D01*
X2760167Y-795020D01*
X2768396Y-800100D01*
X2777337Y-803656D01*
X2786786Y-805688D01*
G37*
G36*
X2358390Y-712165D02*
G01*
X2429154Y-712165D01*
X2429154Y-641502D01*
X2421280Y-645566D01*
X2406548Y-655320D01*
X2392984Y-666597D01*
X2380640Y-679246D01*
X2369718Y-693115D01*
X2360371Y-708101D01*
G37*
G36*
X2581859Y-712165D02*
G01*
X2652572Y-712165D01*
X2650591Y-708101D01*
X2641244Y-693115D01*
X2630322Y-679246D01*
X2618028Y-666597D01*
X2604414Y-655320D01*
X2589733Y-645566D01*
X2581859Y-641502D01*
G37*
G36*
X1730959Y-657707D02*
G01*
X1824075Y-657707D01*
X1824075Y-538175D01*
X1704492Y-538175D01*
X1704492Y-631240D01*
X1705203Y-637540D01*
X1707134Y-643026D01*
X1710182Y-647903D01*
X1714296Y-652018D01*
X1719173Y-655066D01*
X1724660Y-656996D01*
G37*
G36*
X2036775Y-657707D02*
G01*
X2129840Y-657707D01*
X2136140Y-656996D01*
X2141626Y-655066D01*
X2146503Y-652018D01*
X2150618Y-647903D01*
X2153666Y-643026D01*
X2155596Y-637540D01*
X2156307Y-631240D01*
X2156307Y-538175D01*
X2036775Y-538175D01*
G37*
G36*
X3291738Y-564845D02*
G01*
X3301288Y-563575D01*
X3310483Y-560781D01*
X3319119Y-556412D01*
X3326892Y-550672D01*
X3333546Y-543712D01*
X3338931Y-535736D01*
X3342944Y-526948D01*
X3345332Y-517601D01*
X3346196Y-508000D01*
X3345332Y-498398D01*
X3342944Y-489051D01*
X3338931Y-480263D01*
X3333546Y-472287D01*
X3326892Y-465328D01*
X3319119Y-459587D01*
X3310483Y-455218D01*
X3301288Y-452424D01*
X3291738Y-451154D01*
X3282086Y-451612D01*
X3272637Y-453643D01*
X3269691Y-454812D01*
X3265322Y-455523D01*
X3261055Y-454304D01*
X3257702Y-451358D01*
X3255924Y-447243D01*
X3256076Y-442823D01*
X3256432Y-441401D01*
X3257296Y-431800D01*
X3256432Y-422198D01*
X3254044Y-412851D01*
X3250031Y-404063D01*
X3244646Y-396087D01*
X3237992Y-389128D01*
X3230219Y-383387D01*
X3221583Y-379018D01*
X3212388Y-376224D01*
X3202838Y-374954D01*
X3193186Y-375412D01*
X3183737Y-377444D01*
X3174796Y-381000D01*
X3166567Y-386080D01*
X3159353Y-392430D01*
X3157575Y-394665D01*
X3154222Y-397357D01*
X3150057Y-398424D01*
X3145840Y-397713D01*
X3142335Y-395325D01*
X3136392Y-389128D01*
X3128619Y-383387D01*
X3119983Y-379018D01*
X3110788Y-376224D01*
X3101238Y-374954D01*
X3091586Y-375412D01*
X3082137Y-377444D01*
X3073196Y-381000D01*
X3064967Y-386080D01*
X3057753Y-392430D01*
X3051657Y-399948D01*
X3046984Y-408381D01*
X3043783Y-417474D01*
X3042158Y-426974D01*
X3042158Y-436626D01*
X3043783Y-446125D01*
X3046984Y-455218D01*
X3051657Y-463651D01*
X3057753Y-471170D01*
X3064967Y-477520D01*
X3073196Y-482600D01*
X3082137Y-486156D01*
X3091586Y-488188D01*
X3101238Y-488645D01*
X3110788Y-487375D01*
X3119983Y-484581D01*
X3128619Y-480212D01*
X3136392Y-474472D01*
X3142335Y-468274D01*
X3145840Y-465886D01*
X3150057Y-465175D01*
X3154222Y-466242D01*
X3157575Y-468934D01*
X3159353Y-471170D01*
X3166567Y-477520D01*
X3174796Y-482600D01*
X3183737Y-486156D01*
X3193186Y-488188D01*
X3202838Y-488645D01*
X3212388Y-487375D01*
X3220821Y-484784D01*
X3224936Y-484428D01*
X3228848Y-485698D01*
X3231946Y-488391D01*
X3233674Y-492150D01*
X3233826Y-496214D01*
X3232658Y-503174D01*
X3232658Y-512826D01*
X3234283Y-522325D01*
X3237484Y-531418D01*
X3242157Y-539851D01*
X3248253Y-547370D01*
X3255467Y-553720D01*
X3263696Y-558800D01*
X3272637Y-562356D01*
X3282086Y-564388D01*
G37*
G36*
X2621686Y-505358D02*
G01*
X2635300Y-505358D01*
X2648813Y-503529D01*
X2661970Y-499922D01*
X2674518Y-494588D01*
X2686253Y-487680D01*
X2696972Y-479196D01*
X2706471Y-469392D01*
X2714548Y-458419D01*
X2719578Y-449224D01*
X2722422Y-445973D01*
X2726334Y-444195D01*
X2730652Y-444195D01*
X2734564Y-445973D01*
X2737408Y-449224D01*
X2742438Y-458419D01*
X2750515Y-469392D01*
X2760014Y-479196D01*
X2770733Y-487680D01*
X2782468Y-494588D01*
X2795016Y-499922D01*
X2808173Y-503529D01*
X2821686Y-505358D01*
X2835300Y-505358D01*
X2848813Y-503529D01*
X2861970Y-499922D01*
X2874518Y-494588D01*
X2886252Y-487680D01*
X2896971Y-479196D01*
X2906471Y-469392D01*
X2914548Y-458419D01*
X2921101Y-446481D01*
X2925978Y-433730D01*
X2929178Y-420471D01*
X2930499Y-406908D01*
X2930093Y-393293D01*
X2927807Y-379831D01*
X2923743Y-366826D01*
X2918002Y-354431D01*
X2910687Y-342950D01*
X2901899Y-332536D01*
X2891739Y-323392D01*
X2880512Y-315671D01*
X2868371Y-309524D01*
X2855468Y-305054D01*
X2842107Y-302310D01*
X2828493Y-301396D01*
X2814878Y-302310D01*
X2801518Y-305054D01*
X2788666Y-309524D01*
X2776474Y-315671D01*
X2765247Y-323392D01*
X2755138Y-332536D01*
X2746298Y-342950D01*
X2738983Y-354431D01*
X2737713Y-357124D01*
X2735478Y-360273D01*
X2732278Y-362305D01*
X2728518Y-363016D01*
X2724759Y-362305D01*
X2721508Y-360273D01*
X2719273Y-357124D01*
X2718003Y-354431D01*
X2710688Y-342950D01*
X2701899Y-332536D01*
X2691739Y-323392D01*
X2680512Y-315671D01*
X2668371Y-309524D01*
X2655468Y-305054D01*
X2642108Y-302310D01*
X2628493Y-301396D01*
X2614879Y-302310D01*
X2601518Y-305054D01*
X2588666Y-309524D01*
X2576474Y-315671D01*
X2565247Y-323392D01*
X2555138Y-332536D01*
X2546299Y-342950D01*
X2538984Y-354431D01*
X2533243Y-366826D01*
X2529179Y-379831D01*
X2526944Y-393293D01*
X2526487Y-406908D01*
X2527808Y-420471D01*
X2531008Y-433730D01*
X2535885Y-446481D01*
X2542438Y-458419D01*
X2550515Y-469392D01*
X2560015Y-479196D01*
X2570734Y-487680D01*
X2582468Y-494588D01*
X2595016Y-499922D01*
X2608173Y-503529D01*
G37*
G36*
X1704492Y-325475D02*
G01*
X1824075Y-325475D01*
X1824075Y-205892D01*
X1730959Y-205892D01*
X1724660Y-206603D01*
X1719173Y-208534D01*
X1714296Y-211582D01*
X1710182Y-215696D01*
X1707134Y-220573D01*
X1705203Y-226060D01*
X1704492Y-232359D01*
G37*
G36*
X2036775Y-325475D02*
G01*
X2156307Y-325475D01*
X2156307Y-232359D01*
X2155596Y-226060D01*
X2153666Y-220573D01*
X2150618Y-215696D01*
X2146503Y-211582D01*
X2141626Y-208534D01*
X2136140Y-206603D01*
X2129840Y-205892D01*
X2036775Y-205892D01*
G37*
G36*
X1742338Y-18745D02*
G01*
X1751888Y-17475D01*
X1761083Y-14681D01*
X1769719Y-10312D01*
X1771904Y-8737D01*
X1775510Y-7010D01*
X1779524Y-6858D01*
X1783283Y-8229D01*
X1790496Y-12700D01*
X1799437Y-16256D01*
X1808886Y-18288D01*
X1818538Y-18745D01*
X1828088Y-17475D01*
X1837283Y-14681D01*
X1845919Y-10312D01*
X1853692Y-4572D01*
X1860346Y2387D01*
X1865731Y10363D01*
X1869744Y19151D01*
X1872132Y28498D01*
X1872996Y38100D01*
X1872132Y47701D01*
X1869744Y57048D01*
X1865731Y65836D01*
X1860346Y73812D01*
X1853692Y80772D01*
X1845919Y86512D01*
X1837283Y90881D01*
X1828088Y93675D01*
X1818538Y94945D01*
X1808886Y94488D01*
X1799437Y92456D01*
X1790496Y88900D01*
X1783283Y84429D01*
X1779524Y83058D01*
X1775510Y83210D01*
X1771904Y84937D01*
X1769719Y86512D01*
X1761083Y90881D01*
X1751888Y93675D01*
X1742338Y94945D01*
X1732686Y94488D01*
X1723237Y92456D01*
X1714296Y88900D01*
X1706067Y83820D01*
X1698853Y77470D01*
X1692757Y69951D01*
X1688084Y61518D01*
X1684883Y52425D01*
X1683257Y42926D01*
X1683257Y33274D01*
X1684883Y23774D01*
X1688084Y14681D01*
X1692757Y6248D01*
X1698853Y-1270D01*
X1706067Y-7620D01*
X1714296Y-12700D01*
X1723237Y-16256D01*
X1732686Y-18288D01*
G37*
G36*
X3177438Y82854D02*
G01*
X3186988Y84124D01*
X3196183Y86918D01*
X3204819Y91287D01*
X3212592Y97028D01*
X3219246Y103987D01*
X3224631Y111963D01*
X3228644Y120751D01*
X3231032Y130098D01*
X3231896Y139700D01*
X3231032Y149301D01*
X3228644Y158648D01*
X3224631Y167436D01*
X3221482Y172110D01*
X3219958Y175818D01*
X3219958Y179781D01*
X3221482Y183489D01*
X3224631Y188163D01*
X3228644Y196951D01*
X3231032Y206298D01*
X3231896Y215900D01*
X3231032Y225501D01*
X3228644Y234848D01*
X3224631Y243636D01*
X3221482Y248310D01*
X3219958Y252018D01*
X3219958Y255981D01*
X3221482Y259689D01*
X3224631Y264363D01*
X3228644Y273151D01*
X3231032Y282498D01*
X3231896Y292100D01*
X3231032Y301701D01*
X3228644Y311048D01*
X3224631Y319836D01*
X3221482Y324510D01*
X3219958Y328218D01*
X3219958Y332181D01*
X3221482Y335889D01*
X3224631Y340563D01*
X3228644Y349351D01*
X3231032Y358698D01*
X3231896Y368300D01*
X3231032Y377901D01*
X3228644Y387248D01*
X3224631Y396036D01*
X3221482Y400710D01*
X3219958Y404418D01*
X3219958Y408381D01*
X3221482Y412089D01*
X3224631Y416763D01*
X3228644Y425551D01*
X3231032Y434898D01*
X3231896Y444500D01*
X3231032Y454101D01*
X3228644Y463448D01*
X3224631Y472236D01*
X3221482Y476910D01*
X3219958Y480618D01*
X3219958Y484581D01*
X3221482Y488289D01*
X3224631Y492963D01*
X3228644Y501751D01*
X3231032Y511098D01*
X3231896Y520700D01*
X3231032Y530301D01*
X3228644Y539648D01*
X3224631Y548436D01*
X3221482Y553110D01*
X3219958Y556818D01*
X3219958Y560781D01*
X3221482Y564489D01*
X3224631Y569163D01*
X3228644Y577951D01*
X3231032Y587298D01*
X3231896Y596900D01*
X3231032Y606501D01*
X3228644Y615848D01*
X3224631Y624636D01*
X3219246Y632612D01*
X3212592Y639572D01*
X3204819Y645312D01*
X3196183Y649681D01*
X3186988Y652475D01*
X3177438Y653745D01*
X3167786Y653288D01*
X3162046Y652068D01*
X3158642Y651916D01*
X3155340Y652932D01*
X3152597Y654964D01*
X3150666Y657809D01*
X3148431Y662736D01*
X3143046Y670712D01*
X3136392Y677672D01*
X3128619Y683412D01*
X3119983Y687781D01*
X3110788Y690575D01*
X3101238Y691845D01*
X3091586Y691388D01*
X3082137Y689356D01*
X3073196Y685800D01*
X3064967Y680720D01*
X3057753Y674370D01*
X3051657Y666851D01*
X3046984Y658418D01*
X3043783Y649325D01*
X3042158Y639826D01*
X3042158Y630174D01*
X3043783Y620674D01*
X3046984Y611581D01*
X3052114Y602386D01*
X3053080Y599998D01*
X3053384Y596341D01*
X3053080Y593801D01*
X3052114Y591413D01*
X3046984Y582218D01*
X3043783Y573125D01*
X3042158Y563626D01*
X3042158Y553974D01*
X3043783Y544474D01*
X3046984Y535381D01*
X3052114Y526186D01*
X3053080Y523798D01*
X3053384Y520141D01*
X3053080Y517601D01*
X3052114Y515213D01*
X3046984Y506018D01*
X3043783Y496925D01*
X3042158Y487426D01*
X3042158Y477774D01*
X3043783Y468274D01*
X3046984Y459181D01*
X3052114Y449986D01*
X3053080Y447598D01*
X3053384Y443941D01*
X3053080Y441401D01*
X3052114Y439013D01*
X3046984Y429818D01*
X3043783Y420725D01*
X3042158Y411226D01*
X3042158Y401574D01*
X3043783Y392074D01*
X3046984Y382981D01*
X3052114Y373786D01*
X3053080Y371398D01*
X3053384Y367741D01*
X3053080Y365201D01*
X3052114Y362813D01*
X3046984Y353618D01*
X3043783Y344525D01*
X3042158Y335026D01*
X3042158Y325374D01*
X3043783Y315874D01*
X3046984Y306781D01*
X3052114Y297586D01*
X3053080Y295198D01*
X3053384Y291541D01*
X3053080Y289001D01*
X3052114Y286613D01*
X3046984Y277418D01*
X3043783Y268325D01*
X3042158Y258825D01*
X3042158Y249174D01*
X3043783Y239674D01*
X3046984Y230581D01*
X3052114Y221386D01*
X3053080Y218998D01*
X3053384Y215341D01*
X3053080Y212801D01*
X3052114Y210413D01*
X3046984Y201218D01*
X3043783Y192125D01*
X3042158Y182626D01*
X3042158Y172974D01*
X3043783Y163474D01*
X3046984Y154381D01*
X3051657Y145948D01*
X3057753Y138430D01*
X3064967Y132080D01*
X3073196Y127000D01*
X3082137Y123444D01*
X3091586Y121412D01*
X3101238Y120954D01*
X3111652Y122326D01*
X3115564Y122072D01*
X3119729Y120396D01*
X3122777Y117043D01*
X3127857Y107848D01*
X3133953Y100330D01*
X3141167Y93980D01*
X3149396Y88900D01*
X3158337Y85344D01*
X3167786Y83312D01*
G37*
G36*
X2019300Y187452D02*
G01*
X2032965Y188366D01*
X2046376Y191058D01*
X2059330Y195427D01*
X2071624Y201472D01*
X2083003Y209092D01*
X2093264Y218135D01*
X2102307Y228396D01*
X2109927Y239775D01*
X2115972Y252069D01*
X2120341Y265023D01*
X2123033Y278434D01*
X2123948Y292100D01*
X2123033Y305765D01*
X2120341Y319176D01*
X2115972Y332130D01*
X2109927Y344424D01*
X2102307Y355803D01*
X2093264Y366064D01*
X2083003Y375107D01*
X2071624Y382727D01*
X2059330Y388772D01*
X2046376Y393141D01*
X2032965Y395833D01*
X2019300Y396748D01*
X2005634Y395833D01*
X1992223Y393141D01*
X1979269Y388772D01*
X1966975Y382727D01*
X1955596Y375107D01*
X1945335Y366064D01*
X1936292Y355803D01*
X1928672Y344424D01*
X1922627Y332130D01*
X1918258Y319176D01*
X1915566Y305765D01*
X1914652Y292100D01*
X1915566Y278434D01*
X1918258Y265023D01*
X1922627Y252069D01*
X1928672Y239775D01*
X1936292Y228396D01*
X1945335Y218135D01*
X1955596Y209092D01*
X1966975Y201472D01*
X1979269Y195427D01*
X1992223Y191058D01*
X2005634Y188366D01*
G37*
G36*
X2496667Y237845D02*
G01*
X2514346Y237845D01*
X2531872Y239725D01*
X2549144Y243433D01*
X2565908Y249021D01*
X2582011Y256286D01*
X2597200Y265277D01*
X2611374Y275793D01*
X2624328Y287782D01*
X2635961Y301040D01*
X2646121Y315518D01*
X2654706Y330962D01*
X2661564Y347218D01*
X2666644Y364134D01*
X2669895Y381508D01*
X2671318Y399084D01*
X2670860Y416763D01*
X2668524Y434238D01*
X2664307Y451408D01*
X2658313Y468020D01*
X2650591Y483870D01*
X2641244Y498856D01*
X2630322Y512724D01*
X2618028Y525424D01*
X2604414Y536651D01*
X2589733Y546455D01*
X2574036Y554583D01*
X2557576Y560984D01*
X2540558Y565658D01*
X2523134Y568452D01*
X2505506Y569417D01*
X2487879Y568452D01*
X2470404Y565658D01*
X2453386Y560984D01*
X2436926Y554583D01*
X2421280Y546455D01*
X2406548Y536651D01*
X2392984Y525424D01*
X2380640Y512724D01*
X2369718Y498856D01*
X2360371Y483870D01*
X2352649Y468020D01*
X2346655Y451408D01*
X2342489Y434238D01*
X2340152Y416763D01*
X2339644Y399084D01*
X2341067Y381508D01*
X2344318Y364134D01*
X2349449Y347218D01*
X2356307Y330962D01*
X2364841Y315518D01*
X2375001Y301040D01*
X2386634Y287782D01*
X2399588Y275793D01*
X2413812Y265277D01*
X2429002Y256286D01*
X2445105Y249021D01*
X2461869Y243433D01*
X2479090Y239725D01*
G37*
G36*
X2019300Y441451D02*
G01*
X2032965Y442366D01*
X2046376Y445058D01*
X2059330Y449427D01*
X2071624Y455472D01*
X2083003Y463092D01*
X2093264Y472135D01*
X2102307Y482396D01*
X2109927Y493776D01*
X2115972Y506069D01*
X2120341Y519023D01*
X2123033Y532434D01*
X2123948Y546100D01*
X2123033Y559765D01*
X2120341Y573176D01*
X2115972Y586130D01*
X2109927Y598424D01*
X2102307Y609803D01*
X2093264Y620064D01*
X2083003Y629107D01*
X2071624Y636727D01*
X2059330Y642772D01*
X2046376Y647141D01*
X2032965Y649833D01*
X2019300Y650748D01*
X2005634Y649833D01*
X1992223Y647141D01*
X1979269Y642772D01*
X1966975Y636727D01*
X1955596Y629107D01*
X1945335Y620064D01*
X1936292Y609803D01*
X1928672Y598424D01*
X1922627Y586130D01*
X1918258Y573176D01*
X1915566Y559765D01*
X1914652Y546100D01*
X1915566Y532434D01*
X1918258Y519023D01*
X1922627Y506069D01*
X1928672Y493776D01*
X1936292Y482396D01*
X1945335Y472135D01*
X1955596Y463092D01*
X1966975Y455472D01*
X1979269Y449427D01*
X1992223Y445058D01*
X2005634Y442366D01*
G37*
G36*
X2019300Y695452D02*
G01*
X2032965Y696366D01*
X2046376Y699058D01*
X2059330Y703427D01*
X2071624Y709472D01*
X2083003Y717092D01*
X2093264Y726135D01*
X2102307Y736396D01*
X2109927Y747776D01*
X2115972Y760069D01*
X2120341Y773023D01*
X2123033Y786434D01*
X2123948Y800100D01*
X2123033Y813765D01*
X2120341Y827176D01*
X2115972Y840130D01*
X2109927Y852424D01*
X2102307Y863803D01*
X2093264Y874064D01*
X2083003Y883107D01*
X2071624Y890727D01*
X2059330Y896772D01*
X2046376Y901141D01*
X2032965Y903833D01*
X2019300Y904748D01*
X2005634Y903833D01*
X1992223Y901141D01*
X1979269Y896772D01*
X1966975Y890727D01*
X1955596Y883107D01*
X1945335Y874064D01*
X1936292Y863803D01*
X1928672Y852424D01*
X1922627Y840130D01*
X1918258Y827176D01*
X1915566Y813765D01*
X1914652Y800100D01*
X1915566Y786434D01*
X1918258Y773023D01*
X1922627Y760069D01*
X1928672Y747776D01*
X1936292Y736396D01*
X1945335Y726135D01*
X1955596Y717092D01*
X1966975Y709472D01*
X1979269Y703427D01*
X1992223Y699058D01*
X2005634Y696366D01*
G37*
G36*
X2429154Y764235D02*
G01*
X2429154Y835152D01*
X2358390Y835152D01*
X2364841Y823518D01*
X2375001Y809040D01*
X2386634Y795782D01*
X2399588Y783793D01*
X2413812Y773277D01*
G37*
G36*
X2581859Y764235D02*
G01*
X2597200Y773277D01*
X2611374Y783793D01*
X2624328Y795782D01*
X2635961Y809040D01*
X2646121Y823518D01*
X2652572Y835152D01*
X2581859Y835152D01*
G37*
G36*
X2288438Y832154D02*
G01*
X2297988Y833424D01*
X2307183Y836218D01*
X2315819Y840587D01*
X2323592Y846328D01*
X2330246Y853287D01*
X2335631Y861263D01*
X2339644Y870051D01*
X2342032Y879398D01*
X2342896Y889000D01*
X2342032Y898601D01*
X2339644Y907948D01*
X2335631Y916736D01*
X2330246Y924712D01*
X2323592Y931671D01*
X2315819Y937412D01*
X2307183Y941781D01*
X2297988Y944575D01*
X2288438Y945845D01*
X2278786Y945387D01*
X2269337Y943356D01*
X2260396Y939800D01*
X2252167Y934719D01*
X2244953Y928369D01*
X2238857Y920851D01*
X2234184Y912418D01*
X2230983Y903325D01*
X2229358Y893826D01*
X2229358Y884174D01*
X2230983Y874674D01*
X2234184Y865581D01*
X2238857Y857148D01*
X2244953Y849630D01*
X2252167Y843280D01*
X2260396Y838200D01*
X2269337Y834644D01*
X2278786Y832612D01*
G37*
G36*
X3050438Y844854D02*
G01*
X3059988Y846124D01*
X3069183Y848918D01*
X3077819Y853287D01*
X3085592Y859028D01*
X3092246Y865987D01*
X3097631Y873963D01*
X3101644Y882751D01*
X3104032Y892098D01*
X3104896Y901700D01*
X3104032Y911301D01*
X3101644Y920648D01*
X3097631Y929436D01*
X3092246Y937412D01*
X3084982Y945032D01*
X3082899Y948283D01*
X3082137Y952957D01*
X3082899Y956716D01*
X3084982Y959967D01*
X3092246Y967587D01*
X3097631Y975563D01*
X3101644Y984351D01*
X3104032Y993698D01*
X3104896Y1003300D01*
X3104032Y1012901D01*
X3101644Y1022248D01*
X3097631Y1031036D01*
X3092246Y1039012D01*
X3085592Y1045971D01*
X3077819Y1051712D01*
X3069183Y1056081D01*
X3059988Y1058875D01*
X3050438Y1060145D01*
X3040786Y1059688D01*
X3031337Y1057656D01*
X3022396Y1054100D01*
X3014167Y1049020D01*
X3006953Y1042669D01*
X3000857Y1035151D01*
X2996184Y1026718D01*
X2992983Y1017625D01*
X2991358Y1008126D01*
X2991358Y998474D01*
X2992983Y988974D01*
X2996184Y979881D01*
X3000857Y971448D01*
X3006953Y963930D01*
X3011271Y960119D01*
X3013811Y956665D01*
X3014726Y952500D01*
X3013811Y948334D01*
X3011271Y944880D01*
X3006953Y941069D01*
X3000857Y933551D01*
X2996184Y925118D01*
X2992983Y916025D01*
X2991358Y906526D01*
X2991358Y896874D01*
X2992983Y887374D01*
X2996184Y878281D01*
X3000857Y869848D01*
X3006953Y862330D01*
X3014167Y855980D01*
X3022396Y850900D01*
X3031337Y847344D01*
X3040786Y845312D01*
G37*
G36*
X2019300Y949452D02*
G01*
X2032965Y950366D01*
X2046376Y953058D01*
X2059330Y957427D01*
X2071624Y963472D01*
X2083003Y971092D01*
X2093264Y980135D01*
X2102307Y990396D01*
X2109927Y1001776D01*
X2115972Y1014069D01*
X2120341Y1027023D01*
X2123033Y1040434D01*
X2123948Y1054100D01*
X2123033Y1067765D01*
X2120341Y1081176D01*
X2115972Y1094130D01*
X2109927Y1106424D01*
X2102307Y1117803D01*
X2093264Y1128064D01*
X2083003Y1137107D01*
X2071624Y1144727D01*
X2059330Y1150772D01*
X2046376Y1155141D01*
X2032965Y1157833D01*
X2019300Y1158748D01*
X2005634Y1157833D01*
X1992223Y1155141D01*
X1979269Y1150772D01*
X1966975Y1144727D01*
X1955596Y1137107D01*
X1945335Y1128064D01*
X1936292Y1117803D01*
X1928672Y1106424D01*
X1922627Y1094130D01*
X1918258Y1081176D01*
X1915566Y1067765D01*
X1914652Y1054100D01*
X1915566Y1040434D01*
X1918258Y1027023D01*
X1922627Y1014069D01*
X1928672Y1001776D01*
X1936292Y990396D01*
X1945335Y980135D01*
X1955596Y971092D01*
X1966975Y963472D01*
X1979269Y957427D01*
X1992223Y953058D01*
X2005634Y950366D01*
G37*
G36*
X2358390Y987856D02*
G01*
X2429154Y987856D01*
X2429154Y1058519D01*
X2421280Y1054455D01*
X2406548Y1044651D01*
X2392984Y1033373D01*
X2380640Y1020724D01*
X2369718Y1006856D01*
X2360371Y991869D01*
G37*
G36*
X2581859Y987856D02*
G01*
X2652572Y987856D01*
X2650591Y991869D01*
X2641244Y1006856D01*
X2630322Y1020724D01*
X2618028Y1033373D01*
X2604414Y1044651D01*
X2589733Y1054455D01*
X2581859Y1058519D01*
G37*
G36*
X3342538Y1048054D02*
G01*
X3352088Y1049324D01*
X3361283Y1052118D01*
X3369919Y1056487D01*
X3377692Y1062228D01*
X3384346Y1069187D01*
X3389731Y1077163D01*
X3393744Y1085951D01*
X3396132Y1095298D01*
X3396996Y1104900D01*
X3396132Y1114501D01*
X3393744Y1123848D01*
X3389731Y1132636D01*
X3384346Y1140612D01*
X3377692Y1147572D01*
X3369919Y1153312D01*
X3361283Y1157681D01*
X3352088Y1160475D01*
X3342538Y1161745D01*
X3332886Y1161288D01*
X3323437Y1159256D01*
X3314496Y1155700D01*
X3306267Y1150620D01*
X3299053Y1144270D01*
X3292957Y1136751D01*
X3288284Y1128318D01*
X3285083Y1119225D01*
X3283458Y1109726D01*
X3283458Y1100074D01*
X3285083Y1090574D01*
X3288284Y1081481D01*
X3292957Y1073048D01*
X3299053Y1065530D01*
X3306267Y1059180D01*
X3314496Y1054100D01*
X3323437Y1050544D01*
X3332886Y1048512D01*
G37*
G36*
X2621686Y1194663D02*
G01*
X2635300Y1194663D01*
X2648813Y1196441D01*
X2661970Y1200048D01*
X2674518Y1205382D01*
X2686253Y1212342D01*
X2696972Y1220774D01*
X2706471Y1230579D01*
X2714548Y1241552D01*
X2719578Y1250797D01*
X2722422Y1254048D01*
X2726334Y1255826D01*
X2730652Y1255826D01*
X2734564Y1254048D01*
X2737408Y1250797D01*
X2742438Y1241552D01*
X2750515Y1230579D01*
X2760014Y1220774D01*
X2770733Y1212342D01*
X2782468Y1205382D01*
X2795016Y1200048D01*
X2808173Y1196441D01*
X2821686Y1194663D01*
X2835300Y1194663D01*
X2848813Y1196441D01*
X2861970Y1200048D01*
X2874518Y1205382D01*
X2886252Y1212342D01*
X2896971Y1220774D01*
X2906471Y1230579D01*
X2914548Y1241552D01*
X2921101Y1253540D01*
X2925978Y1266240D01*
X2929178Y1279499D01*
X2930499Y1293114D01*
X2930093Y1306728D01*
X2927807Y1320190D01*
X2923743Y1333195D01*
X2918002Y1345590D01*
X2910687Y1357071D01*
X2901899Y1367485D01*
X2891739Y1376629D01*
X2880512Y1384350D01*
X2868371Y1390497D01*
X2855468Y1394968D01*
X2842107Y1397660D01*
X2828493Y1398574D01*
X2814878Y1397660D01*
X2801518Y1394968D01*
X2788666Y1390497D01*
X2776474Y1384350D01*
X2765247Y1376629D01*
X2755138Y1367485D01*
X2746298Y1357071D01*
X2738983Y1345590D01*
X2737713Y1342847D01*
X2735478Y1339748D01*
X2732278Y1337665D01*
X2728518Y1336954D01*
X2724759Y1337665D01*
X2721508Y1339748D01*
X2719273Y1342847D01*
X2718003Y1345590D01*
X2710688Y1357071D01*
X2701899Y1367485D01*
X2691739Y1376629D01*
X2680512Y1384350D01*
X2668371Y1390497D01*
X2655468Y1394968D01*
X2642108Y1397660D01*
X2628493Y1398574D01*
X2614879Y1397660D01*
X2601518Y1394968D01*
X2588666Y1390497D01*
X2576474Y1384350D01*
X2565247Y1376629D01*
X2555138Y1367485D01*
X2546299Y1357071D01*
X2538984Y1345590D01*
X2533243Y1333195D01*
X2529179Y1320190D01*
X2526944Y1306728D01*
X2526487Y1293114D01*
X2527808Y1279499D01*
X2531008Y1266240D01*
X2535885Y1253540D01*
X2542438Y1241552D01*
X2550515Y1230579D01*
X2560015Y1220774D01*
X2570734Y1212342D01*
X2582468Y1205382D01*
X2595016Y1200048D01*
X2608173Y1196441D01*
G37*
G36*
X1941118Y1203452D02*
G01*
X1973580Y1203452D01*
X1973580Y1262380D01*
X1914652Y1262380D01*
X1914652Y1229918D01*
X1915363Y1223619D01*
X1917293Y1218133D01*
X1920341Y1213256D01*
X1924456Y1209141D01*
X1929333Y1206093D01*
X1934819Y1204163D01*
G37*
G36*
X2065020Y1203452D02*
G01*
X2097481Y1203452D01*
X2103780Y1204163D01*
X2109266Y1206093D01*
X2114143Y1209141D01*
X2118258Y1213256D01*
X2121306Y1218133D01*
X2123236Y1223619D01*
X2123948Y1229918D01*
X2123948Y1262380D01*
X2065020Y1262380D01*
G37*

%LPD*%
D10*
X1930400Y-939800D02*
G01*
X2148840Y-939800D01*
X2505456Y-1296415D01*
D11*
G01*
X1765300Y292100D03*
G01*
X2019300Y292100D03*
G01*
X1765297Y546097D03*
G01*
X1765297Y800097D03*
D12*
G01*
X1765297Y1054097D03*
G01*
X1765297Y1308097D03*
G01*
X2019300Y1308100D03*
D11*
G01*
X2019300Y1054100D03*
G01*
X2019300Y800100D03*
G01*
X2019300Y546100D03*
D13*
G01*
X1930400Y-939800D03*
G01*
X1930400Y-431800D03*
D14*
G01*
X2505506Y403491D03*
G01*
X2505506Y911491D03*
D15*
G01*
X2628518Y1296504D03*
G01*
X2828518Y1296504D03*
D14*
G01*
X2505506Y-1296504D03*
G01*
X2505506Y-788504D03*
D15*
G01*
X2628518Y-403491D03*
G01*
X2828518Y-403491D03*
D16*
G01*
X2057400Y-558800D03*
G01*
X2057400Y-304800D03*
G01*
X1803400Y-558800D03*
G01*
X1803400Y-304800D03*
G01*
X2057400Y-1066800D03*
G01*
X2057400Y-812800D03*
G01*
X1803400Y-1066800D03*
G01*
X1803400Y-812800D03*
D17*
G01*
X3479800Y-1295400D03*
G01*
X3340100Y1409700D03*
G01*
X3340100Y1104900D03*
G01*
X3048000Y901700D03*
G01*
X3098800Y-431800D03*
G01*
X3200400Y-431800D03*
G01*
X3289300Y-508000D03*
G01*
X3568700Y1536700D03*
G01*
X3568700Y774700D03*
G01*
X3022600Y-1460500D03*
G01*
X3225800Y-1295400D03*
G01*
X3352800Y-1295400D03*
G01*
X3556000Y546100D03*
G01*
X3556000Y469900D03*
G01*
X3556000Y393700D03*
G01*
X3556000Y165100D03*
G01*
X3556000Y241300D03*
G01*
X3556000Y317500D03*
G01*
X3556000Y12700D03*
G01*
X3556000Y88900D03*
G01*
X3098800Y635000D03*
G01*
X3098800Y558800D03*
G01*
X3098800Y482600D03*
G01*
X3098800Y406400D03*
G01*
X3098800Y330200D03*
G01*
X3175000Y596900D03*
G01*
X3175000Y520700D03*
G01*
X3175000Y444500D03*
G01*
X3175000Y368300D03*
G01*
X3175000Y292100D03*
G01*
X3175000Y139700D03*
G01*
X3175000Y215900D03*
G01*
X3098800Y254000D03*
G01*
X3098800Y177800D03*
G01*
X3479800Y-1524000D03*
G01*
X3048000Y1003300D03*
G01*
X2286000Y889000D03*
G01*
X1816100Y38100D03*
G01*
X2794000Y-749300D03*
G01*
X2730500Y-685800D03*
G01*
X3009900Y-1219200D03*
G01*
X1739900Y38100D03*
G01*
X3632200Y508000D03*
G01*
X3632200Y431800D03*
G01*
X3632200Y355600D03*
G01*
X3632200Y279400D03*
G01*
X3632200Y203200D03*
G01*
X3632200Y127000D03*
G01*
X3632200Y50800D03*
G01*
X3632200Y-25400D03*
M02*
