M48
METRIC,LZ,000.000
;FILE_FORMAT=3:3
;TYPE=PLATED
;Layer: PTH_Through
;EasyEDA v6.5.42, 2024-06-19 17:53:58
;0aa094f9eb354ad99160228faad6b286,7c1e8d740ba24e6f83eb2d53d3341807,10
;Gerber Generator version 0.2
;Holesize 1 = 0.305 mm
T01C0.305
;Holesize 2 = 0.306 mm
T02C0.306
;Holesize 3 = 0.310 mm
T03C0.310
;Holesize 4 = 0.881 mm
T04C0.881
;Holesize 5 = 0.889 mm
T05C0.889
;Holesize 6 = 1.800 mm
T06C1.800
;Holesize 7 = 2.000 mm
T07C2.000
;Holesize 8 = 2.600 mm
T08C2.600
%
G05
G90
T01
X-007882Y009330
X-015367Y008763
X-008220Y010379
X-015621Y-000762
X-013335Y-000762
X-014478Y-001778
X-014478Y000381
X000000Y019558
X-000635Y019558
X-010160Y020828
X-011784Y-010287
X-011784Y-011049
X-012589Y-011049
X-011784Y-011828
X-012589Y-011828
X-013408Y-011828
X009594Y-011980
X008789Y-011980
X007970Y-011980
X007112Y-011938
X002767Y-011938
X003583Y-011938
X004402Y-011938
X005207Y-011938
X009906Y-004445
X007065Y-005080
X009535Y-005080
X009144Y-004445
X008328Y-004445
X007900Y-005080
X007493Y-004445
X010541Y004953
X000762Y009017
X-001778Y010655
X017272Y000762
X013208Y007874
X010414Y007874
X005461Y008763
X-005969Y013716
X-014351Y020828
X006477Y-004318
X005842Y004191
X008763Y006477
X002032Y008001
X-001143Y001143
X-007366Y-020320
X-004572Y-020320
X-008255Y011684
X-010160Y019939
X-015875Y009779
X-013452Y020734
X-010541Y008890
X-015621Y011557
X-017018Y-014605
X017399Y-012700
X009144Y-008890
X007874Y004191
X-013843Y005588
X-014224Y-012559
X-013408Y-012559
X-012589Y-012559
X-011784Y-012559
X007493Y-012573
X008351Y-012615
X009170Y-012615
X009975Y-012615
X002369Y-012610
X003185Y-012610
X004004Y-012610
X004809Y-012610
X-015113Y020828
X018669Y-014351
X019939Y-013716
X019939Y-012700
X010033Y-008890
X009017Y004191
X-004699Y001016
X-005461Y001016
X-020955Y012319
X-006477Y010414
X007520Y016720
X009525Y014859
X-001397Y019558
X-013335Y-001778
X-015621Y-001778
X-013335Y000381
X-015621Y000381
X-014478Y-002921
X-016637Y-000762
X-012273Y-000762
X-014478Y-000762
X-014475Y001416
X004570Y013632
X004570Y014435
X003771Y014435
X003771Y013632
X003771Y012827
X004570Y012827
X005377Y012827
X005377Y013632
X005377Y014435
X005377Y015240
X004570Y015240
X003771Y015240
X002964Y015240
X002964Y014435
X002964Y013632
X002964Y012827
X020066Y-001397
X018669Y-001397
X012700Y014478
X011557Y015621
X004826Y004191
X013081Y005588
X015875Y002032
X013843Y004318
X015340Y-003556
X014535Y-003556
X012900Y-003556
X013716Y-003556
X012065Y-003556
X012773Y-008001
X012319Y-008763
X011938Y-008001
X-002159Y006858
X-002159Y008128
X-002159Y009398
X-019050Y009144
X-004551Y-007571
X-003716Y-007571
X-002900Y-007571
X-002081Y-007571
X-009860Y-007622
X-009025Y-007622
X-008209Y-007622
X-007390Y-007622
X-006585Y-007622
X002259Y-002997
X002667Y-003644
X003148Y-002997
X003556Y-003644
X004037Y-002997
X004445Y-003644
X004445Y-002295
X004926Y-002997
X004926Y-001605
X005334Y-003644
X005334Y-002295
X005334Y-000889
X000381Y-001905
X-021408Y-011043
X-021403Y-010207
X-020701Y-009779
X-020701Y-010615
X-020701Y-011430
X-021408Y-011858
X-021408Y-012693
X-021408Y-013509
X-020701Y-013081
X-020701Y-012265
X-020011Y-011857
X-020011Y-013509
X-020701Y-013900
X-021408Y-014328
X-020701Y-014705
X-020011Y-014328
X-020011Y-012693
X-020011Y-011043
X-020011Y-010207
X-019295Y-010615
X-019295Y-011430
X-019295Y-012265
X-019295Y-013081
X-019295Y-013900
X006197Y-003644
X007012Y-003637
X006625Y-003002
X005789Y-002997
X006197Y-002295
X007012Y-002295
X007440Y-003002
X007847Y-003637
X008275Y-003002
X008663Y-003637
X009482Y-003637
X009091Y-003002
X008663Y-002295
X007847Y-002295
X007440Y-001605
X009091Y-001605
X009482Y-002295
X009910Y-003002
X009910Y-001605
X008275Y-001605
X006625Y-001605
X005789Y-001605
X006197Y-000889
X007012Y-000889
X007847Y-000889
X008663Y-000889
X009482Y-000889
X-002667Y004318
X013208Y011938
X010668Y011938
X007874Y009144
X013208Y006858
X001397Y-001905
X-002413Y002413
X006604Y009144
X-019050Y012319
X013208Y009398
X-000508Y005207
X012219Y-015748
X011832Y-015113
X012219Y-014406
X012647Y-015113
X013054Y-015748
X013482Y-015113
X013870Y-015748
X014689Y-015748
X014298Y-015113
X013870Y-014406
X013054Y-014406
X012647Y-013716
X014298Y-013716
X014689Y-014406
X015117Y-015113
X015494Y-015748
X015494Y-014406
X015117Y-013716
X013482Y-013716
X011832Y-013716
X012219Y-013000
X013054Y-013000
X013870Y-013000
X014689Y-013000
X015494Y-013000
X-004164Y-015702
X-004551Y-015067
X-004164Y-014360
X-003736Y-015067
X-003329Y-015702
X-002901Y-015067
X-002513Y-015702
X-001694Y-015702
X-002085Y-015067
X-002513Y-014360
X-003329Y-014360
X-003736Y-013670
X-002085Y-013670
X-001694Y-014360
X-001266Y-015067
X-000889Y-015702
X-000889Y-014360
X-001266Y-013670
X-002901Y-013670
X-004551Y-013670
X-004164Y-012954
X-003329Y-012954
X-002513Y-012954
X-001694Y-012954
X-000889Y-012954
X-009625Y-015702
X-010012Y-015067
X-009625Y-014360
X-009197Y-015067
X-008790Y-015702
X-008362Y-015067
X-007974Y-015702
X-007155Y-015702
X-007546Y-015067
X-007974Y-014360
X-008790Y-014360
X-009197Y-013670
X-007546Y-013670
X-007155Y-014360
X-006727Y-015067
X-006350Y-015702
X-006350Y-014360
X-006727Y-013670
X-008362Y-013670
X-010012Y-013670
X-009625Y-012954
X-008790Y-012954
X-007974Y-012954
X-007155Y-012954
X-006350Y-012954
X-015086Y-018496
X-015473Y-017861
X-015086Y-017154
X-014658Y-017861
X-014251Y-018496
X-013823Y-017861
X-013435Y-018496
X-012616Y-018496
X-013007Y-017861
X-013435Y-017154
X-014251Y-017154
X-014658Y-016464
X-013007Y-016464
X-012616Y-017154
X-012188Y-017861
X-011811Y-018496
X-011811Y-017154
X-012188Y-016464
X-013823Y-016464
X-015473Y-016464
X-015086Y-015748
X-014251Y-015748
X-013435Y-015748
X-012616Y-015748
X-011811Y-015748
X001297Y-018496
X000910Y-017861
X001297Y-017154
X001725Y-017861
X002132Y-018496
X002560Y-017861
X002948Y-018496
X003767Y-018496
X003376Y-017861
X002948Y-017154
X002132Y-017154
X001725Y-016464
X003376Y-016464
X003767Y-017154
X004195Y-017861
X004572Y-018496
X004572Y-017154
X004195Y-016464
X002560Y-016464
X000910Y-016464
X001297Y-015748
X002132Y-015748
X002948Y-015748
X003767Y-015748
X004572Y-015748
X006758Y-018496
X006371Y-017861
X006758Y-017154
X007186Y-017861
X007593Y-018496
X008021Y-017861
X008409Y-018496
X009228Y-018496
X008837Y-017861
X008409Y-017154
X007593Y-017154
X007186Y-016464
X008837Y-016464
X009228Y-017154
X009656Y-017861
X010033Y-018496
X010033Y-017154
X009656Y-016464
X008021Y-016464
X006371Y-016464
X006758Y-015748
X007593Y-015748
X008409Y-015748
X009228Y-015748
X010033Y-015748
X004191Y-009525
X004191Y-006350
X-017450Y-008128
X-018450Y-008128
X-020828Y-005842
X-013970Y-010668
X-020574Y-008001
X-017272Y-010668
X-019558Y-008001
X-021209Y-005080
X-020701Y-004445
X002032Y-008636
X000762Y-009906
X-020574Y000508
X-020574Y001524
X-020574Y002286
X-020701Y003175
X-020701Y004699
X-020320Y005588
X-019431Y005588
X-015875Y005588
X-016637Y005588
X-017272Y005080
X-017907Y005588
X-018669Y005080
X-001270Y014478
X-001270Y013208
X000635Y013208
X000381Y007874
X-002540Y005588
X-015367Y-008128
X-016383Y-008128
X008255Y-006604
X008255Y-009398
X015875Y017018
X016383Y014732
X-001397Y018288
X013208Y010668
X001270Y014986
X-020828Y007112
X014478Y-020320
X015240Y-000254
T02
X-009779Y-019431
X-007747Y-019431
X-007747Y-021209
X-009779Y-021209
X-002159Y-021209
X-004191Y-021209
X-004191Y-019431
X-002159Y-019431
X020828Y-009398
X019304Y-010922
X017780Y-009398
X019304Y-007874
X020828Y-004318
X019304Y-005842
X017780Y-004318
X019304Y-002794
X014097Y-019431
X014097Y-021209
X012065Y-021209
X012065Y-019431
X-015169Y-021205
X-014179Y-021231
X003105Y-021353
X002089Y-021353
X006731Y-021336
X007668Y-021372
T03
X-003284Y020815
X006858Y004191
X-007747Y020574
X-010541Y009652
X-007747Y019558
X012573Y-005911
X012573Y-005080
T04
X-010541Y-020825
X011303Y-020828
X-001430Y-020825
T05
X017653Y002921
X020193Y002921
X017653Y005461
X017653Y008001
X017653Y010541
X017653Y013081
X020193Y013081
X020193Y010541
X020193Y008001
X020193Y005461
X018034Y-003048
X018034Y-005588
X020574Y-003048
X020574Y-005588
X020574Y-010668
X020574Y-008128
X018034Y-008128
X018034Y-010668
T06
X019304Y-009398
X019304Y-004318
T07
X-008763Y-020320
X-003175Y-020320
X013081Y-020320
T08
X019000Y017500
X-019000Y017500
X-019000Y-017500
X019000Y-017500
M30
