G04 Layer: TopSilkscreenLayer*
G04 EasyEDA v6.5.42, 2024-06-19 17:53:58*
G04 0aa094f9eb354ad99160228faad6b286,7c1e8d740ba24e6f83eb2d53d3341807,10*
G04 Gerber Generator version 0.2*
G04 Scale: 100 percent, Rotated: No, Reflected: No *
G04 Dimensions in millimeters *
G04 leading zeros omitted , absolute positions ,4 integer and 5 decimal *
%FSLAX45Y45*%
%MOMM*%

%ADD10C,0.2500*%
%ADD11C,0.2032*%
%ADD12C,0.4000*%
%ADD13C,0.1524*%
%ADD14C,0.2000*%
%ADD15C,0.1520*%
%ADD16C,0.1270*%
%ADD17C,0.1500*%
%ADD18C,0.2540*%
%ADD19C,0.2030*%
%ADD20C,0.2030*%
%ADD21C,0.0124*%

%LPD*%
D10*
X-909320Y-417321D02*
G01*
X-909320Y-512571D01*
X-909320Y-417321D02*
G01*
X-877570Y-417321D01*
X-863854Y-421639D01*
X-854963Y-430784D01*
X-850392Y-439928D01*
X-845820Y-453644D01*
X-845820Y-476250D01*
X-850392Y-489965D01*
X-854963Y-499110D01*
X-863854Y-508000D01*
X-877570Y-512571D01*
X-909320Y-512571D01*
X-779271Y-417321D02*
G01*
X-815847Y-512571D01*
X-779271Y-417321D02*
G01*
X-742950Y-512571D01*
X-802131Y-480821D02*
G01*
X-756665Y-480821D01*
X-644905Y-439928D02*
G01*
X-649478Y-430784D01*
X-658368Y-421639D01*
X-667512Y-417321D01*
X-685800Y-417321D01*
X-694944Y-421639D01*
X-703834Y-430784D01*
X-708405Y-439928D01*
X-712978Y-453644D01*
X-712978Y-476250D01*
X-708405Y-489965D01*
X-703834Y-499110D01*
X-694944Y-508000D01*
X-685800Y-512571D01*
X-667512Y-512571D01*
X-658368Y-508000D01*
X-649478Y-499110D01*
X-644905Y-489965D01*
X-644905Y-476250D01*
X-667512Y-476250D02*
G01*
X-644905Y-476250D01*
X-587502Y-417321D02*
G01*
X-596645Y-421639D01*
X-605789Y-430784D01*
X-610362Y-439928D01*
X-614934Y-453644D01*
X-614934Y-476250D01*
X-610362Y-489965D01*
X-605789Y-499110D01*
X-596645Y-508000D01*
X-587502Y-512571D01*
X-569468Y-512571D01*
X-560323Y-508000D01*
X-551179Y-499110D01*
X-546607Y-489965D01*
X-542036Y-476250D01*
X-542036Y-453644D01*
X-546607Y-439928D01*
X-551179Y-430784D01*
X-560323Y-421639D01*
X-569468Y-417321D01*
X-587502Y-417321D01*
X-512063Y-417321D02*
G01*
X-512063Y-512571D01*
X-512063Y-417321D02*
G01*
X-471170Y-417321D01*
X-457454Y-421639D01*
X-453136Y-426212D01*
X-448563Y-435355D01*
X-448563Y-444500D01*
X-453136Y-453644D01*
X-457454Y-458215D01*
X-471170Y-462534D01*
X-512063Y-462534D01*
X-480313Y-462534D02*
G01*
X-448563Y-512571D01*
X-343915Y-439928D02*
G01*
X-343915Y-435355D01*
X-339344Y-426212D01*
X-334771Y-421639D01*
X-325881Y-417321D01*
X-307594Y-417321D01*
X-298450Y-421639D01*
X-293878Y-426212D01*
X-289305Y-435355D01*
X-289305Y-444500D01*
X-293878Y-453644D01*
X-303021Y-467105D01*
X-348487Y-512571D01*
X-284734Y-512571D01*
X-250189Y-489965D02*
G01*
X-254762Y-494537D01*
X-250189Y-499110D01*
X-245871Y-494537D01*
X-250189Y-489965D01*
X-152145Y-417321D02*
G01*
X-197612Y-512571D01*
X-215645Y-417321D02*
G01*
X-152145Y-417321D01*
D11*
X1543812Y-289052D02*
G01*
X1540002Y-281431D01*
X1532381Y-273812D01*
X1524507Y-269747D01*
X1509013Y-269747D01*
X1501394Y-273812D01*
X1493520Y-281431D01*
X1489710Y-289052D01*
X1485900Y-300736D01*
X1485900Y-320039D01*
X1489710Y-331723D01*
X1493520Y-339344D01*
X1501394Y-347218D01*
X1509013Y-351028D01*
X1524507Y-351028D01*
X1532381Y-347218D01*
X1540002Y-339344D01*
X1543812Y-331723D01*
X1543812Y-320039D01*
X1524507Y-320039D02*
G01*
X1543812Y-320039D01*
X1569465Y-269747D02*
G01*
X1569465Y-351028D01*
X1569465Y-269747D02*
G01*
X1623568Y-351028D01*
X1623568Y-269747D02*
G01*
X1623568Y-351028D01*
X1648968Y-269747D02*
G01*
X1648968Y-351028D01*
X1648968Y-269747D02*
G01*
X1675892Y-269747D01*
X1687576Y-273812D01*
X1695195Y-281431D01*
X1699260Y-289052D01*
X1703070Y-300736D01*
X1703070Y-320039D01*
X1699260Y-331723D01*
X1695195Y-339344D01*
X1687576Y-347218D01*
X1675892Y-351028D01*
X1648968Y-351028D01*
X-2057400Y746252D02*
G01*
X-2057400Y664971D01*
X-2057400Y746252D02*
G01*
X-2022602Y746252D01*
X-2010918Y742187D01*
X-2007107Y738378D01*
X-2003297Y730757D01*
X-2003297Y722884D01*
X-2007107Y715263D01*
X-2010918Y711454D01*
X-2022602Y707644D01*
X-2057400Y707644D02*
G01*
X-2022602Y707644D01*
X-2010918Y703579D01*
X-2007107Y699770D01*
X-2003297Y692150D01*
X-2003297Y680465D01*
X-2007107Y672845D01*
X-2010918Y668781D01*
X-2022602Y664971D01*
X-2057400Y664971D01*
X-1954529Y746252D02*
G01*
X-1962404Y742187D01*
X-1970023Y734568D01*
X-1973834Y726947D01*
X-1977897Y715263D01*
X-1977897Y695960D01*
X-1973834Y684276D01*
X-1970023Y676655D01*
X-1962404Y668781D01*
X-1954529Y664971D01*
X-1939289Y664971D01*
X-1931415Y668781D01*
X-1923795Y676655D01*
X-1919731Y684276D01*
X-1915921Y695960D01*
X-1915921Y715263D01*
X-1919731Y726947D01*
X-1923795Y734568D01*
X-1931415Y742187D01*
X-1939289Y746252D01*
X-1954529Y746252D01*
X-1867407Y746252D02*
G01*
X-1875028Y742187D01*
X-1882647Y734568D01*
X-1886712Y726947D01*
X-1890521Y715263D01*
X-1890521Y695960D01*
X-1886712Y684276D01*
X-1882647Y676655D01*
X-1875028Y668781D01*
X-1867407Y664971D01*
X-1851913Y664971D01*
X-1844039Y668781D01*
X-1836420Y676655D01*
X-1832610Y684276D01*
X-1828545Y695960D01*
X-1828545Y715263D01*
X-1832610Y726947D01*
X-1836420Y734568D01*
X-1844039Y742187D01*
X-1851913Y746252D01*
X-1867407Y746252D01*
X-1776221Y746252D02*
G01*
X-1776221Y664971D01*
X-1803145Y746252D02*
G01*
X-1749044Y746252D01*
X611911Y-58737D02*
G01*
X611911Y-140017D01*
X660679Y-58737D02*
G01*
X652805Y-62801D01*
X645185Y-70421D01*
X641375Y-78041D01*
X637311Y-89725D01*
X637311Y-109029D01*
X641375Y-120713D01*
X645185Y-128333D01*
X652805Y-136207D01*
X660679Y-140017D01*
X676173Y-140017D01*
X683793Y-136207D01*
X691413Y-128333D01*
X695477Y-120713D01*
X699287Y-109029D01*
X699287Y-89725D01*
X695477Y-78041D01*
X691413Y-70421D01*
X683793Y-62801D01*
X676173Y-58737D01*
X660679Y-58737D01*
X724687Y-74231D02*
G01*
X732561Y-70421D01*
X743991Y-58737D01*
X743991Y-140017D01*
X815873Y-58737D02*
G01*
X777265Y-58737D01*
X773455Y-93535D01*
X777265Y-89725D01*
X788949Y-85915D01*
X800379Y-85915D01*
X812063Y-89725D01*
X819683Y-97345D01*
X823747Y-109029D01*
X823747Y-116649D01*
X819683Y-128333D01*
X812063Y-136207D01*
X800379Y-140017D01*
X788949Y-140017D01*
X777265Y-136207D01*
X773455Y-132143D01*
X769645Y-124523D01*
X1307719Y238569D02*
G01*
X1338706Y157289D01*
X1369440Y238569D02*
G01*
X1338706Y157289D01*
X1395095Y238569D02*
G01*
X1395095Y157289D01*
X1395095Y238569D02*
G01*
X1422019Y238569D01*
X1433703Y234505D01*
X1441322Y226885D01*
X1445387Y219265D01*
X1449196Y207581D01*
X1449196Y188277D01*
X1445387Y176593D01*
X1441322Y168973D01*
X1433703Y161099D01*
X1422019Y157289D01*
X1395095Y157289D01*
X-12700Y-81026D02*
G01*
X-12700Y-135128D01*
X-12700Y-96520D02*
G01*
X-1015Y-84836D01*
X6604Y-81026D01*
X18287Y-81026D01*
X25907Y-84836D01*
X29718Y-96520D01*
X29718Y-135128D01*
X55371Y-53847D02*
G01*
X55371Y-135128D01*
X55371Y-53847D02*
G01*
X105410Y-53847D01*
X55371Y-92455D02*
G01*
X86105Y-92455D01*
X177292Y-81026D02*
G01*
X177292Y-135128D01*
X177292Y-92455D02*
G01*
X169671Y-84836D01*
X162052Y-81026D01*
X150368Y-81026D01*
X142494Y-84836D01*
X134873Y-92455D01*
X131063Y-104139D01*
X131063Y-111760D01*
X134873Y-123444D01*
X142494Y-131318D01*
X150368Y-135128D01*
X162052Y-135128D01*
X169671Y-131318D01*
X177292Y-123444D01*
X202945Y-81026D02*
G01*
X202945Y-119634D01*
X206755Y-131318D01*
X214376Y-135128D01*
X226060Y-135128D01*
X233679Y-131318D01*
X245363Y-119634D01*
X245363Y-81026D02*
G01*
X245363Y-135128D01*
X270763Y-53847D02*
G01*
X270763Y-135128D01*
X308102Y-53847D02*
G01*
X308102Y-119634D01*
X311912Y-131318D01*
X319531Y-135128D01*
X327405Y-135128D01*
X296418Y-81026D02*
G01*
X323342Y-81026D01*
X1948535Y-1455293D02*
G01*
X2024989Y-1455293D01*
X1948535Y-1480693D02*
G01*
X1948535Y-1429893D01*
X1948535Y-1405762D02*
G01*
X2024989Y-1405762D01*
X1948535Y-1405762D02*
G01*
X1948535Y-1358519D01*
X1984857Y-1405762D02*
G01*
X1984857Y-1376806D01*
X2024989Y-1405762D02*
G01*
X2024989Y-1358519D01*
X1948535Y-1334388D02*
G01*
X2024989Y-1334388D01*
X1948535Y-1334388D02*
G01*
X2024989Y-1305432D01*
X1948535Y-1276222D02*
G01*
X2024989Y-1305432D01*
X1948535Y-1276222D02*
G01*
X2024989Y-1276222D01*
X1948535Y-1252346D02*
G01*
X2024989Y-1252346D01*
X1948535Y-1252346D02*
G01*
X1948535Y-1219580D01*
X1952091Y-1208659D01*
X1955901Y-1205103D01*
X1963013Y-1201546D01*
X1973935Y-1201546D01*
X1981301Y-1205103D01*
X1984857Y-1208659D01*
X1988667Y-1219580D01*
X1988667Y-1252346D01*
X-2070100Y1477771D02*
G01*
X-2070100Y1401318D01*
X-2070100Y1477771D02*
G01*
X-2037334Y1477771D01*
X-2026412Y1474215D01*
X-2022855Y1470405D01*
X-2019300Y1463294D01*
X-2019300Y1455928D01*
X-2022855Y1448562D01*
X-2026412Y1445005D01*
X-2037334Y1441450D01*
X-2070100Y1441450D01*
X-2044700Y1441450D02*
G01*
X-2019300Y1401318D01*
X-1995170Y1477771D02*
G01*
X-1995170Y1401318D01*
X-1995170Y1477771D02*
G01*
X-1947926Y1477771D01*
X-1995170Y1441450D02*
G01*
X-1966213Y1441450D01*
X-1995170Y1401318D02*
G01*
X-1947926Y1401318D01*
X-1872995Y1466850D02*
G01*
X-1880362Y1474215D01*
X-1891284Y1477771D01*
X-1905762Y1477771D01*
X-1916684Y1474215D01*
X-1923795Y1466850D01*
X-1923795Y1459484D01*
X-1920239Y1452371D01*
X-1916684Y1448562D01*
X-1909318Y1445005D01*
X-1887473Y1437639D01*
X-1880362Y1434084D01*
X-1876552Y1430528D01*
X-1872995Y1423162D01*
X-1872995Y1412239D01*
X-1880362Y1404873D01*
X-1891284Y1401318D01*
X-1905762Y1401318D01*
X-1916684Y1404873D01*
X-1923795Y1412239D01*
X-1849120Y1477771D02*
G01*
X-1849120Y1401318D01*
X-1849120Y1477771D02*
G01*
X-1801621Y1477771D01*
X-1849120Y1441450D02*
G01*
X-1819910Y1441450D01*
X-1849120Y1401318D02*
G01*
X-1801621Y1401318D01*
X-1752345Y1477771D02*
G01*
X-1752345Y1401318D01*
X-1777745Y1477771D02*
G01*
X-1726945Y1477771D01*
D12*
X-1583689Y-1994915D02*
G01*
X-1638300Y-2138171D01*
X-1583689Y-1994915D02*
G01*
X-1529334Y-2138171D01*
X-1617726Y-2090420D02*
G01*
X-1549654Y-2090420D01*
X355600Y-1982215D02*
G01*
X355600Y-2125471D01*
X355600Y-1982215D02*
G01*
X417068Y-1982215D01*
X437387Y-1989073D01*
X444245Y-1995931D01*
X451104Y-2009394D01*
X451104Y-2023110D01*
X444245Y-2036826D01*
X437387Y-2043684D01*
X417068Y-2050542D01*
X355600Y-2050542D02*
G01*
X417068Y-2050542D01*
X437387Y-2057145D01*
X444245Y-2064004D01*
X451104Y-2077720D01*
X451104Y-2098039D01*
X444245Y-2111755D01*
X437387Y-2118613D01*
X417068Y-2125471D01*
X355600Y-2125471D01*
X1664462Y-2016252D02*
G01*
X1657604Y-2002789D01*
X1643887Y-1989073D01*
X1630171Y-1982215D01*
X1602994Y-1982215D01*
X1589278Y-1989073D01*
X1575815Y-2002789D01*
X1568957Y-2016252D01*
X1562100Y-2036826D01*
X1562100Y-2070862D01*
X1568957Y-2091436D01*
X1575815Y-2104897D01*
X1589278Y-2118613D01*
X1602994Y-2125471D01*
X1630171Y-2125471D01*
X1643887Y-2118613D01*
X1657604Y-2104897D01*
X1664462Y-2091436D01*
D13*
X-971042Y2158492D02*
G01*
X-933704Y2158492D01*
X-954023Y2131313D01*
X-943863Y2131313D01*
X-937005Y2127757D01*
X-933704Y2124455D01*
X-930147Y2114042D01*
X-930147Y2107437D01*
X-933704Y2097023D01*
X-940307Y2090420D01*
X-950721Y2086863D01*
X-960881Y2086863D01*
X-971042Y2090420D01*
X-974597Y2093721D01*
X-977900Y2100579D01*
X-907795Y2158492D02*
G01*
X-880363Y2086863D01*
X-853186Y2158492D02*
G01*
X-880363Y2086863D01*
X-823721Y2158492D02*
G01*
X-786384Y2158492D01*
X-806704Y2131313D01*
X-796544Y2131313D01*
X-789686Y2127757D01*
X-786384Y2124455D01*
X-782828Y2114042D01*
X-782828Y2107437D01*
X-786384Y2097023D01*
X-793242Y2090420D01*
X-803402Y2086863D01*
X-813562Y2086863D01*
X-823721Y2090420D01*
X-827278Y2093721D01*
X-830579Y2100579D01*
D11*
X1536700Y-1044447D02*
G01*
X1567687Y-1125728D01*
X1598421Y-1044447D02*
G01*
X1567687Y-1125728D01*
X1658873Y-1056131D02*
G01*
X1658873Y-1125728D01*
X1624076Y-1090929D02*
G01*
X1693671Y-1090929D01*
D14*
X-473786Y-564324D02*
G01*
X-502996Y-640778D01*
X-473786Y-564324D02*
G01*
X-444830Y-640778D01*
X-492074Y-615378D02*
G01*
X-455752Y-615378D01*
X-420700Y-564324D02*
G01*
X-420700Y-640778D01*
X-420700Y-640778D02*
G01*
X-377266Y-640778D01*
X-353136Y-564324D02*
G01*
X-353136Y-640778D01*
X-353136Y-564324D02*
G01*
X-320370Y-564324D01*
X-309448Y-567880D01*
X-305892Y-571690D01*
X-302336Y-578802D01*
X-302336Y-589724D01*
X-305892Y-597090D01*
X-309448Y-600646D01*
X-320370Y-604456D01*
X-353136Y-604456D01*
X-278206Y-564324D02*
G01*
X-278206Y-640778D01*
X-227406Y-564324D02*
G01*
X-227406Y-640778D01*
X-278206Y-600646D02*
G01*
X-227406Y-600646D01*
X-174320Y-564324D02*
G01*
X-203276Y-640778D01*
X-174320Y-564324D02*
G01*
X-145110Y-640778D01*
X-192354Y-615378D02*
G01*
X-156032Y-615378D01*
D13*
X2110435Y-6362D02*
G01*
X2103577Y-9664D01*
X2096719Y-16522D01*
X2093417Y-23380D01*
X2093417Y-37096D01*
X2096719Y-43954D01*
X2103577Y-50558D01*
X2110435Y-54114D01*
X2120595Y-57416D01*
X2137613Y-57416D01*
X2147773Y-54114D01*
X2154631Y-50558D01*
X2161489Y-43954D01*
X2164791Y-37096D01*
X2164791Y-23380D01*
X2161489Y-16522D01*
X2154631Y-9664D01*
X2147773Y-6362D01*
X2106879Y16243D02*
G01*
X2103577Y22847D01*
X2093417Y33261D01*
X2164791Y33261D01*
X2093417Y62471D02*
G01*
X2093417Y100063D01*
X2120595Y79489D01*
X2120595Y89903D01*
X2123897Y96507D01*
X2127453Y100063D01*
X2137613Y103365D01*
X2144471Y103365D01*
X2154631Y100063D01*
X2161489Y93205D01*
X2164791Y83045D01*
X2164791Y72631D01*
X2161489Y62471D01*
X2158187Y59169D01*
X2151329Y55613D01*
X-2068804Y-1342009D02*
G01*
X-2072614Y-1334643D01*
X-2079726Y-1327277D01*
X-2087092Y-1323720D01*
X-2101570Y-1323720D01*
X-2108936Y-1327277D01*
X-2116048Y-1334643D01*
X-2119858Y-1342009D01*
X-2123414Y-1352930D01*
X-2123414Y-1370964D01*
X-2119858Y-1381887D01*
X-2116048Y-1389253D01*
X-2108936Y-1396619D01*
X-2101570Y-1400175D01*
X-2087092Y-1400175D01*
X-2079726Y-1396619D01*
X-2072614Y-1389253D01*
X-2068804Y-1381887D01*
X-2044928Y-1338198D02*
G01*
X-2037562Y-1334643D01*
X-2026640Y-1323720D01*
X-2026640Y-1400175D01*
X-1955520Y-1349120D02*
G01*
X-1959076Y-1360043D01*
X-1966442Y-1367409D01*
X-1977110Y-1370964D01*
X-1980920Y-1370964D01*
X-1991842Y-1367409D01*
X-1998954Y-1360043D01*
X-2002764Y-1349120D01*
X-2002764Y-1345564D01*
X-1998954Y-1334643D01*
X-1991842Y-1327277D01*
X-1980920Y-1323720D01*
X-1977110Y-1323720D01*
X-1966442Y-1327277D01*
X-1959076Y-1334643D01*
X-1955520Y-1349120D01*
X-1955520Y-1367409D01*
X-1959076Y-1385696D01*
X-1966442Y-1396619D01*
X-1977110Y-1400175D01*
X-1984476Y-1400175D01*
X-1995398Y-1396619D01*
X-1998954Y-1389253D01*
X685800Y-269747D02*
G01*
X685800Y-351028D01*
X685800Y-269747D02*
G01*
X720597Y-269747D01*
X732281Y-273812D01*
X736092Y-277621D01*
X739902Y-285242D01*
X739902Y-293115D01*
X736092Y-300736D01*
X732281Y-304545D01*
X720597Y-308355D01*
X685800Y-308355D01*
X712723Y-308355D02*
G01*
X739902Y-351028D01*
X765302Y-285242D02*
G01*
X773176Y-281431D01*
X784605Y-269747D01*
X784605Y-351028D01*
X241300Y-269747D02*
G01*
X241300Y-351028D01*
X241300Y-269747D02*
G01*
X276097Y-269747D01*
X287781Y-273812D01*
X291592Y-277621D01*
X295402Y-285242D01*
X295402Y-293115D01*
X291592Y-300736D01*
X287781Y-304545D01*
X276097Y-308355D01*
X241300Y-308355D01*
X268223Y-308355D02*
G01*
X295402Y-351028D01*
X324865Y-289052D02*
G01*
X324865Y-285242D01*
X328676Y-277621D01*
X332486Y-273812D01*
X340105Y-269747D01*
X355600Y-269747D01*
X363473Y-273812D01*
X367284Y-277621D01*
X371094Y-285242D01*
X371094Y-293115D01*
X367284Y-300736D01*
X359410Y-312420D01*
X320802Y-351028D01*
X374904Y-351028D01*
X-2159000Y-1031747D02*
G01*
X-2159000Y-1113028D01*
X-2159000Y-1031747D02*
G01*
X-2124202Y-1031747D01*
X-2112518Y-1035812D01*
X-2108707Y-1039621D01*
X-2104897Y-1047242D01*
X-2104897Y-1055115D01*
X-2108707Y-1062736D01*
X-2112518Y-1066545D01*
X-2124202Y-1070355D01*
X-2159000Y-1070355D01*
X-2132076Y-1070355D02*
G01*
X-2104897Y-1113028D01*
X-2071623Y-1031747D02*
G01*
X-2029205Y-1031747D01*
X-2052320Y-1062736D01*
X-2040889Y-1062736D01*
X-2033015Y-1066545D01*
X-2029205Y-1070355D01*
X-2025395Y-1082039D01*
X-2025395Y-1089660D01*
X-2029205Y-1101344D01*
X-2036826Y-1109218D01*
X-2048510Y-1113028D01*
X-2060194Y-1113028D01*
X-2071623Y-1109218D01*
X-2075434Y-1105154D01*
X-2079497Y-1097534D01*
X-977900Y1007871D02*
G01*
X-977900Y953262D01*
X-974344Y942339D01*
X-966978Y934973D01*
X-956055Y931418D01*
X-948689Y931418D01*
X-938021Y934973D01*
X-930655Y942339D01*
X-927100Y953262D01*
X-927100Y1007871D01*
X-895604Y1007871D02*
G01*
X-855726Y1007871D01*
X-877570Y978662D01*
X-866647Y978662D01*
X-859281Y975105D01*
X-855726Y971550D01*
X-852170Y960628D01*
X-852170Y953262D01*
X-855726Y942339D01*
X-863092Y934973D01*
X-874013Y931418D01*
X-884936Y931418D01*
X-895604Y934973D01*
X-899413Y938784D01*
X-902970Y945895D01*
X2044700Y-1504187D02*
G01*
X2044700Y-1551939D01*
X2048002Y-1561337D01*
X2054352Y-1567687D01*
X2063750Y-1570989D01*
X2070100Y-1570989D01*
X2079752Y-1567687D01*
X2086102Y-1561337D01*
X2089150Y-1551939D01*
X2089150Y-1504187D01*
X2148331Y-1504187D02*
G01*
X2116581Y-1504187D01*
X2113534Y-1532889D01*
X2116581Y-1529587D01*
X2126234Y-1526539D01*
X2135631Y-1526539D01*
X2145284Y-1529587D01*
X2151634Y-1535937D01*
X2154681Y-1545589D01*
X2154681Y-1551939D01*
X2151634Y-1561337D01*
X2145284Y-1567687D01*
X2135631Y-1570989D01*
X2126234Y-1570989D01*
X2116581Y-1567687D01*
X2113534Y-1564639D01*
X2110231Y-1558289D01*
X1676400Y-97015D02*
G01*
X1676400Y-173469D01*
X1676400Y-97015D02*
G01*
X1709165Y-97015D01*
X1720087Y-100571D01*
X1723644Y-104381D01*
X1727200Y-111493D01*
X1727200Y-118859D01*
X1723644Y-126225D01*
X1720087Y-129781D01*
X1709165Y-133337D01*
X1676400Y-133337D01*
X1701800Y-133337D02*
G01*
X1727200Y-173469D01*
X1798573Y-122415D02*
G01*
X1795018Y-133337D01*
X1787652Y-140703D01*
X1776729Y-144259D01*
X1773173Y-144259D01*
X1762252Y-140703D01*
X1754886Y-133337D01*
X1751329Y-122415D01*
X1751329Y-118859D01*
X1754886Y-107937D01*
X1762252Y-100571D01*
X1773173Y-97015D01*
X1776729Y-97015D01*
X1787652Y-100571D01*
X1795018Y-107937D01*
X1798573Y-122415D01*
X1798573Y-140703D01*
X1795018Y-158991D01*
X1787652Y-169913D01*
X1776729Y-173469D01*
X1769363Y-173469D01*
X1758695Y-169913D01*
X1754886Y-162547D01*
X-961389Y379984D02*
G01*
X-965200Y387350D01*
X-972312Y394715D01*
X-979678Y398271D01*
X-994155Y398271D01*
X-1001521Y394715D01*
X-1008634Y387350D01*
X-1012444Y379984D01*
X-1016000Y369062D01*
X-1016000Y351028D01*
X-1012444Y340105D01*
X-1008634Y332739D01*
X-1001521Y325373D01*
X-994155Y321818D01*
X-979678Y321818D01*
X-972312Y325373D01*
X-965200Y332739D01*
X-961389Y340105D01*
X-919226Y398271D02*
G01*
X-930147Y394715D01*
X-933704Y387350D01*
X-933704Y379984D01*
X-930147Y372871D01*
X-923036Y369062D01*
X-908304Y365505D01*
X-897381Y361950D01*
X-890270Y354584D01*
X-886460Y347218D01*
X-886460Y336295D01*
X-890270Y329184D01*
X-893826Y325373D01*
X-904747Y321818D01*
X-919226Y321818D01*
X-930147Y325373D01*
X-933704Y329184D01*
X-937513Y336295D01*
X-937513Y347218D01*
X-933704Y354584D01*
X-926592Y361950D01*
X-915670Y365505D01*
X-901192Y369062D01*
X-893826Y372871D01*
X-890270Y379984D01*
X-890270Y387350D01*
X-893826Y394715D01*
X-904747Y398271D01*
X-919226Y398271D01*
D11*
X378647Y285290D02*
G01*
X378647Y204010D01*
X378647Y285290D02*
G01*
X428939Y285290D01*
X378647Y246682D02*
G01*
X409635Y246682D01*
X378647Y204010D02*
G01*
X428939Y204010D01*
X508441Y273606D02*
G01*
X500821Y281226D01*
X489137Y285290D01*
X473643Y285290D01*
X462213Y281226D01*
X454339Y273606D01*
X454339Y265986D01*
X458149Y258112D01*
X462213Y254302D01*
X469833Y250492D01*
X492947Y242618D01*
X500821Y238808D01*
X504631Y234998D01*
X508441Y227378D01*
X508441Y215694D01*
X500821Y207820D01*
X489137Y204010D01*
X473643Y204010D01*
X462213Y207820D01*
X454339Y215694D01*
X533841Y285290D02*
G01*
X533841Y204010D01*
X533841Y285290D02*
G01*
X568639Y285290D01*
X580323Y281226D01*
X584133Y277416D01*
X587943Y269796D01*
X587943Y258112D01*
X584133Y250492D01*
X580323Y246682D01*
X568639Y242618D01*
X533841Y242618D01*
X621217Y285290D02*
G01*
X663889Y285290D01*
X640521Y254302D01*
X652205Y254302D01*
X659825Y250492D01*
X663889Y246682D01*
X667699Y234998D01*
X667699Y227378D01*
X663889Y215694D01*
X656015Y207820D01*
X644585Y204010D01*
X632901Y204010D01*
X621217Y207820D01*
X617407Y211884D01*
X613597Y219504D01*
X696909Y265986D02*
G01*
X696909Y269796D01*
X700973Y277416D01*
X704783Y281226D01*
X712403Y285290D01*
X727897Y285290D01*
X735771Y281226D01*
X739581Y277416D01*
X743391Y269796D01*
X743391Y261922D01*
X739581Y254302D01*
X731707Y242618D01*
X693099Y204010D01*
X747201Y204010D01*
X26415Y2354326D02*
G01*
X26415Y2277871D01*
X77215Y2354326D02*
G01*
X26415Y2303271D01*
X44450Y2321560D02*
G01*
X77215Y2277871D01*
X101092Y2354326D02*
G01*
X101092Y2277871D01*
X101092Y2354326D02*
G01*
X148589Y2354326D01*
X101092Y2318004D02*
G01*
X130302Y2318004D01*
X101092Y2277871D02*
G01*
X148589Y2277871D01*
X172465Y2354326D02*
G01*
X172465Y2277871D01*
X172465Y2354326D02*
G01*
X219710Y2354326D01*
X172465Y2318004D02*
G01*
X201676Y2318004D01*
X172465Y2277871D02*
G01*
X219710Y2277871D01*
X243839Y2354326D02*
G01*
X243839Y2277871D01*
X243839Y2354326D02*
G01*
X276352Y2354326D01*
X287273Y2350770D01*
X291084Y2346960D01*
X294639Y2339847D01*
X294639Y2328926D01*
X291084Y2321560D01*
X287273Y2318004D01*
X276352Y2314194D01*
X243839Y2314194D01*
X340360Y2354326D02*
G01*
X333247Y2350770D01*
X325881Y2343404D01*
X322326Y2336037D01*
X318770Y2325115D01*
X318770Y2307081D01*
X322326Y2296160D01*
X325881Y2288794D01*
X333247Y2281428D01*
X340360Y2277871D01*
X355092Y2277871D01*
X362204Y2281428D01*
X369570Y2288794D01*
X373126Y2296160D01*
X376936Y2307081D01*
X376936Y2325115D01*
X373126Y2336037D01*
X369570Y2343404D01*
X362204Y2350770D01*
X355092Y2354326D01*
X340360Y2354326D01*
X400812Y2354326D02*
G01*
X400812Y2299715D01*
X404368Y2288794D01*
X411734Y2281428D01*
X422655Y2277871D01*
X430021Y2277871D01*
X440944Y2281428D01*
X448055Y2288794D01*
X451865Y2299715D01*
X451865Y2354326D01*
X501142Y2354326D02*
G01*
X501142Y2277871D01*
X475742Y2354326D02*
G01*
X526542Y2354326D01*
X657605Y2354326D02*
G01*
X606552Y2277871D01*
X606552Y2354326D02*
G01*
X657605Y2354326D01*
X606552Y2277871D02*
G01*
X657605Y2277871D01*
X703326Y2354326D02*
G01*
X696213Y2350770D01*
X688847Y2343404D01*
X685292Y2336037D01*
X681481Y2325115D01*
X681481Y2307081D01*
X685292Y2296160D01*
X688847Y2288794D01*
X696213Y2281428D01*
X703326Y2277871D01*
X717804Y2277871D01*
X725170Y2281428D01*
X732536Y2288794D01*
X736092Y2296160D01*
X739647Y2307081D01*
X739647Y2325115D01*
X736092Y2336037D01*
X732536Y2343404D01*
X725170Y2350770D01*
X717804Y2354326D01*
X703326Y2354326D01*
X763778Y2354326D02*
G01*
X763778Y2277871D01*
X763778Y2354326D02*
G01*
X814578Y2277871D01*
X814578Y2354326D02*
G01*
X814578Y2277871D01*
X838707Y2354326D02*
G01*
X838707Y2277871D01*
X838707Y2354326D02*
G01*
X885952Y2354326D01*
X838707Y2318004D02*
G01*
X867663Y2318004D01*
X838707Y2277871D02*
G01*
X885952Y2277871D01*
D13*
X1498498Y-97053D02*
G01*
X1498498Y-173507D01*
X1498498Y-97053D02*
G01*
X1531264Y-97053D01*
X1542186Y-100609D01*
X1545996Y-104419D01*
X1549552Y-111531D01*
X1549552Y-118897D01*
X1545996Y-126263D01*
X1542186Y-129819D01*
X1531264Y-133375D01*
X1498498Y-133375D01*
X1524152Y-133375D02*
G01*
X1549552Y-173507D01*
X1573428Y-111531D02*
G01*
X1580794Y-107975D01*
X1591716Y-97053D01*
X1591716Y-173507D01*
X1615592Y-111531D02*
G01*
X1622958Y-107975D01*
X1633880Y-97053D01*
X1633880Y-173507D01*
X-149072Y-255117D02*
G01*
X-156438Y-258673D01*
X-163804Y-266039D01*
X-167360Y-273405D01*
X-167360Y-287883D01*
X-163804Y-295249D01*
X-156438Y-302361D01*
X-149072Y-306171D01*
X-138150Y-309727D01*
X-120116Y-309727D01*
X-109194Y-306171D01*
X-101828Y-302361D01*
X-94462Y-295249D01*
X-90906Y-287883D01*
X-90906Y-273405D01*
X-94462Y-266039D01*
X-101828Y-258673D01*
X-109194Y-255117D01*
X-152882Y-231241D02*
G01*
X-156438Y-223875D01*
X-167360Y-212953D01*
X-90906Y-212953D01*
X-149072Y-185267D02*
G01*
X-152882Y-185267D01*
X-159994Y-181711D01*
X-163804Y-178155D01*
X-167360Y-170789D01*
X-167360Y-156311D01*
X-163804Y-148945D01*
X-159994Y-145389D01*
X-152882Y-141579D01*
X-145516Y-141579D01*
X-138150Y-145389D01*
X-127228Y-152501D01*
X-90906Y-189077D01*
X-90906Y-138023D01*
X-1558251Y1167384D02*
G01*
X-1562061Y1174750D01*
X-1569173Y1182115D01*
X-1576539Y1185671D01*
X-1591017Y1185671D01*
X-1598383Y1182115D01*
X-1605495Y1174750D01*
X-1609305Y1167384D01*
X-1612861Y1156462D01*
X-1612861Y1138428D01*
X-1609305Y1127505D01*
X-1605495Y1120139D01*
X-1598383Y1112773D01*
X-1591017Y1109218D01*
X-1576539Y1109218D01*
X-1569173Y1112773D01*
X-1562061Y1120139D01*
X-1558251Y1127505D01*
X-1530565Y1167384D02*
G01*
X-1530565Y1171194D01*
X-1527009Y1178305D01*
X-1523453Y1182115D01*
X-1516087Y1185671D01*
X-1501609Y1185671D01*
X-1494243Y1182115D01*
X-1490687Y1178305D01*
X-1487131Y1171194D01*
X-1487131Y1163828D01*
X-1490687Y1156462D01*
X-1498053Y1145539D01*
X-1534375Y1109218D01*
X-1483321Y1109218D01*
X-1459445Y1171194D02*
G01*
X-1452079Y1174750D01*
X-1441157Y1185671D01*
X-1441157Y1109218D01*
X-1181206Y931638D02*
G01*
X-1181206Y855184D01*
X-1181206Y931638D02*
G01*
X-1148440Y931638D01*
X-1137518Y928082D01*
X-1133708Y924272D01*
X-1130152Y917160D01*
X-1130152Y909794D01*
X-1133708Y902428D01*
X-1137518Y898872D01*
X-1148440Y895316D01*
X-1181206Y895316D01*
X-1155552Y895316D02*
G01*
X-1130152Y855184D01*
X-1106276Y917160D02*
G01*
X-1098910Y920716D01*
X-1087988Y931638D01*
X-1087988Y855184D01*
X-1056746Y931638D02*
G01*
X-1016614Y931638D01*
X-1038458Y902428D01*
X-1027536Y902428D01*
X-1020424Y898872D01*
X-1016614Y895316D01*
X-1013058Y884394D01*
X-1013058Y877028D01*
X-1016614Y866106D01*
X-1023980Y858994D01*
X-1034902Y855184D01*
X-1045824Y855184D01*
X-1056746Y858994D01*
X-1060302Y862550D01*
X-1064112Y869916D01*
X-1620702Y870742D02*
G01*
X-1620702Y794288D01*
X-1620702Y870742D02*
G01*
X-1587936Y870742D01*
X-1577014Y867186D01*
X-1573204Y863376D01*
X-1569648Y856264D01*
X-1569648Y848898D01*
X-1573204Y841532D01*
X-1577014Y837976D01*
X-1587936Y834420D01*
X-1620702Y834420D01*
X-1595048Y834420D02*
G01*
X-1569648Y794288D01*
X-1545772Y856264D02*
G01*
X-1538406Y859820D01*
X-1527484Y870742D01*
X-1527484Y794288D01*
X-1499798Y852454D02*
G01*
X-1499798Y856264D01*
X-1496242Y863376D01*
X-1492686Y867186D01*
X-1485320Y870742D01*
X-1470842Y870742D01*
X-1463476Y867186D01*
X-1459920Y863376D01*
X-1456110Y856264D01*
X-1456110Y848898D01*
X-1459920Y841532D01*
X-1467032Y830610D01*
X-1503608Y794288D01*
X-1452554Y794288D01*
X-535579Y1605414D02*
G01*
X-463951Y1605414D01*
X-535579Y1605414D02*
G01*
X-535579Y1636148D01*
X-532277Y1646308D01*
X-528721Y1649610D01*
X-521863Y1653166D01*
X-515005Y1653166D01*
X-508401Y1649610D01*
X-504845Y1646308D01*
X-501543Y1636148D01*
X-501543Y1605414D01*
X-501543Y1629290D02*
G01*
X-463951Y1653166D01*
X-525419Y1716666D02*
G01*
X-532277Y1713110D01*
X-535579Y1702950D01*
X-535579Y1696092D01*
X-532277Y1685932D01*
X-521863Y1679074D01*
X-504845Y1675518D01*
X-487827Y1675518D01*
X-474111Y1679074D01*
X-467507Y1685932D01*
X-463951Y1696092D01*
X-463951Y1699394D01*
X-467507Y1709808D01*
X-474111Y1716666D01*
X-484525Y1719968D01*
X-487827Y1719968D01*
X-497987Y1716666D01*
X-504845Y1709808D01*
X-508401Y1699394D01*
X-508401Y1696092D01*
X-504845Y1685932D01*
X-497987Y1679074D01*
X-487827Y1675518D01*
X1828800Y-97015D02*
G01*
X1828800Y-173469D01*
X1828800Y-97015D02*
G01*
X1861565Y-97015D01*
X1872487Y-100571D01*
X1876044Y-104381D01*
X1879600Y-111493D01*
X1879600Y-118859D01*
X1876044Y-126225D01*
X1872487Y-129781D01*
X1861565Y-133337D01*
X1828800Y-133337D01*
X1854200Y-133337D02*
G01*
X1879600Y-173469D01*
X1903729Y-111493D02*
G01*
X1911095Y-107937D01*
X1921763Y-97015D01*
X1921763Y-173469D01*
X1967738Y-97015D02*
G01*
X1956815Y-100571D01*
X1949450Y-111493D01*
X1945893Y-129781D01*
X1945893Y-140703D01*
X1949450Y-158991D01*
X1956815Y-169913D01*
X1967738Y-173469D01*
X1975104Y-173469D01*
X1985772Y-169913D01*
X1993138Y-158991D01*
X1996693Y-140703D01*
X1996693Y-129781D01*
X1993138Y-111493D01*
X1985772Y-100571D01*
X1975104Y-97015D01*
X1967738Y-97015D01*
X1079627Y-76657D02*
G01*
X1079627Y-148285D01*
X1079627Y-76657D02*
G01*
X1110106Y-76657D01*
X1120520Y-80213D01*
X1123822Y-83515D01*
X1127125Y-90373D01*
X1127125Y-97231D01*
X1123822Y-104089D01*
X1120520Y-107391D01*
X1110106Y-110693D01*
X1079627Y-110693D01*
X1103248Y-110693D02*
G01*
X1127125Y-148285D01*
X1149730Y-90373D02*
G01*
X1156588Y-87071D01*
X1166748Y-76657D01*
X1166748Y-148285D01*
X1230248Y-76657D02*
G01*
X1196212Y-76657D01*
X1192656Y-107391D01*
X1196212Y-104089D01*
X1206372Y-100533D01*
X1216532Y-100533D01*
X1226693Y-104089D01*
X1233551Y-110693D01*
X1237106Y-121107D01*
X1237106Y-127965D01*
X1233551Y-138125D01*
X1226693Y-144983D01*
X1216532Y-148285D01*
X1206372Y-148285D01*
X1196212Y-144983D01*
X1192656Y-141427D01*
X1189354Y-134569D01*
X-319735Y-271691D02*
G01*
X-243281Y-271691D01*
X-319735Y-271691D02*
G01*
X-319735Y-238925D01*
X-316179Y-228003D01*
X-312369Y-224193D01*
X-305257Y-220637D01*
X-297891Y-220637D01*
X-290525Y-224193D01*
X-286969Y-228003D01*
X-283413Y-238925D01*
X-283413Y-271691D01*
X-283413Y-246037D02*
G01*
X-243281Y-220637D01*
X-319735Y-153073D02*
G01*
X-319735Y-189395D01*
X-286969Y-192951D01*
X-290525Y-189395D01*
X-294335Y-178473D01*
X-294335Y-167551D01*
X-290525Y-156629D01*
X-283413Y-149517D01*
X-272491Y-145707D01*
X-265125Y-145707D01*
X-254203Y-149517D01*
X-247091Y-156629D01*
X-243281Y-167551D01*
X-243281Y-178473D01*
X-247091Y-189395D01*
X-250647Y-192951D01*
X-258013Y-196761D01*
X-523747Y1137412D02*
G01*
X-531368Y1133602D01*
X-538987Y1125981D01*
X-543052Y1118107D01*
X-543052Y1102613D01*
X-538987Y1094994D01*
X-531368Y1087120D01*
X-523747Y1083310D01*
X-512063Y1079500D01*
X-492760Y1079500D01*
X-481076Y1083310D01*
X-473455Y1087120D01*
X-465581Y1094994D01*
X-461771Y1102613D01*
X-461771Y1118107D01*
X-465581Y1125981D01*
X-473455Y1133602D01*
X-481076Y1137412D01*
X-523747Y1166876D02*
G01*
X-527557Y1166876D01*
X-535178Y1170686D01*
X-538987Y1174495D01*
X-543052Y1182370D01*
X-543052Y1197610D01*
X-538987Y1205484D01*
X-535178Y1209294D01*
X-527557Y1213104D01*
X-519684Y1213104D01*
X-512063Y1209294D01*
X-500379Y1201673D01*
X-461771Y1163065D01*
X-461771Y1217168D01*
X-543052Y1265681D02*
G01*
X-538987Y1254252D01*
X-527557Y1246378D01*
X-508254Y1242568D01*
X-496570Y1242568D01*
X-477265Y1246378D01*
X-465581Y1254252D01*
X-461771Y1265681D01*
X-461771Y1273555D01*
X-465581Y1284986D01*
X-477265Y1292860D01*
X-496570Y1296670D01*
X-508254Y1296670D01*
X-527557Y1292860D01*
X-538987Y1284986D01*
X-543052Y1273555D01*
X-543052Y1265681D01*
X-554989Y468884D02*
G01*
X-558800Y476250D01*
X-565912Y483615D01*
X-573278Y487171D01*
X-587755Y487171D01*
X-595121Y483615D01*
X-602234Y476250D01*
X-606044Y468884D01*
X-609600Y457962D01*
X-609600Y439928D01*
X-606044Y429005D01*
X-602234Y421639D01*
X-595121Y414273D01*
X-587755Y410718D01*
X-573278Y410718D01*
X-565912Y414273D01*
X-558800Y421639D01*
X-554989Y429005D01*
X-487426Y487171D02*
G01*
X-523747Y487171D01*
X-527304Y454405D01*
X-523747Y457962D01*
X-512826Y461771D01*
X-501904Y461771D01*
X-490981Y457962D01*
X-483870Y450850D01*
X-480060Y439928D01*
X-480060Y432562D01*
X-483870Y421639D01*
X-490981Y414273D01*
X-501904Y410718D01*
X-512826Y410718D01*
X-523747Y414273D01*
X-527304Y418084D01*
X-531113Y425195D01*
X-503173Y2006854D02*
G01*
X-510031Y2003552D01*
X-516889Y1996694D01*
X-520192Y1989836D01*
X-520192Y1976373D01*
X-516889Y1969515D01*
X-510031Y1962657D01*
X-503173Y1959102D01*
X-493013Y1955800D01*
X-475742Y1955800D01*
X-465581Y1959102D01*
X-458723Y1962657D01*
X-452120Y1969515D01*
X-448563Y1976373D01*
X-448563Y1989836D01*
X-452120Y1996694D01*
X-458723Y2003552D01*
X-465581Y2006854D01*
X-506476Y2029460D02*
G01*
X-510031Y2036318D01*
X-520192Y2046478D01*
X-448563Y2046478D01*
X-520192Y2103120D02*
G01*
X-472439Y2069084D01*
X-472439Y2120137D01*
X-520192Y2103120D02*
G01*
X-448563Y2103120D01*
X-2104389Y-128015D02*
G01*
X-2108200Y-120650D01*
X-2115312Y-113284D01*
X-2122678Y-109728D01*
X-2137155Y-109728D01*
X-2144521Y-113284D01*
X-2151634Y-120650D01*
X-2155444Y-128015D01*
X-2159000Y-138937D01*
X-2159000Y-156971D01*
X-2155444Y-167894D01*
X-2151634Y-175260D01*
X-2144521Y-182626D01*
X-2137155Y-186181D01*
X-2122678Y-186181D01*
X-2115312Y-182626D01*
X-2108200Y-175260D01*
X-2104389Y-167894D01*
X-2044192Y-109728D02*
G01*
X-2080513Y-160781D01*
X-2025904Y-160781D01*
X-2044192Y-109728D02*
G01*
X-2044192Y-186181D01*
X-528568Y1448061D02*
G01*
X-535426Y1444759D01*
X-542284Y1437901D01*
X-545586Y1431043D01*
X-545586Y1417581D01*
X-542284Y1410723D01*
X-535426Y1403865D01*
X-528568Y1400309D01*
X-518408Y1397007D01*
X-501136Y1397007D01*
X-490976Y1400309D01*
X-484118Y1403865D01*
X-477514Y1410723D01*
X-473958Y1417581D01*
X-473958Y1431043D01*
X-477514Y1437901D01*
X-484118Y1444759D01*
X-490976Y1448061D01*
X-531870Y1470667D02*
G01*
X-535426Y1477525D01*
X-545586Y1487685D01*
X-473958Y1487685D01*
X-535426Y1551185D02*
G01*
X-542284Y1547629D01*
X-545586Y1537469D01*
X-545586Y1530611D01*
X-542284Y1520451D01*
X-531870Y1513593D01*
X-514852Y1510291D01*
X-497834Y1510291D01*
X-484118Y1513593D01*
X-477514Y1520451D01*
X-473958Y1530611D01*
X-473958Y1534167D01*
X-477514Y1544327D01*
X-484118Y1551185D01*
X-494532Y1554487D01*
X-497834Y1554487D01*
X-507994Y1551185D01*
X-514852Y1544327D01*
X-518408Y1534167D01*
X-518408Y1530611D01*
X-514852Y1520451D01*
X-507994Y1513593D01*
X-497834Y1510291D01*
X-503173Y1816354D02*
G01*
X-510031Y1813052D01*
X-516889Y1806194D01*
X-520192Y1799336D01*
X-520192Y1785873D01*
X-516889Y1779015D01*
X-510031Y1772157D01*
X-503173Y1768602D01*
X-493013Y1765300D01*
X-475742Y1765300D01*
X-465581Y1768602D01*
X-458723Y1772157D01*
X-452120Y1779015D01*
X-448563Y1785873D01*
X-448563Y1799336D01*
X-452120Y1806194D01*
X-458723Y1813052D01*
X-465581Y1816354D01*
X-506476Y1838960D02*
G01*
X-510031Y1845818D01*
X-520192Y1855978D01*
X-448563Y1855978D01*
X-520192Y1919478D02*
G01*
X-520192Y1885187D01*
X-489457Y1881886D01*
X-493013Y1885187D01*
X-496315Y1895602D01*
X-496315Y1905762D01*
X-493013Y1915921D01*
X-486155Y1922779D01*
X-475742Y1926336D01*
X-469137Y1926336D01*
X-458723Y1922779D01*
X-452120Y1915921D01*
X-448563Y1905762D01*
X-448563Y1895602D01*
X-452120Y1885187D01*
X-455421Y1881886D01*
X-462279Y1878584D01*
X-285978Y209994D02*
G01*
X-289788Y217360D01*
X-296900Y224726D01*
X-304266Y228282D01*
X-318744Y228282D01*
X-326110Y224726D01*
X-333222Y217360D01*
X-337032Y209994D01*
X-340588Y199072D01*
X-340588Y181038D01*
X-337032Y170116D01*
X-333222Y162750D01*
X-326110Y155384D01*
X-318744Y151828D01*
X-304266Y151828D01*
X-296900Y155384D01*
X-289788Y162750D01*
X-285978Y170116D01*
X-211048Y228282D02*
G01*
X-247624Y151828D01*
X-262102Y228282D02*
G01*
X-211048Y228282D01*
X-1415338Y-708152D02*
G01*
X-1419148Y-700531D01*
X-1426768Y-692912D01*
X-1434642Y-688847D01*
X-1450136Y-688847D01*
X-1457756Y-692912D01*
X-1465376Y-700531D01*
X-1469440Y-708152D01*
X-1473250Y-719836D01*
X-1473250Y-739139D01*
X-1469440Y-750823D01*
X-1465376Y-758444D01*
X-1457756Y-766318D01*
X-1450136Y-770128D01*
X-1434642Y-770128D01*
X-1426768Y-766318D01*
X-1419148Y-758444D01*
X-1415338Y-750823D01*
X-1389684Y-704342D02*
G01*
X-1382064Y-700531D01*
X-1370380Y-688847D01*
X-1370380Y-770128D01*
X-1834362Y-568452D02*
G01*
X-1838172Y-560831D01*
X-1846046Y-553212D01*
X-1853666Y-549147D01*
X-1869160Y-549147D01*
X-1876780Y-553212D01*
X-1884654Y-560831D01*
X-1888464Y-568452D01*
X-1892274Y-580136D01*
X-1892274Y-599439D01*
X-1888464Y-611123D01*
X-1884654Y-618744D01*
X-1876780Y-626618D01*
X-1869160Y-630428D01*
X-1853666Y-630428D01*
X-1846046Y-626618D01*
X-1838172Y-618744D01*
X-1834362Y-611123D01*
X-1804898Y-568452D02*
G01*
X-1804898Y-564642D01*
X-1801088Y-557021D01*
X-1797278Y-553212D01*
X-1789404Y-549147D01*
X-1774164Y-549147D01*
X-1766290Y-553212D01*
X-1762480Y-557021D01*
X-1758670Y-564642D01*
X-1758670Y-572515D01*
X-1762480Y-580136D01*
X-1770100Y-591820D01*
X-1808962Y-630428D01*
X-1754860Y-630428D01*
X-2037499Y-555752D02*
G01*
X-2041309Y-548131D01*
X-2049183Y-540512D01*
X-2056803Y-536447D01*
X-2072297Y-536447D01*
X-2079917Y-540512D01*
X-2087791Y-548131D01*
X-2091601Y-555752D01*
X-2095411Y-567436D01*
X-2095411Y-586739D01*
X-2091601Y-598423D01*
X-2087791Y-606044D01*
X-2079917Y-613918D01*
X-2072297Y-617728D01*
X-2056803Y-617728D01*
X-2049183Y-613918D01*
X-2041309Y-606044D01*
X-2037499Y-598423D01*
X-2004225Y-536447D02*
G01*
X-1961807Y-536447D01*
X-1984921Y-567436D01*
X-1973491Y-567436D01*
X-1965617Y-571245D01*
X-1961807Y-575055D01*
X-1957997Y-586739D01*
X-1957997Y-594360D01*
X-1961807Y-606044D01*
X-1969427Y-613918D01*
X-1981111Y-617728D01*
X-1992795Y-617728D01*
X-2004225Y-613918D01*
X-2008035Y-609854D01*
X-2012099Y-602234D01*
X-778598Y-188912D02*
G01*
X-782408Y-181546D01*
X-789520Y-174180D01*
X-796886Y-170624D01*
X-811364Y-170624D01*
X-818730Y-174180D01*
X-825842Y-181546D01*
X-829652Y-188912D01*
X-833208Y-199834D01*
X-833208Y-217868D01*
X-829652Y-228790D01*
X-825842Y-236156D01*
X-818730Y-243522D01*
X-811364Y-247078D01*
X-796886Y-247078D01*
X-789520Y-243522D01*
X-782408Y-236156D01*
X-778598Y-228790D01*
X-711034Y-181546D02*
G01*
X-714590Y-174180D01*
X-725512Y-170624D01*
X-732878Y-170624D01*
X-743800Y-174180D01*
X-750912Y-185102D01*
X-754722Y-203390D01*
X-754722Y-221678D01*
X-750912Y-236156D01*
X-743800Y-243522D01*
X-732878Y-247078D01*
X-729322Y-247078D01*
X-718400Y-243522D01*
X-711034Y-236156D01*
X-707478Y-225234D01*
X-707478Y-221678D01*
X-711034Y-210756D01*
X-718400Y-203390D01*
X-729322Y-199834D01*
X-732878Y-199834D01*
X-743800Y-203390D01*
X-750912Y-210756D01*
X-754722Y-221678D01*
X-1459382Y740790D02*
G01*
X-1463192Y748156D01*
X-1470304Y755522D01*
X-1477670Y759079D01*
X-1492148Y759079D01*
X-1499514Y755522D01*
X-1506626Y748156D01*
X-1510436Y740790D01*
X-1513992Y729869D01*
X-1513992Y711835D01*
X-1510436Y700912D01*
X-1506626Y693546D01*
X-1499514Y686180D01*
X-1492148Y682625D01*
X-1477670Y682625D01*
X-1470304Y686180D01*
X-1463192Y693546D01*
X-1459382Y700912D01*
X-1435506Y744601D02*
G01*
X-1428140Y748156D01*
X-1417218Y759079D01*
X-1417218Y682625D01*
X-1393342Y744601D02*
G01*
X-1385976Y748156D01*
X-1375054Y759079D01*
X-1375054Y682625D01*
X-1251140Y756094D02*
G01*
X-1254950Y763460D01*
X-1262062Y770826D01*
X-1269428Y774382D01*
X-1283906Y774382D01*
X-1291272Y770826D01*
X-1298384Y763460D01*
X-1302194Y756094D01*
X-1305750Y745172D01*
X-1305750Y727138D01*
X-1302194Y716216D01*
X-1298384Y708850D01*
X-1291272Y701484D01*
X-1283906Y697928D01*
X-1269428Y697928D01*
X-1262062Y701484D01*
X-1254950Y708850D01*
X-1251140Y716216D01*
X-1227264Y759904D02*
G01*
X-1219898Y763460D01*
X-1208976Y774382D01*
X-1208976Y697928D01*
X-1163256Y774382D02*
G01*
X-1174178Y770826D01*
X-1181290Y759904D01*
X-1185100Y741616D01*
X-1185100Y730694D01*
X-1181290Y712406D01*
X-1174178Y701484D01*
X-1163256Y697928D01*
X-1155890Y697928D01*
X-1144968Y701484D01*
X-1137856Y712406D01*
X-1134046Y730694D01*
X-1134046Y741616D01*
X-1137856Y759904D01*
X-1144968Y770826D01*
X-1155890Y774382D01*
X-1163256Y774382D01*
X-1079500Y830071D02*
G01*
X-1079500Y753618D01*
X-1079500Y830071D02*
G01*
X-1046734Y830071D01*
X-1035812Y826515D01*
X-1032255Y822705D01*
X-1028700Y815594D01*
X-1028700Y808228D01*
X-1032255Y800862D01*
X-1035812Y797305D01*
X-1046734Y793750D01*
X-1079500Y793750D01*
X-1054100Y793750D02*
G01*
X-1028700Y753618D01*
X-953770Y830071D02*
G01*
X-990092Y753618D01*
X-1004570Y830071D02*
G01*
X-953770Y830071D01*
X-1012189Y506984D02*
G01*
X-1016000Y514350D01*
X-1023112Y521715D01*
X-1030478Y525271D01*
X-1044955Y525271D01*
X-1052321Y521715D01*
X-1059434Y514350D01*
X-1063244Y506984D01*
X-1066800Y496062D01*
X-1066800Y478028D01*
X-1063244Y467105D01*
X-1059434Y459739D01*
X-1052321Y452373D01*
X-1044955Y448818D01*
X-1030478Y448818D01*
X-1023112Y452373D01*
X-1016000Y459739D01*
X-1012189Y467105D01*
X-941070Y499871D02*
G01*
X-944626Y488950D01*
X-951992Y481584D01*
X-962913Y478028D01*
X-966470Y478028D01*
X-977392Y481584D01*
X-984504Y488950D01*
X-988313Y499871D01*
X-988313Y503428D01*
X-984504Y514350D01*
X-977392Y521715D01*
X-966470Y525271D01*
X-962913Y525271D01*
X-951992Y521715D01*
X-944626Y514350D01*
X-941070Y499871D01*
X-941070Y481584D01*
X-944626Y463295D01*
X-951992Y452373D01*
X-962913Y448818D01*
X-970026Y448818D01*
X-980947Y452373D01*
X-984504Y459739D01*
X388315Y-35813D02*
G01*
X388315Y-112268D01*
X388315Y-35813D02*
G01*
X421081Y-35813D01*
X432003Y-39370D01*
X435559Y-43179D01*
X439115Y-50292D01*
X439115Y-57657D01*
X435559Y-65023D01*
X432003Y-68579D01*
X421081Y-72136D01*
X388315Y-72136D01*
X413715Y-72136D02*
G01*
X439115Y-112268D01*
X499567Y-35813D02*
G01*
X463245Y-86868D01*
X517855Y-86868D01*
X499567Y-35813D02*
G01*
X499567Y-112268D01*
X-1968500Y365252D02*
G01*
X-1968500Y307339D01*
X-1964689Y295655D01*
X-1956815Y287781D01*
X-1945386Y283971D01*
X-1937512Y283971D01*
X-1926081Y287781D01*
X-1918207Y295655D01*
X-1914397Y307339D01*
X-1914397Y365252D01*
X-1888997Y349757D02*
G01*
X-1881123Y353568D01*
X-1869694Y365252D01*
X-1869694Y283971D01*
X911738Y-3065D02*
G01*
X911738Y-79265D01*
X911738Y-3065D02*
G01*
X944504Y-3065D01*
X955426Y-6621D01*
X958982Y-10177D01*
X962538Y-17543D01*
X962538Y-24655D01*
X958982Y-32021D01*
X955426Y-35577D01*
X944504Y-39387D01*
X911738Y-39387D01*
X937138Y-39387D02*
G01*
X962538Y-79265D01*
X1004702Y-3065D02*
G01*
X993780Y-6621D01*
X990224Y-13987D01*
X990224Y-21099D01*
X993780Y-28465D01*
X1001146Y-32021D01*
X1015624Y-35577D01*
X1026546Y-39387D01*
X1033912Y-46499D01*
X1037468Y-53865D01*
X1037468Y-64787D01*
X1033912Y-72153D01*
X1030356Y-75709D01*
X1019434Y-79265D01*
X1004702Y-79265D01*
X993780Y-75709D01*
X990224Y-72153D01*
X986668Y-64787D01*
X986668Y-53865D01*
X990224Y-46499D01*
X997590Y-39387D01*
X1008512Y-35577D01*
X1022990Y-32021D01*
X1030356Y-28465D01*
X1033912Y-21099D01*
X1033912Y-13987D01*
X1030356Y-6621D01*
X1019434Y-3065D01*
X1004702Y-3065D01*
G36*
X1609598Y-924204D02*
G01*
X1609598Y-954227D01*
X1641348Y-954227D01*
X1641348Y-924204D01*
G37*
G36*
X1355598Y-924204D02*
G01*
X1355598Y-954684D01*
X1388618Y-954227D01*
X1388618Y-924204D01*
G37*
G36*
X-208889Y2184654D02*
G01*
X-208889Y392531D01*
X1352753Y392531D01*
X1352753Y2184654D01*
G37*
D15*
X1367467Y-497489D02*
G01*
X1372570Y-497489D01*
X1372326Y-497481D02*
G01*
X1381211Y-497481D01*
X1363601Y-924212D02*
G01*
X1362933Y-498817D01*
X1616941Y-498817D02*
G01*
X1622041Y-498817D01*
X1623377Y-498149D02*
G01*
X1632381Y-498149D01*
D13*
X1633717Y-924212D02*
G01*
X1632379Y-500153D01*
D16*
X1499115Y-637095D02*
G01*
X1499115Y-764095D01*
X1461015Y-662487D02*
G01*
X1499115Y-738687D01*
X1499115Y-738687D02*
G01*
X1537215Y-738687D01*
X1537215Y-662487D02*
G01*
X1499115Y-738687D01*
X1499115Y-662490D02*
G01*
X1537215Y-662487D01*
X1499115Y-738687D02*
G01*
X1461015Y-738687D01*
X1499115Y-662490D02*
G01*
X1461015Y-662487D01*
D13*
X1363601Y-780211D02*
G01*
X1633837Y-780214D01*
D17*
X2066607Y43395D02*
G01*
X2066607Y105399D01*
X2066607Y7391D02*
G01*
X2066607Y-54599D01*
X1946602Y7391D02*
G01*
X1946602Y-54599D01*
X1966602Y-69608D02*
G01*
X2046599Y-69608D01*
X1946602Y43395D02*
G01*
X1946602Y105399D01*
X1966602Y120395D02*
G01*
X2046599Y120395D01*
X1961611Y-69608D02*
G01*
X1966602Y-69608D01*
X2051598Y-69608D02*
G01*
X2046599Y-69608D01*
X1961598Y120395D02*
G01*
X1966602Y120395D01*
X2051611Y120395D02*
G01*
X2046599Y120395D01*
X1679892Y-1427695D02*
G01*
X1679892Y-1489699D01*
X1679892Y-1391691D02*
G01*
X1679892Y-1329700D01*
X1799897Y-1391691D02*
G01*
X1799897Y-1329700D01*
X1779897Y-1314691D02*
G01*
X1699900Y-1314691D01*
X1799897Y-1427695D02*
G01*
X1799897Y-1489699D01*
X1779897Y-1504695D02*
G01*
X1699900Y-1504695D01*
X1784888Y-1314691D02*
G01*
X1779897Y-1314691D01*
X1694901Y-1314691D02*
G01*
X1699900Y-1314691D01*
X1784901Y-1504695D02*
G01*
X1779897Y-1504695D01*
X1694888Y-1504695D02*
G01*
X1699900Y-1504695D01*
D18*
X-1819478Y-1428699D02*
G01*
X-1899480Y-1428699D01*
X-1930460Y-1317718D02*
G01*
X-1930460Y-1397718D01*
X-1819478Y-1286736D02*
G01*
X-1899480Y-1286736D01*
X-1761888Y-1429283D02*
G01*
X-1681894Y-1429283D01*
X-1761888Y-1287320D02*
G01*
X-1681894Y-1287320D01*
X-1650911Y-1318300D02*
G01*
X-1650911Y-1398303D01*
D17*
X123398Y-24323D02*
G01*
X8397Y-24323D01*
X8397Y-24312D02*
G01*
X8397Y123680D01*
X123398Y125689D02*
G01*
X8397Y125689D01*
X161399Y125920D02*
G01*
X266410Y125920D01*
X296405Y85912D02*
G01*
X296405Y95915D01*
X266410Y125920D01*
X296405Y15918D02*
G01*
X296405Y85912D01*
X296405Y15918D02*
G01*
X296405Y5902D01*
X266410Y-24091D01*
X161399Y-24091D02*
G01*
X266410Y-24091D01*
D19*
X144779Y91439D02*
G01*
X144779Y12700D01*
X144779Y51595D02*
G01*
X162316Y51595D01*
D17*
X1337101Y125923D02*
G01*
X1452102Y125923D01*
X1452102Y125912D02*
G01*
X1452102Y-22080D01*
X1337101Y-24089D02*
G01*
X1452102Y-24089D01*
X1299100Y-24320D02*
G01*
X1194089Y-24320D01*
X1164094Y15687D02*
G01*
X1164094Y5684D01*
X1194089Y-24320D01*
X1164094Y85681D02*
G01*
X1164094Y15687D01*
X1164094Y85681D02*
G01*
X1164094Y95697D01*
X1194089Y125691D01*
X1299100Y125691D02*
G01*
X1194089Y125691D01*
D19*
X1315720Y10160D02*
G01*
X1315720Y88900D01*
X1315720Y50004D02*
G01*
X1298183Y50004D01*
D17*
X694898Y-24323D02*
G01*
X579897Y-24323D01*
X579897Y-24312D02*
G01*
X579897Y123680D01*
X694898Y125689D02*
G01*
X579897Y125689D01*
X732899Y125920D02*
G01*
X837910Y125920D01*
X867905Y85912D02*
G01*
X867905Y95915D01*
X837910Y125920D01*
X867905Y15918D02*
G01*
X867905Y85912D01*
X867905Y15918D02*
G01*
X867905Y5902D01*
X837910Y-24091D01*
X732899Y-24091D02*
G01*
X837910Y-24091D01*
D19*
X716279Y91439D02*
G01*
X716279Y12700D01*
X716279Y51595D02*
G01*
X733816Y51595D01*
D18*
X1132880Y-1809790D02*
G01*
X1117506Y-1809790D01*
X1117506Y-1774286D01*
X1259880Y-1809790D02*
G01*
X1229111Y-1809790D01*
X1386880Y-1809790D02*
G01*
X1356111Y-1809790D01*
X1513880Y-1809790D02*
G01*
X1483111Y-1809790D01*
X1625506Y-1774286D02*
G01*
X1625495Y-1774286D01*
X1625495Y-1809790D01*
X1610111Y-1809790D01*
X1128389Y-1229791D02*
G01*
X1117506Y-1229791D01*
X1117506Y-1266286D01*
X1258389Y-1229791D02*
G01*
X1234617Y-1229791D01*
X1388389Y-1229791D02*
G01*
X1354617Y-1229791D01*
X1508389Y-1229791D02*
G01*
X1484617Y-1229791D01*
X1625506Y-1266286D02*
G01*
X1625495Y-1266286D01*
X1625495Y-1229791D01*
X1614617Y-1229791D01*
X1117506Y-1774286D02*
G01*
X1117506Y-1266286D01*
X1625506Y-1774286D02*
G01*
X1625506Y-1266286D01*
X1064016Y-1339580D02*
G01*
X1079390Y-1339580D01*
X1079390Y-1375084D01*
X937016Y-1339580D02*
G01*
X967785Y-1339580D01*
X810016Y-1339580D02*
G01*
X840785Y-1339580D01*
X683016Y-1339580D02*
G01*
X713785Y-1339580D01*
X571390Y-1375084D02*
G01*
X571400Y-1375084D01*
X571400Y-1339580D01*
X586785Y-1339580D01*
X1068506Y-1919579D02*
G01*
X1079390Y-1919579D01*
X1079390Y-1883084D01*
X938507Y-1919579D02*
G01*
X962279Y-1919579D01*
X808507Y-1919579D02*
G01*
X842279Y-1919579D01*
X688507Y-1919579D02*
G01*
X712279Y-1919579D01*
X571390Y-1883084D02*
G01*
X571400Y-1883084D01*
X571400Y-1919579D01*
X582279Y-1919579D01*
X1079390Y-1375084D02*
G01*
X1079390Y-1883084D01*
X571390Y-1375084D02*
G01*
X571390Y-1883084D01*
X-505419Y-1809790D02*
G01*
X-520793Y-1809790D01*
X-520793Y-1774286D01*
X-378419Y-1809790D02*
G01*
X-409188Y-1809790D01*
X-251419Y-1809790D02*
G01*
X-282188Y-1809790D01*
X-124419Y-1809790D02*
G01*
X-155188Y-1809790D01*
X-12793Y-1774286D02*
G01*
X-12804Y-1774286D01*
X-12804Y-1809790D01*
X-28188Y-1809790D01*
X-509910Y-1229791D02*
G01*
X-520793Y-1229791D01*
X-520793Y-1266286D01*
X-379910Y-1229791D02*
G01*
X-403682Y-1229791D01*
X-249910Y-1229791D02*
G01*
X-283682Y-1229791D01*
X-129910Y-1229791D02*
G01*
X-153682Y-1229791D01*
X-12793Y-1266286D02*
G01*
X-12804Y-1266286D01*
X-12804Y-1229791D01*
X-23682Y-1229791D01*
X-520793Y-1774286D02*
G01*
X-520793Y-1266286D01*
X-12793Y-1774286D02*
G01*
X-12793Y-1266286D01*
X517916Y-1339580D02*
G01*
X533290Y-1339580D01*
X533290Y-1375084D01*
X390916Y-1339580D02*
G01*
X421685Y-1339580D01*
X263916Y-1339580D02*
G01*
X294685Y-1339580D01*
X136916Y-1339580D02*
G01*
X167685Y-1339580D01*
X25290Y-1375084D02*
G01*
X25300Y-1375084D01*
X25300Y-1339580D01*
X40685Y-1339580D01*
X522406Y-1919579D02*
G01*
X533290Y-1919579D01*
X533290Y-1883084D01*
X392407Y-1919579D02*
G01*
X416179Y-1919579D01*
X262407Y-1919579D02*
G01*
X296179Y-1919579D01*
X142407Y-1919579D02*
G01*
X166179Y-1919579D01*
X25290Y-1883084D02*
G01*
X25300Y-1883084D01*
X25300Y-1919579D01*
X36179Y-1919579D01*
X533290Y-1375084D02*
G01*
X533290Y-1883084D01*
X25290Y-1375084D02*
G01*
X25290Y-1883084D01*
X-1051519Y-1809790D02*
G01*
X-1066893Y-1809790D01*
X-1066893Y-1774286D01*
X-924519Y-1809790D02*
G01*
X-955288Y-1809790D01*
X-797519Y-1809790D02*
G01*
X-828288Y-1809790D01*
X-670519Y-1809790D02*
G01*
X-701288Y-1809790D01*
X-558893Y-1774286D02*
G01*
X-558904Y-1774286D01*
X-558904Y-1809790D01*
X-574288Y-1809790D01*
X-1056010Y-1229791D02*
G01*
X-1066893Y-1229791D01*
X-1066893Y-1266286D01*
X-926010Y-1229791D02*
G01*
X-949782Y-1229791D01*
X-796010Y-1229791D02*
G01*
X-829782Y-1229791D01*
X-676010Y-1229791D02*
G01*
X-699782Y-1229791D01*
X-558893Y-1266286D02*
G01*
X-558904Y-1266286D01*
X-558904Y-1229791D01*
X-569782Y-1229791D01*
X-1066893Y-1774286D02*
G01*
X-1066893Y-1266286D01*
X-558893Y-1774286D02*
G01*
X-558893Y-1266286D01*
X-1120383Y-1339580D02*
G01*
X-1105009Y-1339580D01*
X-1105009Y-1375084D01*
X-1247383Y-1339580D02*
G01*
X-1216614Y-1339580D01*
X-1374383Y-1339580D02*
G01*
X-1343614Y-1339580D01*
X-1501383Y-1339580D02*
G01*
X-1470614Y-1339580D01*
X-1613009Y-1375084D02*
G01*
X-1612999Y-1375084D01*
X-1612999Y-1339580D01*
X-1597614Y-1339580D01*
X-1115893Y-1919579D02*
G01*
X-1105009Y-1919579D01*
X-1105009Y-1883084D01*
X-1245892Y-1919579D02*
G01*
X-1222120Y-1919579D01*
X-1375892Y-1919579D02*
G01*
X-1342120Y-1919579D01*
X-1495892Y-1919579D02*
G01*
X-1472120Y-1919579D01*
X-1613009Y-1883084D02*
G01*
X-1612999Y-1883084D01*
X-1612999Y-1919579D01*
X-1602120Y-1919579D01*
X-1105009Y-1375084D02*
G01*
X-1105009Y-1883084D01*
X-1613009Y-1375084D02*
G01*
X-1613009Y-1883084D01*
X686188Y-1052802D02*
G01*
X686188Y-1242804D01*
X1066182Y-1052802D02*
G01*
X1066182Y-1242804D01*
X686188Y-572803D02*
G01*
X686188Y-382800D01*
X1066182Y-572803D02*
G01*
X1066182Y-382800D01*
X686188Y-1242804D02*
G01*
X1066182Y-1242801D01*
X686188Y-382800D02*
G01*
X1066182Y-382803D01*
X228988Y-1052802D02*
G01*
X228988Y-1242804D01*
X608982Y-1052802D02*
G01*
X608982Y-1242804D01*
X228988Y-572803D02*
G01*
X228988Y-382800D01*
X608982Y-572803D02*
G01*
X608982Y-382800D01*
X228988Y-1242804D02*
G01*
X608982Y-1242801D01*
X228988Y-382800D02*
G01*
X608982Y-382803D01*
X-1322212Y-1256797D02*
G01*
X-1132210Y-1256797D01*
X-1322212Y-876802D02*
G01*
X-1132210Y-876802D01*
X-1802211Y-1256797D02*
G01*
X-1992213Y-1256797D01*
X-1802211Y-876802D02*
G01*
X-1992213Y-876802D01*
X-1132210Y-1256797D02*
G01*
X-1132212Y-876802D01*
X-1992213Y-1256797D02*
G01*
X-1992210Y-876802D01*
X-1091074Y1000683D02*
G01*
X-1271076Y1000683D01*
X-1091074Y1310685D02*
G01*
X-1271076Y1310685D01*
X1923902Y-1448498D02*
G01*
X2063899Y-1448498D01*
X1923902Y-1218496D02*
G01*
X2063899Y-1218496D01*
X1923902Y-1448498D02*
G01*
X1923902Y-1439308D01*
X1923902Y-1357693D02*
G01*
X1923902Y-1309306D01*
X1923902Y-1227691D02*
G01*
X1923902Y-1218496D01*
X2063899Y-1448498D02*
G01*
X2063899Y-1439311D01*
X2063899Y-1227688D02*
G01*
X2063899Y-1218496D01*
X-1222667Y1860600D02*
G01*
X-1302669Y1860600D01*
X-1333649Y1971581D02*
G01*
X-1333649Y1891581D01*
X-1222667Y2002563D02*
G01*
X-1302669Y2002563D01*
X-1165077Y1860016D02*
G01*
X-1085082Y1860016D01*
X-1165077Y2001979D02*
G01*
X-1085082Y2001979D01*
X-1054100Y1970999D02*
G01*
X-1054100Y1890996D01*
X-1222578Y2013000D02*
G01*
X-1302580Y2013000D01*
X-1333560Y2123981D02*
G01*
X-1333560Y2043981D01*
X-1222578Y2154963D02*
G01*
X-1302580Y2154963D01*
X-1164988Y2012416D02*
G01*
X-1084994Y2012416D01*
X-1164988Y2154379D02*
G01*
X-1084994Y2154379D01*
X-1054011Y2123399D02*
G01*
X-1054011Y2043396D01*
D17*
X1787202Y-69588D02*
G01*
X1667197Y-69588D01*
X1787202Y7411D02*
G01*
X1787202Y-69588D01*
X1787202Y120413D02*
G01*
X1667197Y120413D01*
X1787202Y43413D02*
G01*
X1787202Y120413D01*
X1667197Y43413D02*
G01*
X1667197Y120413D01*
X1667197Y7411D02*
G01*
X1667197Y-69588D01*
D18*
X-669297Y129796D02*
G01*
X-829299Y129796D01*
X-669297Y479803D02*
G01*
X-829302Y479800D01*
X-853300Y254800D02*
G01*
X-853300Y149801D01*
X-645299Y254800D02*
G01*
X-645299Y149801D01*
X-853300Y354799D02*
G01*
X-853300Y459798D01*
X-645299Y354799D02*
G01*
X-645299Y459798D01*
X-667306Y479803D02*
G01*
X-669297Y479803D01*
X-665304Y479803D02*
G01*
X-669297Y479803D01*
X-833297Y479800D02*
G01*
X-829302Y479800D01*
X-665304Y129796D02*
G01*
X-669297Y129796D01*
X-833295Y129796D02*
G01*
X-829299Y129796D01*
X-111150Y2320366D02*
G01*
X-111150Y2672689D01*
X123545Y2672689D01*
X123545Y2437764D01*
X356615Y2437764D01*
X356615Y2677388D01*
X583387Y2677388D01*
X583387Y2439238D01*
X817143Y2439238D01*
X817143Y2677388D01*
X1252931Y2677388D01*
X1252931Y2239467D01*
X1038923Y2670530D02*
G01*
X1038923Y2244089D01*
X-327660Y2830829D02*
G01*
X-327660Y2154681D01*
X-190500Y2142489D02*
G01*
X1333500Y2142489D01*
X-327660Y357378D02*
G01*
X-327660Y280670D01*
X1470660Y2830829D02*
G01*
X1470660Y2154681D01*
X1470660Y357378D02*
G01*
X1470660Y280670D01*
X-327660Y280670D02*
G01*
X-70612Y280670D01*
X1218692Y280670D02*
G01*
X1470660Y280670D01*
X-327660Y2824909D02*
G01*
X1470660Y2824909D01*
D17*
X1647502Y-69588D02*
G01*
X1527497Y-69588D01*
X1647502Y7411D02*
G01*
X1647502Y-69588D01*
X1647502Y120413D02*
G01*
X1527497Y120413D01*
X1647502Y43413D02*
G01*
X1647502Y120413D01*
X1527497Y43413D02*
G01*
X1527497Y120413D01*
X1527497Y7411D02*
G01*
X1527497Y-69588D01*
X-66992Y-7404D02*
G01*
X-66992Y54599D01*
X-66992Y-43408D02*
G01*
X-66992Y-105399D01*
X-186997Y-43408D02*
G01*
X-186997Y-105399D01*
X-166997Y-120408D02*
G01*
X-87000Y-120408D01*
X-186997Y-7404D02*
G01*
X-186997Y54599D01*
X-166997Y69595D02*
G01*
X-87000Y69595D01*
X-171988Y-120408D02*
G01*
X-166997Y-120408D01*
X-82001Y-120408D02*
G01*
X-87000Y-120408D01*
X-172001Y69595D02*
G01*
X-166997Y69595D01*
X-81988Y69595D02*
G01*
X-87000Y69595D01*
D18*
X-1292202Y1370197D02*
G01*
X-892200Y1370200D01*
X-1292202Y1830202D02*
G01*
X-892200Y1830199D01*
X-618573Y-1127503D02*
G01*
X-778576Y-1127503D01*
X-618573Y-777496D02*
G01*
X-778578Y-777499D01*
X-802576Y-1002499D02*
G01*
X-802576Y-1107498D01*
X-594575Y-1002499D02*
G01*
X-594575Y-1107498D01*
X-802576Y-902500D02*
G01*
X-802576Y-797501D01*
X-594575Y-902500D02*
G01*
X-594575Y-797501D01*
X-616582Y-777496D02*
G01*
X-618573Y-777496D01*
X-614580Y-777496D02*
G01*
X-618573Y-777496D01*
X-782573Y-777499D02*
G01*
X-778578Y-777499D01*
X-614580Y-1127503D02*
G01*
X-618573Y-1127503D01*
X-782571Y-1127503D02*
G01*
X-778576Y-1127503D01*
D17*
X-1584007Y1290104D02*
G01*
X-1584007Y1228100D01*
X-1584007Y1326108D02*
G01*
X-1584007Y1388099D01*
X-1464002Y1326108D02*
G01*
X-1464002Y1388099D01*
X-1484002Y1403108D02*
G01*
X-1563999Y1403108D01*
X-1464002Y1290104D02*
G01*
X-1464002Y1228100D01*
X-1484002Y1213104D02*
G01*
X-1563999Y1213104D01*
X-1479011Y1403108D02*
G01*
X-1484002Y1403108D01*
X-1568998Y1403108D02*
G01*
X-1563999Y1403108D01*
X-1478998Y1213104D02*
G01*
X-1484002Y1213104D01*
X-1569011Y1213104D02*
G01*
X-1563999Y1213104D01*
X-1200411Y949002D02*
G01*
X-1200411Y828997D01*
X-1277411Y949002D02*
G01*
X-1200411Y949002D01*
X-1390413Y949002D02*
G01*
X-1390413Y828997D01*
X-1313413Y949002D02*
G01*
X-1390413Y949002D01*
X-1313413Y828997D02*
G01*
X-1390413Y828997D01*
X-1277411Y828997D02*
G01*
X-1200411Y828997D01*
X-1425897Y895611D02*
G01*
X-1545902Y895611D01*
X-1425897Y972611D02*
G01*
X-1425897Y895611D01*
X-1425897Y1085613D02*
G01*
X-1545902Y1085613D01*
X-1425897Y1008613D02*
G01*
X-1425897Y1085613D01*
X-1545902Y1008613D02*
G01*
X-1545902Y1085613D01*
X-1545902Y972611D02*
G01*
X-1545902Y895611D01*
D16*
X-1551939Y1793239D02*
G01*
X-1491940Y1793239D01*
X-1491940Y1790240D02*
G01*
X-1522041Y1736039D01*
X-1522041Y1736039D02*
G01*
X-1483941Y1736039D01*
X-1522041Y1736039D02*
G01*
X-1560141Y1736039D01*
D18*
X-1410886Y1982599D02*
G01*
X-1384000Y1982599D01*
X-1663999Y1982599D02*
G01*
X-1637113Y1982599D01*
D16*
X-1524000Y1711960D02*
G01*
X-1524000Y1821179D01*
D18*
X-1384000Y1522600D02*
G01*
X-1384000Y1982599D01*
D16*
X-1551939Y1793239D02*
G01*
X-1522041Y1736039D01*
D18*
X-1663700Y1689100D02*
G01*
X-1384000Y1689100D01*
X-1663700Y1524000D02*
G01*
X-1663700Y1982599D01*
X-1663700Y1524000D02*
G01*
X-1637113Y1524000D01*
X-1410886Y1524000D02*
G01*
X-1384000Y1524000D01*
D17*
X-565411Y1711002D02*
G01*
X-565411Y1590997D01*
X-642411Y1711002D02*
G01*
X-565411Y1711002D01*
X-755413Y1711002D02*
G01*
X-755413Y1590997D01*
X-678413Y1711002D02*
G01*
X-755413Y1711002D01*
X-678413Y1590997D02*
G01*
X-755413Y1590997D01*
X-642411Y1590997D02*
G01*
X-565411Y1590997D01*
X1806897Y120388D02*
G01*
X1926902Y120388D01*
X1806897Y43388D02*
G01*
X1806897Y120388D01*
X1806897Y-69613D02*
G01*
X1926902Y-69613D01*
X1806897Y7386D02*
G01*
X1806897Y-69613D01*
X1926902Y7386D02*
G01*
X1926902Y-69613D01*
X1926902Y43388D02*
G01*
X1926902Y120388D01*
X1453888Y-54297D02*
G01*
X1453888Y-174302D01*
X1376888Y-54297D02*
G01*
X1453888Y-54297D01*
X1263886Y-54297D02*
G01*
X1263886Y-174302D01*
X1340886Y-54297D02*
G01*
X1263886Y-54297D01*
X1340886Y-174302D02*
G01*
X1263886Y-174302D01*
X1376888Y-174302D02*
G01*
X1453888Y-174302D01*
X-339402Y69588D02*
G01*
X-219397Y69588D01*
X-339402Y-7411D02*
G01*
X-339402Y69588D01*
X-339402Y-120413D02*
G01*
X-219397Y-120413D01*
X-339402Y-43413D02*
G01*
X-339402Y-120413D01*
X-219397Y-43413D02*
G01*
X-219397Y-120413D01*
X-219397Y-7411D02*
G01*
X-219397Y69588D01*
D18*
X1311902Y-1102103D02*
G01*
X1151900Y-1102103D01*
X1311902Y-752096D02*
G01*
X1151897Y-752099D01*
X1127899Y-977099D02*
G01*
X1127899Y-1082098D01*
X1335900Y-977099D02*
G01*
X1335900Y-1082098D01*
X1127899Y-877100D02*
G01*
X1127899Y-772101D01*
X1335900Y-877100D02*
G01*
X1335900Y-772101D01*
X1313893Y-752096D02*
G01*
X1311902Y-752096D01*
X1315895Y-752096D02*
G01*
X1311902Y-752096D01*
X1147902Y-752099D02*
G01*
X1151897Y-752099D01*
X1315895Y-1102103D02*
G01*
X1311902Y-1102103D01*
X1147904Y-1102103D02*
G01*
X1151900Y-1102103D01*
X-85097Y-1127503D02*
G01*
X-245099Y-1127503D01*
X-85097Y-777496D02*
G01*
X-245102Y-777499D01*
X-269100Y-1002499D02*
G01*
X-269100Y-1107498D01*
X-61099Y-1002499D02*
G01*
X-61099Y-1107498D01*
X-269100Y-902500D02*
G01*
X-269100Y-797501D01*
X-61099Y-902500D02*
G01*
X-61099Y-797501D01*
X-83106Y-777496D02*
G01*
X-85097Y-777496D01*
X-81104Y-777496D02*
G01*
X-85097Y-777496D01*
X-249097Y-777499D02*
G01*
X-245102Y-777499D01*
X-81104Y-1127503D02*
G01*
X-85097Y-1127503D01*
X-249095Y-1127503D02*
G01*
X-245099Y-1127503D01*
X1311902Y-657603D02*
G01*
X1151900Y-657603D01*
X1311902Y-307596D02*
G01*
X1151897Y-307599D01*
X1127899Y-532599D02*
G01*
X1127899Y-637598D01*
X1335900Y-532599D02*
G01*
X1335900Y-637598D01*
X1127899Y-432600D02*
G01*
X1127899Y-327601D01*
X1335900Y-432600D02*
G01*
X1335900Y-327601D01*
X1313893Y-307596D02*
G01*
X1311902Y-307596D01*
X1315895Y-307596D02*
G01*
X1311902Y-307596D01*
X1147902Y-307599D02*
G01*
X1151897Y-307599D01*
X1315895Y-657603D02*
G01*
X1311902Y-657603D01*
X1147904Y-657603D02*
G01*
X1151900Y-657603D01*
X-924303Y1113797D02*
G01*
X-924303Y1273799D01*
X-574296Y1113797D02*
G01*
X-574299Y1273802D01*
X-799299Y1297800D02*
G01*
X-904298Y1297800D01*
X-799299Y1089799D02*
G01*
X-904298Y1089799D01*
X-699300Y1297800D02*
G01*
X-594301Y1297800D01*
X-699300Y1089799D02*
G01*
X-594301Y1089799D01*
X-574296Y1111806D02*
G01*
X-574296Y1113797D01*
X-574296Y1109804D02*
G01*
X-574296Y1113797D01*
X-574299Y1277797D02*
G01*
X-574299Y1273802D01*
X-924303Y1109804D02*
G01*
X-924303Y1113797D01*
X-924303Y1277795D02*
G01*
X-924303Y1273799D01*
X-696899Y1024702D02*
G01*
X-496900Y1024702D01*
X-716899Y674700D02*
G01*
X-716899Y554700D01*
X-476900Y674700D02*
G01*
X-476900Y554700D01*
X-716899Y874702D02*
G01*
X-716899Y994699D01*
X-476900Y874702D02*
G01*
X-476900Y994699D01*
X-696899Y524700D02*
G01*
X-496900Y524700D01*
X-716899Y544700D02*
G01*
X-716899Y554700D01*
X-476900Y544700D02*
G01*
X-476900Y554700D01*
X-716899Y1004702D02*
G01*
X-716899Y994699D01*
X-476900Y1004702D02*
G01*
X-476900Y994699D01*
D17*
X-617004Y2010092D02*
G01*
X-555000Y2010092D01*
X-653008Y2010092D02*
G01*
X-714999Y2010092D01*
X-653008Y2130097D02*
G01*
X-714999Y2130097D01*
X-730008Y2110097D02*
G01*
X-730008Y2030100D01*
X-617004Y2130097D02*
G01*
X-555000Y2130097D01*
X-540004Y2110097D02*
G01*
X-540004Y2030100D01*
X-730008Y2115088D02*
G01*
X-730008Y2110097D01*
X-730008Y2025101D02*
G01*
X-730008Y2030100D01*
X-540004Y2115101D02*
G01*
X-540004Y2110097D01*
X-540004Y2025088D02*
G01*
X-540004Y2030100D01*
X-2035530Y-286804D02*
G01*
X-2035530Y-224800D01*
X-2035530Y-322808D02*
G01*
X-2035530Y-384799D01*
X-2155535Y-322808D02*
G01*
X-2155535Y-384799D01*
X-2135535Y-399808D02*
G01*
X-2055538Y-399808D01*
X-2155535Y-286804D02*
G01*
X-2155535Y-224800D01*
X-2135535Y-209804D02*
G01*
X-2055538Y-209804D01*
X-2140526Y-399808D02*
G01*
X-2135535Y-399808D01*
X-2050539Y-399808D02*
G01*
X-2055538Y-399808D01*
X-2140539Y-209804D02*
G01*
X-2135535Y-209804D01*
X-2050526Y-209804D02*
G01*
X-2055538Y-209804D01*
X-678395Y1558607D02*
G01*
X-740399Y1558607D01*
X-642391Y1558607D02*
G01*
X-580400Y1558607D01*
X-642391Y1438602D02*
G01*
X-580400Y1438602D01*
X-565391Y1458602D02*
G01*
X-565391Y1538599D01*
X-678395Y1438602D02*
G01*
X-740399Y1438602D01*
X-755395Y1458602D02*
G01*
X-755395Y1538599D01*
X-565391Y1453611D02*
G01*
X-565391Y1458602D01*
X-565391Y1543598D02*
G01*
X-565391Y1538599D01*
X-755395Y1453598D02*
G01*
X-755395Y1458602D01*
X-755395Y1543611D02*
G01*
X-755395Y1538599D01*
X-617004Y1857692D02*
G01*
X-555000Y1857692D01*
X-653008Y1857692D02*
G01*
X-714999Y1857692D01*
X-653008Y1977697D02*
G01*
X-714999Y1977697D01*
X-730008Y1957697D02*
G01*
X-730008Y1877700D01*
X-617004Y1977697D02*
G01*
X-555000Y1977697D01*
X-540004Y1957697D02*
G01*
X-540004Y1877700D01*
X-730008Y1962688D02*
G01*
X-730008Y1957697D01*
X-730008Y1872701D02*
G01*
X-730008Y1877700D01*
X-540004Y1962701D02*
G01*
X-540004Y1957697D01*
X-540004Y1872688D02*
G01*
X-540004Y1877700D01*
D18*
X-326473Y-1127503D02*
G01*
X-486476Y-1127503D01*
X-326473Y-777496D02*
G01*
X-486478Y-777499D01*
X-510476Y-1002499D02*
G01*
X-510476Y-1107498D01*
X-302475Y-1002499D02*
G01*
X-302475Y-1107498D01*
X-510476Y-902500D02*
G01*
X-510476Y-797501D01*
X-302475Y-902500D02*
G01*
X-302475Y-797501D01*
X-324482Y-777496D02*
G01*
X-326473Y-777496D01*
X-322480Y-777496D02*
G01*
X-326473Y-777496D01*
X-490473Y-777499D02*
G01*
X-486478Y-777499D01*
X-322480Y-1127503D02*
G01*
X-326473Y-1127503D01*
X-490471Y-1127503D02*
G01*
X-486476Y-1127503D01*
X-395300Y-199202D02*
G01*
X-595299Y-199202D01*
X-375300Y150799D02*
G01*
X-375300Y270799D01*
X-615299Y150799D02*
G01*
X-615299Y270799D01*
X-375300Y-49202D02*
G01*
X-375300Y-169199D01*
X-615299Y-49202D02*
G01*
X-615299Y-169199D01*
X-395300Y300799D02*
G01*
X-595299Y300799D01*
X-375300Y280799D02*
G01*
X-375300Y270799D01*
X-615299Y280799D02*
G01*
X-615299Y270799D01*
X-375300Y-179202D02*
G01*
X-375300Y-169199D01*
X-615299Y-179202D02*
G01*
X-615299Y-169199D01*
D17*
X-1569542Y-783907D02*
G01*
X-1507538Y-783907D01*
X-1605546Y-783907D02*
G01*
X-1667537Y-783907D01*
X-1605546Y-663902D02*
G01*
X-1667537Y-663902D01*
X-1682546Y-683902D02*
G01*
X-1682546Y-763899D01*
X-1569542Y-663902D02*
G01*
X-1507538Y-663902D01*
X-1492542Y-683902D02*
G01*
X-1492542Y-763899D01*
X-1682546Y-678911D02*
G01*
X-1682546Y-683902D01*
X-1682546Y-768898D02*
G01*
X-1682546Y-763899D01*
X-1492542Y-678898D02*
G01*
X-1492542Y-683902D01*
X-1492542Y-768911D02*
G01*
X-1492542Y-763899D01*
X-1813052Y-651192D02*
G01*
X-1875055Y-651192D01*
X-1777047Y-651192D02*
G01*
X-1715056Y-651192D01*
X-1777047Y-771197D02*
G01*
X-1715056Y-771197D01*
X-1700047Y-751197D02*
G01*
X-1700047Y-671200D01*
X-1813052Y-771197D02*
G01*
X-1875055Y-771197D01*
X-1890052Y-751197D02*
G01*
X-1890052Y-671200D01*
X-1700047Y-756188D02*
G01*
X-1700047Y-751197D01*
X-1700047Y-666201D02*
G01*
X-1700047Y-671200D01*
X-1890052Y-756201D02*
G01*
X-1890052Y-751197D01*
X-1890052Y-666188D02*
G01*
X-1890052Y-671200D01*
X-2024595Y-638492D02*
G01*
X-2086599Y-638492D01*
X-1988591Y-638492D02*
G01*
X-1926600Y-638492D01*
X-1988591Y-758497D02*
G01*
X-1926600Y-758497D01*
X-1911591Y-738497D02*
G01*
X-1911591Y-658500D01*
X-2024595Y-758497D02*
G01*
X-2086599Y-758497D01*
X-2101595Y-738497D02*
G01*
X-2101595Y-658500D01*
X-1911591Y-743488D02*
G01*
X-1911591Y-738497D01*
X-1911591Y-653501D02*
G01*
X-1911591Y-658500D01*
X-2101595Y-743501D02*
G01*
X-2101595Y-738497D01*
X-2101595Y-653488D02*
G01*
X-2101595Y-658500D01*
X-822007Y-68795D02*
G01*
X-822007Y-130799D01*
X-822007Y-32791D02*
G01*
X-822007Y29199D01*
X-702002Y-32791D02*
G01*
X-702002Y29199D01*
X-722002Y44208D02*
G01*
X-801999Y44208D01*
X-702002Y-68795D02*
G01*
X-702002Y-130799D01*
X-722002Y-145795D02*
G01*
X-801999Y-145795D01*
X-717011Y44208D02*
G01*
X-722002Y44208D01*
X-806998Y44208D02*
G01*
X-801999Y44208D01*
X-716998Y-145795D02*
G01*
X-722002Y-145795D01*
X-807011Y-145795D02*
G01*
X-801999Y-145795D01*
X-1417104Y536892D02*
G01*
X-1355100Y536892D01*
X-1453108Y536892D02*
G01*
X-1515099Y536892D01*
X-1453108Y656897D02*
G01*
X-1515099Y656897D01*
X-1530108Y636897D02*
G01*
X-1530108Y556900D01*
X-1417104Y656897D02*
G01*
X-1355100Y656897D01*
X-1340104Y636897D02*
G01*
X-1340104Y556900D01*
X-1530108Y641888D02*
G01*
X-1530108Y636897D01*
X-1530108Y551901D02*
G01*
X-1530108Y556900D01*
X-1340104Y641901D02*
G01*
X-1340104Y636897D01*
X-1340104Y551888D02*
G01*
X-1340104Y556900D01*
X-1224495Y682307D02*
G01*
X-1286499Y682307D01*
X-1188491Y682307D02*
G01*
X-1126500Y682307D01*
X-1188491Y562302D02*
G01*
X-1126500Y562302D01*
X-1111491Y582302D02*
G01*
X-1111491Y662299D01*
X-1224495Y562302D02*
G01*
X-1286499Y562302D01*
X-1301495Y582302D02*
G01*
X-1301495Y662299D01*
X-1111491Y577311D02*
G01*
X-1111491Y582302D01*
X-1111491Y667298D02*
G01*
X-1111491Y662299D01*
X-1301495Y577298D02*
G01*
X-1301495Y582302D01*
X-1301495Y667311D02*
G01*
X-1301495Y662299D01*
X-933188Y752797D02*
G01*
X-933188Y872802D01*
X-856188Y752797D02*
G01*
X-933188Y752797D01*
X-743186Y752797D02*
G01*
X-743186Y872802D01*
X-820186Y752797D02*
G01*
X-743186Y752797D01*
X-820186Y872802D02*
G01*
X-743186Y872802D01*
X-856188Y872802D02*
G01*
X-933188Y872802D01*
D18*
X-749399Y695002D02*
G01*
X-749399Y575000D01*
X-954397Y715002D02*
G01*
X-1054399Y715002D01*
X-954397Y554997D02*
G01*
X-1054399Y554997D01*
X-874389Y715002D02*
G01*
X-774400Y715002D01*
X-874389Y554997D02*
G01*
X-774400Y554997D01*
X-1079400Y695002D02*
G01*
X-1079400Y575000D01*
X-1059400Y715002D02*
G01*
X-1054399Y715002D01*
X-1059398Y554997D02*
G01*
X-1054399Y554997D01*
X-769399Y715002D02*
G01*
X-774400Y715002D01*
X-769401Y554997D02*
G01*
X-774400Y554997D01*
D17*
X349511Y-9202D02*
G01*
X349511Y110802D01*
X426511Y-9202D02*
G01*
X349511Y-9202D01*
X539513Y-9202D02*
G01*
X539513Y110802D01*
X462513Y-9202D02*
G01*
X539513Y-9202D01*
X462513Y110802D02*
G01*
X539513Y110802D01*
X426511Y110802D02*
G01*
X349511Y110802D01*
D18*
X-989789Y-56443D02*
G01*
X-989789Y-95956D01*
X-989789Y-95956D02*
G01*
X-1428026Y-534192D01*
X-1428026Y-534192D02*
G01*
X-1467538Y-534192D01*
X-1467538Y-534192D02*
G01*
X-1905774Y-95956D01*
X-1905774Y-95956D02*
G01*
X-1905774Y-56443D01*
X-1905774Y-56443D02*
G01*
X-1467538Y381792D01*
X-1467538Y381792D02*
G01*
X-1428026Y381792D01*
X-1428026Y381792D02*
G01*
X-989789Y-56443D01*
X-859797Y-1127503D02*
G01*
X-1019799Y-1127503D01*
X-859797Y-777496D02*
G01*
X-1019802Y-777499D01*
X-1043800Y-1002499D02*
G01*
X-1043800Y-1107498D01*
X-835799Y-1002499D02*
G01*
X-835799Y-1107498D01*
X-1043800Y-902500D02*
G01*
X-1043800Y-797501D01*
X-835799Y-902500D02*
G01*
X-835799Y-797501D01*
X-857806Y-777496D02*
G01*
X-859797Y-777496D01*
X-855804Y-777496D02*
G01*
X-859797Y-777496D01*
X-1023797Y-777499D02*
G01*
X-1019802Y-777499D01*
X-855804Y-1127503D02*
G01*
X-859797Y-1127503D01*
X-1023795Y-1127503D02*
G01*
X-1019799Y-1127503D01*
D11*
X2146300Y419100D02*
G01*
X2146300Y167639D01*
X1638300Y167639D01*
X1638300Y419100D01*
X2146300Y419100D01*
X1638300Y1435100D02*
G01*
X1892300Y1435100D01*
X1892300Y419100D01*
X1638300Y419100D01*
X1638300Y609600D01*
D20*
X1638300Y1435100D02*
G01*
X1638300Y609600D01*
D18*
X-2054860Y1107439D02*
G01*
X-1755139Y1107439D01*
X-1755139Y1356360D02*
G01*
X-2054860Y1356360D01*
X-2054860Y1112520D02*
G01*
X-2054860Y1132839D01*
X-2054860Y1351279D02*
G01*
X-2054860Y1330960D01*
X-1755139Y1351279D02*
G01*
X-1755139Y1330960D01*
X-2054860Y789939D02*
G01*
X-1755139Y789939D01*
X-1755139Y1038860D02*
G01*
X-2054860Y1038860D01*
X-2054860Y795020D02*
G01*
X-2054860Y815339D01*
X-2054860Y1033779D02*
G01*
X-2054860Y1013460D01*
X-1755139Y1033779D02*
G01*
X-1755139Y1013460D01*
D11*
X2146300Y419100D02*
G01*
X1892300Y419100D01*
X1892300Y1435100D01*
X2146300Y1435100D01*
X2146300Y1244600D01*
D20*
X2146300Y419100D02*
G01*
X2146300Y1244600D01*
D17*
X1110988Y148902D02*
G01*
X1110988Y28897D01*
X1033988Y148902D02*
G01*
X1110988Y148902D01*
X920986Y148902D02*
G01*
X920986Y28897D01*
X997986Y148902D02*
G01*
X920986Y148902D01*
X997986Y28897D02*
G01*
X920986Y28897D01*
X1033988Y28897D02*
G01*
X1110988Y28897D01*
D18*
X-797560Y1869439D02*
G01*
X-955039Y1869439D01*
X-955039Y2067560D02*
G01*
X-797560Y2067560D01*
D11*
X2057400Y-1066800D02*
G01*
X1803400Y-1066800D01*
X1803400Y-812800D01*
X2057400Y-812800D01*
X2057400Y-1003300D01*
D20*
X2057400Y-1066800D02*
G01*
X2057400Y-1003300D01*
D11*
X2057400Y-558800D02*
G01*
X1803400Y-558800D01*
X1803400Y-304800D01*
X2057400Y-304800D01*
X2057400Y-495300D01*
D20*
X2057400Y-558800D02*
G01*
X2057400Y-495300D01*
D17*
G75*
G01*
X1946603Y-54600D02*
G03*
X1961612Y-69609I15009J0D01*
G75*
G01*
X2066608Y-54600D02*
G02*
X2051599Y-69609I-15009J0D01*
G75*
G01*
X1946603Y105400D02*
G02*
X1961599Y120396I14996J0D01*
G75*
G01*
X2066608Y105400D02*
G03*
X2051611Y120396I-14997J0D01*
G75*
G01*
X1799897Y-1329700D02*
G03*
X1784888Y-1314691I-15009J0D01*
G75*
G01*
X1679892Y-1329700D02*
G02*
X1694901Y-1314691I15009J0D01*
G75*
G01*
X1799897Y-1489700D02*
G02*
X1784901Y-1504696I-14996J0D01*
G75*
G01*
X1679892Y-1489700D02*
G03*
X1694889Y-1504696I14997J0D01*
D18*
G75*
G01*
X-1930464Y-1317719D02*
G02*
X-1899481Y-1286736I30983J0D01*
G75*
G01*
X-1899481Y-1428702D02*
G02*
X-1930464Y-1397719I0J30983D01*
G75*
G01*
X-1681894Y-1287318D02*
G02*
X-1650911Y-1318301I0J-30983D01*
G75*
G01*
X-1650911Y-1398300D02*
G02*
X-1681894Y-1429283I-30983J0D01*
G75*
G01*
X-1333652Y1971581D02*
G02*
X-1302669Y2002564I30983J0D01*
G75*
G01*
X-1302669Y1860598D02*
G02*
X-1333652Y1891581I0J30983D01*
G75*
G01*
X-1085083Y2001982D02*
G02*
X-1054100Y1970999I0J-30983D01*
G75*
G01*
X-1054100Y1891000D02*
G02*
X-1085083Y1860017I-30983J0D01*
G75*
G01*
X-1333564Y2123981D02*
G02*
X-1302581Y2154964I30983J0D01*
G75*
G01*
X-1302581Y2012998D02*
G02*
X-1333564Y2043981I0J30983D01*
G75*
G01*
X-1084994Y2154382D02*
G02*
X-1054011Y2123399I0J-30983D01*
G75*
G01*
X-1054011Y2043400D02*
G02*
X-1084994Y2012417I-30983J0D01*
G75*
G01*
X-645300Y459798D02*
G03*
X-665305Y479803I-20005J0D01*
G75*
G01*
X-853300Y459798D02*
G02*
X-833298Y479801I20002J0D01*
G75*
G01*
X-645300Y149802D02*
G02*
X-665305Y129797I-20005J0D01*
G75*
G01*
X-853300Y149802D02*
G03*
X-833295Y129797I20005J0D01*
D17*
G75*
G01*
X-186997Y-105400D02*
G03*
X-171988Y-120409I15009J0D01*
G75*
G01*
X-66992Y-105400D02*
G02*
X-82001Y-120409I-15009J0D01*
G75*
G01*
X-186997Y54600D02*
G02*
X-172001Y69596I14996J0D01*
G75*
G01*
X-66992Y54600D02*
G03*
X-81989Y69596I-14997J0D01*
D18*
G75*
G01*
X-594576Y-797502D02*
G03*
X-614581Y-777497I-20005J0D01*
G75*
G01*
X-802576Y-797502D02*
G02*
X-782574Y-777499I20002J0D01*
G75*
G01*
X-594576Y-1107498D02*
G02*
X-614581Y-1127503I-20005J0D01*
G75*
G01*
X-802576Y-1107498D02*
G03*
X-782571Y-1127503I20005J0D01*
D17*
G75*
G01*
X-1464003Y1388100D02*
G03*
X-1479012Y1403109I-15009J0D01*
G75*
G01*
X-1584008Y1388100D02*
G02*
X-1568999Y1403109I15009J0D01*
G75*
G01*
X-1464003Y1228100D02*
G02*
X-1478999Y1213104I-14996J0D01*
G75*
G01*
X-1584008Y1228100D02*
G03*
X-1569011Y1213104I14997J0D01*
D18*
G75*
G01*
X1335900Y-772102D02*
G03*
X1315895Y-752097I-20005J0D01*
G75*
G01*
X1127900Y-772102D02*
G02*
X1147902Y-752099I20002J0D01*
G75*
G01*
X1335900Y-1082098D02*
G02*
X1315895Y-1102103I-20005J0D01*
G75*
G01*
X1127900Y-1082098D02*
G03*
X1147905Y-1102103I20005J0D01*
G75*
G01*
X-61100Y-797502D02*
G03*
X-81105Y-777497I-20005J0D01*
G75*
G01*
X-269100Y-797502D02*
G02*
X-249098Y-777499I20002J0D01*
G75*
G01*
X-61100Y-1107498D02*
G02*
X-81105Y-1127503I-20005J0D01*
G75*
G01*
X-269100Y-1107498D02*
G03*
X-249095Y-1127503I20005J0D01*
G75*
G01*
X1335900Y-327602D02*
G03*
X1315895Y-307597I-20005J0D01*
G75*
G01*
X1127900Y-327602D02*
G02*
X1147902Y-307599I20002J0D01*
G75*
G01*
X1335900Y-637598D02*
G02*
X1315895Y-657603I-20005J0D01*
G75*
G01*
X1127900Y-637598D02*
G03*
X1147905Y-657603I20005J0D01*
G75*
G01*
X-594302Y1089800D02*
G03*
X-574297Y1109805I0J20005D01*
G75*
G01*
X-594302Y1297800D02*
G02*
X-574299Y1277798I0J-20002D01*
G75*
G01*
X-904298Y1089800D02*
G02*
X-924303Y1109805I0J20005D01*
G75*
G01*
X-904298Y1297800D02*
G03*
X-924303Y1277795I0J-20005D01*
G75*
G01*
X-696900Y524700D02*
G02*
X-716900Y544700I0J20000D01*
G75*
G01*
X-496900Y524700D02*
G03*
X-476900Y544700I0J20000D01*
G75*
G01*
X-696900Y1024702D02*
G03*
X-716900Y1004702I0J-20000D01*
G75*
G01*
X-496900Y1024702D02*
G02*
X-476900Y1004702I0J-20000D01*
D17*
G75*
G01*
X-715000Y2130097D02*
G03*
X-730009Y2115088I0J-15009D01*
G75*
G01*
X-715000Y2010092D02*
G02*
X-730009Y2025101I0J15009D01*
G75*
G01*
X-555000Y2130097D02*
G02*
X-540004Y2115101I0J-14996D01*
G75*
G01*
X-555000Y2010092D02*
G03*
X-540004Y2025089I0J14997D01*
G75*
G01*
X-2155535Y-384800D02*
G03*
X-2140527Y-399809I15008J0D01*
G75*
G01*
X-2035531Y-384800D02*
G02*
X-2050539Y-399809I-15008J0D01*
G75*
G01*
X-2155535Y-224800D02*
G02*
X-2140539Y-209804I14996J0D01*
G75*
G01*
X-2035531Y-224800D02*
G03*
X-2050527Y-209804I-14996J0D01*
G75*
G01*
X-580400Y1438603D02*
G03*
X-565391Y1453612I0J15009D01*
G75*
G01*
X-580400Y1558608D02*
G02*
X-565391Y1543599I0J-15009D01*
G75*
G01*
X-740400Y1438603D02*
G02*
X-755396Y1453599I0J14996D01*
G75*
G01*
X-740400Y1558608D02*
G03*
X-755396Y1543611I0J-14997D01*
G75*
G01*
X-715000Y1977697D02*
G03*
X-730009Y1962688I0J-15009D01*
G75*
G01*
X-715000Y1857692D02*
G02*
X-730009Y1872701I0J15009D01*
G75*
G01*
X-555000Y1977697D02*
G02*
X-540004Y1962701I0J-14996D01*
G75*
G01*
X-555000Y1857692D02*
G03*
X-540004Y1872689I0J14997D01*
D18*
G75*
G01*
X-302476Y-797502D02*
G03*
X-322481Y-777497I-20005J0D01*
G75*
G01*
X-510476Y-797502D02*
G02*
X-490474Y-777499I20002J0D01*
G75*
G01*
X-302476Y-1107498D02*
G02*
X-322481Y-1127503I-20005J0D01*
G75*
G01*
X-510476Y-1107498D02*
G03*
X-490471Y-1127503I20005J0D01*
G75*
G01*
X-395300Y300800D02*
G02*
X-375300Y280800I0J-20000D01*
G75*
G01*
X-595300Y300800D02*
G03*
X-615300Y280800I0J-20000D01*
G75*
G01*
X-395300Y-199202D02*
G03*
X-375300Y-179202I0J20000D01*
G75*
G01*
X-595300Y-199202D02*
G02*
X-615300Y-179202I0J20000D01*
D17*
G75*
G01*
X-1667538Y-663903D02*
G03*
X-1682547Y-678912I0J-15009D01*
G75*
G01*
X-1667538Y-783908D02*
G02*
X-1682547Y-768899I0J15009D01*
G75*
G01*
X-1507538Y-663903D02*
G02*
X-1492542Y-678899I0J-14996D01*
G75*
G01*
X-1507538Y-783908D02*
G03*
X-1492542Y-768911I0J14997D01*
G75*
G01*
X-1715056Y-771197D02*
G03*
X-1700047Y-756188I0J15009D01*
G75*
G01*
X-1715056Y-651192D02*
G02*
X-1700047Y-666201I0J-15009D01*
G75*
G01*
X-1875056Y-771197D02*
G02*
X-1890052Y-756201I0J14996D01*
G75*
G01*
X-1875056Y-651192D02*
G03*
X-1890052Y-666189I0J-14997D01*
G75*
G01*
X-1926600Y-758497D02*
G03*
X-1911591Y-743488I0J15009D01*
G75*
G01*
X-1926600Y-638492D02*
G02*
X-1911591Y-653501I0J-15009D01*
G75*
G01*
X-2086600Y-758497D02*
G02*
X-2101596Y-743501I0J14996D01*
G75*
G01*
X-2086600Y-638492D02*
G03*
X-2101596Y-653489I0J-14997D01*
G75*
G01*
X-702003Y29200D02*
G03*
X-717012Y44209I-15009J0D01*
G75*
G01*
X-822008Y29200D02*
G02*
X-806999Y44209I15009J0D01*
G75*
G01*
X-702003Y-130800D02*
G02*
X-716999Y-145796I-14996J0D01*
G75*
G01*
X-822008Y-130800D02*
G03*
X-807011Y-145796I14997J0D01*
G75*
G01*
X-1515100Y656897D02*
G03*
X-1530109Y641888I0J-15009D01*
G75*
G01*
X-1515100Y536892D02*
G02*
X-1530109Y551901I0J15009D01*
G75*
G01*
X-1355100Y656897D02*
G02*
X-1340104Y641901I0J-14996D01*
G75*
G01*
X-1355100Y536892D02*
G03*
X-1340104Y551889I0J14997D01*
G75*
G01*
X-1126500Y562303D02*
G03*
X-1111491Y577312I0J15009D01*
G75*
G01*
X-1126500Y682308D02*
G02*
X-1111491Y667299I0J-15009D01*
G75*
G01*
X-1286500Y562303D02*
G02*
X-1301496Y577299I0J14996D01*
G75*
G01*
X-1286500Y682308D02*
G03*
X-1301496Y667311I0J-14997D01*
D18*
G75*
G01*
X-1079401Y695002D02*
G02*
X-1059401Y715002I20000J0D01*
G75*
G01*
X-1079401Y575000D02*
G03*
X-1059398Y554998I20003J0D01*
G75*
G01*
X-749399Y695002D02*
G03*
X-769399Y715002I-20000J0D01*
G75*
G01*
X-749399Y575000D02*
G02*
X-769402Y554998I-20003J0D01*
G75*
G01*
X-835800Y-797502D02*
G03*
X-855805Y-777497I-20005J0D01*
G75*
G01*
X-1043800Y-797502D02*
G02*
X-1023798Y-777499I20002J0D01*
G75*
G01*
X-835800Y-1107498D02*
G02*
X-855805Y-1127503I-20005J0D01*
G75*
G01*
X-1043800Y-1107498D02*
G03*
X-1023795Y-1127503I20005J0D01*
G75*
G01*
X-796300Y2068500D02*
G02*
X-776300Y2038500I-4999J-24999D01*
G75*
G01*
X-976300Y2038500D02*
G02*
X-956300Y2068500I24999J5001D01*
G75*
G01*
X-976300Y1898500D02*
G03*
X-956300Y1868500I24999J-5001D01*
G75*
G01*
X-796300Y1868500D02*
G03*
X-776300Y1898500I-4999J24999D01*
G75*
G01
X-1833169Y914400D02*
G03X-1833169Y914400I-71831J0D01*
G75*
G01
X-1833169Y1231900D02*
G03X-1833169Y1231900I-71831J0D01*
D10*
G75*
G01
X1134999Y-1852803D02*
G03X1134999Y-1852803I-12497J0D01*
G75*
G01
X1086891Y-1296568D02*
G03X1086891Y-1296568I-12497J0D01*
G75*
G01
X-503301Y-1852803D02*
G03X-503301Y-1852803I-12497J0D01*
G75*
G01
X540791Y-1296568D02*
G03X540791Y-1296568I-12497J0D01*
G75*
G01
X-1049401Y-1852803D02*
G03X-1049401Y-1852803I-12497J0D01*
G75*
G01
X-1097509Y-1296568D02*
G03X-1097509Y-1296568I-12497J0D01*
D18*
G75*
G01
X-1308075Y1320775D02*
G03X-1308075Y1320775I-12700J0D01*
G75*
G01
X2120900Y-1460500D02*
G03X2120900Y-1460500I-12700J0D01*
G75*
G01
X-1469796Y471602D02*
G03X-1469796Y471602I-22860J0D01*
M02*
