G04 Layer: TopLayer*
G04 EasyEDA v6.5.42, 2024-06-19 17:53:58*
G04 0aa094f9eb354ad99160228faad6b286,7c1e8d740ba24e6f83eb2d53d3341807,10*
G04 Gerber Generator version 0.2*
G04 Scale: 100 percent, Rotated: No, Reflected: No *
G04 Dimensions in millimeters *
G04 leading zeros omitted , absolute positions ,4 integer and 5 decimal *
%FSLAX45Y45*%
%MOMM*%

%AMMACRO1*4,1,16,-2.2,-2.05,-2.2,2.05,-1.6,2.05,-1.6,1.45,-0.9,1.45,-0.9,2.05,-0.4,2.05,-0.4,1.45,0.4,1.45,0.4,2.05,0.9,2.05,0.9,1.45,1.6,1.45,1.6,2.05,2.2,2.05,2.2,-2.05,-2.2,-2.05,0*%
%AMMACRO2*4,1,16,2.2,2.05,2.2,-2.05,1.6,-2.05,1.6,-1.45,0.9,-1.45,0.9,-2.05,0.4,-2.05,0.4,-1.45,-0.4,-1.45,-0.4,-2.05,-0.9,-2.05,-0.9,-1.45,-1.6,-1.45,-1.6,-2.05,-2.2,-2.05,-2.2,2.05,2.2,2.05,0*%
%AMMACRO3*21,1,$1,$2,0,0,$3*%
%ADD10C,0.2540*%
%ADD11C,0.4000*%
%ADD12C,0.5000*%
%ADD13C,0.6000*%
%ADD14C,0.8000*%
%ADD15C,0.7500*%
%ADD16C,1.0000*%
%ADD17C,0.7000*%
%ADD18C,2.0000*%
%ADD19R,2.0600X2.0700*%
%ADD20R,0.8000X0.5000*%
%ADD21R,0.8000X0.9000*%
%ADD22R,0.8000X0.8000*%
%ADD23R,0.5000X1.0000*%
%ADD24MACRO1*%
%ADD25MACRO2*%
%ADD26R,3.3000X1.6000*%
%ADD27R,0.5000X0.5000*%
%ADD28R,1.6000X3.3000*%
%ADD29R,1.1000X0.6000*%
%ADD30R,0.8000X0.4000*%
%ADD31R,1.5500X1.0000*%
%ADD32R,1.8000X1.0008*%
%ADD33R,1.0008X1.8000*%
%ADD34R,1.8000X4.2000*%
%ADD35R,0.5000X0.8000*%
%ADD36R,1.8000X2.0000*%
%ADD37R,1.0000X1.5500*%
%ADD38R,1.9000X1.2000*%
%ADD39R,1.0000X1.1000*%
%ADD40MACRO3,0.254X1.143X-135.0041*%
%ADD41MACRO3,0.254X1.143X-135.0000*%
%ADD42MACRO3,0.254X1.143X-134.9959*%
%ADD43MACRO3,1.143X0.254X-135.0000*%
%ADD44MACRO3,1.143X0.254X-135.0009*%
%ADD45MACRO3,1.143X0.254X-134.9991*%
%ADD46MACRO3,1.143X0.3X-135.0000*%
%ADD47MACRO3,3.7X3.7X-135.0000*%
%ADD48R,1.0008X1.6993*%
%ADD49R,0.6350X1.2700*%
%ADD50C,1.5748*%
%ADD51O,1.5748X1.5748*%
%ADD52R,1.5748X1.5748*%
%ADD53R,4.0000X4.0000*%
%ADD54C,2.7000*%
%ADD55C,1.7000*%
%ADD56C,4.1000*%
%ADD57C,0.6096*%
%ADD58C,0.6100*%
%ADD59C,0.6200*%
%ADD60C,1.5700*%
%ADD61C,0.0125*%

%LPD*%
G36*
X-1473200Y330200D02*
G01*
X-1866900Y-63500D01*
X-1866900Y-88900D01*
X-1460500Y-495300D01*
X-1435100Y-495300D01*
X-1028700Y-88900D01*
X-1028700Y-63500D01*
X-1422400Y330200D01*
G37*
G36*
X-1155700Y2120900D02*
G01*
X-1168400Y2108200D01*
X-1168400Y1879600D01*
X-1130300Y1854200D01*
X-1054100Y1841500D01*
X-1003300Y1803400D01*
X-1003300Y1447800D01*
X-990600Y1435100D01*
X-838200Y1435100D01*
X-825500Y1447800D01*
X-825500Y1790700D01*
X-889000Y1854200D01*
X-889000Y2095500D01*
X-914400Y2120900D01*
G37*
G36*
X-1536700Y2139950D02*
G01*
X-1625600Y2051050D01*
X-1625600Y1841500D01*
X-1600200Y1816100D01*
X-1435100Y1816100D01*
X-1384300Y1879600D01*
X-1219200Y1879600D01*
X-1219200Y2114550D01*
X-1244600Y2139950D01*
G37*
G36*
X-1346200Y1803400D02*
G01*
X-1397000Y1676400D01*
X-1587500Y1676400D01*
X-1625600Y1625600D01*
X-1625600Y1371600D01*
X-1587500Y1333500D01*
X-1460500Y1333500D01*
X-1422400Y1371600D01*
X-1282700Y1371600D01*
X-1193800Y1333500D01*
X-1143000Y1282700D01*
X-1104900Y1219200D01*
X-990600Y1219200D01*
X-977900Y1231900D01*
X-977900Y1320800D01*
X-990600Y1333500D01*
X-1079500Y1333500D01*
X-1130300Y1447800D01*
X-1130300Y1778000D01*
X-1155700Y1803400D01*
G37*
G36*
X-2146300Y-889000D02*
G01*
X-2184400Y-927100D01*
X-2184400Y-1498600D01*
X-2159000Y-1524000D01*
X-2019300Y-1524000D01*
X-1981200Y-1473200D01*
X-1854200Y-1473200D01*
X-1803400Y-1422400D01*
X-1803400Y-927100D01*
X-1841500Y-889000D01*
G37*
G36*
X-1397000Y-863600D02*
G01*
X-1460500Y-927100D01*
X-1460500Y-1384300D01*
X-1435100Y-1422400D01*
X-1155700Y-1422400D01*
X-1143000Y-1384300D01*
X-1143000Y-901700D01*
X-1168400Y-863600D01*
G37*
G36*
X228600Y-1028700D02*
G01*
X190500Y-1054100D01*
X190500Y-1390650D01*
X215900Y-1416050D01*
X508000Y-1416050D01*
X533400Y-1397000D01*
X533400Y-1295400D01*
X596900Y-1231900D01*
X596900Y-1054100D01*
X571500Y-1028700D01*
G37*
G36*
X698500Y-1028700D02*
G01*
X685800Y-1054100D01*
X685800Y-1244600D01*
X711200Y-1282700D01*
X711200Y-1384300D01*
X736600Y-1409700D01*
X1028700Y-1409700D01*
X1041400Y-1397000D01*
X1041400Y-1041400D01*
X1028700Y-1028700D01*
G37*
G36*
X1564487Y-961339D02*
G01*
X1181100Y-965200D01*
X1143000Y-1003300D01*
X1145387Y-1367739D01*
X1193800Y-1409700D01*
X1574800Y-1397000D01*
X1589887Y-1367739D01*
X1589887Y-986739D01*
G37*
G36*
X-622300Y-977900D02*
G01*
X-1005687Y-981760D01*
X-1043787Y-1019860D01*
X-1041400Y-1384300D01*
X-992987Y-1426260D01*
X-611987Y-1413560D01*
X-596900Y-1384300D01*
X-596900Y-1003300D01*
G37*
G36*
X-469900Y-977900D02*
G01*
X-495300Y-1003300D01*
X-495300Y-1384300D01*
X-457200Y-1422400D01*
X-76200Y-1409700D01*
X-38100Y-1358900D01*
X-38100Y-1193800D01*
X-76200Y-1003300D01*
X-101600Y-977900D01*
G37*
G36*
X419100Y-38100D02*
G01*
X177800Y-254000D01*
X177800Y-330200D01*
X215900Y-368300D01*
X215900Y-520700D01*
X266700Y-571500D01*
X1066800Y-571500D01*
X1079500Y-546100D01*
X1079500Y-304800D01*
X1028700Y-254000D01*
X1028700Y-76200D01*
X1003300Y-38100D01*
G37*
G36*
X88900Y-1543050D02*
G01*
X63500Y-1568450D01*
X63500Y-1841500D01*
X38100Y-1879600D01*
X-127000Y-1879600D01*
X-152400Y-1854200D01*
X-152400Y-1739900D01*
X-177800Y-1714500D01*
X-469900Y-1714500D01*
X-495300Y-1739900D01*
X-495300Y-2146300D01*
X-469900Y-2184400D01*
X469900Y-2190750D01*
X508000Y-2152650D01*
X508000Y-1568450D01*
X482600Y-1543050D01*
G37*
G36*
X-1562100Y-1536700D02*
G01*
X-1587500Y-1562100D01*
X-1587500Y-2146300D01*
X-1549400Y-2184400D01*
X-723900Y-2184400D01*
X-698500Y-2159000D01*
X-698500Y-1727200D01*
X-723900Y-1701800D01*
X-1104900Y-1701800D01*
X-1143000Y-1676400D01*
X-1143000Y-1562100D01*
X-1168400Y-1536700D01*
G37*
G36*
X622300Y-1536700D02*
G01*
X596900Y-1562100D01*
X596900Y-2146300D01*
X635000Y-2184400D01*
X1460500Y-2184400D01*
X1485900Y-2159000D01*
X1485900Y-1727200D01*
X1460500Y-1701800D01*
X1079500Y-1701800D01*
X1041400Y-1676400D01*
X1041400Y-1562100D01*
X1016000Y-1536700D01*
G37*
G36*
X279400Y1562100D02*
G01*
X254000Y1536700D01*
X254000Y1270000D01*
X279400Y1244600D01*
X558800Y1244600D01*
X584200Y1270000D01*
X584200Y1536700D01*
X558800Y1562100D01*
G37*
G36*
X-774700Y2120900D02*
G01*
X-850900Y2044700D01*
X-850900Y1892300D01*
X-749300Y1790700D01*
X-660400Y1790700D01*
X-647700Y1803400D01*
X-647700Y2108200D01*
X-660400Y2120900D01*
G37*
D10*
X-935228Y-199897D02*
G01*
X-868426Y-266700D01*
X-114300Y-266700D01*
X342900Y-723900D01*
X1079500Y-723900D01*
X1092200Y-711200D01*
X1612900Y-711200D01*
X1663700Y-762000D01*
X1663700Y-1651000D01*
X1562100Y-1752600D01*
X1562100Y-1790445D01*
X-1112012Y-376681D02*
G01*
X-967994Y-520700D01*
X-177800Y-520700D01*
X127000Y-825500D01*
X127000Y-889000D01*
X215900Y-977900D01*
X215900Y-1308354D01*
X-1041145Y-306070D02*
G01*
X-928115Y-419100D01*
X-152400Y-419100D01*
X304800Y-876300D01*
X508000Y-876300D01*
X635000Y-1003300D01*
X635000Y-1308354D01*
X-970534Y-235204D02*
G01*
X-888237Y-317500D01*
X-127000Y-317500D01*
X330200Y-774700D01*
X1016000Y-774700D01*
X1092200Y-850900D01*
X1092200Y-1562100D01*
X990854Y-1663445D01*
X825500Y-1663445D01*
X139700Y-190500D02*
G01*
X139700Y-190500D01*
X152400Y-177800D01*
X152400Y278384D01*
X129539Y278384D01*
X-50800Y520700D02*
G01*
X330200Y520700D01*
X431800Y419100D01*
X482600Y419100D01*
X-328419Y1573529D02*
G01*
X-100329Y1573529D01*
X-38100Y1511300D01*
X-38100Y1257300D01*
X25400Y1193800D01*
X25400Y1016000D01*
X-63500Y927100D01*
X-63500Y660400D01*
X-25400Y622300D01*
X317500Y622300D01*
X419100Y520700D01*
X800100Y520700D01*
X901700Y419100D01*
X38100Y787400D02*
G01*
X127000Y698500D01*
X330200Y698500D01*
X457200Y571500D01*
X863600Y571500D01*
X1016000Y419100D01*
X1079500Y419100D01*
X1145539Y353060D01*
X1145539Y278384D01*
D11*
X1993900Y-1371600D02*
G01*
X1967001Y-1398498D01*
X1873910Y-1398498D01*
D12*
X2542Y278384D02*
G01*
X2542Y231142D01*
X-127000Y101600D01*
X-127000Y24612D01*
X-353060Y1065529D02*
G01*
X-177800Y1065529D01*
D10*
X-241300Y241300D02*
G01*
X-241300Y304800D01*
X-139700Y406400D01*
X-139700Y939800D01*
X-38100Y1041400D01*
X-38100Y1130300D01*
X-100329Y1192529D01*
X-328421Y1192529D01*
D12*
X-127000Y1447800D02*
G01*
X-128270Y1446529D01*
X-328419Y1446529D01*
X-127000Y1320800D02*
G01*
X-125729Y1319529D01*
X-127000Y1320800D01*
X-327660Y1318260D01*
D11*
X1320800Y1066800D02*
G01*
X1470230Y1066800D01*
X1471500Y1065529D01*
X1320800Y1193800D02*
G01*
X1471421Y1192529D01*
X1320800Y939800D02*
G01*
X1470149Y939800D01*
X1471419Y938529D01*
X1320800Y787400D02*
G01*
X1344929Y811529D01*
X1496060Y811529D01*
X1320800Y685800D02*
G01*
X1471421Y684529D01*
D13*
X1308100Y558800D02*
G01*
X1471421Y557529D01*
D10*
X-1783587Y224281D02*
G01*
X-1993900Y434594D01*
X-1993900Y508000D01*
X-2032000Y546100D01*
X-2032000Y558800D01*
D11*
X1471421Y430529D02*
G01*
X1560829Y430529D01*
X1676400Y546100D01*
X1765300Y546100D01*
D10*
X76200Y901700D02*
G01*
X330200Y901700D01*
X508000Y723900D01*
X952500Y723900D01*
X1054100Y622300D01*
X1054100Y495300D01*
X203200Y800100D02*
G01*
X330200Y800100D01*
X482600Y647700D01*
X876300Y647700D01*
X546100Y876300D02*
G01*
X635000Y787400D01*
X1041400Y787400D01*
X-1005842Y-270761D02*
G01*
X-908304Y-368300D01*
X-139700Y-368300D01*
X317500Y-825500D01*
X558800Y-825500D01*
X711200Y-977900D01*
X711200Y-1219200D01*
X749300Y-1257300D01*
X762000Y-1270000D01*
X762000Y-1308354D01*
D11*
X-1054100Y889000D02*
G01*
X-1054100Y965200D01*
D10*
X660400Y914400D02*
G01*
X482600Y1092200D01*
X292100Y1092200D01*
X177800Y1206500D01*
X177800Y1447800D01*
X127000Y1498600D01*
D12*
X-139700Y1955800D02*
G01*
X-406400Y1955800D01*
X-558800Y1803400D01*
X-647700Y1803400D01*
X-710412Y1740687D01*
X-710412Y1651000D01*
X-279400Y-75387D02*
G01*
X-127000Y-75387D01*
X-127000Y-75387D02*
G01*
X-58877Y-75387D01*
X67310Y50800D01*
X38100Y-190500D02*
G01*
X25400Y-190500D01*
X-89662Y-75437D01*
X-127000Y-75437D01*
X948184Y-88900D02*
G01*
X1016000Y-88900D01*
X1066012Y-38887D01*
X1066012Y88900D01*
D13*
X1393192Y50800D02*
G01*
X1308912Y-33479D01*
X1308912Y-114300D01*
D12*
X1587500Y-24637D02*
G01*
X1524000Y-25400D01*
X685800Y419100D02*
G01*
X584200Y419100D01*
X1587500Y75387D02*
G01*
X1587500Y203200D01*
D14*
X1066012Y88900D02*
G01*
X1184907Y88900D01*
X1223007Y50800D01*
X808992Y50800D02*
G01*
X847092Y88900D01*
X966012Y88900D01*
D15*
X1018542Y278384D02*
G01*
X930658Y190500D01*
X698500Y190500D01*
X638810Y130810D01*
X638810Y50800D01*
D10*
X825500Y-939800D02*
G01*
X876300Y-990600D01*
X876300Y-1066800D01*
X825500Y-660400D02*
G01*
X876300Y-609600D01*
X876300Y-558800D01*
X-328421Y1700529D02*
G01*
X-100329Y1700529D01*
X25400Y1574800D01*
X25400Y1371600D01*
X63500Y1333500D01*
X63500Y1320800D01*
X482600Y419100D02*
G01*
X494487Y407212D01*
X494487Y50800D01*
X-50800Y520700D02*
G01*
X-50800Y419100D01*
X-127000Y342900D01*
X-127000Y215900D01*
X-279400Y63500D01*
X-279400Y24637D01*
D12*
X237489Y50800D02*
G01*
X394487Y50800D01*
D10*
X-1156462Y622300D02*
G01*
X-1156462Y521462D01*
X-1143000Y508000D01*
X-1143000Y405384D01*
X-1217929Y330454D01*
X-1256537Y622300D02*
G01*
X-1256537Y532637D01*
X-1193800Y469900D01*
X-1193800Y425195D01*
X-1253236Y365760D01*
D12*
X1739900Y-1459712D02*
G01*
X1842287Y-1459712D01*
X1866900Y-1435100D01*
X1739900Y-1270000D02*
G01*
X1741398Y-1268501D01*
X1861210Y-1268501D01*
X1739900Y-1270000D02*
G01*
X1739900Y-1359712D01*
X1727200Y75387D02*
G01*
X1727200Y75387D01*
X2006600Y75387D01*
X-610362Y1651000D02*
G01*
X-432562Y1828800D01*
X-139700Y1828800D01*
D10*
X-888237Y812800D02*
G01*
X-1028700Y812800D01*
X-1092200Y749300D01*
X-1092200Y385318D01*
X-1182623Y295147D01*
D13*
X-1245387Y889000D02*
G01*
X-1233474Y889000D01*
X-1054100Y889000D01*
D10*
X-596900Y1371600D02*
G01*
X-622300Y1371600D01*
X-710437Y1459737D01*
X-710437Y1498600D01*
D12*
X-710437Y1498600D02*
G01*
X-710437Y1447037D01*
X-596900Y1333500D01*
X-596900Y934720D01*
D13*
X-1587500Y977900D02*
G01*
X-1536700Y927100D01*
X-1536700Y876300D01*
D12*
X-1536700Y876300D02*
G01*
X-1485900Y927100D01*
X-1485900Y940587D01*
D16*
X-1041095Y1060704D02*
G01*
X-844804Y1060704D01*
X-821992Y1037892D01*
D12*
X-1587500Y977900D02*
G01*
X-1587500Y965200D01*
X-1562491Y940191D01*
X-1473200Y940191D01*
D16*
X-1905000Y1231900D02*
G01*
X-1714500Y1231900D01*
X-1905000Y914400D02*
G01*
X-1714500Y914400D01*
D17*
X-788212Y812800D02*
G01*
X-782297Y812800D01*
X-678817Y709320D01*
X-678817Y709320D02*
G01*
X-596900Y627402D01*
X-596900Y614705D01*
D12*
X-1321104Y1060704D02*
G01*
X-1403095Y1060704D01*
X-1423212Y1040587D01*
X-1485900Y1040587D01*
X537692Y1524000D02*
G01*
X603986Y1524000D01*
X751992Y1672005D01*
D10*
X660400Y914400D02*
G01*
X660400Y939800D01*
X1054100Y1333500D01*
X1054100Y1841500D01*
X1167129Y1954529D01*
X1471421Y1954529D01*
D16*
X-977900Y-774700D02*
G01*
X-674999Y-774700D01*
D14*
X-208026Y-757173D02*
G01*
X-165100Y-800100D01*
X-165100Y-852423D01*
D16*
X-455122Y-757146D02*
G01*
X-208132Y-757146D01*
D11*
X1861207Y-1398501D02*
G01*
X1866900Y-1404193D01*
X1866900Y-1435100D01*
D10*
X2019300Y292100D02*
G01*
X1892300Y419100D01*
X1689100Y419100D01*
X1600200Y330200D01*
X1333500Y330200D01*
X1295400Y368300D01*
X1295400Y431800D01*
X1219200Y508000D01*
X1219200Y1397000D01*
X1270000Y1447800D01*
D12*
X-584962Y1917700D02*
G01*
X-584962Y1993137D01*
X-496570Y2081529D01*
X-328421Y2081529D01*
D13*
X-1041095Y1060704D02*
G01*
X-933399Y1168400D01*
X-825500Y1168400D01*
D12*
X-1041095Y1155700D02*
G01*
X-965200Y1155700D01*
X-952500Y1168400D01*
X-825500Y1168400D01*
D17*
X-1041095Y1060704D02*
G01*
X-983995Y1060704D01*
X-876300Y1168400D01*
X-825500Y1168400D01*
D13*
X1471421Y2081529D02*
G01*
X722629Y2081529D01*
X419100Y1778000D01*
X419100Y1524000D01*
X537718Y1524000D01*
X-328421Y2081529D02*
G01*
X77470Y2081529D01*
X381000Y1778000D01*
X381000Y1368297D01*
X471423Y1368297D01*
D10*
X1765300Y292100D02*
G01*
X1689100Y292100D01*
X1676400Y279400D01*
X1308100Y279400D01*
X1244600Y342900D01*
X1244600Y393700D01*
X1155700Y482600D01*
X1155700Y1562100D01*
D16*
X-596900Y614679D02*
G01*
X-596900Y558800D01*
X-546100Y508000D01*
X-546100Y210794D01*
X-495300Y210794D01*
D10*
X-749300Y204800D02*
G01*
X-919299Y204800D01*
X-1005842Y118257D01*
X-1041189Y153603D02*
G01*
X-789993Y404799D01*
X-749300Y404799D01*
D13*
X1471500Y1573529D02*
G01*
X1574800Y1573529D01*
X1638300Y1510029D01*
X1638300Y1473200D01*
X1587500Y1701800D02*
G01*
X1472692Y1701800D01*
X1471419Y1700529D01*
X-1345387Y889000D02*
G01*
X-1345387Y1026467D01*
X-1321104Y1050749D01*
X-1321104Y1060704D01*
D16*
X-2095500Y914400D02*
G01*
X-2095500Y1231900D01*
D10*
X-1818896Y188973D02*
G01*
X-2044700Y414784D01*
X-2044700Y469900D01*
X-2070100Y469900D01*
X-1925065Y-235204D02*
G01*
X-1969262Y-279400D01*
X-2044700Y-279400D01*
X-2069337Y-254762D01*
X-2095500Y-254762D01*
X-1889719Y-270657D02*
G01*
X-1973851Y-354787D01*
X-2095500Y-354787D01*
D12*
X-776368Y1868568D02*
G01*
X-830579Y1922779D01*
X-830579Y1968500D01*
X-1562100Y1155700D02*
G01*
X-1321104Y1155700D01*
X-1511300Y2082800D02*
G01*
X-1435100Y2082800D01*
X-1435100Y2082800D02*
G01*
X-1263802Y2082800D01*
X-1263802Y2082800D02*
G01*
X-1263802Y1930402D01*
X-1263804Y1930400D01*
X-1511300Y2082800D02*
G01*
X-1524000Y2070100D01*
X-1524000Y1952599D01*
X-1123795Y2082800D02*
G01*
X-1123795Y2000095D01*
X-1117600Y1993900D01*
X-1016000Y1993900D01*
X-1016000Y1993900D02*
G01*
X-947420Y1993900D01*
X-922020Y1968500D01*
X-1123795Y1930400D02*
G01*
X-1085695Y1968500D01*
X-922020Y1968500D01*
X-1123795Y1930400D02*
G01*
X-1123795Y2082797D01*
X-1123797Y2082800D01*
X-647700Y1041400D02*
G01*
X-649300Y1043000D01*
X-649300Y1193800D01*
X-649300Y1321600D02*
G01*
X-649300Y1321600D01*
X-649300Y1193800D01*
X-1727987Y-1358900D02*
G01*
X-1720697Y-1358900D01*
X-1701800Y-1377797D01*
X-1701800Y-1460500D01*
D10*
X-1385087Y596900D02*
G01*
X-1385087Y559587D01*
X-1384300Y558800D01*
X-1385087Y596900D02*
G01*
X-1385087Y559587D01*
X-1384300Y558800D01*
X-1384300Y496570D01*
X-1324099Y436369D01*
D16*
X-939800Y-852500D02*
G01*
X-698500Y-852500D01*
D10*
X2101088Y-1333500D02*
G01*
X2057400Y-1333500D01*
X2019300Y-1371600D01*
X1993900Y-1371600D01*
X2101192Y-1268498D02*
G01*
X1995401Y-1268498D01*
X1993900Y-1270000D01*
D16*
X-469900Y101600D02*
G01*
X-495300Y127000D01*
X-495300Y210794D01*
X-546100Y101600D02*
G01*
X-495300Y152400D01*
X-495300Y210794D01*
D12*
X-647700Y1041400D02*
G01*
X-596900Y990600D01*
X-596900Y934720D01*
D10*
X-1253236Y-518160D02*
G01*
X-1092200Y-679195D01*
X-1092200Y-1612900D01*
X-1193545Y-1714245D01*
X-1358900Y-1714245D01*
D12*
X1866900Y-24612D02*
G01*
X1866900Y-139700D01*
X2006600Y-24612D02*
G01*
X2006600Y-139700D01*
D10*
X-1217929Y330454D02*
G01*
X-1447800Y101600D01*
X-1447800Y38100D01*
X-1447800Y38100D02*
G01*
X-1447800Y-76200D01*
X-1925065Y-235204D02*
G01*
X-1765300Y-76200D01*
X-1562100Y-76200D01*
X-1562100Y-76200D02*
G01*
X-1447800Y-76200D01*
X1155700Y1562100D02*
G01*
X1155700Y1663700D01*
X1319529Y1827529D01*
X1471419Y1827529D01*
D12*
X1408912Y-114300D02*
G01*
X1637512Y-114300D01*
X1727200Y-24612D01*
X1866900Y-24612D02*
G01*
X1866900Y-24612D01*
X2006600Y-24612D01*
D10*
X-1147318Y-411987D02*
G01*
X-987805Y-571500D01*
X-190500Y-571500D01*
X63500Y-825500D01*
X63500Y-889000D01*
X152400Y-977900D01*
X152400Y-1574800D01*
X241045Y-1663445D01*
X279400Y-1663445D01*
X-1288795Y-553465D02*
G01*
X-1219200Y-623062D01*
X-1219200Y-685800D01*
X-1447800Y-914400D01*
X-1447800Y-1193800D01*
X-1422400Y-1219200D01*
X-1422400Y-1255915D01*
X-1422400Y-1255915D02*
G01*
X-1422400Y-1359154D01*
X-1397000Y-1066800D02*
G01*
X-1320800Y-1066800D01*
X-1727200Y-1066800D02*
G01*
X-1828800Y-1066800D01*
X-2056587Y-698500D02*
G01*
X-2057400Y-699312D01*
X-2057400Y-800100D01*
X-1845005Y-711200D02*
G01*
X-1845005Y-812800D01*
X-1642237Y-518139D02*
G01*
X-1740712Y-616612D01*
X-1740712Y-711200D01*
X-1217929Y-482854D02*
G01*
X-1027684Y-673100D01*
X-609600Y-673100D01*
X-546100Y-736600D01*
X-546100Y-1714500D01*
X-622300Y-1790700D01*
X-762000Y-100812D02*
G01*
X-786612Y-76200D01*
X-1227317Y-76200D01*
X-1227317Y-76200D02*
G01*
X-1333500Y-76200D01*
X-1333500Y-76200D02*
G01*
X-1447774Y-76200D01*
X-1606875Y401101D02*
G01*
X-1663700Y457926D01*
X-1663700Y558800D01*
X-1748297Y259679D02*
G01*
X-1943100Y454484D01*
X-1943100Y558800D01*
X-1637487Y-723900D02*
G01*
X-1638300Y-724712D01*
X-1638300Y-812800D01*
X-1537487Y-723900D02*
G01*
X-1536700Y-724687D01*
X-1536700Y-812800D01*
X-1889719Y118257D02*
G01*
X-2000064Y228600D01*
X-2057400Y228600D01*
X-1854372Y153603D02*
G01*
X-2018271Y317500D01*
X-2070100Y317500D01*
X-1925065Y82804D02*
G01*
X-1994662Y152400D01*
X-2057400Y152400D01*
X-1712950Y295026D02*
G01*
X-1866900Y448978D01*
X-1866900Y508000D01*
X-1677583Y330393D02*
G01*
X-1790700Y443506D01*
X-1790700Y558800D01*
X-1642237Y365739D02*
G01*
X-1727200Y450700D01*
X-1727200Y508000D01*
X-1571531Y436445D02*
G01*
X-1587500Y452412D01*
X-1587500Y558800D01*
X-1485087Y596900D02*
G01*
X-1485087Y179169D01*
X-1447551Y141635D01*
X-1447553Y141635D02*
G01*
X-1447800Y-76200D01*
X-1960369Y47500D02*
G01*
X-1963668Y50800D01*
X-2057400Y50800D01*
X-1324102Y-588771D02*
G01*
X-1282700Y-630173D01*
X-1282700Y-673100D01*
X-1498600Y-889000D01*
X-1498600Y-1181100D01*
X-1549400Y-1231900D01*
X-1549400Y-1359154D01*
X-1783587Y-376684D02*
G01*
X-1940303Y-533400D01*
X-2006600Y-533400D01*
X-2057400Y-584200D01*
X-2082800Y-584200D01*
X-1818896Y-341373D02*
G01*
X-1960115Y-482600D01*
X-2019300Y-482600D01*
X-2044700Y-508000D01*
X-2120900Y-508000D01*
X-1854454Y-306070D02*
G01*
X-1980184Y-431800D01*
X-2057400Y-431800D01*
X-2070100Y-444500D01*
X-1677583Y-482793D02*
G01*
X-1840712Y-645919D01*
X-1840712Y-711200D01*
X76200Y-990600D02*
G01*
X76200Y-1295704D01*
X88900Y-1308404D01*
X-1745005Y-711200D02*
G01*
X-1745005Y-812800D01*
X419100Y-635000D02*
G01*
X419100Y-571500D01*
X406400Y-558800D01*
X419100Y-952500D02*
G01*
X419100Y-1054100D01*
X406400Y-1066800D01*
X-1606804Y-553465D02*
G01*
X-1663700Y-610362D01*
X-1663700Y-686562D01*
X-1638045Y-710692D01*
X-1637537Y-723900D01*
X-935136Y47551D02*
G01*
X-886772Y-812D01*
X-762000Y-812D01*
X-1712973Y-447550D02*
G01*
X-1956587Y-691164D01*
X-1956587Y-698500D01*
X-1956587Y-698500D02*
G01*
X-1956587Y-799312D01*
X-1955800Y-800100D01*
X1270000Y1447800D02*
G01*
X1271270Y1446529D01*
X1471419Y1446529D01*
X-1571497Y-588771D02*
G01*
X-1571497Y-625602D01*
X-1537462Y-659637D01*
X-1537462Y-723900D01*
X-1748284Y-411987D02*
G01*
X-1920496Y-584200D01*
X-1968500Y-584200D01*
X-2056587Y-672287D01*
X-2056587Y-698500D01*
D12*
X1930400Y-279400D02*
G01*
X1930400Y-203200D01*
X1866900Y-139700D01*
X1930400Y-279400D02*
G01*
X1930400Y-215900D01*
X2006600Y-139700D01*
D16*
X1231900Y-382600D02*
G01*
X1362887Y-382600D01*
X1498600Y-518312D01*
X1485900Y-505612D01*
X1485900Y-395300D01*
D15*
X-744197Y774700D02*
G01*
X-750112Y774700D01*
X-788212Y812800D01*
X-788212Y933010D01*
X-788212Y933010D02*
G01*
X-788212Y1004112D01*
X-821992Y1037892D01*
X-821989Y1037889D02*
G01*
X-825500Y1041400D01*
X-825500Y1168400D01*
D12*
X-1524000Y1258087D02*
G01*
X-1447012Y1258087D01*
X-1439621Y1250695D01*
X-1321104Y1250695D01*
D10*
X-215900Y939800D02*
G01*
X-328421Y938529D01*
X-215900Y812800D02*
G01*
X-328421Y811529D01*
X-215900Y685800D02*
G01*
X-328421Y684529D01*
X787400Y914400D02*
G01*
X1066800Y1193800D01*
D13*
X-1066495Y1155700D02*
G01*
X-1041095Y1130300D01*
X-1041095Y1060704D01*
D16*
X-406476Y-852500D02*
G01*
X-165100Y-852500D01*
D10*
X-1076452Y188976D02*
G01*
X-901700Y363728D01*
X-901700Y444500D01*
X-838200Y508000D01*
X-673100Y508000D01*
X-596900Y584200D01*
X-596900Y614679D01*
X-1147318Y259587D02*
G01*
X-1028700Y378205D01*
X-1028700Y508000D01*
X-1004315Y532384D01*
X-1004315Y635000D01*
X-1112012Y224281D02*
G01*
X-965200Y371094D01*
X-965200Y457200D01*
X-824484Y597915D01*
X-824484Y635000D01*
X-970534Y82804D02*
G01*
X-926337Y127000D01*
X-850900Y127000D01*
X-812800Y88900D01*
X-698500Y88900D01*
X-500379Y-109220D01*
X-495300Y-109220D01*
X-1182623Y-447547D02*
G01*
X-1007618Y-622300D01*
X-203200Y-622300D01*
X0Y-825500D01*
X0Y-1714245D01*
X-76200Y-1790445D01*
D12*
X-610412Y1651000D02*
G01*
X-610412Y1498600D01*
X-610412Y1498600D01*
X-610412Y1498600D01*
X-710412Y1651000D02*
G01*
X-710412Y1753387D01*
X-684987Y1778812D01*
X-684987Y1917700D01*
D17*
X-830579Y1968500D02*
G01*
X-830579Y1935479D01*
X-710412Y1815312D01*
X-710412Y1651000D01*
D12*
X-684987Y2070100D02*
G01*
X-684987Y1917700D01*
X-684987Y1917700D01*
X-684987Y1917700D02*
G01*
X-684987Y1879600D01*
X-741679Y1879600D01*
X-830579Y1968500D01*
X-710412Y1498600D02*
G01*
X-710412Y1421612D01*
X-647700Y1358900D01*
X-653651Y1364851D02*
G01*
X-616351Y1327551D01*
X-584987Y2070100D02*
G01*
X-584987Y1917700D01*
X-584987Y2070100D02*
G01*
X-573557Y2081529D01*
X-328498Y2081529D01*
D14*
X-139700Y1955800D02*
G01*
X-63500Y1955800D01*
X-63500Y1955800D02*
G01*
X0Y1955800D01*
D11*
X1231900Y-582599D02*
G01*
X1231900Y-533400D01*
X1257300Y-508000D01*
D18*
X1930400Y-431800D02*
G01*
X1676400Y-431800D01*
X1589887Y-518312D01*
X1498600Y-518312D01*
D11*
X1231900Y-582676D02*
G01*
X1217676Y-582676D01*
X1117600Y-482600D01*
X1117600Y-292100D01*
X1181100Y-228600D01*
X1371600Y-228600D01*
X1408937Y-191262D01*
X1408937Y-114300D01*
D10*
X-1076452Y-341376D02*
G01*
X-947928Y-469900D01*
X-234950Y-469900D01*
X-165100Y-469900D01*
X203200Y-838200D01*
X203200Y-863600D01*
D19*
G01*
X1498600Y-904112D03*
G01*
X1498600Y-518312D03*
D20*
G01*
X2006600Y-24587D03*
G01*
X2006600Y75412D03*
G01*
X1739900Y-1359712D03*
G01*
X1739900Y-1459712D03*
D21*
G01*
X-1860600Y-1358900D03*
G01*
X-1720621Y-1358900D03*
D22*
G01*
X67310Y50800D03*
G01*
X237489Y50800D03*
G01*
X1393189Y50800D03*
G01*
X1223010Y50800D03*
G01*
X638810Y50800D03*
G01*
X808989Y50800D03*
D23*
G01*
X1180998Y-1790293D03*
G01*
X1307998Y-1790293D03*
G01*
X1434998Y-1790293D03*
G01*
X1561998Y-1790293D03*
D24*
G01*
X1371503Y-1405289D03*
D23*
G01*
X1015898Y-1359077D03*
G01*
X888898Y-1359077D03*
G01*
X761898Y-1359077D03*
G01*
X634898Y-1359077D03*
D25*
G01*
X825393Y-1744082D03*
D23*
G01*
X-457301Y-1790293D03*
G01*
X-330301Y-1790293D03*
G01*
X-203301Y-1790293D03*
G01*
X-76301Y-1790293D03*
D24*
G01*
X-266796Y-1405289D03*
D23*
G01*
X469798Y-1359077D03*
G01*
X342798Y-1359077D03*
G01*
X215798Y-1359077D03*
G01*
X88798Y-1359077D03*
D25*
G01*
X279293Y-1744082D03*
D23*
G01*
X-1003401Y-1790293D03*
G01*
X-876401Y-1790293D03*
G01*
X-749401Y-1790293D03*
G01*
X-622401Y-1790293D03*
D24*
G01*
X-812896Y-1405289D03*
D23*
G01*
X-1168501Y-1359077D03*
G01*
X-1295501Y-1359077D03*
G01*
X-1422501Y-1359077D03*
G01*
X-1549501Y-1359077D03*
D25*
G01*
X-1359006Y-1744082D03*
D26*
G01*
X876198Y-487806D03*
G01*
X876198Y-1137818D03*
D27*
G01*
X876198Y-1066800D03*
G01*
X876198Y-558800D03*
D26*
G01*
X418998Y-487806D03*
G01*
X418998Y-1137818D03*
D27*
G01*
X418998Y-1066800D03*
G01*
X418998Y-558800D03*
D28*
G01*
X-1887220Y-1066800D03*
G01*
X-1237208Y-1066800D03*
D27*
G01*
X-1308201Y-1066800D03*
G01*
X-1816201Y-1066800D03*
D29*
G01*
X-1316075Y1060678D03*
G01*
X-1316075Y1155674D03*
G01*
X-1316075Y1250670D03*
G01*
X-1046073Y1250670D03*
G01*
X-1046073Y1155674D03*
G01*
X-1046073Y1060678D03*
D30*
G01*
X1873910Y-1398498D03*
G01*
X1873910Y-1268501D03*
G01*
X2113889Y-1268501D03*
G01*
X2113889Y-1333500D03*
G01*
X2113889Y-1398498D03*
D21*
G01*
X-1263802Y1930400D03*
G01*
X-1123797Y1930400D03*
G01*
X-1263700Y2082800D03*
G01*
X-1123721Y2082800D03*
D20*
G01*
X1727200Y-24612D03*
G01*
X1727200Y75387D03*
D31*
G01*
X-749300Y404799D03*
G01*
X-749300Y204800D03*
D32*
G01*
X-328498Y1700529D03*
G01*
X-328498Y1573529D03*
G01*
X-328498Y1446529D03*
G01*
X-328498Y1319529D03*
G01*
X-328498Y1192529D03*
G01*
X-328498Y1065529D03*
G01*
X-328498Y938529D03*
G01*
X-328498Y811529D03*
D33*
G01*
X1145539Y278409D03*
D32*
G01*
X1471498Y430529D03*
G01*
X1471498Y557529D03*
G01*
X1471498Y684529D03*
G01*
X1471498Y811529D03*
G01*
X1471498Y938529D03*
G01*
X1471498Y1065529D03*
G01*
X1471498Y1192529D03*
G01*
X-328498Y684529D03*
G01*
X-328498Y557529D03*
G01*
X-328498Y430529D03*
D33*
G01*
X2539Y278409D03*
G01*
X129539Y278409D03*
D32*
G01*
X-328498Y1827529D03*
G01*
X-328498Y1954529D03*
G01*
X-328498Y2081529D03*
D33*
G01*
X1018539Y278409D03*
D32*
G01*
X1471498Y1319529D03*
G01*
X1471498Y1446529D03*
G01*
X1471498Y1573529D03*
G01*
X1471498Y1700529D03*
G01*
X1471498Y1827529D03*
G01*
X1471498Y1954529D03*
G01*
X1471498Y2081529D03*
D20*
G01*
X1587500Y-24612D03*
G01*
X1587500Y75387D03*
G01*
X-127000Y-75387D03*
G01*
X-127000Y24612D03*
D34*
G01*
X-1252194Y1600200D03*
G01*
X-932205Y1600200D03*
D31*
G01*
X-698576Y-852500D03*
G01*
X-698576Y-1052499D03*
D20*
G01*
X-1524000Y1358087D03*
G01*
X-1524000Y1258087D03*
D35*
G01*
X-1245387Y889000D03*
G01*
X-1345387Y889000D03*
D20*
G01*
X-1485900Y940587D03*
G01*
X-1485900Y1040587D03*
D36*
G01*
X-1524000Y1952599D03*
G01*
X-1524000Y1552600D03*
D35*
G01*
X-610387Y1651000D03*
G01*
X-710387Y1651000D03*
D20*
G01*
X1866900Y75412D03*
G01*
X1866900Y-24587D03*
D35*
G01*
X1408912Y-114300D03*
G01*
X1308912Y-114300D03*
D20*
G01*
X-279400Y24612D03*
G01*
X-279400Y-75387D03*
D31*
G01*
X1231900Y-827100D03*
G01*
X1231900Y-1027099D03*
G01*
X-165100Y-852500D03*
G01*
X-165100Y-1052499D03*
G01*
X1231900Y-382600D03*
G01*
X1231900Y-582599D03*
D37*
G01*
X-649300Y1193800D03*
G01*
X-849299Y1193800D03*
D38*
G01*
X-596900Y614705D03*
G01*
X-596900Y934720D03*
D35*
G01*
X-684987Y2070100D03*
G01*
X-584987Y2070100D03*
D20*
G01*
X-2095525Y-354787D03*
G01*
X-2095525Y-254787D03*
D35*
G01*
X-610412Y1498600D03*
G01*
X-710412Y1498600D03*
G01*
X-684987Y1917700D03*
G01*
X-584987Y1917700D03*
D31*
G01*
X-406476Y-852500D03*
G01*
X-406476Y-1052499D03*
D38*
G01*
X-495300Y210794D03*
G01*
X-495300Y-109220D03*
D35*
G01*
X-1637537Y-723900D03*
G01*
X-1537538Y-723900D03*
G01*
X-1745056Y-711200D03*
G01*
X-1845055Y-711200D03*
G01*
X-1956612Y-698500D03*
G01*
X-2056612Y-698500D03*
D20*
G01*
X-762000Y-812D03*
G01*
X-762000Y-100812D03*
D35*
G01*
X-1485087Y596900D03*
G01*
X-1385087Y596900D03*
G01*
X-1156512Y622300D03*
G01*
X-1256512Y622300D03*
G01*
X-888212Y812800D03*
G01*
X-788212Y812800D03*
D39*
G01*
X-1004392Y635000D03*
G01*
X-824382Y635000D03*
D35*
G01*
X394487Y50800D03*
G01*
X494487Y50800D03*
D40*
G01*
X-1571527Y436455D03*
D41*
G01*
X-1606884Y401100D03*
G01*
X-1642238Y365746D03*
G01*
X-1677595Y330389D03*
G01*
X-1712949Y295034D03*
G01*
X-1748303Y259679D03*
D42*
G01*
X-1783661Y224322D03*
D41*
G01*
X-1819017Y188967D03*
G01*
X-1854371Y153612D03*
G01*
X-1889728Y118256D03*
G01*
X-1925082Y82901D03*
G01*
X-1960434Y47542D03*
D43*
G01*
X-1960438Y-199946D03*
G01*
X-1925082Y-235301D03*
G01*
X-1889728Y-270656D03*
G01*
X-1854371Y-306012D03*
G01*
X-1819017Y-341367D03*
G01*
X-1783661Y-376722D03*
D44*
G01*
X-1748303Y-412079D03*
D43*
G01*
X-1712949Y-447434D03*
D45*
G01*
X-1677595Y-482789D03*
D43*
G01*
X-1642238Y-518146D03*
G01*
X-1606884Y-553500D03*
G01*
X-1571524Y-588852D03*
D41*
G01*
X-1324039Y-588852D03*
G01*
X-1288685Y-553495D03*
D42*
G01*
X-1253331Y-518139D03*
D40*
G01*
X-1217974Y-482784D03*
D41*
G01*
X-1182620Y-447429D03*
G01*
X-1147265Y-412074D03*
G01*
X-1111907Y-376716D03*
G01*
X-1076552Y-341362D03*
G01*
X-1041198Y-306006D03*
G01*
X-1005841Y-270650D03*
G01*
X-970487Y-235296D03*
G01*
X-935131Y-199939D03*
D46*
G01*
X-935130Y47543D03*
D43*
G01*
X-970487Y82896D03*
G01*
X-1005841Y118250D03*
D44*
G01*
X-1041198Y153606D03*
D43*
G01*
X-1076552Y188962D03*
D45*
G01*
X-1111907Y224316D03*
G01*
X-1147265Y259674D03*
D43*
G01*
X-1182620Y295029D03*
G01*
X-1217974Y330384D03*
D44*
G01*
X-1253331Y365739D03*
D43*
G01*
X-1288685Y401095D03*
D45*
G01*
X-1324042Y436450D03*
D47*
G01*
X-1447782Y-76200D03*
D31*
G01*
X-939800Y-852500D03*
G01*
X-939800Y-1052499D03*
D48*
G01*
X-2095500Y1231900D03*
G01*
X-1714500Y1231900D03*
G01*
X-2095500Y914400D03*
G01*
X-1714500Y914400D03*
D35*
G01*
X1066012Y88900D03*
G01*
X966012Y88900D03*
D49*
G01*
X-922020Y1968500D03*
G01*
X-830579Y1968500D03*
D50*
G01*
X1765300Y292100D03*
G01*
X2019300Y292100D03*
D51*
G01*
X1765300Y546100D03*
D50*
G01*
X1765300Y800100D03*
D52*
G01*
X1765300Y1054100D03*
G01*
X1765300Y1308100D03*
G01*
X2019300Y1308100D03*
D50*
G01*
X2019300Y1054100D03*
G01*
X2019300Y800100D03*
G01*
X2019300Y546100D03*
D53*
G01*
X1930400Y-939800D03*
G01*
X1930400Y-431800D03*
D54*
G01*
X-876300Y-2032000D03*
G01*
X-317500Y-2032000D03*
G01*
X1308100Y-2032000D03*
D55*
G01*
X-1054100Y-2082495D03*
G01*
X1130300Y-2082800D03*
G01*
X-143027Y-2082520D03*
D56*
G01*
X1899996Y1749983D03*
G01*
X-1899996Y1749983D03*
G01*
X-1899996Y-1750009D03*
G01*
X1899996Y-1750009D03*
D57*
G01*
X-788212Y933018D03*
G01*
X-1536700Y876300D03*
G01*
X-821994Y1037894D03*
G01*
X-1562100Y-76200D03*
G01*
X-1333500Y-76200D03*
G01*
X-1447800Y-177800D03*
G01*
X-1447800Y38100D03*
G01*
X0Y1955800D03*
G01*
X-63500Y1955800D03*
G01*
X-1016000Y2082800D03*
G01*
X-1178407Y-1028700D03*
G01*
X-1178407Y-1104900D03*
G01*
X-1258900Y-1104900D03*
G01*
X-1178407Y-1182751D03*
G01*
X-1258900Y-1182751D03*
G01*
X-1340789Y-1182751D03*
G01*
X959357Y-1197965D03*
G01*
X878865Y-1197965D03*
G01*
X796975Y-1197965D03*
G01*
X711200Y-1193800D03*
G01*
X276707Y-1193800D03*
G01*
X358317Y-1193800D03*
G01*
X440207Y-1193800D03*
G01*
X520700Y-1193800D03*
G01*
X990600Y-444500D03*
G01*
X706501Y-508000D03*
G01*
X953490Y-508000D03*
G01*
X914400Y-444500D03*
G01*
X832789Y-444500D03*
G01*
X789990Y-508000D03*
G01*
X749300Y-444500D03*
G01*
X1054100Y495300D03*
G01*
X76200Y901700D03*
G01*
X-177800Y1065529D03*
G01*
X1727200Y76200D03*
G01*
X1320800Y787400D03*
G01*
X1041400Y787400D03*
G01*
X546100Y876300D03*
G01*
X-596900Y1371600D03*
G01*
X-1435100Y2082800D03*
G01*
X647700Y-431800D03*
G01*
X584200Y419100D03*
G01*
X876300Y647700D03*
G01*
X203200Y800100D03*
G01*
X-114300Y114300D03*
D58*
G01*
X-977900Y-1943100D03*
G01*
X-774700Y-1943100D03*
D57*
G01*
X-736600Y-2032000D03*
D58*
G01*
X-774700Y-2120900D03*
G01*
X-977900Y-2120900D03*
G01*
X-215900Y-2120900D03*
G01*
X-419100Y-2120900D03*
D57*
G01*
X-457200Y-2032000D03*
D58*
G01*
X-419100Y-1943100D03*
G01*
X-215900Y-1943100D03*
D57*
G01*
X-825500Y1168400D03*
G01*
X-1016000Y1993900D03*
G01*
X-1587500Y977900D03*
G01*
X-1345184Y2073351D03*
G01*
X-1054100Y889000D03*
G01*
X-1562100Y1155700D03*
G01*
X-1701800Y-1460500D03*
G01*
X1739900Y-1270000D03*
G01*
X914400Y-889000D03*
G01*
X787400Y419100D03*
G01*
X-1384300Y558800D03*
G01*
X-1422400Y-1255928D03*
G01*
X-1340789Y-1255928D03*
G01*
X-1258900Y-1255928D03*
G01*
X-1178407Y-1255928D03*
G01*
X749300Y-1257300D03*
G01*
X835075Y-1261465D03*
G01*
X916965Y-1261465D03*
G01*
X997457Y-1261465D03*
G01*
X236931Y-1260957D03*
G01*
X318541Y-1260957D03*
G01*
X400430Y-1260957D03*
G01*
X480923Y-1260957D03*
G01*
X-1511300Y2082800D03*
G01*
X1866900Y-1435100D03*
G01*
X1993900Y-1371600D03*
G01*
X1993900Y-1270000D03*
G01*
X1003300Y-889000D03*
G01*
X901700Y419100D03*
G01*
X-469900Y101600D03*
G01*
X-546100Y101600D03*
G01*
X-2095500Y1231900D03*
G01*
X-647700Y1041400D03*
G01*
X751992Y1672005D03*
G01*
X952500Y1485900D03*
G01*
X-139700Y1955800D03*
G01*
X-1333500Y-177800D03*
G01*
X-1562100Y-177800D03*
G01*
X-1333500Y38100D03*
G01*
X-1562100Y38100D03*
G01*
X-1447800Y-292100D03*
G01*
X-1663700Y-76200D03*
G01*
X-1227328Y-76200D03*
G01*
X-1447774Y-76200D03*
G01*
X-1447545Y141630D03*
G01*
X456996Y1363192D03*
G01*
X456996Y1443507D03*
G01*
X377088Y1443507D03*
G01*
X377088Y1363192D03*
G01*
X377088Y1282700D03*
G01*
X456996Y1282700D03*
G01*
X537692Y1282700D03*
G01*
X537692Y1363192D03*
G01*
X537692Y1443507D03*
G01*
X537692Y1524000D03*
G01*
X456996Y1524000D03*
G01*
X377088Y1524000D03*
G01*
X296392Y1524000D03*
G01*
X296392Y1443507D03*
G01*
X296392Y1363192D03*
G01*
X296392Y1282700D03*
G01*
X2006600Y-139700D03*
G01*
X1866900Y-139700D03*
G01*
X1270000Y1447800D03*
G01*
X1155700Y1562100D03*
G01*
X482600Y419100D03*
G01*
X1308100Y558800D03*
G01*
X1587500Y203200D03*
G01*
X1384300Y431800D03*
G01*
X1533982Y-355600D03*
G01*
X1453489Y-355600D03*
G01*
X1289989Y-355600D03*
G01*
X1371600Y-355600D03*
G01*
X1206500Y-355600D03*
G01*
X1277289Y-800100D03*
G01*
X1231900Y-876300D03*
G01*
X1193800Y-800100D03*
G01*
X-215900Y685800D03*
G01*
X-215900Y812800D03*
G01*
X-215900Y939800D03*
G01*
X-1905000Y914400D03*
G01*
X-455117Y-757148D03*
G01*
X-371627Y-757148D03*
G01*
X-290017Y-757148D03*
G01*
X-208127Y-757148D03*
G01*
X-985977Y-762228D03*
G01*
X-902487Y-762228D03*
G01*
X-820877Y-762228D03*
G01*
X-738987Y-762228D03*
G01*
X-658495Y-762228D03*
G01*
X225907Y-299669D03*
G01*
X266700Y-364439D03*
G01*
X314807Y-299669D03*
G01*
X355600Y-364439D03*
G01*
X403707Y-299669D03*
G01*
X444500Y-364439D03*
G01*
X444500Y-229488D03*
G01*
X492607Y-299669D03*
G01*
X492607Y-160502D03*
G01*
X533400Y-364439D03*
G01*
X533400Y-229488D03*
G01*
X533400Y-88900D03*
G01*
X38100Y-190500D03*
G01*
X-2140813Y-1104290D03*
G01*
X-2140280Y-1020698D03*
G01*
X-2070100Y-977900D03*
G01*
X-2070100Y-1061491D03*
G01*
X-2070100Y-1143000D03*
G01*
X-2140813Y-1185798D03*
G01*
X-2140813Y-1269288D03*
G01*
X-2140813Y-1350898D03*
G01*
X-2070100Y-1308100D03*
G01*
X-2070100Y-1226489D03*
G01*
X-2001113Y-1185748D03*
G01*
X-2001113Y-1350898D03*
G01*
X-2070100Y-1389989D03*
G01*
X-2140813Y-1432788D03*
G01*
X-2070100Y-1470482D03*
G01*
X-2001113Y-1432788D03*
G01*
X-2001113Y-1269263D03*
G01*
X-2001113Y-1104290D03*
G01*
X-2001113Y-1020698D03*
G01*
X-1929511Y-1061491D03*
G01*
X-1929511Y-1143000D03*
G01*
X-1929511Y-1226489D03*
G01*
X-1929511Y-1308100D03*
G01*
X-1929511Y-1389989D03*
G01*
X619709Y-364439D03*
G01*
X701217Y-363702D03*
G01*
X662508Y-300202D03*
G01*
X578916Y-299669D03*
G01*
X619709Y-229488D03*
G01*
X701217Y-229488D03*
G01*
X744016Y-300202D03*
G01*
X784707Y-363702D03*
G01*
X827506Y-300202D03*
G01*
X866317Y-363702D03*
G01*
X948207Y-363702D03*
G01*
X909116Y-300202D03*
G01*
X866317Y-229488D03*
G01*
X784707Y-229488D03*
G01*
X743965Y-160502D03*
G01*
X909116Y-160502D03*
G01*
X948207Y-229488D03*
G01*
X991006Y-300202D03*
G01*
X991006Y-160502D03*
G01*
X827481Y-160502D03*
G01*
X662508Y-160502D03*
G01*
X578916Y-160502D03*
G01*
X619709Y-88900D03*
G01*
X701217Y-88900D03*
G01*
X784707Y-88900D03*
G01*
X866317Y-88900D03*
G01*
X948207Y-88900D03*
G01*
X-266700Y431800D03*
G01*
X1320800Y1193800D03*
G01*
X1066800Y1193800D03*
G01*
X787400Y914400D03*
G01*
X1320800Y685800D03*
G01*
X139700Y-190500D03*
G01*
X-241300Y241300D03*
G01*
X660400Y914400D03*
G01*
X-1905000Y1231900D03*
G01*
X1320800Y939800D03*
G01*
X-50800Y520700D03*
G01*
X1221917Y-1574800D03*
G01*
X1183208Y-1511300D03*
G01*
X1221917Y-1440586D03*
G01*
X1264716Y-1511300D03*
G01*
X1305407Y-1574800D03*
G01*
X1348206Y-1511300D03*
G01*
X1387017Y-1574800D03*
G01*
X1468907Y-1574800D03*
G01*
X1429816Y-1511300D03*
G01*
X1387017Y-1440586D03*
G01*
X1305407Y-1440586D03*
G01*
X1264665Y-1371600D03*
G01*
X1429816Y-1371600D03*
G01*
X1468907Y-1440586D03*
G01*
X1511706Y-1511300D03*
G01*
X1549400Y-1574800D03*
G01*
X1549400Y-1440586D03*
G01*
X1511706Y-1371600D03*
G01*
X1348181Y-1371600D03*
G01*
X1183208Y-1371600D03*
G01*
X1221917Y-1299997D03*
G01*
X1305407Y-1299997D03*
G01*
X1387017Y-1299997D03*
G01*
X1468907Y-1299997D03*
G01*
X1549400Y-1299997D03*
G01*
X-416382Y-1570202D03*
G01*
X-455091Y-1506702D03*
G01*
X-416382Y-1435988D03*
G01*
X-373583Y-1506702D03*
G01*
X-332892Y-1570202D03*
G01*
X-290093Y-1506702D03*
G01*
X-251282Y-1570202D03*
G01*
X-169392Y-1570202D03*
G01*
X-208483Y-1506702D03*
G01*
X-251282Y-1435988D03*
G01*
X-332892Y-1435988D03*
G01*
X-373634Y-1367002D03*
G01*
X-208483Y-1367002D03*
G01*
X-169392Y-1435988D03*
G01*
X-126593Y-1506702D03*
G01*
X-88900Y-1570202D03*
G01*
X-88900Y-1435988D03*
G01*
X-126593Y-1367002D03*
G01*
X-290118Y-1367002D03*
G01*
X-455091Y-1367002D03*
G01*
X-416382Y-1295400D03*
G01*
X-332892Y-1295400D03*
G01*
X-251282Y-1295400D03*
G01*
X-169392Y-1295400D03*
G01*
X-88900Y-1295400D03*
G01*
X-962482Y-1570202D03*
G01*
X-1001191Y-1506702D03*
G01*
X-962482Y-1435988D03*
G01*
X-919683Y-1506702D03*
G01*
X-878992Y-1570202D03*
G01*
X-836193Y-1506702D03*
G01*
X-797382Y-1570202D03*
G01*
X-715492Y-1570202D03*
G01*
X-754583Y-1506702D03*
G01*
X-797382Y-1435988D03*
G01*
X-878992Y-1435988D03*
G01*
X-919734Y-1367002D03*
G01*
X-754583Y-1367002D03*
G01*
X-715492Y-1435988D03*
G01*
X-672693Y-1506702D03*
G01*
X-635000Y-1570202D03*
G01*
X-635000Y-1435988D03*
G01*
X-672693Y-1367002D03*
G01*
X-836218Y-1367002D03*
G01*
X-1001191Y-1367002D03*
G01*
X-962482Y-1295400D03*
G01*
X-878992Y-1295400D03*
G01*
X-797382Y-1295400D03*
G01*
X-715492Y-1295400D03*
G01*
X-635000Y-1295400D03*
G01*
X-1508582Y-1849602D03*
G01*
X-1547291Y-1786102D03*
G01*
X-1508582Y-1715388D03*
G01*
X-1465783Y-1786102D03*
G01*
X-1425092Y-1849602D03*
G01*
X-1382293Y-1786102D03*
G01*
X-1343482Y-1849602D03*
G01*
X-1261592Y-1849602D03*
G01*
X-1300683Y-1786102D03*
G01*
X-1343482Y-1715388D03*
G01*
X-1425092Y-1715388D03*
G01*
X-1465834Y-1646402D03*
G01*
X-1300683Y-1646402D03*
G01*
X-1261592Y-1715388D03*
G01*
X-1218793Y-1786102D03*
G01*
X-1181100Y-1849602D03*
G01*
X-1181100Y-1715388D03*
G01*
X-1218793Y-1646402D03*
G01*
X-1382318Y-1646402D03*
G01*
X-1547291Y-1646402D03*
G01*
X-1508582Y-1574800D03*
G01*
X-1425092Y-1574800D03*
G01*
X-1343482Y-1574800D03*
G01*
X-1261592Y-1574800D03*
G01*
X-1181100Y-1574800D03*
G01*
X129717Y-1849602D03*
G01*
X91008Y-1786102D03*
G01*
X129717Y-1715388D03*
G01*
X172516Y-1786102D03*
G01*
X213207Y-1849602D03*
G01*
X256006Y-1786102D03*
G01*
X294817Y-1849602D03*
G01*
X376707Y-1849602D03*
G01*
X337616Y-1786102D03*
G01*
X294817Y-1715388D03*
G01*
X213207Y-1715388D03*
G01*
X172465Y-1646402D03*
G01*
X337616Y-1646402D03*
G01*
X376707Y-1715388D03*
G01*
X419506Y-1786102D03*
G01*
X457200Y-1849602D03*
G01*
X457200Y-1715388D03*
G01*
X419506Y-1646402D03*
G01*
X255981Y-1646402D03*
G01*
X91008Y-1646402D03*
G01*
X129717Y-1574800D03*
G01*
X213207Y-1574800D03*
G01*
X294817Y-1574800D03*
G01*
X376707Y-1574800D03*
G01*
X457200Y-1574800D03*
G01*
X675817Y-1849602D03*
G01*
X637108Y-1786102D03*
G01*
X675817Y-1715388D03*
G01*
X718616Y-1786102D03*
G01*
X759307Y-1849602D03*
G01*
X802106Y-1786102D03*
G01*
X840917Y-1849602D03*
G01*
X922807Y-1849602D03*
G01*
X883716Y-1786102D03*
G01*
X840917Y-1715388D03*
G01*
X759307Y-1715388D03*
G01*
X718565Y-1646402D03*
G01*
X883716Y-1646402D03*
G01*
X922807Y-1715388D03*
G01*
X965606Y-1786102D03*
G01*
X1003300Y-1849602D03*
G01*
X1003300Y-1715388D03*
G01*
X965606Y-1646402D03*
G01*
X802081Y-1646402D03*
G01*
X637108Y-1646402D03*
G01*
X675817Y-1574800D03*
G01*
X759307Y-1574800D03*
G01*
X840917Y-1574800D03*
G01*
X922807Y-1574800D03*
G01*
X1003300Y-1574800D03*
G01*
X419100Y-952500D03*
G01*
X419100Y-635000D03*
G01*
X-1745005Y-812800D03*
G01*
X-1845005Y-812800D03*
G01*
X-2082800Y-584200D03*
G01*
X-1397000Y-1066800D03*
G01*
X-2057400Y-800100D03*
G01*
X-1727200Y-1066800D03*
G01*
X-1955800Y-800100D03*
G01*
X-2120900Y-508000D03*
G01*
X-2070100Y-444500D03*
G01*
X203200Y-863600D03*
G01*
X76200Y-990600D03*
G01*
X-2057400Y50800D03*
G01*
X-2057400Y152400D03*
G01*
X-2057400Y228600D03*
G01*
X-2070100Y317500D03*
G01*
X-2070100Y469900D03*
G01*
X-2032000Y558800D03*
G01*
X-1943100Y558800D03*
G01*
X-1587500Y558800D03*
G01*
X-1663700Y558800D03*
G01*
X-1727200Y508000D03*
G01*
X-1790700Y558800D03*
G01*
X-1866900Y508000D03*
G01*
X-127000Y1447800D03*
G01*
X-127000Y1320800D03*
G01*
X63500Y1320800D03*
G01*
X38100Y787400D03*
G01*
X-254000Y558800D03*
G01*
X-1536700Y-812800D03*
G01*
X-1638300Y-812800D03*
G01*
X825500Y-660400D03*
G01*
X825500Y-939800D03*
G01*
X1587500Y1701800D03*
G01*
X1638300Y1473200D03*
G01*
X-139700Y1828800D03*
G01*
X1320800Y1066800D03*
G01*
X127000Y1498600D03*
G01*
X-2082800Y711200D03*
D58*
G01*
X2082800Y-939800D03*
G01*
X1930400Y-1092200D03*
G01*
X1778000Y-939800D03*
G01*
X1930400Y-787400D03*
G01*
X2082800Y-431800D03*
G01*
X1930400Y-584200D03*
G01*
X1778000Y-431800D03*
G01*
X1930400Y-279400D03*
G01*
X1409700Y-1943100D03*
D57*
G01*
X1447800Y-2032000D03*
D58*
G01*
X1409700Y-2120900D03*
G01*
X1206500Y-2120900D03*
G01*
X1206500Y-1943100D03*
D57*
G01*
X1524000Y-25400D03*
D59*
G01*
X-328421Y2081529D03*
G01*
X685800Y419100D03*
G01*
X-774700Y2057400D03*
G01*
X-1054100Y965200D03*
D58*
G01*
X-1516913Y-2120519D03*
G01*
X-1417853Y-2123059D03*
G01*
X310464Y-2135301D03*
G01*
X208864Y-2135301D03*
G01*
X673100Y-2133600D03*
G01*
X766826Y-2137206D03*
D60*
G01*
X1803400Y-304800D03*
G01*
X1803400Y-558800D03*
G01*
X2057400Y-304800D03*
G01*
X2057400Y-558800D03*
G01*
X2057400Y-1066800D03*
G01*
X2057400Y-812800D03*
G01*
X1803400Y-812800D03*
G01*
X1803400Y-1066800D03*
D59*
G01*
X-774700Y1955800D03*
G01*
X1257300Y-591057D03*
G01*
X1257300Y-508000D03*
M02*
