G04 Layer: BottomSolderMaskLayer*
G04 EasyEDA v6.5.42, 2024-06-19 17:53:58*
G04 0aa094f9eb354ad99160228faad6b286,7c1e8d740ba24e6f83eb2d53d3341807,10*
G04 Gerber Generator version 0.2*
G04 Scale: 100 percent, Rotated: No, Reflected: No *
G04 Dimensions in millimeters *
G04 leading zeros omitted , absolute positions ,4 integer and 5 decimal *
%FSLAX45Y45*%
%MOMM*%

%AMMACRO1*4,1,4,-0.7017,-1.1016,-0.7017,1.1016,0.7017,1.1016,0.7017,-1.1016,-0.7017,-1.1016,0*%
%AMMACRO2*4,1,4,-0.4017,-0.7765,-0.4017,0.7765,0.4017,0.7765,0.4017,-0.7765,-0.4017,-0.7765,0*%
%AMMACRO3*1,1,$1,$2,$3*1,1,$1,$4,$5*1,1,$1,0-$2,0-$3*1,1,$1,0-$4,0-$5*20,1,$1,$2,$3,$4,$5,0*20,1,$1,$4,$5,0-$2,0-$3,0*20,1,$1,0-$2,0-$3,0-$4,0-$5,0*20,1,$1,0-$4,0-$5,$2,$3,0*4,1,4,$2,$3,$4,$5,0-$2,0-$3,0-$4,0-$5,$2,$3,0*%
%ADD10MACRO1*%
%ADD11MACRO2*%
%ADD12MACRO3,0.2032X-0.3X-0.775X0.3X-0.775*%
%ADD13MACRO3,0.2032X-0.75X-1X0.75X-1*%
%ADD14MACRO3,0.2032X-0.9017X-0.2032X0.9017X-0.2032*%
%ADD15R,1.7532X1.2032*%
%ADD16R,1.8296X1.5866*%
%ADD17C,1.7780*%
%ADD18O,1.778X1.778*%
%ADD19R,1.7780X1.7780*%
%ADD20MACRO3,0.2032X0.7874X0.7874X0.7874X-0.7874*%
%ADD21MACRO3,0.2032X2X2X2X-2*%
%ADD22C,2.9032*%
%ADD23C,1.9032*%
%ADD24C,4.2016*%

%LPD*%
D10*
G01*
X723303Y2069287D03*
G01*
X1283296Y2069287D03*
D11*
G01*
X853300Y1701800D03*
G01*
X953300Y1701800D03*
G01*
X1053299Y1701800D03*
G01*
X1153299Y1701800D03*
D12*
G01*
X-1215194Y1685848D03*
G01*
X-1115194Y1685848D03*
G01*
X-1015194Y1685848D03*
G01*
X-915195Y1685848D03*
G01*
X-815195Y1685848D03*
G01*
X-715195Y1685848D03*
D13*
G01*
X-585204Y2073348D03*
G01*
X-1345192Y2073348D03*
D14*
G01*
X289559Y-195000D03*
G01*
X289559Y-129999D03*
G01*
X289559Y-64998D03*
G01*
X289559Y0D03*
G01*
X289559Y65001D03*
G01*
X289559Y129999D03*
G01*
X289559Y195000D03*
G01*
X-289559Y195000D03*
G01*
X-289559Y129999D03*
G01*
X-289559Y65001D03*
G01*
X-289559Y0D03*
G01*
X-289559Y-64998D03*
G01*
X-289559Y-129999D03*
G01*
X-289559Y-195000D03*
D15*
G01*
X-1003300Y-839800D03*
G01*
X-1003300Y-1039799D03*
G01*
X-774700Y-839800D03*
G01*
X-774700Y-1039799D03*
G01*
X-546100Y-839800D03*
G01*
X-546100Y-1039799D03*
G01*
X-317500Y-839800D03*
G01*
X-317500Y-1039799D03*
G01*
X-88900Y-839800D03*
G01*
X-88900Y-1039799D03*
G01*
X1244600Y-827100D03*
G01*
X1244600Y-1027099D03*
D16*
G01*
X1257300Y-591057D03*
G01*
X1257300Y-272542D03*
G01*
X1498600Y-591057D03*
G01*
X1498600Y-272542D03*
D15*
G01*
X1485900Y-827100D03*
G01*
X1485900Y-1027099D03*
D17*
G01*
X1765300Y292100D03*
G01*
X2019300Y292100D03*
D18*
G01*
X1765300Y546100D03*
D17*
G01*
X1765300Y800100D03*
D19*
G01*
X1765300Y1054100D03*
G01*
X1765300Y1308100D03*
D20*
G01*
X2019300Y1308100D03*
D17*
G01*
X2019300Y1054100D03*
G01*
X2019300Y800100D03*
G01*
X2019300Y546100D03*
D21*
G01*
X1930400Y-939800D03*
G01*
X1930400Y-431800D03*
D22*
G01*
X-876300Y-2032000D03*
G01*
X-317500Y-2032000D03*
G01*
X1308100Y-2032000D03*
D23*
G01*
X-1054100Y-2082495D03*
G01*
X1130300Y-2082800D03*
G01*
X-143027Y-2082520D03*
D24*
G01*
X1899996Y1749983D03*
G01*
X-1899996Y1749983D03*
G01*
X-1899996Y-1750009D03*
G01*
X1899996Y-1750009D03*
M02*
