G04 Layer: TopPasteMaskLayer*
G04 EasyEDA v6.5.42, 2024-06-19 17:53:58*
G04 0aa094f9eb354ad99160228faad6b286,7c1e8d740ba24e6f83eb2d53d3341807,10*
G04 Gerber Generator version 0.2*
G04 Scale: 100 percent, Rotated: No, Reflected: No *
G04 Dimensions in millimeters *
G04 leading zeros omitted , absolute positions ,4 integer and 5 decimal *
%FSLAX45Y45*%
%MOMM*%

%AMMACRO1*21,1,$1,$2,0,0,$3*%
%ADD10R,2.0600X2.0700*%
%ADD11R,0.8000X0.5000*%
%ADD12R,0.8000X0.9000*%
%ADD13R,0.8000X0.8000*%
%ADD14R,3.3000X1.6000*%
%ADD15R,0.5000X0.5000*%
%ADD16R,1.6000X3.3000*%
%ADD17R,1.1000X0.6000*%
%ADD18R,0.8000X0.4000*%
%ADD19R,1.5500X1.0000*%
%ADD20R,1.8000X1.0008*%
%ADD21R,1.0008X1.8000*%
%ADD22R,1.8000X4.2000*%
%ADD23R,0.5000X0.8000*%
%ADD24R,1.8000X2.0000*%
%ADD25R,1.0000X1.5500*%
%ADD26R,1.9000X1.2000*%
%ADD27R,1.0000X1.1000*%
%ADD28MACRO1,0.254X1.143X-135.0000*%
%ADD29MACRO1,0.2541X1.143X-135.0405*%
%ADD30MACRO1,1.1428X0.254X-135.0090*%
%ADD31MACRO1,1.143X0.254X-135.0000*%
%ADD32MACRO1,1.143X0.2541X-135.0000*%
%ADD33MACRO1,1.143X0.2999X-135.0000*%
%ADD34MACRO1,3.6999X3.7X-135.0000*%
%ADD35R,1.0008X1.6993*%
%ADD36R,0.6350X1.2700*%
%ADD37R,0.0113X1.2700*%

%LPD*%
G36*
X1537004Y-1740306D02*
G01*
X1537004Y-1840280D01*
X1586992Y-1840280D01*
X1586992Y-1740306D01*
G37*
G36*
X1410004Y-1740306D02*
G01*
X1410004Y-1840280D01*
X1459992Y-1840280D01*
X1459992Y-1740306D01*
G37*
G36*
X1283004Y-1740306D02*
G01*
X1283004Y-1840280D01*
X1332992Y-1840280D01*
X1332992Y-1740306D01*
G37*
G36*
X1156004Y-1740306D02*
G01*
X1156004Y-1840280D01*
X1205992Y-1840280D01*
X1205992Y-1740306D01*
G37*
G36*
X1151483Y-1200302D02*
G01*
X1151483Y-1610309D01*
X1591513Y-1610309D01*
X1591513Y-1200302D01*
X1531518Y-1200302D01*
X1531518Y-1260297D01*
X1461516Y-1260297D01*
X1461516Y-1200302D01*
X1411478Y-1200302D01*
X1411478Y-1260297D01*
X1331518Y-1260297D01*
X1331518Y-1200302D01*
X1281480Y-1200302D01*
X1281480Y-1260297D01*
X1211478Y-1260297D01*
X1211478Y-1200302D01*
G37*
G36*
X609904Y-1309065D02*
G01*
X609904Y-1409090D01*
X659892Y-1409090D01*
X659892Y-1309065D01*
G37*
G36*
X736904Y-1309065D02*
G01*
X736904Y-1409090D01*
X786892Y-1409090D01*
X786892Y-1309065D01*
G37*
G36*
X863904Y-1309065D02*
G01*
X863904Y-1409090D01*
X913892Y-1409090D01*
X913892Y-1309065D01*
G37*
G36*
X990904Y-1309065D02*
G01*
X990904Y-1409090D01*
X1040892Y-1409090D01*
X1040892Y-1309065D01*
G37*
G36*
X605383Y-1539087D02*
G01*
X605383Y-1949094D01*
X665378Y-1949094D01*
X665378Y-1889099D01*
X735380Y-1889099D01*
X735380Y-1949094D01*
X785418Y-1949094D01*
X785418Y-1889099D01*
X865378Y-1889099D01*
X865378Y-1949094D01*
X915416Y-1949094D01*
X915416Y-1889099D01*
X985418Y-1889099D01*
X985418Y-1949094D01*
X1045413Y-1949094D01*
X1045413Y-1539087D01*
G37*
G36*
X-101295Y-1740306D02*
G01*
X-101295Y-1840280D01*
X-51308Y-1840280D01*
X-51308Y-1740306D01*
G37*
G36*
X-228295Y-1740306D02*
G01*
X-228295Y-1840280D01*
X-178308Y-1840280D01*
X-178308Y-1740306D01*
G37*
G36*
X-355295Y-1740306D02*
G01*
X-355295Y-1840280D01*
X-305308Y-1840280D01*
X-305308Y-1740306D01*
G37*
G36*
X-482295Y-1740306D02*
G01*
X-482295Y-1840280D01*
X-432308Y-1840280D01*
X-432308Y-1740306D01*
G37*
G36*
X-486816Y-1200302D02*
G01*
X-486816Y-1610309D01*
X-46786Y-1610309D01*
X-46786Y-1200302D01*
X-106781Y-1200302D01*
X-106781Y-1260297D01*
X-176784Y-1260297D01*
X-176784Y-1200302D01*
X-226821Y-1200302D01*
X-226821Y-1260297D01*
X-306781Y-1260297D01*
X-306781Y-1200302D01*
X-356819Y-1200302D01*
X-356819Y-1260297D01*
X-426821Y-1260297D01*
X-426821Y-1200302D01*
G37*
G36*
X63804Y-1309065D02*
G01*
X63804Y-1409090D01*
X113792Y-1409090D01*
X113792Y-1309065D01*
G37*
G36*
X190804Y-1309065D02*
G01*
X190804Y-1409090D01*
X240792Y-1409090D01*
X240792Y-1309065D01*
G37*
G36*
X317804Y-1309065D02*
G01*
X317804Y-1409090D01*
X367792Y-1409090D01*
X367792Y-1309065D01*
G37*
G36*
X444804Y-1309065D02*
G01*
X444804Y-1409090D01*
X494792Y-1409090D01*
X494792Y-1309065D01*
G37*
G36*
X59283Y-1539087D02*
G01*
X59283Y-1949094D01*
X119278Y-1949094D01*
X119278Y-1889099D01*
X189280Y-1889099D01*
X189280Y-1949094D01*
X239318Y-1949094D01*
X239318Y-1889099D01*
X319278Y-1889099D01*
X319278Y-1949094D01*
X369316Y-1949094D01*
X369316Y-1889099D01*
X439318Y-1889099D01*
X439318Y-1949094D01*
X499313Y-1949094D01*
X499313Y-1539087D01*
G37*
G36*
X-647395Y-1740306D02*
G01*
X-647395Y-1840280D01*
X-597408Y-1840280D01*
X-597408Y-1740306D01*
G37*
G36*
X-774395Y-1740306D02*
G01*
X-774395Y-1840280D01*
X-724408Y-1840280D01*
X-724408Y-1740306D01*
G37*
G36*
X-901395Y-1740306D02*
G01*
X-901395Y-1840280D01*
X-851408Y-1840280D01*
X-851408Y-1740306D01*
G37*
G36*
X-1028395Y-1740306D02*
G01*
X-1028395Y-1840280D01*
X-978408Y-1840280D01*
X-978408Y-1740306D01*
G37*
G36*
X-1032916Y-1200302D02*
G01*
X-1032916Y-1610309D01*
X-592886Y-1610309D01*
X-592886Y-1200302D01*
X-652881Y-1200302D01*
X-652881Y-1260297D01*
X-722884Y-1260297D01*
X-722884Y-1200302D01*
X-772922Y-1200302D01*
X-772922Y-1260297D01*
X-852881Y-1260297D01*
X-852881Y-1200302D01*
X-902919Y-1200302D01*
X-902919Y-1260297D01*
X-972921Y-1260297D01*
X-972921Y-1200302D01*
G37*
G36*
X-1574495Y-1309065D02*
G01*
X-1574495Y-1409090D01*
X-1524508Y-1409090D01*
X-1524508Y-1309065D01*
G37*
G36*
X-1447495Y-1309065D02*
G01*
X-1447495Y-1409090D01*
X-1397508Y-1409090D01*
X-1397508Y-1309065D01*
G37*
G36*
X-1320495Y-1309065D02*
G01*
X-1320495Y-1409090D01*
X-1270508Y-1409090D01*
X-1270508Y-1309065D01*
G37*
G36*
X-1193495Y-1309065D02*
G01*
X-1193495Y-1409090D01*
X-1143508Y-1409090D01*
X-1143508Y-1309065D01*
G37*
G36*
X-1579016Y-1539087D02*
G01*
X-1579016Y-1949094D01*
X-1519021Y-1949094D01*
X-1519021Y-1889099D01*
X-1449019Y-1889099D01*
X-1449019Y-1949094D01*
X-1398981Y-1949094D01*
X-1398981Y-1889099D01*
X-1319022Y-1889099D01*
X-1319022Y-1949094D01*
X-1268984Y-1949094D01*
X-1268984Y-1889099D01*
X-1198981Y-1889099D01*
X-1198981Y-1949094D01*
X-1138986Y-1949094D01*
X-1138986Y-1539087D01*
G37*
D10*
G01*
X1498600Y-904112D03*
G01*
X1498600Y-518312D03*
D11*
G01*
X2006600Y-24587D03*
G01*
X2006600Y75412D03*
G01*
X1739900Y-1359712D03*
G01*
X1739900Y-1459712D03*
D12*
G01*
X-1860600Y-1358900D03*
G01*
X-1720621Y-1358900D03*
D13*
G01*
X67310Y50800D03*
G01*
X237489Y50800D03*
G01*
X1393189Y50800D03*
G01*
X1223010Y50800D03*
G01*
X638810Y50800D03*
G01*
X808989Y50800D03*
D14*
G01*
X876198Y-487806D03*
G01*
X876198Y-1137818D03*
D15*
G01*
X876198Y-1066800D03*
G01*
X876198Y-558800D03*
D14*
G01*
X418998Y-487806D03*
G01*
X418998Y-1137818D03*
D15*
G01*
X418998Y-1066800D03*
G01*
X418998Y-558800D03*
D16*
G01*
X-1887220Y-1066800D03*
G01*
X-1237208Y-1066800D03*
D15*
G01*
X-1308201Y-1066800D03*
G01*
X-1816201Y-1066800D03*
D17*
G01*
X-1316075Y1060678D03*
G01*
X-1316075Y1155674D03*
G01*
X-1316075Y1250670D03*
G01*
X-1046073Y1250670D03*
G01*
X-1046073Y1155674D03*
G01*
X-1046073Y1060678D03*
D18*
G01*
X1873910Y-1398498D03*
G01*
X1873910Y-1268501D03*
G01*
X2113889Y-1268501D03*
G01*
X2113889Y-1333500D03*
G01*
X2113889Y-1398498D03*
D12*
G01*
X-1263802Y1930400D03*
G01*
X-1123797Y1930400D03*
G01*
X-1263700Y2082800D03*
G01*
X-1123721Y2082800D03*
D11*
G01*
X1727200Y-24612D03*
G01*
X1727200Y75387D03*
D19*
G01*
X-749300Y404799D03*
G01*
X-749300Y204800D03*
D20*
G01*
X-328498Y1700529D03*
G01*
X-328498Y1573529D03*
G01*
X-328498Y1446529D03*
G01*
X-328498Y1319529D03*
G01*
X-328498Y1192529D03*
G01*
X-328498Y1065529D03*
G01*
X-328498Y938529D03*
G01*
X-328498Y811529D03*
D21*
G01*
X1145539Y278409D03*
D20*
G01*
X1471498Y430529D03*
G01*
X1471498Y557529D03*
G01*
X1471498Y684529D03*
G01*
X1471498Y811529D03*
G01*
X1471498Y938529D03*
G01*
X1471498Y1065529D03*
G01*
X1471498Y1192529D03*
G01*
X-328498Y684529D03*
G01*
X-328498Y557529D03*
G01*
X-328498Y430529D03*
D21*
G01*
X2539Y278409D03*
G01*
X129539Y278409D03*
D20*
G01*
X-328498Y1827529D03*
G01*
X-328498Y1954529D03*
G01*
X-328498Y2081529D03*
D21*
G01*
X1018539Y278409D03*
D20*
G01*
X1471498Y1319529D03*
G01*
X1471498Y1446529D03*
G01*
X1471498Y1573529D03*
G01*
X1471498Y1700529D03*
G01*
X1471498Y1827529D03*
G01*
X1471498Y1954529D03*
G01*
X1471498Y2081529D03*
D11*
G01*
X1587500Y-24612D03*
G01*
X1587500Y75387D03*
G01*
X-127000Y-75387D03*
G01*
X-127000Y24612D03*
D22*
G01*
X-1252194Y1600200D03*
G01*
X-932205Y1600200D03*
D19*
G01*
X-698576Y-852500D03*
G01*
X-698576Y-1052499D03*
D11*
G01*
X-1524000Y1358087D03*
G01*
X-1524000Y1258087D03*
D23*
G01*
X-1245387Y889000D03*
G01*
X-1345387Y889000D03*
D11*
G01*
X-1485900Y940587D03*
G01*
X-1485900Y1040587D03*
D24*
G01*
X-1524000Y1952599D03*
G01*
X-1524000Y1552600D03*
D23*
G01*
X-610387Y1651000D03*
G01*
X-710387Y1651000D03*
D11*
G01*
X1866900Y75412D03*
G01*
X1866900Y-24587D03*
D23*
G01*
X1408912Y-114300D03*
G01*
X1308912Y-114300D03*
D11*
G01*
X-279400Y24612D03*
G01*
X-279400Y-75387D03*
D19*
G01*
X1231900Y-827100D03*
G01*
X1231900Y-1027099D03*
G01*
X-165100Y-852500D03*
G01*
X-165100Y-1052499D03*
G01*
X1231900Y-382600D03*
G01*
X1231900Y-582599D03*
D25*
G01*
X-649300Y1193800D03*
G01*
X-849299Y1193800D03*
D26*
G01*
X-596900Y614705D03*
G01*
X-596900Y934720D03*
D23*
G01*
X-684987Y2070100D03*
G01*
X-584987Y2070100D03*
D11*
G01*
X-2095525Y-354787D03*
G01*
X-2095525Y-254787D03*
D23*
G01*
X-610412Y1498600D03*
G01*
X-710412Y1498600D03*
G01*
X-684987Y1917700D03*
G01*
X-584987Y1917700D03*
D19*
G01*
X-406476Y-852500D03*
G01*
X-406476Y-1052499D03*
D26*
G01*
X-495300Y210794D03*
G01*
X-495300Y-109220D03*
D23*
G01*
X-1637537Y-723900D03*
G01*
X-1537538Y-723900D03*
G01*
X-1745056Y-711200D03*
G01*
X-1845055Y-711200D03*
G01*
X-1956612Y-698500D03*
G01*
X-2056612Y-698500D03*
D11*
G01*
X-762000Y-812D03*
G01*
X-762000Y-100812D03*
D23*
G01*
X-1485087Y596900D03*
G01*
X-1385087Y596900D03*
G01*
X-1156512Y622300D03*
G01*
X-1256512Y622300D03*
G01*
X-888212Y812800D03*
G01*
X-788212Y812800D03*
D27*
G01*
X-1004392Y635000D03*
G01*
X-824382Y635000D03*
D23*
G01*
X394487Y50800D03*
G01*
X494487Y50800D03*
D28*
G01*
X-1571536Y436460D03*
G01*
X-1606892Y401104D03*
D29*
G01*
X-1642236Y365747D03*
G01*
X-1677593Y330390D03*
D28*
G01*
X-1712937Y295033D03*
G01*
X-1748294Y259676D03*
G01*
X-1783651Y224320D03*
G01*
X-1819008Y188963D03*
G01*
X-1854365Y153606D03*
G01*
X-1889721Y118249D03*
G01*
X-1925078Y82892D03*
G01*
X-1960435Y47536D03*
D30*
G01*
X-1960435Y-199948D03*
D31*
G01*
X-1925078Y-235292D03*
G01*
X-1889721Y-270649D03*
G01*
X-1854365Y-306006D03*
G01*
X-1819008Y-341363D03*
G01*
X-1783651Y-376720D03*
G01*
X-1748294Y-412076D03*
G01*
X-1712937Y-447433D03*
D32*
G01*
X-1677593Y-482790D03*
G01*
X-1642236Y-518147D03*
D31*
G01*
X-1606892Y-553504D03*
D32*
G01*
X-1571523Y-588860D03*
D28*
G01*
X-1324038Y-588860D03*
G01*
X-1288681Y-553504D03*
G01*
X-1253324Y-518147D03*
G01*
X-1217968Y-482790D03*
G01*
X-1182611Y-447433D03*
G01*
X-1147254Y-412076D03*
G01*
X-1111897Y-376720D03*
G01*
X-1076540Y-341363D03*
D29*
G01*
X-1041196Y-306006D03*
G01*
X-1005840Y-270649D03*
D28*
G01*
X-970495Y-235292D03*
G01*
X-935139Y-199936D03*
D33*
G01*
X-935139Y47536D03*
D31*
G01*
X-970495Y82892D03*
D32*
G01*
X-1005840Y118249D03*
G01*
X-1041196Y153606D03*
D31*
G01*
X-1076540Y188963D03*
G01*
X-1111897Y224320D03*
G01*
X-1147254Y259676D03*
G01*
X-1182611Y295033D03*
G01*
X-1217968Y330390D03*
G01*
X-1253324Y365747D03*
G01*
X-1288681Y401104D03*
D32*
G01*
X-1324038Y436448D03*
D34*
G01*
X-1447787Y-76200D03*
D19*
G01*
X-939800Y-852500D03*
G01*
X-939800Y-1052499D03*
D35*
G01*
X-2095500Y1231900D03*
G01*
X-1714500Y1231900D03*
G01*
X-2095500Y914400D03*
G01*
X-1714500Y914400D03*
D23*
G01*
X1066012Y88900D03*
G01*
X966012Y88900D03*
D36*
G01*
X-922020Y1968500D03*
G01*
X-830579Y1968500D03*
M02*
