M48
METRIC,LZ,000.000
;FILE_FORMAT=3:3
;TYPE=PLATED
;Layer: PTH_Through
;EasyEDA v6.5.39, 2024-01-09 23:26:39
;412fee2aba674f6794ce960f83f023ec,7c1e8d740ba24e6f83eb2d53d3341807,10
;Gerber Generator version 0.2
;Holesize 1 = 0.310 mm
T01C0.310
;Holesize 2 = 0.889 mm
T02C0.889
;Holesize 3 = 0.915 mm
T03C0.915
;Holesize 4 = 1.101 mm
T04C1.101
;Holesize 5 = 1.200 mm
T05C1.200
;Holesize 6 = 1.800 mm
T06C1.800
;Holesize 7 = 2.000 mm
T07C2.000
;Holesize 8 = 2.600 mm
T08C2.600
%
G05
G90
T01
X013081Y-022603
X000686Y-022941
X-008763Y-022603
X-007112Y-027813
X-010414Y-027813
X-007112Y-024511
X-010414Y-024511
X003810Y-027686
X000508Y-027686
X003810Y-024384
X000508Y-024384
X014732Y-027686
X011430Y-027686
X014732Y-024384
X011430Y-024384
X012065Y014554
X012065Y014097
X040259Y017272
X037211Y008509
X036703Y018288
X037084Y013335
X036957Y016256
X042672Y019558
X023622Y001651
T02
X033274Y009779
X033274Y007239
X033274Y004699
X020193Y005461
X020193Y002921
X017653Y002921
X020193Y008001
X018034Y-005588
X018034Y-010668
X011303Y-020825
X-001430Y-020825
X-010541Y-020825
X020574Y-010668
X020574Y-003048
X018034Y-008128
X018034Y-003048
X020574Y-005588
X020574Y-008128
X017653Y005461
X017653Y008001
X-008763Y-020320
X-003175Y-020320
X013081Y-020320
X017653Y010541
X017653Y013081
X020193Y013080
X020193Y010541
T03
X030734Y022479
X030734Y019939
X030734Y017399
X030734Y014859
X030734Y012319
X030734Y009779
X030734Y007239
X030734Y004699
T04
X040433Y-012788
X040433Y-023788
T05
X029373Y-007187
X029373Y-000687
X033873Y-007187
X033873Y-000687
X037755Y-007314
X037755Y-000814
X042255Y-007314
X042255Y-000814
T06
X030433Y-020788
X030433Y-015788
T07
X-008763Y-026162
X002159Y-026035
X013081Y-026035
T08
X041783Y-027432
X041783Y027940
X-021463Y027813
X-021590Y-027432
M30
