M48
METRIC,LZ,000.000
;FILE_FORMAT=3:3
;TYPE=PLATED
;Layer: PTH_Through
;EasyEDA v6.5.39, 2024-01-09 17:58:11
;1731ee7187ce4ff3998c1f3127dcefb7,7c1e8d740ba24e6f83eb2d53d3341807,10
;Gerber Generator version 0.2
;Holesize 1 = 0.310 mm
T01C0.310
;Holesize 2 = 0.889 mm
T02C0.889
;Holesize 3 = 0.915 mm
T03C0.915
;Holesize 4 = 1.889 mm
T04C1.889
;Holesize 5 = 1.901 mm
T05C1.901
%
G05
G90
T01
X034798Y-012954
X033401Y014097
X033401Y011049
X030480Y009017
X030988Y-004318
X032004Y-004318
X032893Y-005080
X035687Y015367
X035687Y007747
X030226Y-014605
X032258Y-012954
X033528Y-012954
X035560Y005461
X035560Y004699
X035560Y003937
X035560Y001651
X035560Y002413
X035560Y003175
X035560Y000127
X035560Y000889
X030988Y006350
X030988Y005588
X030988Y004826
X030988Y004064
X030988Y003302
X031750Y005969
X031750Y005207
X031750Y004445
X031750Y003683
X031750Y002921
X031750Y001397
X031750Y002159
X030988Y002540
X030988Y001778
X034798Y-015240
X030480Y010033
X022860Y008890
X018161Y000381
X027940Y-007493
X027305Y-006858
X030099Y-012192
X017399Y000381
X036322Y005080
X036322Y004318
X036322Y003556
X036322Y002794
X036322Y002032
X036322Y001270
X036322Y000508
X036322Y-000254
T02
X017653Y002921
X020193Y002921
X017653Y005461
X017653Y008001
X017653Y010541
X017653Y013081
X020193Y013081
X020193Y010541
X020193Y008001
X020193Y005461
X020574Y-005588
X020574Y-003048
X018034Y-005588
X018034Y-003048
X020574Y-010668
X020574Y-008128
X018034Y-010668
X018034Y-008128
T03
X026285Y012965
X028285Y012965
X026285Y-004035
X028285Y-004035
T04
X019304Y-009398
X019304Y-004318
T05
X025055Y004035
X025055Y009115
X025055Y-012965
X025055Y-007885
M30
