G04 Layer: BottomLayer*
G04 EasyEDA v6.5.39, 2024-01-09 17:58:11*
G04 1731ee7187ce4ff3998c1f3127dcefb7,7c1e8d740ba24e6f83eb2d53d3341807,10*
G04 Gerber Generator version 0.2*
G04 Scale: 100 percent, Rotated: No, Reflected: No *
G04 Dimensions in millimeters *
G04 leading zeros omitted , absolute positions ,4 integer and 5 decimal *
%FSLAX45Y45*%
%MOMM*%

%AMMACRO1*21,1,$1,$2,0,0,$3*%
%ADD10C,2.0000*%
%ADD11C,0.5000*%
%ADD12C,0.6000*%
%ADD13C,1.0000*%
%ADD14C,2.5000*%
%ADD15C,0.8000*%
%ADD16MACRO1,0.5X0.8X90.0000*%
%ADD17MACRO1,1.728X1.485X90.0000*%
%ADD18MACRO1,0.6X1.55X-90.0000*%
%ADD19MACRO1,1.5X2X-90.0000*%
%ADD20R,1.3770X1.1325*%
%ADD21MACRO1,1.377X1.1325X0.0000*%
%ADD22MACRO1,0.635X1.27X-90.0000*%
%ADD23O,0.5684012X1.950212*%
%ADD24C,1.5748*%
%ADD25R,1.5748X1.5748*%
%ADD26R,4.0000X4.0000*%
%ADD27C,2.8000*%
%ADD28C,1.5240*%
%ADD29C,1.5700*%
%ADD30C,0.6200*%
%ADD31C,0.0187*%

%LPD*%
G36*
X2513279Y-1663192D02*
G01*
X2509469Y-1662430D01*
X2504694Y-1660499D01*
X2498902Y-1659585D01*
X2479446Y-1658670D01*
X2461260Y-1656080D01*
X2443378Y-1651812D01*
X2425954Y-1645920D01*
X2409139Y-1638452D01*
X2393137Y-1629460D01*
X2377998Y-1619046D01*
X2363876Y-1607261D01*
X2350871Y-1594256D01*
X2339187Y-1580083D01*
X2328824Y-1564894D01*
X2319934Y-1548790D01*
X2312517Y-1531975D01*
X2306726Y-1514500D01*
X2302560Y-1496618D01*
X2300071Y-1478381D01*
X2299208Y-1459687D01*
X2299208Y-1409903D01*
X2297988Y-1385163D01*
X2294636Y-1362252D01*
X2289200Y-1339748D01*
X2282748Y-1320342D01*
X2273503Y-1299108D01*
X2262327Y-1278788D01*
X2247696Y-1257401D01*
X2234641Y-1241704D01*
X2216302Y-1223365D01*
X2198370Y-1208684D01*
X2181555Y-1197102D01*
X2161336Y-1185722D01*
X2146198Y-1178915D01*
X2142693Y-1176324D01*
X2140559Y-1172514D01*
X2140254Y-1168146D01*
X2141778Y-1164082D01*
X2144877Y-1161034D01*
X2146503Y-1160018D01*
X2150618Y-1155903D01*
X2153666Y-1151026D01*
X2155596Y-1145540D01*
X2156307Y-1139240D01*
X2156307Y-1046175D01*
X2036775Y-1046175D01*
X2036775Y-1145032D01*
X2035962Y-1148943D01*
X2033778Y-1152194D01*
X2030475Y-1154430D01*
X2026615Y-1155192D01*
X1834235Y-1155192D01*
X1830324Y-1154430D01*
X1827022Y-1152194D01*
X1824837Y-1148943D01*
X1824075Y-1145032D01*
X1824075Y-1046175D01*
X1704492Y-1046175D01*
X1704492Y-1139240D01*
X1705000Y-1143914D01*
X1704593Y-1148130D01*
X1702511Y-1151788D01*
X1699056Y-1154328D01*
X1694942Y-1155192D01*
X1661668Y-1155192D01*
X1657756Y-1154430D01*
X1654505Y-1152194D01*
X1652270Y-1148943D01*
X1651507Y-1145032D01*
X1651507Y-734060D01*
X1652270Y-730148D01*
X1654505Y-726897D01*
X1657756Y-724662D01*
X1661668Y-723900D01*
X1694992Y-723900D01*
X1699107Y-724763D01*
X1702562Y-727303D01*
X1704644Y-730961D01*
X1705051Y-735177D01*
X1704492Y-740359D01*
X1704492Y-833475D01*
X1824075Y-833475D01*
X1824075Y-734060D01*
X1824837Y-730148D01*
X1827022Y-726897D01*
X1830324Y-724662D01*
X1834235Y-723900D01*
X2026615Y-723900D01*
X2030475Y-724662D01*
X2033778Y-726897D01*
X2035962Y-730148D01*
X2036775Y-734060D01*
X2036775Y-833475D01*
X2156307Y-833475D01*
X2156307Y-796544D01*
X2157069Y-792632D01*
X2159304Y-789330D01*
X2162556Y-787146D01*
X2166467Y-786384D01*
X2170379Y-787146D01*
X2173630Y-789330D01*
X2578862Y-1194562D01*
X2581046Y-1197864D01*
X2581859Y-1201775D01*
X2581859Y-1220165D01*
X2600248Y-1220165D01*
X2604109Y-1220927D01*
X2607411Y-1223111D01*
X2714802Y-1330502D01*
X2717038Y-1333804D01*
X2717800Y-1337716D01*
X2717800Y-1494383D01*
X2717038Y-1498295D01*
X2714802Y-1501597D01*
X2705811Y-1510588D01*
X2705100Y-1512316D01*
X2705100Y-1653032D01*
X2704338Y-1656943D01*
X2702102Y-1660194D01*
X2698851Y-1662430D01*
X2694940Y-1663192D01*
G37*

%LPC*%
G36*
X2429154Y-1443736D02*
G01*
X2429154Y-1372819D01*
X2358390Y-1372819D01*
X2364841Y-1384503D01*
X2375001Y-1398930D01*
X2386634Y-1412240D01*
X2399588Y-1424178D01*
X2413812Y-1434744D01*
G37*
G36*
X2581859Y-1443736D02*
G01*
X2597200Y-1434744D01*
X2611374Y-1424178D01*
X2624328Y-1412240D01*
X2635961Y-1398930D01*
X2646121Y-1384503D01*
X2652572Y-1372819D01*
X2581859Y-1372819D01*
G37*
G36*
X2358390Y-1220165D02*
G01*
X2429154Y-1220165D01*
X2429154Y-1149451D01*
X2421280Y-1153566D01*
X2406548Y-1163320D01*
X2392984Y-1174597D01*
X2380640Y-1187246D01*
X2369718Y-1201115D01*
X2360371Y-1216101D01*
G37*

%LPD*%
D10*
X3581400Y520700D02*
G01*
X3581400Y25400D01*
X3124200Y609600D02*
G01*
X3175000Y596900D01*
X3175000Y520700D01*
D11*
X1765300Y1054100D02*
G01*
X1892300Y927100D01*
X2108200Y927100D01*
X2184400Y1003300D01*
X2184400Y1104900D01*
X2552700Y1473200D01*
X2882900Y1473200D01*
X2971800Y1384300D01*
X2971800Y1308100D01*
X3074161Y1205737D01*
X3184397Y1205737D01*
D10*
X1930400Y-431800D02*
G01*
X1930400Y-266700D01*
X2235200Y38100D01*
X2235200Y546862D01*
X2501645Y811529D01*
X2501900Y914400D01*
X1854200Y-939800D02*
G01*
X1993900Y-939800D01*
X2260600Y-673100D01*
X2260600Y-330200D01*
X2501900Y-88900D01*
X2501900Y406400D01*
D12*
X2828543Y-403605D02*
G01*
X2828543Y-517144D01*
X3352800Y-1041400D01*
X3352800Y-1134110D01*
X2628391Y-403605D02*
G01*
X2628391Y-443992D01*
X3225800Y-1041400D01*
X3225800Y-1134110D01*
D13*
X3340100Y1409700D02*
G01*
X3568700Y1181100D01*
X3568700Y774700D01*
X3340100Y1409700D02*
G01*
X3467100Y1536700D01*
X3568700Y1536700D01*
D11*
X1765300Y1308100D02*
G01*
X1892300Y1181100D01*
X2108200Y1181100D01*
X2489200Y1562100D01*
X2933700Y1562100D01*
X3048000Y1447800D01*
X3048000Y1358900D01*
X3101086Y1305813D01*
X3184397Y1305813D01*
D14*
X3505200Y457200D02*
G01*
X3505200Y-190500D01*
X3175000Y457200D02*
G01*
X3175000Y-190500D01*
D11*
X2857500Y-1033779D02*
G01*
X2938785Y-1033779D01*
X3009900Y-1104894D01*
X3009900Y-1219200D01*
D12*
X3098800Y-1134107D02*
G01*
X3098800Y-1054100D01*
X2730500Y-685800D01*
X3098800Y-1134110D02*
G01*
X3098800Y-1371854D01*
X3150108Y-1423162D01*
X3225800Y-1423162D01*
D11*
X1765300Y546100D02*
G01*
X1892300Y673100D01*
X2095500Y673100D01*
X2286000Y863600D01*
X2286000Y889000D01*
D15*
X2628900Y1295400D02*
G01*
X2628900Y1130300D01*
X2743200Y1016000D01*
X2743200Y-127000D01*
X2628391Y-241807D01*
X2628391Y-403605D01*
X2832100Y1295400D02*
G01*
X2832100Y1130300D01*
X2895600Y1066800D01*
X2895600Y-190500D01*
X2828543Y-257555D01*
X2828543Y-403605D01*
D11*
X3200400Y-431800D02*
G01*
X3390900Y-431800D01*
X3479800Y-520700D01*
X3479800Y-593092D01*
X3098800Y-431800D02*
G01*
X3098800Y-533400D01*
X3098800Y-596900D01*
D12*
X3479800Y-1295400D02*
G01*
X3479800Y-1524000D01*
X3352800Y-1134107D02*
G01*
X3352800Y-1295400D01*
D11*
X3225800Y-1134107D02*
G01*
X3225800Y-1295400D01*
X3289300Y-508000D02*
G01*
X3225800Y-571500D01*
X3225800Y-593092D01*
X3289300Y-508000D02*
G01*
X3352800Y-571500D01*
X3352800Y-593092D01*
X3048000Y901700D02*
G01*
X3098805Y901700D01*
X3102792Y905687D01*
X3184451Y905687D01*
D12*
X3048000Y1003300D02*
G01*
X3182063Y1003300D01*
X3184451Y1005687D01*
X3479800Y-1134107D02*
G01*
X3479800Y-1295400D01*
D11*
X3184451Y1405686D02*
G01*
X3188461Y1409700D01*
X3340100Y1409700D01*
X3340100Y1104900D02*
G01*
X3339312Y1105687D01*
X3184451Y1105687D01*
X2857500Y-1125220D02*
G01*
X2857500Y-1309700D01*
X2857500Y-1509699D02*
G01*
X2906699Y-1460500D01*
X3022600Y-1460500D01*
D12*
X3225800Y-1423187D02*
G01*
X3365500Y-1423187D01*
X3365500Y-1423187D01*
X3479800Y-1524000D02*
G01*
X3478987Y-1523187D01*
X3365500Y-1523187D01*
X3365500Y-1523187D02*
G01*
X3365500Y-1523187D01*
X3225800Y-1523187D01*
D16*
G01*
X3365492Y-1523191D03*
G01*
X3365492Y-1423191D03*
D17*
G01*
X3180849Y241300D03*
G01*
X3499350Y241300D03*
G01*
X3180849Y25400D03*
G01*
X3499350Y25400D03*
G01*
X3180849Y-190500D03*
G01*
X3499350Y-190500D03*
G01*
X3180849Y457200D03*
G01*
X3499350Y457200D03*
D18*
G01*
X3184448Y1405694D03*
G01*
X3184448Y1305694D03*
G01*
X3184448Y1205694D03*
G01*
X3184448Y1105695D03*
G01*
X3184448Y1005695D03*
G01*
X3184448Y905695D03*
D19*
G01*
X3571948Y775704D03*
G01*
X3571948Y1535692D03*
D16*
G01*
X3225792Y-1523191D03*
G01*
X3225792Y-1423191D03*
D20*
G01*
X2857500Y-1309700D03*
D21*
G01*
X2857500Y-1509704D03*
D22*
G01*
X2857500Y-1033779D03*
G01*
X2857500Y-1125220D03*
D23*
G01*
X3098800Y-593089D03*
G01*
X3225800Y-593089D03*
G01*
X3352800Y-593089D03*
G01*
X3479800Y-593089D03*
G01*
X3098800Y-1134110D03*
G01*
X3225800Y-1134110D03*
G01*
X3352800Y-1134110D03*
G01*
X3479800Y-1134110D03*
D24*
G01*
X1765300Y292100D03*
G01*
X2019300Y292100D03*
G01*
X1765297Y546097D03*
G01*
X1765297Y800097D03*
D25*
G01*
X1765297Y1054097D03*
G01*
X1765297Y1308097D03*
G01*
X2019300Y1308100D03*
D24*
G01*
X2019300Y1054100D03*
G01*
X2019300Y800100D03*
G01*
X2019300Y546100D03*
D26*
G01*
X1930400Y-939800D03*
G01*
X1930400Y-431800D03*
D27*
G01*
X2505506Y403491D03*
G01*
X2505506Y911491D03*
D28*
G01*
X2628518Y1296504D03*
G01*
X2828518Y1296504D03*
D27*
G01*
X2505506Y-1296504D03*
G01*
X2505506Y-788504D03*
D28*
G01*
X2628518Y-403491D03*
G01*
X2828518Y-403491D03*
D29*
G01*
X2057400Y-558800D03*
G01*
X2057400Y-304800D03*
G01*
X1803400Y-558800D03*
G01*
X1803400Y-304800D03*
G01*
X2057400Y-1066800D03*
G01*
X2057400Y-812800D03*
G01*
X1803400Y-1066800D03*
G01*
X1803400Y-812800D03*
D30*
G01*
X3479800Y-1295400D03*
G01*
X3340100Y1409700D03*
G01*
X3340100Y1104900D03*
G01*
X3048000Y901700D03*
G01*
X3098800Y-431800D03*
G01*
X3200400Y-431800D03*
G01*
X3289300Y-508000D03*
G01*
X3568700Y1536700D03*
G01*
X3568700Y774700D03*
G01*
X3022600Y-1460500D03*
G01*
X3225800Y-1295400D03*
G01*
X3352800Y-1295400D03*
G01*
X3556000Y546100D03*
G01*
X3556000Y469900D03*
G01*
X3556000Y393700D03*
G01*
X3556000Y165100D03*
G01*
X3556000Y241300D03*
G01*
X3556000Y317500D03*
G01*
X3556000Y12700D03*
G01*
X3556000Y88900D03*
G01*
X3098800Y635000D03*
G01*
X3098800Y558800D03*
G01*
X3098800Y482600D03*
G01*
X3098800Y406400D03*
G01*
X3098800Y330200D03*
G01*
X3175000Y596900D03*
G01*
X3175000Y520700D03*
G01*
X3175000Y444500D03*
G01*
X3175000Y368300D03*
G01*
X3175000Y292100D03*
G01*
X3175000Y139700D03*
G01*
X3175000Y215900D03*
G01*
X3098800Y254000D03*
G01*
X3098800Y177800D03*
G01*
X3479800Y-1524000D03*
G01*
X3048000Y1003300D03*
G01*
X2286000Y889000D03*
G01*
X1816100Y38100D03*
G01*
X2794000Y-749300D03*
G01*
X2730500Y-685800D03*
G01*
X3009900Y-1219200D03*
G01*
X1739900Y38100D03*
G01*
X3632200Y508000D03*
G01*
X3632200Y431800D03*
G01*
X3632200Y355600D03*
G01*
X3632200Y279400D03*
G01*
X3632200Y203200D03*
G01*
X3632200Y127000D03*
G01*
X3632200Y50800D03*
G01*
X3632200Y-25400D03*
M02*
