M48
METRIC,LZ,000.000
;FILE_FORMAT=3:3
;TYPE=PLATED
;Layer: PTH_Through
;EasyEDA v6.5.39, 2024-01-09 17:58:11
;513add75e8284d268c780af8c863d2b6,7c1e8d740ba24e6f83eb2d53d3341807,10
;Gerber Generator version 0.2
;Holesize 1 = 0.310 mm
T01C0.310
;Holesize 2 = 0.889 mm
T02C0.889
;Holesize 3 = 1.101 mm
T03C1.101
;Holesize 4 = 1.200 mm
T04C1.200
%
G05
G90
T01
X-002540Y-006858
T02
X-001270Y-016383
X-001270Y-013843
X-001270Y-011303
X-001270Y-008763
X001270Y-008763
X001270Y-011303
X001270Y-013843
X001270Y-016383
X-005080Y016637
X-002540Y016637
X000000Y016637
X002540Y016637
X005080Y016637
T03
X-002540Y014097
X000000Y014097
X002540Y014097
X005080Y014097
T04
X-003250Y009235
X003250Y009235
X-003250Y004735
X003250Y004735
X-003250Y001361
X003250Y001361
X-003250Y-003139
X003250Y-003139
M30
