G04 Layer: BottomLayer*
G04 EasyEDA v6.5.39, 2024-01-09 17:58:11*
G04 513add75e8284d268c780af8c863d2b6,7c1e8d740ba24e6f83eb2d53d3341807,10*
G04 Gerber Generator version 0.2*
G04 Scale: 100 percent, Rotated: No, Reflected: No *
G04 Dimensions in millimeters *
G04 leading zeros omitted , absolute positions ,4 integer and 5 decimal *
%FSLAX45Y45*%
%MOMM*%

%AMMACRO1*21,1,$1,$2,0,0,$3*%
%ADD10C,0.5000*%
%ADD11MACRO1,1.5748X1.5748X90.0000*%
%ADD12C,1.5748*%
%ADD13MACRO1,1.5748X1.5748X-90.0000*%
%ADD14R,1.5748X1.5748*%
%ADD15R,1.7000X1.5748*%
%ADD16C,1.7000*%
%ADD17C,1.8000*%
%ADD18C,0.6200*%

%LPD*%
D10*
X0Y1663700D02*
G01*
X-127000Y1536700D01*
X-127000Y-876300D01*
X-254000Y-685800D02*
G01*
X-520700Y-419100D01*
X-520700Y292100D01*
X-339293Y473506D01*
X-324993Y473506D01*
X-324993Y473506D02*
G01*
X-508000Y656513D01*
X-508000Y1092200D01*
X-254000Y1346200D01*
X-254000Y1409700D01*
X254000Y1663700D02*
G01*
X127000Y1536700D01*
X127000Y1295400D01*
X0Y1168400D01*
X0Y-1041400D01*
X-88900Y-1130300D01*
X-127000Y-1130300D01*
X324865Y136144D02*
G01*
X324865Y-18034D01*
X127000Y-215900D01*
X127000Y-876300D01*
D11*
G01*
X-127000Y-1638300D03*
D12*
G01*
X-127000Y-1384300D03*
G01*
X-127000Y-1130300D03*
G01*
X-127000Y-876300D03*
D13*
G01*
X127000Y-876300D03*
D12*
G01*
X127000Y-1130300D03*
G01*
X127000Y-1384300D03*
G01*
X127000Y-1638300D03*
G01*
X-508000Y1663700D03*
G01*
X-254000Y1663700D03*
G01*
X0Y1663700D03*
G01*
X254000Y1663700D03*
D14*
G01*
X508000Y1663700D03*
D15*
G01*
X-254000Y1409700D03*
D16*
G01*
X0Y1409700D03*
D17*
G01*
X-324993Y923493D03*
G01*
X324993Y923493D03*
G01*
X-324993Y473506D03*
G01*
X324993Y473506D03*
G01*
X-324993Y136093D03*
G01*
X324993Y136093D03*
G01*
X-324993Y-313893D03*
G01*
X324993Y-313893D03*
D15*
G01*
X254000Y1409700D03*
D16*
G01*
X508000Y1409700D03*
D18*
G01*
X-254000Y-685800D03*
M02*
