G04 Layer: BottomSilkscreenLayer*
G04 EasyEDA v6.5.39, 2024-01-09 17:58:11*
G04 513add75e8284d268c780af8c863d2b6,7c1e8d740ba24e6f83eb2d53d3341807,10*
G04 Gerber Generator version 0.2*
G04 Scale: 100 percent, Rotated: No, Reflected: No *
G04 Dimensions in millimeters *
G04 leading zeros omitted , absolute positions ,4 integer and 5 decimal *
%FSLAX45Y45*%
%MOMM*%

%ADD10C,0.2032*%
%ADD11C,0.2500*%
%ADD12C,0.2540*%
%ADD13C,0.2030*%
%ADD14C,0.7500*%
%ADD15C,0.0107*%

%LPD*%
D10*
X602782Y1078981D02*
G01*
X565282Y1078981D01*
X585736Y1051709D01*
X575508Y1051709D01*
X568690Y1048298D01*
X565282Y1044889D01*
X561873Y1034663D01*
X561873Y1027846D01*
X565282Y1017617D01*
X572099Y1010800D01*
X582328Y1007391D01*
X592554Y1007391D01*
X602782Y1010800D01*
X606191Y1014209D01*
X609600Y1021026D01*
X539374Y1078981D02*
G01*
X512099Y1007391D01*
X484827Y1078981D02*
G01*
X512099Y1007391D01*
X455508Y1078981D02*
G01*
X418010Y1078981D01*
X438464Y1051709D01*
X428236Y1051709D01*
X421419Y1048298D01*
X418010Y1044889D01*
X414601Y1034663D01*
X414601Y1027846D01*
X418010Y1017617D01*
X424827Y1010800D01*
X435053Y1007391D01*
X445282Y1007391D01*
X455508Y1010800D01*
X458919Y1014209D01*
X462328Y1021026D01*
X331736Y1104381D02*
G01*
X331736Y1032791D01*
X355600Y1104381D02*
G01*
X307873Y1104381D01*
X285374Y1104381D02*
G01*
X237644Y1032791D01*
X237644Y1104381D02*
G01*
X285374Y1032791D01*
X194690Y1104381D02*
G01*
X204919Y1100973D01*
X211736Y1090744D01*
X215145Y1073698D01*
X215145Y1063472D01*
X211736Y1046426D01*
X204919Y1036200D01*
X194690Y1032791D01*
X187873Y1032791D01*
X177645Y1036200D01*
X170827Y1046426D01*
X167419Y1063472D01*
X167419Y1073698D01*
X170827Y1090744D01*
X177645Y1100973D01*
X187873Y1104381D01*
X194690Y1104381D01*
X101600Y1066281D02*
G01*
X101600Y994691D01*
X101600Y1066281D02*
G01*
X70919Y1066281D01*
X60690Y1062873D01*
X57282Y1059464D01*
X53873Y1052644D01*
X53873Y1045827D01*
X57282Y1039009D01*
X60690Y1035598D01*
X70919Y1032189D01*
X101600Y1032189D01*
X77736Y1032189D02*
G01*
X53873Y994691D01*
X31374Y1066281D02*
G01*
X-16355Y994691D01*
X-16355Y1066281D02*
G01*
X31374Y994691D01*
X-59309Y1066281D02*
G01*
X-49080Y1062873D01*
X-42263Y1052644D01*
X-38854Y1035598D01*
X-38854Y1025372D01*
X-42263Y1008326D01*
X-49080Y998100D01*
X-59309Y994691D01*
X-66126Y994691D01*
X-76354Y998100D01*
X-83172Y1008326D01*
X-86580Y1025372D01*
X-86580Y1035598D01*
X-83172Y1052644D01*
X-76354Y1062873D01*
X-66126Y1066281D01*
X-59309Y1066281D01*
X-203535Y1100035D02*
G01*
X-200126Y1106853D01*
X-193309Y1113673D01*
X-186491Y1117081D01*
X-172854Y1117081D01*
X-166037Y1113673D01*
X-159217Y1106853D01*
X-155808Y1100035D01*
X-152400Y1089809D01*
X-152400Y1072763D01*
X-155808Y1062535D01*
X-159217Y1055717D01*
X-166037Y1048900D01*
X-172854Y1045491D01*
X-186491Y1045491D01*
X-193309Y1048900D01*
X-200126Y1055717D01*
X-203535Y1062535D01*
X-203535Y1072763D01*
X-186491Y1072763D02*
G01*
X-203535Y1072763D01*
X-226037Y1117081D02*
G01*
X-226037Y1045491D01*
X-226037Y1117081D02*
G01*
X-273763Y1045491D01*
X-273763Y1117081D02*
G01*
X-273763Y1045491D01*
X-296263Y1117081D02*
G01*
X-296263Y1045491D01*
X-296263Y1117081D02*
G01*
X-320126Y1117081D01*
X-330354Y1113673D01*
X-337172Y1106853D01*
X-340580Y1100035D01*
X-343989Y1089809D01*
X-343989Y1072763D01*
X-340580Y1062535D01*
X-337172Y1055717D01*
X-330354Y1048900D01*
X-320126Y1045491D01*
X-296263Y1045491D01*
X-485409Y1078981D02*
G01*
X-451317Y1078981D01*
X-447908Y1048298D01*
X-451317Y1051709D01*
X-461545Y1055118D01*
X-471771Y1055118D01*
X-482000Y1051709D01*
X-488817Y1044889D01*
X-492226Y1034663D01*
X-492226Y1027846D01*
X-488817Y1017617D01*
X-482000Y1010800D01*
X-471771Y1007391D01*
X-461545Y1007391D01*
X-451317Y1010800D01*
X-447908Y1014209D01*
X-444500Y1021026D01*
X-514725Y1078981D02*
G01*
X-542000Y1007391D01*
X-569272Y1078981D02*
G01*
X-542000Y1007391D01*
X63500Y812281D02*
G01*
X63500Y740691D01*
X20546Y812281D02*
G01*
X27363Y808873D01*
X34180Y802053D01*
X37592Y795235D01*
X41000Y785009D01*
X41000Y767963D01*
X37592Y757735D01*
X34180Y750917D01*
X27363Y744100D01*
X20546Y740691D01*
X6908Y740691D01*
X91Y744100D01*
X-6725Y750917D01*
X-10137Y757735D01*
X-13545Y767963D01*
X-13545Y785009D01*
X-10137Y795235D01*
X-6725Y802053D01*
X91Y808873D01*
X6908Y812281D01*
X20546Y812281D01*
X-56499Y812281D02*
G01*
X-46273Y808873D01*
X-39453Y798644D01*
X-36045Y781598D01*
X-36045Y771372D01*
X-39453Y754326D01*
X-46273Y744100D01*
X-56499Y740691D01*
X-63317Y740691D01*
X-73545Y744100D01*
X-80363Y754326D01*
X-83771Y771372D01*
X-83771Y781598D01*
X-80363Y798644D01*
X-73545Y808873D01*
X-63317Y812281D01*
X-56499Y812281D01*
X-165100Y786881D02*
G01*
X-165100Y715291D01*
X-165100Y786881D02*
G01*
X-195780Y786881D01*
X-206009Y783473D01*
X-209417Y780064D01*
X-212826Y773244D01*
X-212826Y766427D01*
X-209417Y759609D01*
X-206009Y756198D01*
X-195780Y752789D01*
X-165100Y752789D01*
X-188963Y752789D02*
G01*
X-212826Y715291D01*
X-235325Y786881D02*
G01*
X-235325Y715291D01*
X-235325Y786881D02*
G01*
X-279646Y786881D01*
X-235325Y752789D02*
G01*
X-262600Y752789D01*
X-235325Y715291D02*
G01*
X-279646Y715291D01*
X-349872Y776653D02*
G01*
X-343054Y783473D01*
X-332826Y786881D01*
X-319191Y786881D01*
X-308963Y783473D01*
X-302145Y776653D01*
X-302145Y769835D01*
X-305554Y763018D01*
X-308963Y759609D01*
X-315780Y756198D01*
X-336235Y749381D01*
X-343054Y745972D01*
X-346463Y742563D01*
X-349872Y735746D01*
X-349872Y725517D01*
X-343054Y718700D01*
X-332826Y715291D01*
X-319191Y715291D01*
X-308963Y718700D01*
X-302145Y725517D01*
X590082Y863081D02*
G01*
X552582Y863081D01*
X573036Y835809D01*
X562808Y835809D01*
X555990Y832398D01*
X552582Y828989D01*
X549173Y818763D01*
X549173Y811946D01*
X552582Y801717D01*
X559399Y794900D01*
X569628Y791491D01*
X579854Y791491D01*
X590082Y794900D01*
X593491Y798309D01*
X596900Y805126D01*
X526674Y863081D02*
G01*
X499399Y791491D01*
X472127Y863081D02*
G01*
X499399Y791491D01*
X442808Y863081D02*
G01*
X405310Y863081D01*
X425764Y835809D01*
X415536Y835809D01*
X408719Y832398D01*
X405310Y828989D01*
X401901Y818763D01*
X401901Y811946D01*
X405310Y801717D01*
X412127Y794900D01*
X422353Y791491D01*
X432582Y791491D01*
X442808Y794900D01*
X446219Y798309D01*
X449628Y805126D01*
X482600Y774181D02*
G01*
X482600Y702591D01*
X482600Y740089D02*
G01*
X475782Y746909D01*
X468962Y750318D01*
X458736Y750318D01*
X451919Y746909D01*
X445099Y740089D01*
X441690Y729863D01*
X441690Y723046D01*
X445099Y712817D01*
X451919Y706000D01*
X458736Y702591D01*
X468962Y702591D01*
X475782Y706000D01*
X482600Y712817D01*
X419191Y750318D02*
G01*
X419191Y702591D01*
X419191Y729863D02*
G01*
X415782Y740089D01*
X408962Y746909D01*
X402145Y750318D01*
X391919Y750318D01*
X369417Y774181D02*
G01*
X366008Y770773D01*
X362600Y774181D01*
X366008Y777590D01*
X369417Y774181D01*
X366008Y750318D02*
G01*
X366008Y702591D01*
X299191Y774181D02*
G01*
X299191Y702591D01*
X299191Y740089D02*
G01*
X306009Y746909D01*
X312826Y750318D01*
X323054Y750318D01*
X329872Y746909D01*
X336692Y740089D01*
X340100Y729863D01*
X340100Y723046D01*
X336692Y712817D01*
X329872Y706000D01*
X323054Y702591D01*
X312826Y702591D01*
X306009Y706000D01*
X299191Y712817D01*
X235783Y750318D02*
G01*
X235783Y695772D01*
X239191Y685545D01*
X242600Y682137D01*
X249417Y678726D01*
X259646Y678726D01*
X266463Y682137D01*
X235783Y740089D02*
G01*
X242600Y746909D01*
X249417Y750318D01*
X259646Y750318D01*
X266463Y746909D01*
X273281Y740089D01*
X276692Y729863D01*
X276692Y723046D01*
X273281Y712817D01*
X266463Y706000D01*
X259646Y702591D01*
X249417Y702591D01*
X242600Y706000D01*
X235783Y712817D01*
X213281Y729863D02*
G01*
X172374Y729863D01*
X172374Y736681D01*
X175783Y743498D01*
X179191Y746909D01*
X186009Y750318D01*
X196237Y750318D01*
X203055Y746909D01*
X209872Y740089D01*
X213281Y729863D01*
X213281Y723046D01*
X209872Y712817D01*
X203055Y706000D01*
X196237Y702591D01*
X186009Y702591D01*
X179191Y706000D01*
X172374Y712817D01*
X584200Y-13218D02*
G01*
X584200Y-84808D01*
X584200Y-13218D02*
G01*
X560336Y-13218D01*
X550108Y-16626D01*
X543290Y-23446D01*
X539882Y-30264D01*
X536473Y-40490D01*
X536473Y-57536D01*
X539882Y-67764D01*
X543290Y-74582D01*
X550108Y-81400D01*
X560336Y-84808D01*
X584200Y-84808D01*
X473064Y-37081D02*
G01*
X473064Y-84808D01*
X473064Y-47310D02*
G01*
X479882Y-40490D01*
X486700Y-37081D01*
X496928Y-37081D01*
X503745Y-40490D01*
X510562Y-47310D01*
X513974Y-57536D01*
X513974Y-64353D01*
X510562Y-74582D01*
X503745Y-81400D01*
X496928Y-84808D01*
X486700Y-84808D01*
X479882Y-81400D01*
X473064Y-74582D01*
X409653Y-37081D02*
G01*
X409653Y-91627D01*
X413064Y-101854D01*
X416473Y-105262D01*
X423290Y-108673D01*
X433519Y-108673D01*
X440336Y-105262D01*
X409653Y-47310D02*
G01*
X416473Y-40490D01*
X423290Y-37081D01*
X433519Y-37081D01*
X440336Y-40490D01*
X447154Y-47310D01*
X450562Y-57536D01*
X450562Y-64353D01*
X447154Y-74582D01*
X440336Y-81400D01*
X433519Y-84808D01*
X423290Y-84808D01*
X416473Y-81400D01*
X409653Y-74582D01*
X370108Y-37081D02*
G01*
X376928Y-40490D01*
X383745Y-47310D01*
X387154Y-57536D01*
X387154Y-64353D01*
X383745Y-74582D01*
X376928Y-81400D01*
X370108Y-84808D01*
X359882Y-84808D01*
X353065Y-81400D01*
X346245Y-74582D01*
X342836Y-64353D01*
X342836Y-57536D01*
X346245Y-47310D01*
X353065Y-40490D01*
X359882Y-37081D01*
X370108Y-37081D01*
X320337Y-37081D02*
G01*
X320337Y-84808D01*
X320337Y-57536D02*
G01*
X316928Y-47310D01*
X310108Y-40490D01*
X303291Y-37081D01*
X293065Y-37081D01*
X190792Y-13218D02*
G01*
X218064Y-84808D01*
X190792Y-13218D02*
G01*
X163520Y-84808D01*
X207838Y-60944D02*
G01*
X173746Y-60944D01*
X141018Y-13218D02*
G01*
X141018Y-84808D01*
X118518Y-37081D02*
G01*
X118518Y-108673D01*
X118518Y-47310D02*
G01*
X111701Y-40490D01*
X104881Y-37081D01*
X94655Y-37081D01*
X87838Y-40490D01*
X81018Y-47310D01*
X77609Y-57536D01*
X77609Y-64353D01*
X81018Y-74582D01*
X87838Y-81400D01*
X94655Y-84808D01*
X104881Y-84808D01*
X111701Y-81400D01*
X118518Y-74582D01*
X55110Y-13218D02*
G01*
X55110Y-84808D01*
X55110Y-50718D02*
G01*
X44881Y-40490D01*
X38064Y-37081D01*
X27838Y-37081D01*
X21018Y-40490D01*
X17609Y-50718D01*
X17609Y-84808D01*
X-45798Y-37081D02*
G01*
X-45798Y-84808D01*
X-45798Y-47310D02*
G01*
X-38981Y-40490D01*
X-32161Y-37081D01*
X-21935Y-37081D01*
X-15118Y-40490D01*
X-8298Y-47310D01*
X-4889Y-57536D01*
X-4889Y-64353D01*
X-8298Y-74582D01*
X-15118Y-81400D01*
X-21935Y-84808D01*
X-32161Y-84808D01*
X-38981Y-81400D01*
X-45798Y-74582D01*
X50800Y-127518D02*
G01*
X50800Y-199108D01*
X50800Y-127518D02*
G01*
X20119Y-127518D01*
X9890Y-130926D01*
X6482Y-134335D01*
X3073Y-141155D01*
X3073Y-151381D01*
X6482Y-158200D01*
X9890Y-161610D01*
X20119Y-165018D01*
X50800Y-165018D01*
X-19425Y-151381D02*
G01*
X-19425Y-199108D01*
X-19425Y-171836D02*
G01*
X-22837Y-161610D01*
X-29654Y-154790D01*
X-36471Y-151381D01*
X-46699Y-151381D01*
X-86245Y-151381D02*
G01*
X-79425Y-154790D01*
X-72608Y-161610D01*
X-69199Y-171836D01*
X-69199Y-178653D01*
X-72608Y-188882D01*
X-79425Y-195700D01*
X-86245Y-199108D01*
X-96471Y-199108D01*
X-103291Y-195700D01*
X-110109Y-188882D01*
X-113517Y-178653D01*
X-113517Y-171836D01*
X-110109Y-161610D01*
X-103291Y-154790D01*
X-96471Y-151381D01*
X-86245Y-151381D01*
X-176926Y-151381D02*
G01*
X-176926Y-205927D01*
X-173517Y-216154D01*
X-170108Y-219562D01*
X-163291Y-222973D01*
X-153062Y-222973D01*
X-146245Y-219562D01*
X-176926Y-161610D02*
G01*
X-170108Y-154790D01*
X-163291Y-151381D01*
X-153062Y-151381D01*
X-146245Y-154790D01*
X-139425Y-161610D01*
X-136017Y-171836D01*
X-136017Y-178653D01*
X-139425Y-188882D01*
X-146245Y-195700D01*
X-153062Y-199108D01*
X-163291Y-199108D01*
X-170108Y-195700D01*
X-176926Y-188882D01*
X-199425Y-151381D02*
G01*
X-199425Y-199108D01*
X-199425Y-171836D02*
G01*
X-202836Y-161610D01*
X-209654Y-154790D01*
X-216471Y-151381D01*
X-226700Y-151381D01*
X-290108Y-151381D02*
G01*
X-290108Y-199108D01*
X-290108Y-161610D02*
G01*
X-283291Y-154790D01*
X-276471Y-151381D01*
X-266245Y-151381D01*
X-259425Y-154790D01*
X-252608Y-161610D01*
X-249199Y-171836D01*
X-249199Y-178653D01*
X-252608Y-188882D01*
X-259425Y-195700D01*
X-266245Y-199108D01*
X-276471Y-199108D01*
X-283291Y-195700D01*
X-290108Y-188882D01*
X-312607Y-151381D02*
G01*
X-312607Y-199108D01*
X-312607Y-165018D02*
G01*
X-322836Y-154790D01*
X-329653Y-151381D01*
X-339879Y-151381D01*
X-346699Y-154790D01*
X-350108Y-165018D01*
X-350108Y-199108D01*
X-350108Y-165018D02*
G01*
X-360334Y-154790D01*
X-367154Y-151381D01*
X-377380Y-151381D01*
X-384199Y-154790D01*
X-387609Y-165018D01*
X-387609Y-199108D01*
X-410108Y-151381D02*
G01*
X-410108Y-199108D01*
X-410108Y-165018D02*
G01*
X-420334Y-154790D01*
X-427154Y-151381D01*
X-437380Y-151381D01*
X-444200Y-154790D01*
X-447608Y-165018D01*
X-447608Y-199108D01*
X-447608Y-165018D02*
G01*
X-457835Y-154790D01*
X-464652Y-151381D01*
X-474880Y-151381D01*
X-481698Y-154790D01*
X-485106Y-165018D01*
X-485106Y-199108D01*
X-507608Y-171836D02*
G01*
X-548518Y-171836D01*
X-548518Y-165018D01*
X-545106Y-158200D01*
X-541698Y-154790D01*
X-534880Y-151381D01*
X-524652Y-151381D01*
X-517834Y-154790D01*
X-511017Y-161610D01*
X-507608Y-171836D01*
X-507608Y-178653D01*
X-511017Y-188882D01*
X-517834Y-195700D01*
X-524652Y-199108D01*
X-534880Y-199108D01*
X-541698Y-195700D01*
X-548518Y-188882D01*
X-571017Y-151381D02*
G01*
X-571017Y-199108D01*
X-571017Y-171836D02*
G01*
X-574426Y-161610D01*
X-581243Y-154790D01*
X-588063Y-151381D01*
X-598289Y-151381D01*
D11*
X-88900Y-469900D02*
G01*
X-304800Y-469900D01*
X-136397Y-638302D01*
X-4978Y-756920D01*
X76200Y-469900D02*
G01*
X281939Y-469900D01*
X-5079Y-756920D01*
D12*
X380011Y1168400D02*
G01*
X380011Y914400D01*
X-376908Y1168400D02*
G01*
X-376908Y660400D01*
X-125448Y1168400D02*
G01*
X-125448Y660400D01*
X129821Y660400D02*
G01*
X129821Y1168400D01*
X-635002Y1168400D02*
G01*
X634997Y1168400D01*
X634997Y914400D01*
X-635002Y914400D01*
X-635002Y1168400D01*
X-376908Y660400D02*
G01*
X634997Y660400D01*
X634997Y914400D01*
X-376905Y1282700D02*
G01*
X635000Y1282700D01*
X635000Y1536700D01*
X380014Y1790700D02*
G01*
X380014Y1282700D01*
X129824Y1282700D02*
G01*
X129824Y1790700D01*
X-376905Y1790700D02*
G01*
X-376905Y1282700D01*
X-125445Y1790700D02*
G01*
X-125445Y1282700D01*
X-635000Y1790700D02*
G01*
X635000Y1790700D01*
X635000Y1536700D01*
X-635000Y1536700D01*
X-635000Y1790700D01*
D10*
X0Y-749300D02*
G01*
X-254000Y-749300D01*
X-254000Y-1765300D01*
X0Y-1765300D01*
X0Y-1574800D01*
D13*
X0Y-749300D02*
G01*
X0Y-1574800D01*
D10*
X0Y-1765300D02*
G01*
X254000Y-1765300D01*
X254000Y-749300D01*
X0Y-749300D01*
X0Y-939800D01*
D13*
X0Y-1765300D02*
G01*
X0Y-939800D01*
D14*
G75*
G01
X88824Y-469900D02*
G03X88824Y-469900I-12700J0D01*
G75*
G01
X-76276Y-469900D02*
G03X-76276Y-469900I-12700J0D01*
M02*
