G04 Layer: TopLayer*
G04 EasyEDA v6.5.39, 2024-01-09 17:58:11*
G04 513add75e8284d268c780af8c863d2b6,7c1e8d740ba24e6f83eb2d53d3341807,10*
G04 Gerber Generator version 0.2*
G04 Scale: 100 percent, Rotated: No, Reflected: No *
G04 Dimensions in millimeters *
G04 leading zeros omitted , absolute positions ,4 integer and 5 decimal *
%FSLAX45Y45*%
%MOMM*%

%AMMACRO1*21,1,$1,$2,0,0,$3*%
%ADD10C,1.0000*%
%ADD11C,0.5000*%
%ADD12MACRO1,1.5748X1.5748X90.0000*%
%ADD13C,1.5748*%
%ADD14MACRO1,1.5748X1.5748X-90.0000*%
%ADD15R,1.5748X1.5748*%
%ADD16R,1.7000X1.5748*%
%ADD17C,1.7000*%
%ADD18C,1.8000*%
%ADD19C,0.6200*%

%LPD*%
D10*
X508000Y1663700D02*
G01*
X508000Y1409700D01*
D11*
X-324993Y-313893D02*
G01*
X-321386Y-317500D01*
X324993Y-313893D01*
X-127000Y-1384300D02*
G01*
X-254000Y-1257300D01*
X-254000Y-685800D01*
X-254000Y1663700D02*
G01*
X-469900Y1447800D01*
X-469900Y1320800D01*
X-324993Y1175893D01*
X-324993Y923493D01*
X-324993Y923493D02*
G01*
X324993Y923493D01*
X-324993Y136093D02*
G01*
X324993Y136093D01*
X254000Y1409700D02*
G01*
X571500Y1092200D01*
X571500Y-419100D01*
X254000Y-736600D01*
X254000Y-1003300D01*
X127000Y-1130300D01*
X0Y1409700D02*
G01*
X0Y1282700D01*
X76200Y1206500D01*
X317500Y1206500D01*
X482600Y1041400D01*
X482600Y-279400D01*
X448055Y-313944D01*
X324865Y-313944D01*
X-127000Y-1638300D02*
G01*
X0Y-1511300D01*
X0Y-647700D01*
X-324993Y-322706D01*
X-324993Y-313893D01*
X-324865Y923544D02*
G01*
X-495300Y753110D01*
X-495300Y306323D01*
X-324865Y136144D01*
X-324993Y473506D02*
G01*
X324993Y473506D01*
D12*
G01*
X-127000Y-1638300D03*
D13*
G01*
X-127000Y-1384300D03*
G01*
X-127000Y-1130300D03*
G01*
X-127000Y-876300D03*
D14*
G01*
X127000Y-876300D03*
D13*
G01*
X127000Y-1130300D03*
G01*
X127000Y-1384300D03*
G01*
X127000Y-1638300D03*
G01*
X-508000Y1663700D03*
G01*
X-254000Y1663700D03*
G01*
X0Y1663700D03*
G01*
X254000Y1663700D03*
D15*
G01*
X508000Y1663700D03*
D16*
G01*
X-254000Y1409700D03*
D17*
G01*
X0Y1409700D03*
D18*
G01*
X-324993Y923493D03*
G01*
X324993Y923493D03*
G01*
X-324993Y473506D03*
G01*
X324993Y473506D03*
G01*
X-324993Y136093D03*
G01*
X324993Y136093D03*
G01*
X-324993Y-313893D03*
G01*
X324993Y-313893D03*
D16*
G01*
X254000Y1409700D03*
D17*
G01*
X508000Y1409700D03*
D19*
G01*
X-254000Y-685800D03*
M02*
